<?xml version="1.0" encoding="UTF-8"?>
<svg width="20px" height="20px" viewBox="0 0 20 20" version="1.1" xmlns="http://www.w3.org/2000/svg" xmlns:xlink="http://www.w3.org/1999/xlink">
    <title>icon/新增节点</title>
    <g id="icon/新增节点" stroke="none" stroke-width="1" fill="none" fill-rule="evenodd">
        <path d="M1.66666667,10 C1.66666667,5.397625 5.397625,1.66666667 10,1.66666667 C14.602375,1.66666667 18.3333333,5.397625 18.3333333,10 C18.3333333,14.602375 14.602375,18.3333333 10,18.3333333 C5.397625,18.3333333 1.66666667,14.602375 1.66666667,10 C1.66666667,10 1.66666667,10 1.66666667,10 Z" id="形状" fill="#358AFF"></path>
        <path d="M10.8333333,9.16666667 C10.8333333,9.16666667 13.3332917,9.16666667 13.3332917,9.16666667 C13.3332917,9.16666667 13.3329167,10.8333333 13.3329167,10.8333333 C13.3329167,10.8333333 10.8333333,10.8333333 10.8333333,10.8333333 C10.8333333,10.8333333 10.8333333,13.3333333 10.8333333,13.3333333 C10.8333333,13.3333333 9.16666667,13.3333333 9.16666667,13.3333333 C9.16666667,13.3333333 9.16666667,10.8333333 9.16666667,10.8333333 C9.16666667,10.8333333 6.66670833,10.8333333 6.66670833,10.8333333 C6.66670833,10.8333333 6.66708333,9.16666667 6.66708333,9.16666667 C6.66708333,9.16666667 9.16666667,9.16666667 9.16666667,9.16666667 C9.16666667,9.16666667 9.16666667,6.66666667 9.16666667,6.66666667 C9.16666667,6.66666667 10.8333333,6.66666667 10.8333333,6.66666667 C10.8333333,6.66666667 10.8333333,9.16666667 10.8333333,9.16666667 Z" id="路径" fill="#FFFFFF"></path>
    </g>
</svg>