<?xml version="1.0" encoding="UTF-8"?>
<svg width="16px" height="16px" viewBox="0 0 16 16" version="1.1" xmlns="http://www.w3.org/2000/svg" xmlns:xlink="http://www.w3.org/1999/xlink">
    <title>icon/基础类/el-icon-view</title>
    <g id="icon/基础类/el-icon-view" stroke="none" stroke-width="1" fill="none" fill-rule="evenodd">
        <path d="M1.43337621,7.64873333 C3.27629354,4.67587667 5.45342688,3 7.99999354,3 C10.5465602,3 12.7236935,4.67587667 14.5666269,7.64873333 C14.5666269,7.64873333 14.7843602,8 14.7843602,8 C14.7843602,8 14.5666269,8.35126667 14.5666269,8.35126667 C12.7236935,11.3241333 10.5465602,13 7.99999354,13 C5.45342688,13 3.27629354,11.3241333 1.43337621,8.35126667 C1.43337621,8.35126667 1.21562688,8 1.21562688,8 C1.21562688,8 1.43337621,7.64873333 1.43337621,7.64873333 C1.43337621,7.64873333 1.43337621,7.64873333 1.43337621,7.64873333 Z M2.79023021,8 C4.46147354,10.5552333 6.20836021,11.6666667 7.99999354,11.6666667 C9.79162688,11.6666667 11.5385269,10.5552333 13.2097602,8 C11.5385269,5.44478333 9.79162688,4.33333333 7.99999354,4.33333333 C6.20836021,4.33333333 4.46147354,5.44478333 2.79023021,8 C2.79023021,8 2.79023021,8 2.79023021,8 Z M7.99999354,7 C7.44772688,7 6.99999354,7.4477 6.99999354,8 C6.99999354,8.5523 7.44772688,9 7.99999354,9 C8.55229354,9 8.99999354,8.5523 8.99999354,8 C8.99999354,7.4477 8.55229354,7 7.99999354,7 C7.99999354,7 7.99999354,7 7.99999354,7 Z M5.66666021,8 C5.66666021,6.71133333 6.71132688,5.66666667 7.99999354,5.66666667 C9.28866021,5.66666667 10.3333269,6.71133333 10.3333269,8 C10.3333269,9.28866667 9.28866021,10.3333333 7.99999354,10.3333333 C6.71132688,10.3333333 5.66666021,9.28866667 5.66666021,8 C5.66666021,8 5.66666021,8 5.66666021,8 Z" id="形状" fill="#999999"></path>
    </g>
</svg>