<?xml version="1.0" encoding="UTF-8"?>
<svg width="16px" height="16px" viewBox="0 0 16 16" version="1.1" xmlns="http://www.w3.org/2000/svg" xmlns:xlink="http://www.w3.org/1999/xlink">
    <title>AI图标-线性</title>
    <g id="AI图标-线性" stroke="none" stroke-width="1" fill="none" fill-rule="evenodd">
        <path d="M6.73634604,4.52537408 C6.90925619,4.57818416 7.04449661,4.7177964 7.09565299,4.89629611 L7.48073303,6.23599761 C7.83999769,7.48572278 8.78778288,8.46267374 9.99891384,8.8316693 L11.2875675,9.22450233 C11.5135771,9.29316234 11.6689517,9.507065 11.6694781,9.7502729 C11.6700019,9.99348081 11.5155524,10.2080963 11.2898416,10.2777957 L9.98451126,10.6815842 C8.78149406,11.0536858 7.84087744,12.0261799 7.48224909,13.268648 L7.09565299,14.607567 C7.02815504,14.8404544 6.8205948,15 6.58511874,15 C6.34964269,15 6.14208244,14.8404544 6.07458449,14.607567 L5.6879884,13.268648 C5.32936004,12.0261799 4.38874342,11.0536858 3.18572623,10.6815842 L1.87963787,10.2777957 C1.65392703,10.2080963 1.49947757,9.99348081 1.50000133,9.7502729 C1.50052776,9.507065 1.6559024,9.29316234 1.88191197,9.22450233 L3.1705656,8.8316693 C4.38198741,8.46290105 5.3300951,7.48591174 5.68950445,6.23599761 L6.07306843,4.89551357 C6.11326858,4.75562492 6.20565708,4.63795393 6.32990618,4.56839111 C6.45415528,4.49882829 6.60008529,4.48307291 6.735588,4.52459154 L6.73634604,4.52537408 Z M11.9652477,1.01022268 C12.0440348,1.03430097 12.1056582,1.09791649 12.1289825,1.17925044 L12.2813469,1.7098098 C12.5003495,2.47205591 13.078418,3.06792763 13.8171188,3.29287999 L14.326516,3.4478221 C14.4293785,3.47910196 14.5,3.57657913 14.5,3.6872781 C14.5,3.79797706 14.4293785,3.89545424 14.326516,3.92673409 L13.8080224,4.08715396 C13.0745615,4.31385132 12.500975,4.90656813 12.2821049,5.66396386 L12.1289825,6.19608828 C12.0981979,6.30200256 12.0037625,6.37453308 11.8966458,6.37453308 C11.7895292,6.37453308 11.6950938,6.30200256 11.6643092,6.19608828 L11.5111868,5.66396386 C11.2923167,4.90656813 10.7187302,4.31385132 9.98526928,4.08715396 L9.46601767,3.92673409 C9.36325258,3.89510884 9.29293798,3.79739287 9.29328711,3.68669282 C9.29363885,3.57599277 9.36457061,3.47875331 9.46753373,3.4478221 L9.9761729,3.29287999 C10.7148737,3.06792763 11.2929422,2.47205591 11.5119448,1.7098098 L11.6643092,1.17925044 C11.7023439,1.0469092 11.8369517,0.971304234 11.9652477,1.01022268 L11.9652477,1.01022268 Z" id="形状" stroke="#FFFFFF" stroke-width="1.33" fill-rule="nonzero"></path>
    </g>
</svg>