<?xml version="1.0" encoding="UTF-8"?>
<svg width="16px" height="16px" viewBox="0 0 16 16" version="1.1" xmlns="http://www.w3.org/2000/svg" xmlns:xlink="http://www.w3.org/1999/xlink">
    <title>icon/设计-黑色</title>
    <g id="icon/设计-黑色" stroke="none" stroke-width="1" fill="none" fill-rule="evenodd">
        <path d="M1.33333333,8 C1.33333333,4.3181 4.3181,1.33333333 8,1.33333333 C11.6819,1.33333333 14.6666667,4.3181 14.6666667,8 C14.6666667,11.6819 11.6819,14.6666667 8,14.6666667 C4.3181,14.6666667 1.33333333,11.6819 1.33333333,8 Z M8,2.66666667 C5.05446667,2.66666667 2.66666667,5.05446667 2.66666667,8 C2.66666667,10.9455333 5.05446667,13.3333333 8,13.3333333 C10.9455333,13.3333333 13.3333333,10.9455333 13.3333333,8 C13.3333333,5.05446667 10.9455333,2.66666667 8,2.66666667 Z" id="形状" fill="#1F1F1F"></path>
        <path d="M7.33333333,5.33333333 C7.33333333,5.33333333 5.33333333,5.33333333 5.33333333,5.33333333 C5.33333333,5.33333333 5.33333333,7.33333333 5.33333333,7.33333333 C5.33333333,7.33333333 7.33333333,7.33333333 7.33333333,7.33333333 C7.33333333,7.33333333 7.33333333,5.33333333 7.33333333,5.33333333 C7.33333333,5.33333333 7.33333333,5.33333333 7.33333333,5.33333333 Z" id="路径" fill="#1F1F1F"></path>
        <path d="M11.8284956,6.83763799 C11.9400281,7.2054772 12,7.595735 12,8 C12,10.209139 10.209139,12 8,12 C6.72582506,12 5.59079814,11.4042365 4.85828341,10.4760736 L5,10.3333333 L5.49333333,9.84 C6.13333333,9.2 6.66666667,8.66666667 6.66666667,8.66666667 C6.66666667,8.66666667 8.66666667,10 8.66666667,10 C8.66666667,10 8.69972452,9.96694215 8.7598297,9.90683696 Z" id="形状结合" fill="#1F1F1F"></path>
    </g>
</svg>