<?xml version="1.0" encoding="UTF-8"?>
<svg width="16px" height="16px" viewBox="0 0 16 16" version="1.1" xmlns="http://www.w3.org/2000/svg" xmlns:xlink="http://www.w3.org/1999/xlink">
    <title>icon/分享-黑</title>
    <g id="icon/分享-黑" stroke="none" stroke-width="1" fill="none" fill-rule="evenodd">
        <path d="M13.9427,5.33333333 C13.9427,5.33333333 10.4714,8.80473333 10.4714,8.80473333 C10.4714,8.80473333 9.5286,7.86196667 9.5286,7.86196667 C9.5286,7.86196667 11.3034333,6.08703333 11.3034333,6.08703333 C9.43776667,6.28086667 7.77573333,6.78746667 6.48153333,7.4953 C4.82549667,8.40103333 3.86864,9.57533333 3.69585,10.7627 C3.69585,10.7627 2.37641667,10.5706667 2.37641667,10.5706667 C2.63377333,8.8022 3.99632,7.3348 5.84173333,6.3255 C7.37983333,5.48426667 9.3217,4.91859667 11.4568667,4.73310667 C11.4568667,4.73310667 9.5286,2.80484333 9.5286,2.80484333 C9.5286,2.80484333 10.4714,1.86203333 10.4714,1.86203333 C10.4714,1.86203333 13.9427,5.33333333 13.9427,5.33333333 Z M3.33333333,12 C3.33333333,12 2,12 2,12 C2,12 2,14.6666667 2,14.6666667 C2,14.6666667 14,14.6666667 14,14.6666667 C14,14.6666667 14,12 14,12 C14,12 12.6666667,12 12.6666667,12 C12.6666667,12 12.6666667,13.3333333 12.6666667,13.3333333 C12.6666667,13.3333333 3.33333333,13.3333333 3.33333333,13.3333333 C3.33333333,13.3333333 3.33333333,12 3.33333333,12 Z" id="形状" fill="#1F1F1F"></path>
    </g>
</svg>