<?xml version="1.0" encoding="UTF-8"?>
<svg width="20px" height="20px" viewBox="0 0 20 20" version="1.1" xmlns="http://www.w3.org/2000/svg" xmlns:xlink="http://www.w3.org/1999/xlink">
    <title>icon/图层</title>
    <g id="icon/图层" stroke="none" stroke-width="1" fill="none" fill-rule="evenodd">
        <path d="M17.6393333,12.4652446 L19.1666667,13.3333333 L10.683243,18.1538478 C10.2531315,18.3931619 9.74686845,18.3931619 9.31675701,18.1538478 L0.833333333,13.3333333 L2.36033333,12.4652446 L10,16.6666667 L17.6393333,12.4652446 Z M17.6393333,9.13123652 L19.1666667,10 L10.683243,14.8205144 C10.2531315,15.0598285 9.74686845,15.0598285 9.31675701,14.8205144 C5.73823946,12.7871024 3.0543513,11.2620434 1.26509253,10.2453374 C1.16914604,10.190818 1.02522631,10.1090389 0.833333333,10 L2.36033333,9.13223652 L10,13.3333333 L17.6393333,9.13123652 Z M10.683243,1.84615225 L19.1666667,6.66666667 L10.683243,11.4871811 C10.2531315,11.7264952 9.74686845,11.7264952 9.31675701,11.4871811 L0.833333333,6.66666667 L9.31675701,1.84615225 C9.74686845,1.60683814 10.2531315,1.60683814 10.683243,1.84615225 Z M10,3.33333333 L4.16666667,6.66666667 L10,10 L15.8333333,6.66666667 L10,3.33333333 Z" id="形状结合" fill="#1F1F1F"></path>
    </g>
</svg>