<?xml version="1.0" encoding="UTF-8"?>
<svg width="20px" height="20px" viewBox="0 0 20 20" version="1.1" xmlns="http://www.w3.org/2000/svg" xmlns:xlink="http://www.w3.org/1999/xlink">
    <title>icon/历史版本</title>
    <g id="icon/历史版本" stroke="none" stroke-width="1" fill="none" fill-rule="evenodd">
        <path d="M3.33333333,10 C3.33333333,6.31808333 6.31808333,3.33333333 10,3.33333333 C13.6819167,3.33333333 16.6666667,6.31808333 16.6666667,10 C16.6666667,13.6819167 13.6819167,16.6666667 10,16.6666667 C6.31808333,16.6666667 3.33333333,13.6819167 3.33333333,10 C3.33333333,10 3.33333333,10 3.33333333,10 Z M10,1.66666667 C5.39762917,1.66666667 1.66666667,5.39762917 1.66666667,10 C1.66666667,14.602375 5.39762917,18.3333333 10,18.3333333 C14.602375,18.3333333 18.3333333,14.602375 18.3333333,10 C18.3333333,5.39762917 14.602375,1.66666667 10,1.66666667 C10,1.66666667 10,1.66666667 10,1.66666667 Z M9.16666667,9.91058333 C9.16666667,9.91058333 12.0976667,13.0670417 12.0976667,13.0670417 C12.0976667,13.0670417 13.319,11.9329583 13.319,11.9329583 C13.319,11.9329583 10.8333333,9.25608333 10.8333333,9.25608333 C10.8333333,9.25608333 10.8333333,5.41666667 10.8333333,5.41666667 C10.8333333,5.41666667 9.16666667,5.41666667 9.16666667,5.41666667 C9.16666667,5.41666667 9.16666667,9.91058333 9.16666667,9.91058333 C9.16666667,9.91058333 9.16666667,9.91058333 9.16666667,9.91058333 Z" id="形状" fill="#1F1F1F"></path>
    </g>
</svg>