<?xml version="1.0" encoding="UTF-8"?>
<svg width="16px" height="16px" viewBox="0 0 16 16" version="1.1" xmlns="http://www.w3.org/2000/svg" xmlns:xlink="http://www.w3.org/1999/xlink">
    <title>icon/通用类/icon-general-line-more</title>
    <g id="icon/通用类/icon-general-line-more" stroke="none" stroke-width="1" fill="none" fill-rule="evenodd">
        <path d="M8.99998808,2.00000699 C8.99998808,2.00000699 6.99998808,2.00000699 6.99998808,2.00000699 C6.99998808,2.00000699 6.99998808,4.00000699 6.99998808,4.00000699 C6.99998808,4.00000699 8.99998808,4.00000699 8.99998808,4.00000699 C8.99998808,4.00000699 8.99998808,2.00000699 8.99998808,2.00000699 C8.99998808,2.00000699 8.99998808,2.00000699 8.99998808,2.00000699 Z M8.99998808,7.00000699 C8.99998808,7.00000699 6.99998808,7.00000699 6.99998808,7.00000699 C6.99998808,7.00000699 6.99998808,9.00000699 6.99998808,9.00000699 C6.99998808,9.00000699 8.99998808,9.00000699 8.99998808,9.00000699 C8.99998808,9.00000699 8.99998808,7.00000699 8.99998808,7.00000699 C8.99998808,7.00000699 8.99998808,7.00000699 8.99998808,7.00000699 Z M8.99998808,12.000007 C8.99998808,12.000007 6.99998808,12.000007 6.99998808,12.000007 C6.99998808,12.000007 6.99998808,14.000007 6.99998808,14.000007 C6.99998808,14.000007 8.99998808,14.000007 8.99998808,14.000007 C8.99998808,14.000007 8.99998808,12.000007 8.99998808,12.000007 C8.99998808,12.000007 8.99998808,12.000007 8.99998808,12.000007 Z" id="形状" fill="#999999" transform="translate(7.999988, 8.000007) rotate(-90.000000) translate(-7.999988, -8.000007) "></path>
    </g>
</svg>