<?xml version="1.0" encoding="UTF-8"?>
<svg width="16px" height="16px" viewBox="0 0 16 16" version="1.1" xmlns="http://www.w3.org/2000/svg" xmlns:xlink="http://www.w3.org/1999/xlink">
    <title>icon/通用类/el-icon-attract</title>
    <g id="icon/通用类/el-icon-attract" stroke="none" stroke-width="1" fill="none" fill-rule="evenodd">
        <path d="M5.33333333,1.33333333 L5.33333333,8 C5.33333333,9.47275933 6.52724067,10.6666667 8,10.6666667 C9.47275933,10.6666667 10.6666667,9.47275933 10.6666667,8 L10.6666667,1.33333333 L14.6666667,1.33333333 L14.6666667,8 C14.6666667,11.6818983 11.6818983,14.6666667 8,14.6666667 C4.31810167,14.6666667 1.33333333,11.6818983 1.33333333,8 L1.33333333,1.33333333 L5.33333333,1.33333333 Z M12,6 L12,8 C12,10.1589313 10.2896167,11.9183812 8.14995884,11.997241 L8,12 C5.790861,12 4,10.209139 4,8 L4,6 L2.66666667,6 L2.66666667,8 C2.66666667,10.8899428 4.96522518,13.2430286 7.83388045,13.3307955 L8,13.3333333 C10.9455187,13.3333333 13.3333333,10.9455187 13.3333333,8 L13.3333333,6 L12,6 Z M4,2.66666667 L2.66666667,2.66666667 L2.66666667,4.66666667 L4,4.66666667 L4,2.66666667 Z M12,4.66666667 L13.3333333,4.66666667 L13.3333333,2.66666667 L12,2.66666667 L12,4.66666667 Z" id="形状结合" fill="#999999" fill-rule="nonzero"></path>
    </g>
</svg>