<?xml version="1.0" encoding="UTF-8"?>
<svg width="16px" height="16px" viewBox="0 0 16 16" version="1.1" xmlns="http://www.w3.org/2000/svg" xmlns:xlink="http://www.w3.org/1999/xlink">
    <title>icon/面性/el-icon-upload</title>
    <g id="icon/面性/el-icon-upload" stroke="none" stroke-width="1" fill="none" fill-rule="evenodd">
        <path d="M7.33333333,2.33333333 C9.3483,2.33333333 11.0637,3.60986667 11.7174,5.39756667 C13.5844333,5.7358 15,7.36903333 15,9.33333333 C15,11.5424667 13.2091333,13.3333333 11,13.3333333 L4.66666667,13.3333333 C2.64162333,13.3333333 1,11.6917 1,9.66666667 C1,8.3707 1.67243,7.23276667 2.68521667,6.5811 C2.89707333,4.19999333 4.8972,2.33333333 7.33333333,2.33333333 Z M8,7.33333333 L7.98864776,7.34468558 L5.17156667,10.1617667 L5.92745588,10.9176559 C5.98242964,10.9726296 6.02915734,11.0193573 6.06214159,11.0523416 L6.11436667,11.1045667 C6.11436667,11.1045667 6.13340729,11.085526 6.16672839,11.0522049 L6.30477292,10.9141604 C6.4475776,10.7713557 6.64988424,10.5690491 6.8373154,10.3816179 L7.22050798,9.99842536 C7.29012526,9.92880807 7.33296667,9.88596667 7.33296667,9.88596667 L7.33296667,13.3235333 L8.6663,13.3235333 L8.6663,9.88526667 L8.67999331,9.89895998 L8.85681562,10.0757823 C8.88539297,10.1043596 8.91635176,10.1353184 8.94909663,10.1680633 L9.16223599,10.3812027 C9.19974375,10.4187104 9.23784687,10.4568135 9.27595,10.4949167 L9.60280337,10.82177 C9.63554824,10.8545149 9.66650703,10.8854737 9.69508437,10.914051 L9.8332082,11.0521749 C9.86654844,11.0855151 9.8856,11.1045667 9.8856,11.1045667 L9.93782692,11.0523416 C9.97081234,11.0193573 10.0175417,10.9726296 10.0725174,10.9176559 L10.8284333,10.1617667 L8,7.33333333 Z" id="形状结合" fill="#999999"></path>
    </g>
</svg>