<?xml version="1.0" encoding="UTF-8"?>
<svg width="16px" height="16px" viewBox="0 0 16 16" version="1.1" xmlns="http://www.w3.org/2000/svg" xmlns:xlink="http://www.w3.org/1999/xlink">
    <title>icon/编辑类/icon-edit-line-highlight</title>
    <g id="icon/编辑类/icon-edit-line-highlight" stroke="none" stroke-width="1" fill="none" fill-rule="evenodd">
        <path d="M9.42413333,1.36368335 C10.0552667,1.20589665 10.6666667,1.68325665 10.6666667,2.33382665 L10.6666667,5.24023332 L11.3333333,5.24023332 C11.8856333,5.24023332 12.3333333,5.68793332 12.3333333,6.24023332 L12.3333333,8.24023332 L13,8.24023332 C13.5523,8.24023332 14,8.68793332 14,9.24023332 L14,14.2402333 L12.6666667,14.2402333 L12.6666667,9.57356665 L11,9.57356665 L11,6.57356665 L5.66666667,6.57356665 L5.66666667,9.57356665 L4,9.57356665 L4,14.2402333 L2.66666667,14.2402333 L2.66666667,9.24023332 C2.66666667,8.68793332 3.11438333,8.24023332 3.66666667,8.24023332 L4.33333333,8.24023332 L4.33333333,6.24023332 C4.33333333,5.68793332 4.78105,5.24023332 5.33333333,5.24023332 L6,5.24023332 L6,3.00049332 C6,2.54162332 6.3123,2.14164332 6.75746667,2.03034999 C6.75746667,2.03034999 7.14446591,1.93360018 7.62360783,1.81381471 L7.99563389,1.7208082 C8.05898198,1.70497117 8.12261802,1.68906217 8.18596611,1.67322514 L8.55799217,1.58021863 C9.03713409,1.46043316 9.42413333,1.36368335 9.42413333,1.36368335 Z M9.33333333,2.76074999 L9.25680168,2.7798829 C8.89042676,2.87147663 7.33333333,3.26074999 7.33333333,3.26074999 L7.33333333,5.24023332 L9.33333333,5.24023332 L9.33333333,2.76074999 Z" id="形状结合" fill="#999999"></path>
    </g>
</svg>