<?xml version="1.0" encoding="UTF-8"?>
<svg width="16px" height="16px" viewBox="0 0 16 16" version="1.1" xmlns="http://www.w3.org/2000/svg" xmlns:xlink="http://www.w3.org/1999/xlink">
    <title>icon/通用类/icon-general-line-common</title>
    <g id="icon/通用类/icon-general-line-common" stroke="none" stroke-width="1" fill="none" fill-rule="evenodd">
        <path d="M8,0.912337859 C8,0.912337859 14.3333333,4.26527119 14.3333333,4.26527119 C14.3333333,4.26527119 14.3333333,11.7347045 14.3333333,11.7347045 C14.3333333,11.7347045 8,15.0876712 8,15.0876712 C8,15.0876712 1.66666667,11.7347045 1.66666667,11.7347045 C1.66666667,11.7347045 1.66666667,4.26527119 1.66666667,4.26527119 C1.66666667,4.26527119 8,0.912337859 8,0.912337859 C8,0.912337859 8,0.912337859 8,0.912337859 Z M3,5.77393786 C3,5.77393786 3,10.9319379 3,10.9319379 C3,10.9319379 7.33333333,13.2260712 7.33333333,13.2260712 C7.33333333,13.2260712 7.33333333,8.06803786 7.33333333,8.06803786 C7.33333333,8.06803786 3,5.77393786 3,5.77393786 C3,5.77393786 3,5.77393786 3,5.77393786 Z M8.66666667,8.06803786 C8.66666667,8.06803786 8.66666667,13.2260712 8.66666667,13.2260712 C8.66666667,13.2260712 13,10.9319379 13,10.9319379 C13,10.9319379 13,5.77393786 13,5.77393786 C13,5.77393786 8.66666667,8.06803786 8.66666667,8.06803786 C8.66666667,8.06803786 8.66666667,8.06803786 8.66666667,8.06803786 Z M12.2418333,4.66667119 C12.2418333,4.66667119 8,2.42099453 8,2.42099453 C8,2.42099453 3.75817667,4.66667119 3.75817667,4.66667119 C3.75817667,4.66667119 8,6.91233786 8,6.91233786 C8,6.91233786 12.2418333,4.66667119 12.2418333,4.66667119 C12.2418333,4.66667119 12.2418333,4.66667119 12.2418333,4.66667119 Z" id="形状" fill="#999999"></path>
    </g>
</svg>