<?xml version="1.0" encoding="UTF-8"?>
<svg width="16px" height="16px" viewBox="0 0 16 16" version="1.1" xmlns="http://www.w3.org/2000/svg" xmlns:xlink="http://www.w3.org/1999/xlink">
    <title>icon/面性/el-icon-s-finance</title>
    <g id="icon/面性/el-icon-s-finance" stroke="none" stroke-width="1" fill="none" fill-rule="evenodd">
        <path d="M13.3333333,4.66666667 C14.069713,4.66666667 14.6666667,5.26362033 14.6666667,6 L14.6666667,8 L10,8 C8.8954305,8 8,8.8954305 8,10 C8,11.1045695 8.8954305,12 10,12 L14.6666667,12 L14.6666667,14 C14.6666667,14.7363797 14.069713,15.3333333 13.3333333,15.3333333 L2.66666667,15.3333333 C1.930287,15.3333333 1.33333333,14.7363797 1.33333333,14 L1.33333333,6 C1.33333333,5.26362033 1.930287,4.66666667 2.66666667,4.66666667 L13.3333333,4.66666667 Z M10,10.6666667 C10.3681898,10.6666667 10.6666667,10.3681898 10.6666667,10 C10.6666667,9.63181017 10.3681898,9.33333333 10,9.33333333 C9.63181017,9.33333333 9.33333333,9.63181017 9.33333333,10 C9.33333333,10.3681898 9.63181017,10.6666667 10,10.6666667 Z" id="形状" fill="#999999"></path>
        <polygon id="路径-27" fill="#999999" points="4.66666667 3.33333333 12.6666667 3.33333333 10.6666667 0.666666667"></polygon>
    </g>
</svg>