<?xml version="1.0" encoding="UTF-8"?>
<svg width="16px" height="16px" viewBox="0 0 16 16" version="1.1" xmlns="http://www.w3.org/2000/svg" xmlns:xlink="http://www.w3.org/1999/xlink">
    <title>icon/通用类/el-icon-guide</title>
    <g id="icon/通用类/el-icon-guide" stroke="none" stroke-width="1" fill="none" fill-rule="evenodd">
        <path d="M9.33300604,7.33333333 L6.66600604,7.33333333 L6.66666667,8.66666667 L5.33333333,8.66666667 L5.33300604,7.33333333 L2,7.33333333 L2,3.33333333 L5.33300604,3.33233333 L5.33333333,1.33333333 L10.6666667,1.33333333 L10.666006,3.33233333 L13.0281051,3.33333333 L13.2254162,3.54225098 L14.4846754,4.87558431 L14.916994,5.33333333 L14.4846754,5.79108236 L13.2254162,7.12441569 L13.0281051,7.33333333 L10.666006,7.33333333 L10.6666667,8.66666667 L14,8.66666667 L14,12.6666667 L10.666006,12.6663333 L10.6666667,14.6666667 L5.33333333,14.6666667 L5.33300604,12.6663333 L2.97189493,12.6666667 L2.77458382,12.457749 L1.51532456,11.1244157 L1.08300604,10.6666667 L1.51532456,10.2089176 L2.77458382,8.87558431 L2.97189493,8.66666667 L9.33333333,8.66666667 L9.33300604,7.33333333 Z M9.33333333,12.6666667 L6.66666667,12.6666667 L6.66666667,13.3333333 L9.33333333,13.3333333 L9.33333333,12.6666667 Z M12.6666667,10 L3.54666667,10 L2.91733333,10.6666667 L3.54733333,11.3333333 L5.33300604,11.3333333 L10.6666667,11.3333333 L12.6666667,11.3333333 L12.6666667,10 Z M12.4533333,4.66666667 L3.33333333,4.66666667 L3.33333333,6 L12.4526667,6 L13.0826667,5.33333333 L12.4533333,4.66666667 Z M9.33333333,2.66666667 L6.66666667,2.66666667 L6.66666667,3.33333333 L9.33333333,3.33333333 L9.33333333,2.66666667 Z" id="形状结合" fill="#979797" fill-rule="nonzero"></path>
    </g>
</svg>