<?xml version="1.0" encoding="UTF-8"?>
<svg width="16px" height="16px" viewBox="0 0 16 16" version="1.1" xmlns="http://www.w3.org/2000/svg" xmlns:xlink="http://www.w3.org/1999/xlink">
    <title>icon/通用类/el-icon-alarm-clock</title>
    <g id="icon/通用类/el-icon-alarm-clock" stroke="none" stroke-width="1" fill="none" fill-rule="evenodd">
        <path d="M8,2 C11.3137085,2 14,4.6862915 14,8 C14,11.3137085 11.3137085,14 8,14 C4.6862915,14 2,11.3137085 2,8 C2,4.6862915 4.6862915,2 8,2 Z M8,3.33333333 C5.42267117,3.33333333 3.33333333,5.42267117 3.33333333,8 C3.33333333,10.5773288 5.42267117,12.6666667 8,12.6666667 C10.5773288,12.6666667 12.6666667,10.5773288 12.6666667,8 C12.6666667,5.42267117 10.5773288,3.33333333 8,3.33333333 Z" id="椭圆形" fill="#999999" fill-rule="nonzero"></path>
        <polygon id="路径-66" fill="#999999" fill-rule="nonzero" points="8.66666667 5.33333333 8.66666667 7.33333333 10.6666667 7.33333333 10.6666667 8.66666667 7.33333333 8.66666667 7.33333333 5.33333333"></polygon>
        <polygon id="路径-67" fill="#999999" fill-rule="nonzero" points="4.19526215 11.5285955 5.13807119 12.4714045 3.13807119 14.4714045 2.19526215 13.5285955"></polygon>
        <polygon id="路径-67备份" fill="#999999" fill-rule="nonzero" transform="translate(13, 13) scale(-1, 1) translate(-13, -13)" points="13.5285955 11.5285955 14.4714045 12.4714045 12.4714045 14.4714045 11.5285955 13.5285955"></polygon>
        <path d="M4,0.666666667 C4.87742013,0.666666667 5.67566028,1.00567644 6.27088222,1.55985776 C5.74533257,1.70063642 5.24669169,1.90341059 4.78195122,2.16004768 C4.54249916,2.05666566 4.27786707,2 4,2 C2.8954305,2 2,2.8954305 2,4 C2,4.27786707 2.05666566,4.54249916 2.15907149,4.7829708 C1.90341059,5.24669169 1.70063642,5.74533257 1.56014395,6.26945506 C1.00567644,5.67566028 0.666666667,4.87742013 0.666666667,4 C0.666666667,2.15905083 2.15905083,0.666666667 4,0.666666667 Z" id="形状结合" fill="#999999" fill-rule="nonzero"></path>
        <path d="M13.0619436,0.666666667 C13.9393637,0.666666667 14.7376039,1.00567644 15.3328258,1.55985776 C14.8072762,1.70063642 14.3086353,1.90341059 13.8438948,2.16004768 C13.6044428,2.05666566 13.3398107,2 13.0619436,2 C11.9573741,2 11.0619436,2.8954305 11.0619436,4 C11.0619436,4.27786707 11.1186093,4.54249916 11.2210151,4.7829708 C10.9653542,5.24669169 10.76258,5.74533257 10.6220876,6.26945506 C10.06762,5.67566028 9.72861027,4.87742013 9.72861027,4 C9.72861027,2.15905083 11.2209944,0.666666667 13.0619436,0.666666667 Z" id="形状结合" fill="#999999" fill-rule="nonzero" transform="translate(12.531, 3.4688) scale(-1, 1) translate(-12.531, -3.4688)"></path>
    </g>
</svg>