<?xml version="1.0" encoding="UTF-8"?>
<svg width="16px" height="16px" viewBox="0 0 16 16" version="1.1" xmlns="http://www.w3.org/2000/svg" xmlns:xlink="http://www.w3.org/1999/xlink">
    <title>icon/影音类/icon-general-line-filepdf</title>
    <g id="icon/影音类/icon-general-line-filepdf" stroke="none" stroke-width="1" fill="none" fill-rule="evenodd">
        <path d="M4,1.33333333 C3.26362,1.33333333 2.66666667,1.93028667 2.66666667,2.66666667 C2.66666667,2.66666667 2.66666667,13.3333333 2.66666667,13.3333333 C2.66666667,14.0697 3.26362,14.6666667 4,14.6666667 C4,14.6666667 12.6666667,14.6666667 12.6666667,14.6666667 C13.4030333,14.6666667 14,14.0697 14,13.3333333 C14,13.3333333 14,4.60947667 14,4.60947667 C14,4.25585333 13.8595333,3.91671667 13.6094667,3.66666667 C13.6094667,3.66666667 11.6666667,1.72385667 11.6666667,1.72385667 C11.4166333,1.473809 11.0774667,1.33333333 10.7238667,1.33333333 C10.7238667,1.33333333 4,1.33333333 4,1.33333333 C4,1.33333333 4,1.33333333 4,1.33333333 Z M4,13.3333333 C4,13.3333333 4,2.66666667 4,2.66666667 C4,2.66666667 10.7238667,2.66666667 10.7238667,2.66666667 C10.7238667,2.66666667 12.6666667,4.60947667 12.6666667,4.60947667 C12.6666667,4.60947667 12.6666667,13.3333333 12.6666667,13.3333333 C12.6666667,13.3333333 4,13.3333333 4,13.3333333 C4,13.3333333 4,13.3333333 4,13.3333333 Z M8.0925,5 C7.77873333,5 7.199,5.09023333 6.94716667,5.6693 C6.73376667,6.16 6.8963,6.73756667 7.16463333,7.292 C7.25403333,7.48926667 7.38946667,7.74786667 7.54893333,8.03176667 C7.4846,8.24186667 7.4084,8.47253333 7.31863333,8.72546667 C7.2607,8.8888 7.2046,9.04006667 7.1504,9.18006667 C6.50186667,9.38956667 6.05693333,9.6259 5.76905333,9.8947 C5.53769667,10.1107 5.38497667,10.3693667 5.34406667,10.6615 C5.30422333,10.9460333 5.38221333,11.1794667 5.45527333,11.3292 C5.45527333,11.3292 5.46898333,11.3573 5.46898333,11.3573 C5.46898333,11.3573 5.48526667,11.3839667 5.48526667,11.3839667 C5.56581333,11.5160333 5.72818667,11.7494333 6.0013,11.8889 C6.3381,12.0609333 6.72156667,12.0315333 7.05913333,11.8132667 C7.3488,11.626 7.5944,11.3098667 7.82123333,10.9105333 C7.92236667,10.7324667 8.02636667,10.5258333 8.13366667,10.2872333 C8.2544,10.2571667 8.38436667,10.2269667 8.52423333,10.1968 C8.65623333,10.1683333 8.7792,10.1448 8.89373333,10.1255333 C9.23056667,10.5515 9.5985,10.8493667 9.9717,11.0132667 C10.3378333,11.1740333 10.7785,11.2302 11.1624667,11.0334667 C11.3651333,10.9296333 11.4845333,10.7621 11.5496,10.6325 C11.6196667,10.4929333 11.6580333,10.3375667 11.6653667,10.1812 C11.6805,9.85786667 11.5636667,9.50273333 11.2708,9.2223 C10.8958333,8.86326667 10.3176,8.69486667 9.53056667,8.72036667 C9.35426667,8.45393333 9.16326667,8.1489 8.9853,7.85093333 C9.1582,7.1748 9.22013333,6.65476667 9.19366667,6.2564 C9.17256667,5.93906667 9.09086667,5.62623333 8.89103333,5.38086667 C8.6725,5.11253333 8.37376667,5 8.0925,5 C8.0925,5 8.0925,5 8.0925,5 Z" id="形状" fill="#999999"></path>
    </g>
</svg>