<?xml version="1.0" encoding="UTF-8"?>
<svg width="16px" height="16px" viewBox="0 0 16 16" version="1.1" xmlns="http://www.w3.org/2000/svg" xmlns:xlink="http://www.w3.org/1999/xlink">
    <title>icon/面性/el-icon-message-solid</title>
    <g id="icon/面性/el-icon-message-solid" stroke="none" stroke-width="1" fill="none" fill-rule="evenodd">
        <path d="M7.33333333,2.37739 C7.33333333,2.37739 7.33333333,1.33333333 7.33333333,1.33333333 C7.33333333,1.33333333 8.66666667,1.33333333 8.66666667,1.33333333 C8.66666667,1.33333333 8.66666667,2.37739 8.66666667,2.37739 C11.1129,2.70331667 13,4.79793333 13,7.33333333 C13,7.33333333 13,11 13,11 C13,11 14,11 14,11 C14,11 14,12.3333333 14,12.3333333 C14,12.3333333 2,12.3333333 2,12.3333333 C2,12.3333333 2,11 2,11 C2,11 3,11 3,11 C3,11 3,7.33333333 3,7.33333333 C3,4.79793333 4.88709333,2.70332 7.33333333,2.37739 C7.33333333,2.37739 7.33333333,2.37739 7.33333333,2.37739 Z M10.3333333,13.3333333 C10.3333333,13.3333333 10.3333333,14.6666667 10.3333333,14.6666667 C10.3333333,14.6666667 5.66666667,14.6666667 5.66666667,14.6666667 C5.66666667,14.6666667 5.66666667,13.3333333 5.66666667,13.3333333 C5.66666667,13.3333333 10.3333333,13.3333333 10.3333333,13.3333333 C10.3333333,13.3333333 10.3333333,13.3333333 10.3333333,13.3333333 Z" id="形状" fill="#999999"></path>
    </g>
</svg>