<?xml version="1.0" encoding="UTF-8"?>
<svg width="16px" height="16px" viewBox="0 0 16 16" version="1.1" xmlns="http://www.w3.org/2000/svg" xmlns:xlink="http://www.w3.org/1999/xlink">
    <title>icon/编辑类/el-icon-scissors</title>
    <g id="icon/编辑类/el-icon-scissors" stroke="none" stroke-width="1" fill="none" fill-rule="evenodd">
        <path d="M8.33333333,6.95956667 C8.33333333,6.95956667 13.2929,2 13.2929,2 C13.2929,2 14.2357,2.94281 14.2357,2.94281 C14.2357,2.94281 9.27613333,7.90236667 9.27613333,7.90236667 C9.27613333,7.90236667 10.6454667,9.27166667 10.6454667,9.27166667 C11.0424,9.03723333 11.5057333,8.90236667 12,8.90236667 C13.4727667,8.90236667 14.6666667,10.0962667 14.6666667,11.5690333 C14.6666667,13.0418 13.4727667,14.2357 12,14.2357 C10.5272333,14.2357 9.33333333,13.0418 9.33333333,11.5690333 C9.33333333,11.0747667 9.4682,10.6114667 9.70263333,10.2145 C9.70263333,10.2145 8.33333333,8.84516667 8.33333333,8.84516667 C8.33333333,8.84516667 6.96403333,10.2145 6.96403333,10.2145 C7.19846667,10.6114667 7.33333333,11.0747667 7.33333333,11.5690333 C7.33333333,13.0418 6.13943333,14.2357 4.66666667,14.2357 C3.19390667,14.2357 2,13.0418 2,11.5690333 C2,10.0962667 3.19390667,8.90236667 4.66666667,8.90236667 C5.16092333,8.90236667 5.62426667,9.03723333 6.0212,9.27166667 C6.0212,9.27166667 7.39053333,7.90236667 7.39053333,7.90236667 C7.39053333,7.90236667 2.43096333,2.94281 2.43096333,2.94281 C2.43096333,2.94281 3.37377333,2 3.37377333,2 C3.37377333,2 8.33333333,6.95956667 8.33333333,6.95956667 C8.33333333,6.95956667 8.33333333,6.95956667 8.33333333,6.95956667 Z M4.66666667,10.2357 C3.93028667,10.2357 3.33333333,10.8326667 3.33333333,11.5690333 C3.33333333,12.3054 3.93028667,12.9023667 4.66666667,12.9023667 C5.40303333,12.9023667 6,12.3054333 6,11.5690333 C6,11.2006667 5.8515,10.8682333 5.60946667,10.6262333 C5.36746667,10.3842 5.03504,10.2357 4.66666667,10.2357 C4.66666667,10.2357 4.66666667,10.2357 4.66666667,10.2357 Z M12,10.2357 C11.6316333,10.2357 11.2992,10.3842 11.0572,10.6262333 C10.8151667,10.8682333 10.6666667,11.2006667 10.6666667,11.5690333 C10.6666667,12.3054333 11.2636333,12.9023667 12,12.9023667 C12.7363667,12.9023667 13.3333333,12.3054333 13.3333333,11.5690333 C13.3333333,10.8326667 12.7363667,10.2357 12,10.2357 C12,10.2357 12,10.2357 12,10.2357 Z" id="形状" fill="#999999"></path>
    </g>
</svg>