<?xml version="1.0" encoding="UTF-8"?>
<svg width="16px" height="16px" viewBox="0 0 16 16" version="1.1" xmlns="http://www.w3.org/2000/svg" xmlns:xlink="http://www.w3.org/1999/xlink">
    <title>icon/基础类/el-icon-arrow-up</title>
    <g id="icon/基础类/el-icon-arrow-up" stroke="none" stroke-width="1" fill="none" fill-rule="evenodd">
        <path d="M4.01455298,5.71406069 C4.01455298,5.71406069 5.34788629,5.71406069 5.34788629,5.71406069 C5.34788629,5.71406069 5.34788629,12.3807272 5.34788629,12.3807272 C5.34788629,12.3807272 12.014553,12.3807272 12.014553,12.3807272 C12.014553,12.3807272 12.014553,13.7140607 12.014553,13.7140607 C12.014553,13.7140607 4.68127963,13.7140607 4.68127963,13.7140607 C4.68123963,13.7140607 4.68121963,13.7140607 4.68121963,13.0473939 C4.68121963,13.0473939 4.68127963,13.7140607 4.68127963,13.7140607 C4.68127963,13.7140607 4.01455298,13.7140607 4.01455298,13.7140607 C4.01455298,13.7140607 4.01455298,5.71406069 4.01455298,5.71406069 C4.01455298,5.71406069 4.01455298,5.71406069 4.01455298,5.71406069 Z" id="路径" fill="#999999" transform="translate(8.0146, 9.7141) rotate(135) translate(-8.0146, -9.7141)"></path>
    </g>
</svg>