<?xml version="1.0" encoding="UTF-8"?>
<svg width="16px" height="16px" viewBox="0 0 16 16" version="1.1" xmlns="http://www.w3.org/2000/svg" xmlns:xlink="http://www.w3.org/1999/xlink">
    <title>icon/编辑类/icon-edit-line-italic</title>
    <g id="icon/编辑类/icon-edit-line-italic" stroke="none" stroke-width="1" fill="none" fill-rule="evenodd">
        <path d="M8.1967,3.33333333 C8.1967,3.33333333 6,3.33333333 6,3.33333333 C6,3.33333333 6,2 6,2 C6,2 11.6666667,2 11.6666667,2 C11.6666667,2 11.6666667,3.33333333 11.6666667,3.33333333 C11.6666667,3.33333333 9.5533,3.33333333 9.5533,3.33333333 C9.5533,3.33333333 7.8033,12.6666667 7.8033,12.6666667 C7.8033,12.6666667 10,12.6666667 10,12.6666667 C10,12.6666667 10,14 10,14 C10,14 4.33333333,14 4.33333333,14 C4.33333333,14 4.33333333,12.6666667 4.33333333,12.6666667 C4.33333333,12.6666667 6.44671667,12.6666667 6.44671667,12.6666667 C6.44671667,12.6666667 8.1967,3.33333333 8.1967,3.33333333 C8.1967,3.33333333 8.1967,3.33333333 8.1967,3.33333333 Z" id="路径" fill="#999999"></path>
    </g>
</svg>