<?xml version="1.0" encoding="UTF-8"?>
<svg width="16px" height="16px" viewBox="0 0 16 16" version="1.1" xmlns="http://www.w3.org/2000/svg" xmlns:xlink="http://www.w3.org/1999/xlink">
    <title>icon/影音类/el-icon-mic</title>
    <g id="icon/影音类/el-icon-mic" stroke="none" stroke-width="1" fill="none" fill-rule="evenodd">
        <path d="M10.6666667,1.33333333 C11.4030463,1.33333333 12,1.930287 12,2.66666667 L12,10 C12,10.7363797 11.4030463,11.3333333 10.6666667,11.3333333 L8.666,11.3333333 L8.666,13.3323333 L10.6666667,13.3333333 C11.0348565,13.3333333 11.3333333,13.6318102 11.3333333,14 C11.3333333,14.3681898 11.0348565,14.6666667 10.6666667,14.6666667 L5.33333333,14.6666667 C4.9651435,14.6666667 4.66666667,14.3681898 4.66666667,14 C4.66666667,13.6318102 4.9651435,13.3333333 5.33333333,13.3333333 L7.333,13.3323333 L7.333,11.3333333 L5.33333333,11.3333333 C4.59695367,11.3333333 4,10.7363797 4,10 L4,2.66666667 C4,1.930287 4.59695367,1.33333333 5.33333333,1.33333333 L10.6666667,1.33333333 Z M10.6666667,2.66666667 L5.33333333,2.66666667 L5.33333333,4 L6,4 C6.36818983,4 6.66666667,4.29847683 6.66666667,4.66666667 C6.66666667,5.0348565 6.36818983,5.33333333 6,5.33333333 L5.33333333,5.33333333 L5.33333333,6.66666667 L6,6.66666667 C6.36818983,6.66666667 6.66666667,6.9651435 6.66666667,7.33333333 C6.66666667,7.70152317 6.36818983,8 6,8 L5.33333333,8 L5.33333333,10 L10.6666667,10 L10.6666667,8 L10,8 C9.63181017,8 9.33333333,7.70152317 9.33333333,7.33333333 C9.33333333,6.9651435 9.63181017,6.66666667 10,6.66666667 L10.6666667,6.66666667 L10.6666667,5.33333333 L10,5.33333333 C9.63181017,5.33333333 9.33333333,5.0348565 9.33333333,4.66666667 C9.33333333,4.29847683 9.63181017,4 10,4 L10.6666667,4 L10.6666667,2.66666667 Z" id="形状结合" fill="#979797" fill-rule="nonzero"></path>
    </g>
</svg>