<?xml version="1.0" encoding="UTF-8"?>
<svg width="16px" height="16px" viewBox="0 0 16 16" version="1.1" xmlns="http://www.w3.org/2000/svg" xmlns:xlink="http://www.w3.org/1999/xlink">
    <title>icon/天气类/el-icon-moon-night</title>
    <g id="icon/天气类/el-icon-moon-night" stroke="none" stroke-width="1" fill="none" fill-rule="evenodd">
        <path d="M9.00524668,13.6682515 L11.0009605,13.6682996 C10.3457207,13.7733787 9.6719209,13.775677 9.00524668,13.6682515 Z M11.3529119,1.30016811 C12.060764,1.4550658 12.1624294,2.29824281 11.7211449,2.70050326 C11.375412,3.0156636 11.0711451,3.38913597 10.8237517,3.81763379 C9.99109119,5.25984419 10.0159163,6.96182423 10.7400372,8.33320829 L9.27635541,8.33338763 C8.63757706,6.69513075 8.72147211,4.79222228 9.66905121,3.15096713 C9.80346954,2.91814775 9.95129039,2.69758119 10.1109811,2.48972205 C8.36143717,2.45512108 6.64731745,3.34916353 5.71110078,4.97073836 C5.10029173,6.02869067 4.9233642,7.21808872 5.12510666,8.33288031 L3.77472398,8.33305692 C3.58362644,6.98813004 3.82451646,5.5717316 4.55640024,4.3040717 C5.96209524,1.86933654 8.74733155,0.72999908 11.3529119,1.30016811 Z" id="形状结合" fill="#999999"></path>
        <rect id="矩形" fill="#999999" x="1.33333333" y="10" width="13.3333333" height="1.33333333"></rect>
        <rect id="矩形备份-3" fill="#999999" x="4" y="12.6666667" width="8" height="1.33333333"></rect>
    </g>
</svg>