<?xml version="1.0" encoding="UTF-8"?>
<svg width="16px" height="16px" viewBox="0 0 16 16" version="1.1" xmlns="http://www.w3.org/2000/svg" xmlns:xlink="http://www.w3.org/1999/xlink">
    <title>icon/通用类/icon-general-line-list2</title>
    <g id="icon/通用类/icon-general-line-list2" stroke="none" stroke-width="1" fill="none" fill-rule="evenodd">
        <path d="M5.33333333,1.33333333 C6.069713,1.33333333 6.66666667,1.930287 6.66666667,2.66666667 L6.66666667,5.33333333 C6.66666667,6.069713 6.069713,6.66666667 5.33333333,6.66666667 L2.66666667,6.66666667 C1.930287,6.66666667 1.33333333,6.069713 1.33333333,5.33333333 L1.33333333,2.66666667 C1.33333333,1.930287 1.930287,1.33333333 2.66666667,1.33333333 L5.33333333,1.33333333 Z M5.33333333,2.66666667 L2.66666667,2.66666667 L2.66666667,5.33333333 L5.33333333,5.33333333 L5.33333333,2.66666667 Z M5.33333333,9.33333333 C6.069713,9.33333333 6.66666667,9.930287 6.66666667,10.6666667 L6.66666667,13.3333333 C6.66666667,14.069713 6.069713,14.6666667 5.33333333,14.6666667 L2.66666667,14.6666667 C1.930287,14.6666667 1.33333333,14.069713 1.33333333,13.3333333 L1.33333333,10.6666667 C1.33333333,9.930287 1.930287,9.33333333 2.66666667,9.33333333 L5.33333333,9.33333333 Z M5.33333333,10.6666667 L2.66666667,10.6666667 L2.66666667,13.3333333 L5.33333333,13.3333333 L5.33333333,10.6666667 Z M8,2 L14.6666667,2 L14.6666667,3.33333333 L8,3.33333333 Z M8,10 L14.6666667,10 L14.6666667,11.3333333 L8,11.3333333 Z M8,4.66666667 L14.6666667,4.66666667 L14.6666667,6 L8,6 Z M8,12.6666667 L14.6666667,12.6666667 L14.6666667,14 L8,14 Z" id="形状结合" fill="#999999"></path>
    </g>
</svg>