<?xml version="1.0" encoding="UTF-8"?>
<svg width="16px" height="16px" viewBox="0 0 16 16" version="1.1" xmlns="http://www.w3.org/2000/svg" xmlns:xlink="http://www.w3.org/1999/xlink">
    <title>icon/编辑类/icon-edit-line-lineheight</title>
    <g id="icon/编辑类/icon-edit-line-lineheight" stroke="none" stroke-width="1" fill="none" fill-rule="evenodd">
        <path d="M14.8154667,4.99996 C14.8154667,4.99996 13,1.82291667 13,1.82291667 C13,1.82291667 11.1845333,4.99996 11.1845333,4.99996 C11.1845333,4.99996 12.3333333,4.99996 12.3333333,4.99996 C12.3333333,4.99996 12.3333333,10.99995 12.3333333,10.99995 C12.3333333,10.99995 11.1845333,10.99995 11.1845333,10.99995 C11.1845333,10.99995 13,14.1770167 13,14.1770167 C13,14.1770167 14.8154667,10.99995 14.8154667,10.99995 C14.8154667,10.99995 13.6666667,10.99995 13.6666667,10.99995 C13.6666667,10.99995 13.6666667,4.99996 13.6666667,4.99996 C13.6666667,4.99996 14.8154667,4.99996 14.8154667,4.99996 C14.8154667,4.99996 14.8154667,4.99996 14.8154667,4.99996 Z M1.33333333,3.33333333 C1.33333333,3.33333333 5.5,3.33333333 5.5,3.33333333 C5.5,3.33333333 5.5,13.9999833 5.5,13.9999833 C5.5,13.9999833 6.83333333,13.9999833 6.83333333,13.9999833 C6.83333333,13.9999833 6.83333333,3.33333333 6.83333333,3.33333333 C6.83333333,3.33333333 11,3.33333333 11,3.33333333 C11,3.33333333 11,2 11,2 C11,2 1.33333333,2 1.33333333,2 C1.33333333,2 1.33333333,3.33333333 1.33333333,3.33333333 C1.33333333,3.33333333 1.33333333,3.33333333 1.33333333,3.33333333 Z" id="形状" fill="#999999"></path>
    </g>
</svg>