<?xml version="1.0" encoding="UTF-8"?>
<svg width="16px" height="16px" viewBox="0 0 16 16" version="1.1" xmlns="http://www.w3.org/2000/svg" xmlns:xlink="http://www.w3.org/1999/xlink">
    <title>icon/天气类/el-icon-lightning</title>
    <g id="icon/天气类/el-icon-lightning" stroke="none" stroke-width="1" fill="none" fill-rule="evenodd">
        <path d="M7.36507937,1.33333333 C9.28409524,1.33333333 10.9178095,2.49381818 11.540381,4.119 C13.3185079,4.42648485 14.6666667,5.91124242 14.6666667,7.6969697 C14.6666667,9.70527273 12.9610794,11.3333333 10.8571429,11.3333333 L10.6663333,11.3333333 L10.6663333,9.99933333 L10.8235294,10 C12.2096627,10 13.3333333,8.949368 13.3333333,7.65333333 C13.3333333,6.40693067 12.2937098,5.38709867 10.9814588,5.31121333 C10.9814588,5.31121333 10.5254275,5.28484267 10.5254275,5.28484267 C10.5254275,5.28484267 10.412298,4.87094933 10.412298,4.87094933 C10.0657569,3.60327413 8.83535686,2.66666667 7.37254902,2.66666667 C5.64555294,2.66666667 4.24442667,3.97144853 4.23533804,5.58416 L4.23522525,5.60418013 L4.23453667,5.72640828 C4.2343942,5.75169686 4.2342458,5.77803914 4.23410333,5.80332772 L4.23341475,5.92555587 C4.23334351,5.93820016 4.23330196,5.945576 4.23330196,5.945576 C4.23330196,5.945576 3.88712157,6.10644 3.88712157,6.10644 C3.16247216,6.443128 2.66666667,7.14129067 2.66666667,7.94666667 C2.66666667,9.01890137 3.54565552,9.8991783 4.66664997,9.99192559 L4.66633333,11.3293333 L4.63379714,11.3284011 C2.79429124,11.2334531 1.33333333,9.77957475 1.33333333,8 C1.33333333,6.82184848 1.97374286,5.78736364 2.93830159,5.19493939 C3.14006984,3.03029697 5.04495238,1.33333333 7.36507937,1.33333333 Z" id="形状结合" fill="#999999"></path>
        <path d="M6.68657167,8.50497625 C6.77587082,8.14777964 7.13782714,7.93060585 7.49502375,8.019905 C7.85222036,8.10920415 8.06939415,8.47116048 7.980095,8.82835708 L7.52066667,10.6666667 L8.66666667,10.6666667 C9.07486817,10.6666667 9.38078004,11.0277176 9.32765869,11.4209882 L9.31342833,11.4950238 L8.64676167,14.1616904 C8.55746252,14.518887 8.19550619,14.7360608 7.83830958,14.6467617 C7.48111298,14.5574625 7.26393918,14.1955062 7.35323833,13.8383096 L7.812,12 L6.66666667,12 C6.25846516,12 5.95255329,11.6389491 6.00567464,11.2456785 L6.019905,11.1716429 L6.68657167,8.50497625 Z" id="路径-64" fill="#979797" fill-rule="nonzero"></path>
    </g>
</svg>