<?xml version="1.0" encoding="UTF-8"?>
<svg width="16px" height="16px" viewBox="0 0 16 16" version="1.1" xmlns="http://www.w3.org/2000/svg" xmlns:xlink="http://www.w3.org/1999/xlink">
    <title>icon/影音类/icon-general-line-fileimage</title>
    <g id="icon/影音类/icon-general-line-fileimage" stroke="none" stroke-width="1" fill="none" fill-rule="evenodd">
        <path d="M2.66666667,2.66666667 C2.66666667,1.93028667 3.26362,1.33333333 4,1.33333333 C4,1.33333333 11.2761333,1.33333333 11.2761333,1.33333333 C11.2761333,1.33333333 14,4.05719 14,4.05719 C14,4.05719 14,13.3333333 14,13.3333333 C14,14.0697 13.4030333,14.6666667 12.6666667,14.6666667 C12.6666667,14.6666667 4,14.6666667 4,14.6666667 C3.26362,14.6666667 2.66666667,14.0697 2.66666667,13.3333333 C2.66666667,13.3333333 2.66666667,2.66666667 2.66666667,2.66666667 C2.66666667,2.66666667 2.66666667,2.66666667 2.66666667,2.66666667 Z M10.7238667,2.66666667 C10.7238667,2.66666667 4,2.66666667 4,2.66666667 C4,2.66666667 4,13.3333333 4,13.3333333 C4,13.3333333 12.6666667,13.3333333 12.6666667,13.3333333 C12.6666667,13.3333333 12.6666667,4.60947667 12.6666667,4.60947667 C12.6666667,4.60947667 10.7238667,2.66666667 10.7238667,2.66666667 C10.7238667,2.66666667 10.7238667,2.66666667 10.7238667,2.66666667 Z M5.33333333,5.66666667 C5.33333333,5.66666667 7,5.66666667 7,5.66666667 C7,5.66666667 7,7.33333333 7,7.33333333 C7,7.33333333 5.33333333,7.33333333 5.33333333,7.33333333 C5.33333333,7.33333333 5.33333333,5.66666667 5.33333333,5.66666667 C5.33333333,5.66666667 5.33333333,5.66666667 5.33333333,5.66666667 Z M11.3333333,7.15863333 C11.3333333,7.15863333 11.3333333,11.6666667 11.3333333,11.6666667 C11.3333333,11.6666667 5.05719,11.6666667 5.05719,11.6666667 C5.05719,11.6666667 8.07213333,8.65173333 8.07213333,8.65173333 C8.07213333,8.65173333 9.02753333,9.9256 9.02753333,9.9256 C9.02753333,9.9256 11.3333333,7.15863333 11.3333333,7.15863333 C11.3333333,7.15863333 11.3333333,7.15863333 11.3333333,7.15863333 Z" id="形状" fill="#999999"></path>
    </g>
</svg>