<?xml version="1.0" encoding="UTF-8"?>
<svg width="16px" height="16px" viewBox="0 0 16 16" version="1.1" xmlns="http://www.w3.org/2000/svg" xmlns:xlink="http://www.w3.org/1999/xlink">
    <title>icon/通用类/icon-general-line-wifi</title>
    <g id="icon/通用类/icon-general-line-wifi" stroke="none" stroke-width="1" fill="none" fill-rule="evenodd">
        <path d="M7.99999638,4.33333333 C5.61506305,4.33333333 3.46498305,5.33434333 1.94510638,6.941 C1.94510638,6.941 0.976496379,6.02473333 0.976496379,6.02473333 C2.73771638,4.16293667 5.23359638,3 7.99999638,3 C10.7663964,3 13.2622964,4.16293667 15.0234964,6.02473333 C15.0234964,6.02473333 14.0548964,6.941 14.0548964,6.941 C12.5349964,5.33434333 10.384963,4.33333333 7.99999638,4.33333333 C7.99999638,4.33333333 7.99999638,4.33333333 7.99999638,4.33333333 Z M4.07229971,9.05863333 C5.04799638,7.9971 6.44599638,7.33333333 7.99999638,7.33333333 C9.55399638,7.33333333 10.9519964,7.9971 11.9276964,9.05863333 C11.9276964,9.05863333 12.909363,8.15633333 12.909363,8.15633333 C11.691763,6.83166667 9.94252971,6 7.99999638,6 C6.05749638,6 4.30822638,6.83166667 3.09064638,8.15633333 C3.09064638,8.15633333 4.07229971,9.05863333 4.07229971,9.05863333 C4.07229971,9.05863333 4.07229971,9.05863333 4.07229971,9.05863333 Z M5.97676305,10.9294333 C6.46682971,10.3593667 7.19109638,10 7.99999638,10 C8.80892971,10 9.53316305,10.3593667 10.0232297,10.9294333 C10.0232297,10.9294333 11.0343297,10.0603 11.0343297,10.0603 C10.3017964,9.2081 9.21376305,8.66666667 7.99999638,8.66666667 C6.78622971,8.66666667 5.69822971,9.2081 4.96566305,10.0603 C4.96566305,10.0603 5.97676305,10.9294333 5.97676305,10.9294333 C5.97676305,10.9294333 5.97676305,10.9294333 5.97676305,10.9294333 Z M8.63779638,11.4602 C8.84002971,11.5439667 9.02372971,11.6667333 9.17849638,11.8215 C9.17849638,11.8215 7.99999638,13 7.99999638,13 C7.99999638,13 6.82149638,11.8215 6.82149638,11.8215 C6.97626305,11.6667333 7.15999638,11.5439667 7.36219638,11.4602 C7.56439638,11.3764333 7.78112971,11.3333333 7.99999638,11.3333333 C8.21886305,11.3333333 8.43559638,11.3764333 8.63779638,11.4602 C8.63779638,11.4602 8.63779638,11.4602 8.63779638,11.4602 Z" id="形状" fill="#999999"></path>
    </g>
</svg>