<?xml version="1.0" encoding="UTF-8"?>
<svg width="16px" height="16px" viewBox="0 0 16 16" version="1.1" xmlns="http://www.w3.org/2000/svg" xmlns:xlink="http://www.w3.org/1999/xlink">
    <title>icon/通用类/icon-general-line-storage</title>
    <g id="icon/通用类/icon-general-line-storage" stroke="none" stroke-width="1" fill="none" fill-rule="evenodd">
        <path d="M13.3483659,1.33333333 C13.9006507,1.33333333 14.3483659,1.78104858 14.3483659,2.33333333 L14.3483659,13.6666667 C14.3483659,14.2189514 13.9006507,14.6666667 13.3483659,14.6666667 L2.68169925,14.6666667 C2.1294145,14.6666667 1.68169925,14.2189514 1.68169925,13.6666667 L1.68169925,2.33333333 C1.68169925,1.78104858 2.1294145,1.33333333 2.68169925,1.33333333 L13.3483659,1.33333333 Z M13.0146993,10.6663333 L3.01469925,10.6663333 L3.01503258,13.3333333 L13.0150326,13.3333333 L13.0146993,10.6663333 Z M5.00359466,11.3333333 L5.00359466,12.6666667 L3.67026133,12.6666667 L3.67026133,11.3333333 L5.00359466,11.3333333 Z M13.0146993,6.66633333 L3.01469925,6.66633333 L3.01469925,9.33333333 L13.0146993,9.33333333 L13.0146993,6.66633333 Z M5.00359466,7.33333333 L5.00359466,8.66666667 L3.67026133,8.66666667 L3.67026133,7.33333333 L5.00359466,7.33333333 Z M13.0150326,2.66666667 L3.01503258,2.66666667 L3.01469925,5.33233333 L13.0146993,5.33233333 L13.0150326,2.66666667 Z M5.00359466,3.33333333 L5.00359466,4.66666667 L3.67026133,4.66666667 L3.67026133,3.33333333 L5.00359466,3.33333333 Z" id="形状结合" fill="#999999" fill-rule="nonzero"></path>
    </g>
</svg>