<?xml version="1.0" encoding="UTF-8"?>
<svg width="16px" height="16px" viewBox="0 0 16 16" version="1.1" xmlns="http://www.w3.org/2000/svg" xmlns:xlink="http://www.w3.org/1999/xlink">
    <title>icon/通用类/el-icon-position</title>
    <g id="icon/通用类/el-icon-position" stroke="none" stroke-width="1" fill="none" fill-rule="evenodd">
        <path d="M14.4019522,1.79087861 C14.4310688,1.86730959 14.4310688,1.95177785 14.4019522,2.02820883 L9.68237199,14.4171069 C9.61683506,14.5891413 9.42424541,14.6754746 9.25221097,14.6099377 C9.15547269,14.573085 9.08134693,14.4933787 9.05160065,14.3942244 L7.33333333,8.66666667 L1.60577562,6.94839935 C1.42944467,6.89550007 1.32938353,6.70967224 1.38228282,6.53334129 C1.4120291,6.43418701 1.48615486,6.35448069 1.58289314,6.31762801 L13.9717912,1.59804781 C14.1438256,1.53251088 14.3364153,1.61884417 14.4019522,1.79087861 Z M12.3613333,3.638 L4.806,6.516 L7.71646385,7.38956495 L8.404134,7.595866 L8.61043505,8.28353615 L9.48333333,11.1933333 L12.3613333,3.638 Z" id="路径-59" fill="#979797" fill-rule="nonzero"></path>
    </g>
</svg>