<?xml version="1.0" encoding="UTF-8"?>
<svg width="16px" height="16px" viewBox="0 0 16 16" version="1.1" xmlns="http://www.w3.org/2000/svg" xmlns:xlink="http://www.w3.org/1999/xlink">
    <title>icon/通用类/icon-general-line-skin</title>
    <g id="icon/通用类/icon-general-line-skin" stroke="none" stroke-width="1" fill="none" fill-rule="evenodd">
        <path d="M1.33333333,2.33333333 C1.33333333,1.78104667 1.78105,1.33333333 2.33333333,1.33333333 C2.33333333,1.33333333 6.25823333,1.33333333 6.25823333,1.33333333 C6.25823333,1.33333333 6.45416667,1.532558 6.45416667,1.532558 C6.83693333,1.92177667 7.42316667,2.35294 8,2.35294 C8.57683333,2.35294 9.16306667,1.92177667 9.54583333,1.532558 C9.54583333,1.532558 9.74176667,1.33333333 9.74176667,1.33333333 C9.74176667,1.33333333 13.6666667,1.33333333 13.6666667,1.33333333 C14.2189667,1.33333333 14.6666667,1.78104667 14.6666667,2.33333333 C14.6666667,2.33333333 14.6666667,8.18626667 14.6666667,8.18626667 C14.6666667,8.73856667 14.2189667,9.18626667 13.6666667,9.18626667 C13.6666667,9.18626667 13,9.18626667 13,9.18626667 C13,9.18626667 13,13.3333333 13,13.3333333 C13,13.8856333 12.5523,14.3333333 12,14.3333333 C12,14.3333333 4,14.3333333 4,14.3333333 C3.44771667,14.3333333 3,13.8856333 3,13.3333333 C3,13.3333333 3,9.18626667 3,9.18626667 C3,9.18626667 2.33333333,9.18626667 2.33333333,9.18626667 C1.78105,9.18626667 1.33333333,8.73856667 1.33333333,8.18626667 C1.33333333,8.18626667 1.33333333,2.33333333 1.33333333,2.33333333 C1.33333333,2.33333333 1.33333333,2.33333333 1.33333333,2.33333333 Z M2.66666667,2.66666667 C2.66666667,2.66666667 2.66666667,7.85293333 2.66666667,7.85293333 C2.66666667,7.85293333 4.33333333,7.85293333 4.33333333,7.85293333 C4.33333333,7.85293333 4.33333333,13 4.33333333,13 C4.33333333,13 11.6666667,13 11.6666667,13 C11.6666667,13 11.6666667,7.85293333 11.6666667,7.85293333 C11.6666667,7.85293333 13.3333333,7.85293333 13.3333333,7.85293333 C13.3333333,7.85293333 13.3333333,2.66666667 13.3333333,2.66666667 C13.3333333,2.66666667 10.2895333,2.66666667 10.2895333,2.66666667 C9.80943333,3.10405333 8.9892,3.68627333 8,3.68627333 C7.0108,3.68627333 6.19056667,3.10405333 5.71046667,2.66666667 C5.71046667,2.66666667 2.66666667,2.66666667 2.66666667,2.66666667 C2.66666667,2.66666667 2.66666667,2.66666667 2.66666667,2.66666667 Z" id="形状" fill="#999999"></path>
    </g>
</svg>