<?xml version="1.0" encoding="UTF-8"?>
<svg width="16px" height="16px" viewBox="0 0 16 16" version="1.1" xmlns="http://www.w3.org/2000/svg" xmlns:xlink="http://www.w3.org/1999/xlink">
    <title>icon/基础类/el-icon-s-operation</title>
    <g id="icon/基础类/el-icon-s-operation" stroke="none" stroke-width="1" fill="none" fill-rule="evenodd">
        <rect id="矩形" fill="#999999" x="1.33333333" y="2.66666667" width="13.3333333" height="1.33333333" rx="0.666666667"></rect>
        <circle id="椭圆形" fill="#FFFFFF" cx="4.66666667" cy="3.33333333" r="1.33333333"></circle>
        <path d="M4.66666667,1.33333333 C5.77123617,1.33333333 6.66666667,2.22876383 6.66666667,3.33333333 C6.66666667,4.43790283 5.77123617,5.33333333 4.66666667,5.33333333 C3.56209717,5.33333333 2.66666667,4.43790283 2.66666667,3.33333333 C2.66666667,2.22876383 3.56209717,1.33333333 4.66666667,1.33333333 Z M4.66666667,2.66666667 C4.29847683,2.66666667 4,2.9651435 4,3.33333333 C4,3.70152317 4.29847683,4 4.66666667,4 C5.0348565,4 5.33333333,3.70152317 5.33333333,3.33333333 C5.33333333,2.9651435 5.0348565,2.66666667 4.66666667,2.66666667 Z" id="椭圆形" fill="#999999" fill-rule="nonzero"></path>
        <rect id="矩形备份" fill="#999999" x="1.33333333" y="7.33333333" width="13.3333333" height="1.33333333" rx="0.666666667"></rect>
        <rect id="矩形备份-2" fill="#999999" x="1.33333333" y="12" width="13.3333333" height="1.33333333" rx="0.666666667"></rect>
        <circle id="椭圆形备份" fill="#FFFFFF" cx="12" cy="8" r="1.33333333"></circle>
        <path d="M12,6 C13.1045695,6 14,6.8954305 14,8 C14,9.1045695 13.1045695,10 12,10 C10.8954305,10 10,9.1045695 10,8 C10,6.8954305 10.8954305,6 12,6 Z M12,7.33333333 C11.6318102,7.33333333 11.3333333,7.63181017 11.3333333,8 C11.3333333,8.36818983 11.6318102,8.66666667 12,8.66666667 C12.3681898,8.66666667 12.6666667,8.36818983 12.6666667,8 C12.6666667,7.63181017 12.3681898,7.33333333 12,7.33333333 Z" id="椭圆形备份" fill="#999999" fill-rule="nonzero"></path>
        <circle id="椭圆形备份-2" fill="#FFFFFF" cx="4.66666667" cy="12.6666667" r="1.33333333"></circle>
        <path d="M4.66666667,10.6666667 C5.77123617,10.6666667 6.66666667,11.5620972 6.66666667,12.6666667 C6.66666667,13.7712362 5.77123617,14.6666667 4.66666667,14.6666667 C3.56209717,14.6666667 2.66666667,13.7712362 2.66666667,12.6666667 C2.66666667,11.5620972 3.56209717,10.6666667 4.66666667,10.6666667 Z M4.66666667,12 C4.29847683,12 4,12.2984768 4,12.6666667 C4,13.0348565 4.29847683,13.3333333 4.66666667,13.3333333 C5.0348565,13.3333333 5.33333333,13.0348565 5.33333333,12.6666667 C5.33333333,12.2984768 5.0348565,12 4.66666667,12 Z" id="椭圆形备份-2" fill="#999999" fill-rule="nonzero"></path>
    </g>
</svg>