<?xml version="1.0" encoding="UTF-8"?>
<svg width="16px" height="16px" viewBox="0 0 16 16" version="1.1" xmlns="http://www.w3.org/2000/svg" xmlns:xlink="http://www.w3.org/1999/xlink">
    <title>icon/编辑类/icon-edit-line-underline</title>
    <g id="icon/编辑类/icon-edit-line-underline" stroke="none" stroke-width="1" fill="none" fill-rule="evenodd">
        <path d="M12.3333333,7.49999984 C12.3333333,8.50406651 12.1067667,9.56226651 11.3986,10.3753665 C10.6752,11.2058998 9.55033333,11.6666665 8,11.6666665 C6.40946667,11.6666665 5.29293333,11.0960332 4.58816667,10.2346665 C3.90312,9.39736651 3.66667,8.35893317 3.66667,7.49999984 C3.66667,7.49999984 3.66667,1.66686698 3.66667,1.66686698 C3.66667,1.66683398 3.66667,1.66666651 4.33333667,1.66666651 C5.00000333,1.66666651 5.00000333,1.66666651 5.00000333,1.66666651 C5.00000333,1.66666651 5.00000333,7.49999984 5.00000333,7.49999984 C4.99999667,8.14106651 5.18017667,8.85263317 5.62011667,9.39033317 C6.04033667,9.90396651 6.75716667,10.3333332 8,10.3333332 C9.2831,10.3333332 9.99153333,9.96076651 10.3931333,9.49963317 C10.8099667,9.02106651 11,8.32926651 11,7.49999984 C11,7.49999984 11,1.66684629 11,1.66684629 C11,1.66681582 11,1.66666651 11.66667,1.66666651 C12.3333333,1.66666651 12.3333333,1.66666651 12.3333333,1.66666651 C12.3333333,1.66666651 12.3333333,7.49999984 12.3333333,7.49999984 C12.3333333,7.49999984 12.3333333,7.49999984 12.3333333,7.49999984 Z M13,14.3333332 C13,14.3333332 3,14.3333332 3,14.3333332 C3,14.3333332 3,12.9999998 3,12.9999998 C3,12.9999998 13,12.9999998 13,12.9999998 C13,12.9999998 13,14.3333332 13,14.3333332 C13,14.3333332 13,14.3333332 13,14.3333332 Z" id="形状" fill="#999999"></path>
    </g>
</svg>