<?xml version="1.0" encoding="UTF-8"?>
<svg width="16px" height="16px" viewBox="0 0 16 16" version="1.1" xmlns="http://www.w3.org/2000/svg" xmlns:xlink="http://www.w3.org/1999/xlink">
    <title>icon/通用类/el-icon-takeaway-box</title>
    <g id="icon/通用类/el-icon-takeaway-box" stroke="none" stroke-width="1" fill="none" fill-rule="evenodd">
        <path d="M13.6666667,2 C14.2189514,2 14.6666667,2.44771525 14.6666667,3 L14.6666667,5.66666667 C14.6666667,6.21895142 14.2189514,6.66666667 13.6666667,6.66666667 L13.6553333,6.666 L13.6554372,13 C13.6554372,13.5522847 13.207722,14 12.6554372,14 L3.3221039,14 C2.76981915,14 2.3221039,13.5522847 2.3221039,13 L2.32133333,6.665 L2.21671221,6.65993894 C1.71937352,6.60217383 1.33333333,6.17950251 1.33333333,5.66666667 L1.33333333,3 C1.33333333,2.44771525 1.78104858,2 2.33333333,2 L13.6666667,2 Z M12.3221039,6.66666667 L3.65543723,6.66666667 L3.65543723,12.6666667 L12.3221039,12.6666667 L12.3221039,6.66666667 Z M9.6628612,8.33560061 L9.6628612,9.66893394 L6.32952786,9.66893394 L6.32952786,8.33560061 L9.6628612,8.33560061 Z M13.3333333,3.33333333 L2.66666667,3.33333333 L2.66666667,5.33333333 L13.3333333,5.33333333 L13.3333333,3.33333333 Z" id="形状结合" fill="#999999"></path>
    </g>
</svg>