<?xml version="1.0" encoding="UTF-8"?>
<svg width="16px" height="16px" viewBox="0 0 16 16" version="1.1" xmlns="http://www.w3.org/2000/svg" xmlns:xlink="http://www.w3.org/1999/xlink">
    <title>icon/基础类/el-icon-finished</title>
    <g id="icon/基础类/el-icon-finished" stroke="none" stroke-width="1" fill="none" fill-rule="evenodd">
        <path d="M13,3.66666667 C13,3.66666667 14.3333333,3.66666667 14.3333333,3.66666667 C14.3333333,3.66666667 14.3333333,12.3333333 14.3333333,12.3333333 C14.3333333,12.3333333 13,12.3333333 13,12.3333333 C13,12.3333333 13,3.66666667 13,3.66666667 Z M9.66666667,3.66666667 C9.66666667,3.66666667 11,3.66666667 11,3.66666667 C11,3.66666667 11,9.66666667 11,9.66666667 C11,9.66666667 9.66666667,9.66666667 9.66666667,9.66666667 C9.66666667,9.66666667 9.66666667,3.66666667 9.66666667,3.66666667 Z M6.33333333,3.66666667 C6.33333333,3.66666667 7.66666667,3.66666667 7.66666667,3.66666667 C7.66666667,3.66666667 7.66666667,7 7.66666667,7 C7.66666667,7 6.33333333,7 6.33333333,7 C6.33333333,7 6.33333333,3.66666667 6.33333333,3.66666667 Z" id="形状" fill="#999999" transform="translate(10.3333, 8) rotate(90) translate(-10.3333, -8)"></path>
        <polygon id="路径-28" fill="#979797" fill-rule="nonzero" points="9.45187187 2.28719335 10.5481281 3.04613999 4.54812813 11.7128067 4.15397091 12.2821449 3.6 11.8666667 0.933333333 9.86666667 1.73333333 8.8 3.84533333 10.384"></polygon>
    </g>
</svg>