<?xml version="1.0" encoding="UTF-8"?>
<svg width="16px" height="16px" viewBox="0 0 16 16" version="1.1" xmlns="http://www.w3.org/2000/svg" xmlns:xlink="http://www.w3.org/1999/xlink">
    <title>icon/通用类/el-icon-pie-chart</title>
    <g id="icon/通用类/el-icon-pie-chart" stroke="none" stroke-width="1" fill="none" fill-rule="evenodd">
        <path d="M5.99931412,2.34165389 L5.99950927,3.78265393 C4.42314227,4.5317302 3.33333333,6.13859584 3.33333333,8 C3.33333333,10.5773288 5.42267117,12.6666667 8,12.6666667 C9.86179325,12.6666667 11.4689416,11.5764021 12.2178157,9.99950214 L13.6584578,10.00037 C12.8346805,12.3305615 10.6122994,14 8,14 C4.6862915,14 2,11.3137085 2,8 C2,5.38781865 3.66928766,3.16552033 5.99931412,2.34165389 Z" id="形状结合" fill="#999999" fill-rule="nonzero"></path>
        <path d="M8,1.33328609 C11.6818909,1.33328609 14.6666667,4.31809428 14.6666667,8 C14.6666667,8.22871017 14.6666667,8.45081148 14.6666667,8.66630393 L7.33394485,8.66630393 L7.33394485,1.33328609 L8,1.33328609 Z M8.66390657,2.70795276 L8.66445172,5.12453979 C8.66449715,5.20487405 8.66454541,5.28675775 8.66459652,5.37019088 L8.66513315,6.1629234 C8.66520129,6.25565301 8.66527228,6.34993201 8.6653461,6.44576038 L8.6658231,7.0393231 L8.66590657,7.33328609 L8.95864123,7.33383277 C9.06048694,7.33388321 9.16078943,7.33393196 9.2595487,7.33397904 L10.6251948,7.33455907 C10.7085216,7.33458933 10.7903052,7.33464481 10.8705455,7.33464481 L13.2919066,7.33464481 L13.2711153,7.18278622 C12.9188034,4.89160136 11.1083748,3.08115378 8.81720766,2.72883815 L8.66390657,2.70795276 Z" id="椭圆形" fill="#999999" fill-rule="nonzero"></path>
    </g>
</svg>