<?xml version="1.0" encoding="UTF-8"?>
<svg width="16px" height="16px" viewBox="0 0 16 16" version="1.1" xmlns="http://www.w3.org/2000/svg" xmlns:xlink="http://www.w3.org/1999/xlink">
    <title>icon/通用类/el-icon-stopwatch</title>
    <g id="icon/通用类/el-icon-stopwatch" stroke="none" stroke-width="1" fill="none" fill-rule="evenodd">
        <path d="M1.33333333,8 C1.33333333,4.3181 4.3181,1.33333333 8,1.33333333 C11.6819,1.33333333 14.6666667,4.3181 14.6666667,8 C14.6666667,11.6819 11.6819,14.6666667 8,14.6666667 C4.3181,14.6666667 1.33333333,11.6819 1.33333333,8 Z M8,2.66666667 C5.05446667,2.66666667 2.66666667,5.05446667 2.66666667,8 C2.66666667,10.9455333 5.05446667,13.3333333 8,13.3333333 C10.9455333,13.3333333 13.3333333,10.9455333 13.3333333,8 C13.3333333,5.05446667 10.9455333,2.66666667 8,2.66666667 Z M6.7120989,7.65490794 C6.83915892,7.18071349 7.71290373,5.96241084 9.33333333,4 C9.4301052,6.42253359 9.41496112,7.87089761 9.2879011,8.34509206 C9.09731107,9.05638374 8.36619962,9.47849113 7.65490794,9.2879011 C6.94361626,9.09731107 6.52150887,8.36619962 6.7120989,7.65490794 Z" id="形状" fill="#999999"></path>
    </g>
</svg>