<?xml version="1.0" encoding="UTF-8"?>
<svg width="16px" height="16px" viewBox="0 0 16 16" version="1.1" xmlns="http://www.w3.org/2000/svg" xmlns:xlink="http://www.w3.org/1999/xlink">
    <title>icon/编辑类/el-icon-bottom-left</title>
    <g id="icon/编辑类/el-icon-bottom-left" stroke="none" stroke-width="1" fill="none" fill-rule="evenodd">
        <path d="M11.6164098,8.87868043 C11.6164098,8.87868043 12.5592431,9.82148043 12.5592431,9.82148043 C12.5592431,9.82148043 7.84517648,14.5355471 7.84517648,14.5355471 C7.84517648,14.5355471 3.13114314,9.82148043 3.13114314,9.82148043 C3.13114314,9.82148043 4.07395314,8.87868043 4.07395314,8.87868043 C4.07395314,8.87868043 7.17920981,11.9839471 7.17920981,11.9839471 C7.17920981,11.9839471 7.17920981,1.77411376 7.17920981,1.77411376 C7.17920981,1.77411376 8.51254314,1.77411376 8.51254314,1.77411376 C8.51254314,1.77411376 8.51254314,11.9825471 8.51254314,11.9825471 C8.51254314,11.9825471 11.6164098,8.87868043 11.6164098,8.87868043 Z" id="路径" fill="#999999" transform="translate(7.8452, 8.1548) rotate(-315) translate(-7.8452, -8.1548)"></path>
    </g>
</svg>