<?xml version="1.0" encoding="UTF-8"?>
<svg width="16px" height="16px" viewBox="0 0 16 16" version="1.1" xmlns="http://www.w3.org/2000/svg" xmlns:xlink="http://www.w3.org/1999/xlink">
    <title>icon/面性/icon-basic-file-facefrown</title>
    <g id="icon/面性/icon-basic-file-facefrown" stroke="none" stroke-width="1" fill="none" fill-rule="evenodd">
        <path d="M8,1.33333333 C11.6819,1.33333333 14.6666667,4.3181 14.6666667,8 C14.6666667,11.6819 11.6819,14.6666667 8,14.6666667 C4.3181,14.6666667 1.33333333,11.6819 1.33333333,8 C1.33333333,4.3181 4.3181,1.33333333 8,1.33333333 Z M5.64296667,9.97633333 C5.31723333,10.3020667 5.07213333,10.6798667 4.90903333,11.0837 C4.90903333,11.0837 5.41995323,11.2900434 5.78489602,11.4374315 L5.99935622,11.5240448 C6.08856446,11.560073 6.14533333,11.583 6.14533333,11.583 C6.2426,11.3422 6.38896667,11.1159667 6.5858,10.9191333 C7.36683333,10.1381 8.63316667,10.1381 9.4142,10.9191333 C9.61103333,11.1159667 9.7574,11.3422 9.85466667,11.583 C9.85466667,11.583 11.0909667,11.0837 11.0909667,11.0837 C10.9278667,10.6798667 10.6827667,10.3020667 10.3570333,9.97633333 C9.05526667,8.67456667 6.94473333,8.67456667 5.64296667,9.97633333 Z M6.66666667,5.66666667 L5.33333333,5.66666667 L5.33333333,7.66666667 L6.66666667,7.66666667 L6.66666667,5.66666667 Z M10.6666667,5.66666667 L9.33333333,5.66666667 L9.33333333,7.66666667 L10.6666667,7.66666667 L10.6666667,5.66666667 Z" id="形状" fill="#999999"></path>
    </g>
</svg>