<?xml version="1.0" encoding="UTF-8"?>
<svg width="16px" height="16px" viewBox="0 0 16 16" version="1.1" xmlns="http://www.w3.org/2000/svg" xmlns:xlink="http://www.w3.org/1999/xlink">
    <title>icon/通用类/icon-general-line-shake</title>
    <g id="icon/通用类/icon-general-line-shake" stroke="none" stroke-width="1" fill="none" fill-rule="evenodd">
        <path d="M6.35014419,1.16471354 C6.35014419,1.16471354 2.57891419,4.93594688 2.57891419,4.93594688 C2.57891419,4.93594688 3.52172419,5.87874688 3.52172419,5.87874688 C3.52172419,5.87874688 7.29294419,2.10752354 7.29294419,2.10752354 C7.29294419,2.10752354 6.35014419,1.16471354 6.35014419,1.16471354 C6.35014419,1.16471354 6.35014419,1.16471354 6.35014419,1.16471354 Z M10.1213775,1.63611688 C9.73087752,1.24559488 9.09771086,1.24559221 8.70717752,1.63611688 C8.70717752,1.63611688 1.63610419,8.70718021 1.63610419,8.70718021 C1.24557952,9.09771354 1.24557986,9.73088021 1.63610419,10.1214135 C1.63610419,10.1214135 5.87874419,14.3640469 5.87874419,14.3640469 C6.26927752,14.7545802 6.90244419,14.7545802 7.29294419,14.3640469 C7.29294419,14.3640469 14.3640109,7.29298021 14.3640109,7.29298021 C14.7545442,6.90244688 14.7545442,6.26928021 14.3640109,5.87874688 C14.3640109,5.87874688 10.1213775,1.63611688 10.1213775,1.63611688 C10.1213775,1.63611688 10.1213775,1.63611688 10.1213775,1.63611688 Z M2.81461419,9.41428021 C2.81461419,9.41428021 9.41427752,2.81463021 9.41427752,2.81463021 C9.41427752,2.81463021 13.1855109,6.58588021 13.1855109,6.58588021 C13.1855109,6.58588021 6.58584419,13.1855469 6.58584419,13.1855469 C6.58584419,13.1855469 2.81461419,9.41428021 2.81461419,9.41428021 C2.81461419,9.41428021 2.81461419,9.41428021 2.81461419,9.41428021 Z M13.8926109,8.70718021 C13.8926109,8.70718021 10.1213775,12.4784135 10.1213775,12.4784135 C10.1213775,12.4784135 11.0642109,13.4212469 11.0642109,13.4212469 C11.0642109,13.4212469 14.8354442,9.64998021 14.8354442,9.64998021 C14.8354442,9.64998021 13.8926109,8.70718021 13.8926109,8.70718021 C13.8926109,8.70718021 13.8926109,8.70718021 13.8926109,8.70718021 Z M6.58584419,9.41428021 C6.19534419,9.02378021 5.56217752,9.02378021 5.17164419,9.41428021 C5.12281086,9.46311354 5.08011086,9.51571354 5.04351086,9.57118021 C4.85991086,9.84924688 4.82974419,10.1988135 4.95307752,10.5003802 C5.00187752,10.6197469 5.07474419,10.7316135 5.17164419,10.8285135 C5.56217752,11.2190469 6.19531086,11.2190469 6.58584419,10.8285135 C6.58584419,10.8285135 6.58584419,10.8285135 6.58584419,10.8285135 C6.87321086,10.5411469 6.94911086,10.1224469 6.81361086,9.76571354 C6.76494419,9.63758021 6.68904419,9.51748021 6.58584419,9.41428021 C6.58584419,9.41428021 6.58584419,9.41428021 6.58584419,9.41428021 Z" id="形状" fill="#999999"></path>
    </g>
</svg>