<?xml version="1.0" encoding="UTF-8"?>
<svg width="16px" height="16px" viewBox="0 0 16 16" version="1.1" xmlns="http://www.w3.org/2000/svg" xmlns:xlink="http://www.w3.org/1999/xlink">
    <title>icon/通用类/icon-general-line-oldversion</title>
    <g id="icon/通用类/icon-general-line-oldversion" stroke="none" stroke-width="1" fill="none" fill-rule="evenodd">
        <path d="M1.33333333,2.66666667 C1.33333333,2.11438 1.78105,1.66666667 2.33333333,1.66666667 C2.33333333,1.66666667 13.6666667,1.66666667 13.6666667,1.66666667 C14.2189667,1.66666667 14.6666667,2.11438 14.6666667,2.66666667 C14.6666667,2.66666667 14.6666667,11.3333333 14.6666667,11.3333333 C14.6666667,11.8856333 14.2189667,12.3333333 13.6666667,12.3333333 C13.6666667,12.3333333 2.33333333,12.3333333 2.33333333,12.3333333 C1.78105,12.3333333 1.33333333,11.8856333 1.33333333,11.3333333 C1.33333333,11.3333333 1.33333333,2.66666667 1.33333333,2.66666667 C1.33333333,2.66666667 1.33333333,2.66666667 1.33333333,2.66666667 Z M2.66666667,3 C2.66666667,3 2.66666667,11 2.66666667,11 C2.66666667,11 13.3333333,11 13.3333333,11 C13.3333333,11 13.3333333,3 13.3333333,3 C13.3333333,3 2.66666667,3 2.66666667,3 C2.66666667,3 2.66666667,3 2.66666667,3 Z M12,14.3333333 C12,14.3333333 4,14.3333333 4,14.3333333 C4,14.3333333 4,13 4,13 C4,13 12,13 12,13 C12,13 12,14.3333333 12,14.3333333 C12,14.3333333 12,14.3333333 12,14.3333333 Z M7.89536667,8.64816667 C7.89536667,8.64816667 6.91603333,7.661 6.91603333,7.661 C6.91603333,7.661 11.3302333,7.67863333 11.3302333,7.67863333 C11.3302333,7.67863333 11.3355333,6.3453 11.3355333,6.3453 C11.3355333,6.3453 6.92136667,6.32766667 6.92136667,6.32766667 C6.92136667,6.32766667 7.90853333,5.34836667 7.90853333,5.34836667 C7.90853333,5.34836667 6.9695,4.4018 6.9695,4.4018 C6.9695,4.4018 4.36644,6.98416667 4.36644,6.98416667 C4.36644,6.98416667 6.9488,9.5872 6.9488,9.5872 C6.9488,9.5872 7.89536667,8.64816667 7.89536667,8.64816667 C7.89536667,8.64816667 7.89536667,8.64816667 7.89536667,8.64816667 Z" id="形状" fill="#999999"></path>
    </g>
</svg>