<?xml version="1.0" encoding="UTF-8"?>
<svg width="16px" height="16px" viewBox="0 0 16 16" version="1.1" xmlns="http://www.w3.org/2000/svg" xmlns:xlink="http://www.w3.org/1999/xlink">
    <title>icon/基础类/el-icon-user</title>
    <g id="icon/基础类/el-icon-user" stroke="none" stroke-width="1" fill="none" fill-rule="evenodd">
        <path d="M11.3125808,9.33333333 C12.8478723,9.33333333 14.1429039,10.4765642 14.3333333,12 L14.4793275,13.1679537 C14.5706642,13.8986469 14.0523633,14.5650338 13.32167,14.6563705 C13.2668103,14.663228 13.2115771,14.6666667 13.1562904,14.6666667 L2.84370962,14.6666667 C2.10732996,14.6666667 1.51037629,14.069713 1.51037629,13.3333333 C1.51037629,13.2780466 1.51381498,13.2228135 1.52067246,13.1679537 L1.66666667,12 C1.85709614,10.4765642 3.15212772,9.33333333 4.68741925,9.33333333 L11.3125808,9.33333333 Z M11.3125808,10.6666667 L4.68741925,10.6666667 C3.82455875,10.6666667 3.09672851,11.3091823 2.98970384,12.1653796 L2.84370962,13.3333333 L13.1562904,13.3333333 L13.0102962,12.1653796 C12.9032715,11.3091823 12.1754413,10.6666667 11.3125808,10.6666667 Z M8,1.33333333 C9.84094917,1.33333333 11.3333333,2.8257175 11.3333333,4.66666667 C11.3333333,6.50761583 9.84094917,8 8,8 C6.15905083,8 4.66666667,6.50761583 4.66666667,4.66666667 C4.66666667,2.8257175 6.15905083,1.33333333 8,1.33333333 Z M8,2.66666667 C6.8954305,2.66666667 6,3.56209717 6,4.66666667 C6,5.77123617 6.8954305,6.66666667 8,6.66666667 C9.1045695,6.66666667 10,5.77123617 10,4.66666667 C10,3.56209717 9.1045695,2.66666667 8,2.66666667 Z" id="形状结合" fill="#999999"></path>
    </g>
</svg>