<?xml version="1.0" encoding="UTF-8"?>
<svg width="16px" height="16px" viewBox="0 0 16 16" version="1.1" xmlns="http://www.w3.org/2000/svg" xmlns:xlink="http://www.w3.org/1999/xlink">
    <title>icon/通用类/icon-general-line-at</title>
    <g id="icon/通用类/icon-general-line-at" stroke="none" stroke-width="1" fill="none" fill-rule="evenodd">
        <path d="M8,2.66666667 C5.05446667,2.66666667 2.66666667,5.05446667 2.66666667,8 C2.66666667,10.9455333 5.05446667,13.3333333 8,13.3333333 C9.25806667,13.3333333 10.4127667,12.8985667 11.3246333,12.1705667 C11.3246333,12.1705667 12.1565333,13.2125667 12.1565333,13.2125667 C11.0169333,14.1223667 9.5711,14.6666667 8,14.6666667 C4.3181,14.6666667 1.33333333,11.6819 1.33333333,8 C1.33333333,4.3181 4.3181,1.33333333 8,1.33333333 C11.6819,1.33333333 14.6666667,4.3181 14.6666667,8 C14.6666667,9.3807 13.5473667,10.5 12.1666667,10.5 C11.3968667,10.5 10.7641667,10.0647 10.3495333,9.54593333 C10.3477,9.54363333 10.3459,9.54136667 10.3441,9.53906667 C9.79433333,10.2264 8.9486,10.6666667 8,10.6666667 C6.34313333,10.6666667 5,9.32353333 5,7.66666667 C5,6.0098 6.34313333,4.66666667 8,4.66666667 C9.65686667,4.66666667 11,6.0098 11,7.66666667 C11,8.00563333 11.1432333,8.4034 11.3910667,8.71346667 C11.64,9.0249 11.9239333,9.16666667 12.1666667,9.16666667 C12.811,9.16666667 13.3333333,8.64433333 13.3333333,8 C13.3333333,5.05446667 10.9455333,2.66666667 8,2.66666667 C8,2.66666667 8,2.66666667 8,2.66666667 Z M9.66666667,7.66666667 C9.66666667,6.7462 8.92046667,6 8,6 C7.07953333,6 6.33333333,6.7462 6.33333333,7.66666667 C6.33333333,8.58713333 7.07953333,9.33333333 8,9.33333333 C8.92046667,9.33333333 9.66666667,8.58713333 9.66666667,7.66666667 C9.66666667,7.66666667 9.66666667,7.66666667 9.66666667,7.66666667 Z" id="形状" fill="#999999"></path>
    </g>
</svg>