<?xml version="1.0" encoding="UTF-8"?>
<svg width="16px" height="16px" viewBox="0 0 16 16" version="1.1" xmlns="http://www.w3.org/2000/svg" xmlns:xlink="http://www.w3.org/1999/xlink">
    <title>icon/消费类/el-icon-sold-out</title>
    <g id="icon/消费类/el-icon-sold-out" stroke="none" stroke-width="1" fill="none" fill-rule="evenodd">
        <path d="M12.0807317,4 C12.7848161,4 13.3675489,4.54744906 13.4114685,5.25016229 L13.519935,7 L12.183935,7 L12.0807317,5.33333333 L3.9192683,5.33333333 L3.4192683,13.3333333 L7.99993496,13.333 L7.99993496,14.666 L3.4192683,14.6666667 C2.68288863,14.6666667 2.08593496,14.069713 2.08593496,13.3333333 C2.08593496,13.3055894 2.0868009,13.2778522 2.08853152,13.2501623 L2.58853152,5.25016229 C2.6324511,4.54744906 3.21518392,4 3.9192683,4 L12.0807317,4 Z" id="形状结合" fill="#979797" fill-rule="nonzero"></path>
        <path d="M8,0.666666667 C9.47275933,0.666666667 10.6666667,1.860574 10.6666667,3.33333333 L10.6666667,6.66666667 C10.6666667,7.0348565 10.3681898,7.33333333 10,7.33333333 C9.63181017,7.33333333 9.33333333,7.0348565 9.33333333,6.66666667 L9.33333333,3.33333333 C9.33333333,2.59695367 8.73637967,2 8,2 C7.26362033,2 6.66666667,2.59695367 6.66666667,3.33333333 L6.66666667,6.66666667 C6.66666667,7.0348565 6.36818983,7.33333333 6,7.33333333 C5.63181017,7.33333333 5.33333333,7.0348565 5.33333333,6.66666667 L5.33333333,3.33333333 C5.33333333,1.860574 6.52724067,0.666666667 8,0.666666667 Z" id="路径-10" fill="#979797" fill-rule="nonzero"></path>
        <path d="M11.69,12.1042333 C11.69,12.1042333 11.69,8.66666667 11.69,8.66666667 C11.69,8.66666667 13.0233333,8.66666667 13.0233333,8.66666667 C13.0233333,8.66666667 13.0233333,12.1049333 13.0233333,12.1049333 C13.0233333,12.1049333 14.2426333,10.8856333 14.2426333,10.8856333 C14.2426333,10.8856333 15.1854667,11.8284333 15.1854667,11.8284333 C15.1854667,11.8284333 12.3570333,14.6568667 12.3570333,14.6568667 C12.3570333,14.6568667 9.5286,11.8284333 9.5286,11.8284333 C9.5286,11.8284333 10.4714,10.8856333 10.4714,10.8856333 C10.4714,10.8856333 11.69,12.1042333 11.69,12.1042333 C11.69,12.1042333 11.69,12.1042333 11.69,12.1042333 Z" id="路径" fill="#999999"></path>
    </g>
</svg>