<?xml version="1.0" encoding="UTF-8"?>
<svg width="16px" height="16px" viewBox="0 0 16 16" version="1.1" xmlns="http://www.w3.org/2000/svg" xmlns:xlink="http://www.w3.org/1999/xlink">
    <title>icon/编辑类/icon-edit-line-bgcolors</title>
    <g id="icon/编辑类/icon-edit-line-bgcolors" stroke="none" stroke-width="1" fill="none" fill-rule="evenodd">
        <path d="M6.64053333,3.05473667 C6.64053333,3.05473667 5.86193333,2.27614333 5.86193333,2.27614333 C5.86193333,2.27614333 6.80473333,1.33333333 6.80473333,1.33333333 C6.80473333,1.33333333 12.0690333,6.59763333 12.0690333,6.59763333 C12.4595667,6.98816667 12.4595667,7.62133333 12.0690333,8.01183333 C12.0690333,8.01183333 7.5451,12.5357667 7.5451,12.5357667 C7.14916667,12.9317333 6.50526667,12.9254 6.11716667,12.5217667 C6.11716667,12.5217667 2.41266333,8.6691 2.41266333,8.6691 C2.03516467,8.2765 2.04126667,7.654 2.42638667,7.26886667 C2.42638667,7.26886667 6.64053333,3.05473667 6.64053333,3.05473667 C6.64053333,3.05473667 6.64053333,3.05473667 6.64053333,3.05473667 Z M7.58333333,3.99754667 C7.58333333,3.99754667 3.77614333,7.80473333 3.77614333,7.80473333 C3.77614333,7.80473333 10.3905333,7.80473333 10.3905333,7.80473333 C10.3905333,7.80473333 10.8905333,7.30473333 10.8905333,7.30473333 C10.8905333,7.30473333 7.58333333,3.99754667 7.58333333,3.99754667 C7.58333333,3.99754667 7.58333333,3.99754667 7.58333333,3.99754667 Z M14,14.7214 C14,14.7214 2,14.7214 2,14.7214 C2,14.7214 2,13.3880667 2,13.3880667 C2,13.3880667 14,13.3880667 14,13.3880667 C14,13.3880667 14,14.7214 14,14.7214 C14,14.7214 14,14.7214 14,14.7214 Z M12.4004,9.05476667 C12.4004,9.05476667 13.3378,9.9922 13.3378,9.9922 C13.5822667,10.2339 13.7337333,10.5694333 13.7337333,10.9403333 C13.7337333,11.6767333 13.1367667,12.2736667 12.4004,12.2736667 C11.6640333,12.2736667 11.0670667,11.6767333 11.0670667,10.9403333 C11.0670667,10.5694333 11.2185,10.2339 11.4629667,9.9922 C11.4629667,9.9922 12.4004,9.05476667 12.4004,9.05476667 C12.4004,9.05476667 12.4004,9.05476667 12.4004,9.05476667 Z" id="形状" fill="#999999"></path>
    </g>
</svg>