<?xml version="1.0" encoding="UTF-8"?>
<svg width="16px" height="16px" viewBox="0 0 16 16" version="1.1" xmlns="http://www.w3.org/2000/svg" xmlns:xlink="http://www.w3.org/1999/xlink">
    <title>icon/通用类/icon-general-line-shareexternal</title>
    <g id="icon/通用类/icon-general-line-shareexternal" stroke="none" stroke-width="1" fill="none" fill-rule="evenodd">
        <path d="M5.99966667,6 L5.99966667,7.333 L4,7.33333333 L4,13.3333333 L12,13.3333333 L12,7.33333333 L9.99966667,7.333 L9.99966667,6 L12,6 C12.7363797,6 13.3333333,6.59695367 13.3333333,7.33333333 L13.3333333,13.3333333 C13.3333333,14.069713 12.7363797,14.6666667 12,14.6666667 L4,14.6666667 C3.26362033,14.6666667 2.66666667,14.069713 2.66666667,13.3333333 L2.66666667,7.33333333 C2.66666667,6.59695367 3.26362033,6 4,6 L5.99966667,6 Z M8.00133333,1.05719344 L8.01269281,1.068553 L8.17025537,1.22611685 C8.38408072,1.43994396 8.77751938,1.83338584 9.21372312,2.26959314 L10.0483102,3.10418707 C10.7026158,3.75849802 11.2607,4.31658677 11.2607,4.31658677 C11.2607,4.31658677 10.9528469,4.62444201 10.6889729,4.88831793 L10.5048108,5.07248133 C10.4773239,5.0999684 10.4518985,5.12539395 10.4292219,5.14807079 L10.3316434,5.2456499 C10.3227102,5.2545832 10.3179,5.25939344 10.3179,5.25939344 C10.3179,5.25939344 10.2996175,5.24111096 10.2669013,5.20839496 L9.8110404,4.75253589 C9.73021229,4.6717081 9.64457298,4.58606914 9.55797144,4.49946795 L8.6679,3.6094001 L8.66767275,8.48727736 C8.66766978,8.55098841 8.66766694,8.61199174 8.66766424,8.6699688 L8.66763333,9.3333601 L7.3343,9.3333601 L7.33456667,3.60955677 L7.05193797,3.89218661 C6.8162136,4.12791193 6.47441328,4.46971363 6.19154405,4.75258401 L5.79514226,5.1489874 C5.72586816,5.21826178 5.68473667,5.25939344 5.68473667,5.25939344 L5.40986592,4.98452269 C5.34802,4.92267677 5.28067667,4.85533344 5.21333333,4.7879901 L4.74193,4.31658677 L4.78629926,4.27221765 C4.81516601,4.24335099 4.85739699,4.20112013 4.91085393,4.14766336 L5.48885711,3.56966196 C5.63319085,3.42532866 5.79075518,3.26776481 5.95433342,3.10418707 L6.28737016,2.77115135 C6.45575953,2.6027625 6.62535167,2.43317088 6.78892991,2.26959314 L7.10592957,1.95259445 C7.46141823,1.59710689 7.75797061,1.30055542 7.90390806,1.15461841 L8.00133333,1.05719344 Z" id="形状结合" fill="#999999"></path>
    </g>
</svg>