<?xml version="1.0" encoding="UTF-8"?>
<svg width="16px" height="16px" viewBox="0 0 16 16" version="1.1" xmlns="http://www.w3.org/2000/svg" xmlns:xlink="http://www.w3.org/1999/xlink">
    <title>icon/面性/icon-basic-file-mute</title>
    <g id="icon/面性/icon-basic-file-mute" stroke="none" stroke-width="1" fill="none" fill-rule="evenodd">
        <path d="M14.0946999,13.7573666 L2.33733999,2 L1.39453133,2.94281 L13.1518999,14.7001666 L14.0946999,13.7573666 Z M8.66666663,6.91479997 L5.77073331,4.01885332 L7.61769997,2.72598333 C7.8213333,2.58343 8.08739997,2.56602 8.30786663,2.68081666 C8.52836663,2.79561666 8.66666663,3.02355333 8.66666663,3.27213666 L8.66666663,6.91479997 Z M13.7102666,11.9583999 L12.7313333,10.9794333 C13.7546666,9.0163333 13.4733999,6.54996664 11.8875666,4.86345999 C11.8244999,4.79640332 11.8240333,4.69077665 11.8891333,4.62568999 L12.5962333,3.91858332 C12.6613333,3.85349666 12.7673666,3.85370999 12.8308333,3.92037999 C14.9381333,6.13403331 15.2312999,9.44066663 13.7102666,11.9583999 Z M1.97702666,4.93919332 C1.61947433,4.95129998 1.33333333,5.24496998 1.33333333,5.60546665 L1.33333333,11.6054666 C1.33333333,11.9736666 1.63181,12.2721333 2,12.2721333 L4.45651998,12.2721333 L7.61769997,14.4849666 C7.8213333,14.6274999 8.08739997,14.6449333 8.30786663,14.5301333 C8.52836663,14.4153333 8.66666663,14.1873999 8.66666663,13.9387999 L8.66666663,11.6288333 L1.97702666,4.93919332 Z M11.7569333,10.0050666 L10.6528666,8.90096663 C10.7260333,8.18269997 10.5083666,7.44039997 9.99986662,6.86503331 C9.93889996,6.79606664 9.93836662,6.69076664 10.0034666,6.62569998 L10.7105666,5.91859998 C10.7756666,5.85349998 10.8816,5.85339998 10.9439666,5.92109998 C11.9857333,7.05199997 12.2567333,8.63759997 11.7569333,10.0050666 Z" id="形状" fill="#999999"></path>
    </g>
</svg>