<?xml version="1.0" encoding="UTF-8"?>
<svg width="16px" height="16px" viewBox="0 0 16 16" version="1.1" xmlns="http://www.w3.org/2000/svg" xmlns:xlink="http://www.w3.org/1999/xlink">
    <title>icon/通用类/icon-general-line-menu</title>
    <g id="icon/通用类/icon-general-line-menu" stroke="none" stroke-width="1" fill="none" fill-rule="evenodd">
        <path d="M14.6666667,4 C14.6666667,4 2,4 2,4 C2,4 2,2.66666667 2,2.66666667 C2,2.66666667 14.6666667,2.66666667 14.6666667,2.66666667 C14.6666667,2.66666667 14.6666667,4 14.6666667,4 C14.6666667,4 14.6666667,4 14.6666667,4 Z M14.6666667,8.66666667 C14.6666667,8.66666667 2,8.66666667 2,8.66666667 C2,8.66666667 2,7.33333333 2,7.33333333 C2,7.33333333 14.6666667,7.33333333 14.6666667,7.33333333 C14.6666667,7.33333333 14.6666667,8.66666667 14.6666667,8.66666667 C14.6666667,8.66666667 14.6666667,8.66666667 14.6666667,8.66666667 Z M14.6666667,13.3333333 C14.6666667,13.3333333 2,13.3333333 2,13.3333333 C2,13.3333333 2,12 2,12 C2,12 14.6666667,12 14.6666667,12 C14.6666667,12 14.6666667,13.3333333 14.6666667,13.3333333 C14.6666667,13.3333333 14.6666667,13.3333333 14.6666667,13.3333333 Z" id="形状" fill="#999999"></path>
    </g>
</svg>