<?xml version="1.0" encoding="UTF-8"?>
<svg width="16px" height="16px" viewBox="0 0 16 16" version="1.1" xmlns="http://www.w3.org/2000/svg" xmlns:xlink="http://www.w3.org/1999/xlink">
    <title>icon/编辑类/el-icon-document-copy</title>
    <g id="icon/编辑类/el-icon-document-copy" stroke="none" stroke-width="1" fill="none" fill-rule="evenodd">
        <path d="M12.6666667,2.66666667 C12.6666667,2.66666667 6.66666667,2.66666667 6.66666667,2.66666667 C6.66666667,2.66666667 6.66666667,1.33333333 6.66666667,1.33333333 C6.66666667,1.33333333 12.6666667,1.33333333 12.6666667,1.33333333 C13.4030333,1.33333333 14,1.93028667 14,2.66666667 C14,2.66666667 14,10 14,10 C14,10 12.6666667,10 12.6666667,10 C12.6666667,10 12.6666667,2.66666667 12.6666667,2.66666667 C12.6666667,2.66666667 12.6666667,2.66666667 12.6666667,2.66666667 Z M2,5.33333333 C2,4.59695333 2.59695333,4 3.33333333,4 C3.33333333,4 10,4 10,4 C10.7349667,4 11.3333333,4.59447667 11.3333333,5.33226667 C11.3333333,5.33226667 11.3333333,13.3361667 11.3333333,13.3361667 C11.3333333,14.0751333 10.7346667,14.6666667 10.0008667,14.6666667 C10.0008667,14.6666667 3.33184,14.6666667 3.33184,14.6666667 C2.59351,14.6666667 2,14.0677667 2,13.3333333 C2,13.3333333 2,5.33333333 2,5.33333333 C2,5.33333333 2,5.33333333 2,5.33333333 Z M10,5.33333333 C10,5.33333333 3.33333333,5.33333333 3.33333333,5.33333333 C3.33333333,5.33333333 3.33333333,13.3333333 3.33333333,13.3333333 C3.33333333,13.3333333 10,13.3333333 10,13.3333333 C10,13.3333333 10,5.33333333 10,5.33333333 C10,5.33333333 10,5.33333333 10,5.33333333 Z" id="形状" fill="#999999"></path>
    </g>
</svg>