<?xml version="1.0" encoding="UTF-8"?>
<svg width="16px" height="16px" viewBox="0 0 16 16" version="1.1" xmlns="http://www.w3.org/2000/svg" xmlns:xlink="http://www.w3.org/1999/xlink">
    <title>icon/面性/el-icon-s-opportunity</title>
    <g id="icon/面性/el-icon-s-opportunity" stroke="none" stroke-width="1" fill="none" fill-rule="evenodd">
        <path d="M10.3333333,13.3333333 L10.3333333,14.6666667 L5.66666667,14.6666667 L5.66666667,13.3333333 L10.3333333,13.3333333 Z M8,1 C10.7614333,1 13,3.23857667 13,6 C13,7.0851 12.6535667,8.0913 12.0653667,8.91136667 C12.043,8.94256667 12.0207667,8.97353333 11.9987,9.00426667 C11.4886667,9.7145 11.0689333,10.299 10.9171667,10.9689667 C10.9171667,10.9689667 10.7090333,11.8876333 10.7090333,11.8876333 C10.6058,12.3432333 10.2009,12.6666667 9.73373333,12.6666667 L6.26626,12.6666667 C5.79911,12.6666667 5.39420333,12.3432333 5.29097667,11.8876333 C5.29097667,11.8876333 5.08284,10.9689667 5.08284,10.9689667 C4.93105,10.299 4.51133333,9.7145 4.00131333,9.00426667 C3.97924667,8.97353333 3.95701333,8.94256667 3.93462667,8.91136667 C3.34643333,8.0913 3,7.0851 3,6 C3,3.23857667 5.23857667,1 8,1 Z M7.33332559,2.34979252 C5.6488884,2.51703758 4.33333333,3.93821995 4.33333333,5.66666667 C4.33333333,5.77922562 4.33891234,5.89048153 4.34980892,6.00017295 L5.69440918,6.00053425 C5.67616406,5.89196306 5.66666667,5.78042398 5.66666667,5.66666667 C5.66666667,4.67550338 6.38766822,3.85273903 7.33380446,3.6942405 Z" id="形状结合" fill="#999999"></path>
    </g>
</svg>