<?xml version="1.0" encoding="UTF-8"?>
<svg width="16px" height="16px" viewBox="0 0 16 16" version="1.1" xmlns="http://www.w3.org/2000/svg" xmlns:xlink="http://www.w3.org/1999/xlink">
    <title>icon/通用类/icon-general-line-dragdot</title>
    <g id="icon/通用类/icon-general-line-dragdot" stroke="none" stroke-width="1" fill="none" fill-rule="evenodd">
        <path d="M2.00000016,5 C2.00000016,5 4.00000016,5 4.00000016,5 C4.00000016,5 4.00000016,7 4.00000016,7 C4.00000016,7 2.00000016,7 2.00000016,7 C2.00000016,7 2.00000016,5 2.00000016,5 C2.00000016,5 2.00000016,5 2.00000016,5 Z M7,5.0000002 C7,5.0000002 9,5.0000002 9,5.0000002 C9,5.0000002 9,7.0000002 9,7.0000002 C9,7.0000002 7,7.0000002 7,7.0000002 C7,7.0000002 7,5.0000002 7,5.0000002 C7,5.0000002 7,5.0000002 7,5.0000002 Z M12,5.0000004 C12,5.0000004 14,5.0000004 14,5.0000004 C14,5.0000004 14,7.0000004 14,7.0000004 C14,7.0000004 12,7.0000004 12,7.0000004 C12,7.0000004 12,5.0000004 12,5.0000004 C12,5.0000004 12,5.0000004 12,5.0000004 Z M2,9 C2,9 4,9 4,9 C4,9 4,11 4,11 C4,11 2,11 2,11 C2,11 2,9 2,9 C2,9 2,9 2,9 Z M7,9 C7,9 9,9 9,9 C9,9 9,11 9,11 C9,11 7,11 7,11 C7,11 7,9 7,9 C7,9 7,9 7,9 Z M12,9 C12,9 14,9 14,9 C14,9 14,11 14,11 C14,11 12,11 12,11 C12,11 12,9 12,9 C12,9 12,9 12,9 Z" id="形状" fill="#999999"></path>
    </g>
</svg>