<?xml version="1.0" encoding="UTF-8"?>
<svg width="16px" height="16px" viewBox="0 0 16 16" version="1.1" xmlns="http://www.w3.org/2000/svg" xmlns:xlink="http://www.w3.org/1999/xlink">
    <title>icon/通用类/el-icon-data-analysis</title>
    <g id="icon/通用类/el-icon-data-analysis" stroke="none" stroke-width="1" fill="none" fill-rule="evenodd">
        <path d="M11.8221081,2.01178233 L12.8129678,2.90395647 L11.2253333,4.66578233 L13.6666667,4.66666667 C14.2189514,4.66666667 14.6666667,5.11438192 14.6666667,5.66666667 L14.6666667,13.6666667 C14.6666667,14.2189514 14.2189514,14.6666667 13.6666667,14.6666667 L2.33333333,14.6666667 C1.78104858,14.6666667 1.33333333,14.2189514 1.33333333,13.6666667 L1.33333333,5.66666667 C1.33333333,5.11438192 1.78104858,4.66666667 2.33333333,4.66666667 L4.73233333,4.66578233 L3.14558564,2.90395647 L4.13644541,2.01178233 L6.52633333,4.66578233 L9.43133333,4.66578233 L11.8221081,2.01178233 Z M13.3333333,5.9916153 L2.66666667,5.9916153 L2.66666667,13.3249486 L13.3333333,13.3249486 L13.3333333,5.9916153 Z M11.3333333,7.34511566 L11.3333333,12.0117823 L10,12.0117823 L10,7.34511566 L11.3333333,7.34511566 Z M8.66666667,7.34511566 L8.66666667,10.678449 L7.33333333,10.678449 L7.33333333,7.34511566 L8.66666667,7.34511566 Z M6,7.34511566 L6,9.34511566 L4.66666667,9.34511566 L4.66666667,7.34511566 L6,7.34511566 Z" id="形状结合" fill="#999999" transform="translate(8, 8.3392) scale(1, -1) translate(-8, -8.3392)"></path>
    </g>
</svg>