<?xml version="1.0" encoding="UTF-8"?>
<svg width="16px" height="16px" viewBox="0 0 16 16" version="1.1" xmlns="http://www.w3.org/2000/svg" xmlns:xlink="http://www.w3.org/1999/xlink">
    <title>icon/通用类/icon-general-line-thunderbolt</title>
    <g id="icon/通用类/icon-general-line-thunderbolt" stroke="none" stroke-width="1" fill="none" fill-rule="evenodd">
        <path d="M5.26044222,4.31731002 C5.26044222,4.31731002 5.73048886,10.7412363 5.73048886,10.7412363 C5.73048886,10.7412363 7.7646154,8.70710309 7.7646154,8.70710309 C7.7646154,8.70710309 10.7402152,11.6827029 10.7402152,11.6827029 C10.7402152,11.6827029 10.2701486,5.2587633 10.2701486,5.2587633 C10.2701486,5.2587633 8.23601537,7.29290318 8.23601537,7.29290318 C8.23601537,7.29290318 5.26044222,4.31731002 5.26044222,4.31731002 C5.26044222,4.31731002 5.26044222,4.31731002 5.26044222,4.31731002 Z M3.80643642,2.71685678 C3.75910397,2.06998315 4.54092559,1.71218184 4.99954557,2.17079815 C4.99954557,2.17079815 8.23601537,5.40726996 8.23601537,5.40726996 C8.23601537,5.40726996 10.3058486,3.33745675 10.3058486,3.33745675 C10.7296152,2.9137001 11.4552152,3.18367342 11.4989485,3.78135005 C11.4989485,3.78135005 12.1942151,13.2831362 12.1942151,13.2831362 C12.2415485,13.9300361 11.4597152,14.2878361 11.0010819,13.8292028 C11.0010819,13.8292028 7.7646154,10.5927363 7.7646154,10.5927363 C7.7646154,10.5927363 5.69480552,12.6625362 5.69480552,12.6625362 C5.27104555,13.0863028 4.54542893,12.8163362 4.50169559,12.2186696 C4.50169559,12.2186696 3.80643642,2.71685678 3.80643642,2.71685678 C3.80643642,2.71685678 3.80643642,2.71685678 3.80643642,2.71685678 Z" id="形状" fill="#999999" transform="translate(8.0003, 8) rotate(45) translate(-8.0003, -8)"></path>
    </g>
</svg>