<?xml version="1.0" encoding="UTF-8"?>
<svg width="16px" height="16px" viewBox="0 0 16 16" version="1.1" xmlns="http://www.w3.org/2000/svg" xmlns:xlink="http://www.w3.org/1999/xlink">
    <title>icon/通用类/el-icon-umbrella</title>
    <g id="icon/通用类/el-icon-umbrella" stroke="none" stroke-width="1" fill="none" fill-rule="evenodd">
        <path d="M8,1.33333333 C11.6818983,1.33333333 14.6666667,4.31810167 14.6666667,8 L1.33333333,8 C1.33333333,4.31810167 4.31810167,1.33333333 8,1.33333333 Z M8,2.66666667 C5.55466375,2.66666667 3.49370448,4.31238016 2.86426948,6.55665985 L2.83466667,6.66666667 L13.1646667,6.66666667 L13.1357305,6.55665985 C12.5206009,4.36338651 10.5382768,2.741781 8.16611955,2.66920455 L8,2.66666667 Z M9.33333333,8 L9.33333333,12.6666667 C9.33333333,13.7712362 8.43790283,14.6666667 7.33333333,14.6666667 C6.22876383,14.6666667 5.33333333,13.7712362 5.33333333,12.6666667 L5.33333333,11.3333333 L6.66666667,11.3333333 L6.66666667,12.6666667 C6.66666667,13.0348565 6.9651435,13.3333333 7.33333333,13.3333333 C7.70152317,13.3333333 8,13.0348565 8,12.6666667 L8,8 L9.33333333,8 Z" id="形状结合" fill="#979797" fill-rule="nonzero"></path>
    </g>
</svg>