<?xml version="1.0" encoding="UTF-8"?>
<svg width="16px" height="16px" viewBox="0 0 16 16" version="1.1" xmlns="http://www.w3.org/2000/svg" xmlns:xlink="http://www.w3.org/1999/xlink">
    <title>icon/通用类/icon-general-line-image2</title>
    <g id="icon/通用类/icon-general-line-image2" stroke="none" stroke-width="1" fill="none" fill-rule="evenodd">
        <path d="M13.3333333,2 C14.069713,2 14.6666667,2.59695367 14.6666667,3.33333333 L14.6673875,11.9314074 C14.6805091,12.007271 14.6804506,12.0849689 14.6672118,12.1608161 L14.6666667,12.6666667 C14.6666667,13.4030463 14.069713,14 13.3333333,14 L2.66666667,14 C1.930287,14 1.33333333,13.4030463 1.33333333,12.6666667 L1.33333333,3.33333333 C1.33333333,2.59695367 1.930287,2 2.66666667,2 L13.3333333,2 Z M2.66633333,6.276 L2.66666667,12.6666667 L13.3333333,12.6666667 L13.3333333,12.312 L10.4386667,9.41666667 L8.59421154,11.2608782 C8.3538889,11.5012008 7.97573486,11.5196872 7.71420739,11.3163373 L7.6514025,11.2608782 L2.66633333,6.276 Z M13.3333333,3.33333333 L2.66666667,3.33333333 L2.66765884,4.42303339 C2.71664867,4.45146291 2.76279265,4.48665028 2.80473785,4.52859548 L8.12266667,9.84666667 L9.96719197,8.00227969 C10.2075146,7.76195705 10.5856686,7.74347069 10.8471961,7.94682062 L10.910001,8.00227969 L13.3333333,10.426 L13.3333333,3.33333333 Z M10.3333333,4.66666667 C10.8856181,4.66666667 11.3333333,5.11438192 11.3333333,5.66666667 C11.3333333,6.21895142 10.8856181,6.66666667 10.3333333,6.66666667 C9.78104858,6.66666667 9.33333333,6.21895142 9.33333333,5.66666667 C9.33333333,5.11438192 9.78104858,4.66666667 10.3333333,4.66666667 Z" id="形状结合" fill="#999999"></path>
    </g>
</svg>