<?xml version="1.0" encoding="UTF-8"?>
<svg width="16px" height="16px" viewBox="0 0 16 16" version="1.1" xmlns="http://www.w3.org/2000/svg" xmlns:xlink="http://www.w3.org/1999/xlink">
    <title>icon/通用类/icon-general-line-codeblock</title>
    <g id="icon/通用类/icon-general-line-codeblock" stroke="none" stroke-width="1" fill="none" fill-rule="evenodd">
        <path d="M4.66666667,3 C4.66666667,3 4.66666667,6.33333333 4.66666667,6.33333333 C4.66666667,7.09566667 4.17324667,7.6545 3.71239,8 C4.17324667,8.3455 4.66666667,8.90433333 4.66666667,9.66666667 C4.66666667,9.66666667 4.66666667,13 4.66666667,13 C4.66666667,13.1841 4.81590667,13.3333333 5,13.3333333 C5,13.3333333 6.66666667,13.3333333 6.66666667,13.3333333 C6.66666667,13.3333333 6.66666667,14.6666667 6.66666667,14.6666667 C6.66666667,14.6666667 5,14.6666667 5,14.6666667 C4.07952333,14.6666667 3.33333333,13.9204667 3.33333333,13 C3.33333333,13 3.33333333,9.66666667 3.33333333,9.66666667 C3.33333333,9.50233333 3.20239333,9.26013333 2.83345,9.01043333 C2.66585667,8.89703333 2.48213,8.80653333 2.31629567,8.74583333 C2.13915533,8.68096667 2.02822073,8.66666667 2,8.66666667 C2,8.66666667 2,7.33333333 2,7.33333333 C2.02822073,7.33333333 2.13915533,7.31903333 2.31629567,7.25416667 C2.48213,7.19346667 2.66585667,7.10296667 2.83345,6.98956667 C3.20239333,6.73986667 3.33333333,6.49766667 3.33333333,6.33333333 C3.33333333,6.33333333 3.33333333,3 3.33333333,3 C3.33333333,2.07952667 4.07952667,1.33333333 5,1.33333333 C5,1.33333333 6.66666667,1.33333333 6.66666667,1.33333333 C6.66666667,1.33333333 6.66666667,2.66666667 6.66666667,2.66666667 C6.66666667,2.66666667 5,2.66666667 5,2.66666667 C4.81590667,2.66666667 4.66666667,2.81590667 4.66666667,3 Z M9.33333333,2.66666667 C9.33333333,2.66666667 9.33333333,1.33333333 9.33333333,1.33333333 C9.33333333,1.33333333 11,1.33333333 11,1.33333333 C11.9204667,1.33333333 12.6666667,2.07952667 12.6666667,3 C12.6666667,3 12.6666667,6.33333333 12.6666667,6.33333333 C12.6666667,6.49766667 12.7976,6.73986667 13.1665333,6.98956667 C13.3341333,7.10296667 13.5178667,7.19346667 13.6837,7.25416667 C13.8608333,7.31903333 13.9717667,7.33333333 14,7.33333333 C14,7.33333333 14,8.66666667 14,8.66666667 C13.9717667,8.66666667 13.8608333,8.68096667 13.6837,8.74583333 C13.5178667,8.80653333 13.3341333,8.89703333 13.1665333,9.01043333 C12.7976,9.26013333 12.6666667,9.50233333 12.6666667,9.66666667 C12.6666667,9.66666667 12.6666667,13 12.6666667,13 C12.6666667,13.9204667 11.9204667,14.6666667 11,14.6666667 C11,14.6666667 9.33333333,14.6666667 9.33333333,14.6666667 C9.33333333,14.6666667 9.33333333,13.3333333 9.33333333,13.3333333 C9.33333333,13.3333333 11,13.3333333 11,13.3333333 C11.1841,13.3333333 11.3333333,13.1841 11.3333333,13 C11.3333333,13 11.3333333,9.66666667 11.3333333,9.66666667 C11.3333333,8.90433333 11.8267667,8.3455 12.2876,8 C11.8267667,7.6545 11.3333333,7.09566667 11.3333333,6.33333333 C11.3333333,6.33333333 11.3333333,3 11.3333333,3 C11.3333333,2.81590667 11.1841,2.66666667 11,2.66666667 C11,2.66666667 9.33333333,2.66666667 9.33333333,2.66666667 Z" id="形状" fill="#999999"></path>
    </g>
</svg>