<?xml version="1.0" encoding="UTF-8"?>
<svg width="16px" height="16px" viewBox="0 0 16 16" version="1.1" xmlns="http://www.w3.org/2000/svg" xmlns:xlink="http://www.w3.org/1999/xlink">
    <title>icon/面性/el-icon-error</title>
    <g id="icon/面性/el-icon-error" stroke="none" stroke-width="1" fill="none" fill-rule="evenodd">
        <path d="M1.33333333,8 C1.33333333,4.3181 4.3181,1.33333333 8,1.33333333 C11.6819,1.33333333 14.6666667,4.3181 14.6666667,8 C14.6666667,11.6819 11.6819,14.6666667 8,14.6666667 C4.3181,14.6666667 1.33333333,11.6819 1.33333333,8 C1.33333333,8 1.33333333,8 1.33333333,8 Z M5.40946667,6.35236667 C5.40946667,6.35236667 7.05936667,8.00226667 7.05936667,8.00226667 C7.05936667,8.00226667 5.40946667,9.6522 5.40946667,9.6522 C5.40946667,9.6522 6.35226667,10.595 6.35226667,10.595 C6.35226667,10.595 8.00216667,8.94506667 8.00216667,8.94506667 C8.00216667,8.94506667 9.6521,10.595 9.6521,10.595 C9.6521,10.595 10.5949,9.6522 10.5949,9.6522 C10.5949,9.6522 8.945,8.00226667 8.945,8.00226667 C8.945,8.00226667 10.5949,6.35236667 10.5949,6.35236667 C10.5949,6.35236667 9.6521,5.40953333 9.6521,5.40953333 C9.6521,5.40953333 8.00216667,7.05946667 8.00216667,7.05946667 C8.00216667,7.05946667 6.35226667,5.40953333 6.35226667,5.40953333 C6.35226667,5.40953333 5.40946667,6.35236667 5.40946667,6.35236667 C5.40946667,6.35236667 5.40946667,6.35236667 5.40946667,6.35236667 Z" id="形状" fill="#999999"></path>
    </g>
</svg>