<?xml version="1.0" encoding="UTF-8"?>
<svg width="16px" height="16px" viewBox="0 0 16 16" version="1.1" xmlns="http://www.w3.org/2000/svg" xmlns:xlink="http://www.w3.org/1999/xlink">
    <title>icon/面性/el-icon-s-release</title>
    <g id="icon/面性/el-icon-s-release" stroke="none" stroke-width="1" fill="none" fill-rule="evenodd">
        <path d="M4.66666667,2 C4.66666667,3.1045695 5.56209717,4 6.66666667,4 L9.33333333,4 C10.4379028,4 11.3333333,3.1045695 11.3333333,2 L12,2 C12.7363797,2 13.3333333,2.59695367 13.3333333,3.33333333 L13.3333333,13.3333333 C13.3333333,14.069713 12.7363797,14.6666667 12,14.6666667 L4,14.6666667 C3.26362033,14.6666667 2.66666667,14.069713 2.66666667,13.3333333 L2.66666667,3.33333333 C2.66666667,2.59695367 3.26362033,2 4,2 L4.66666667,2 Z M10.3570226,6.30964406 C10.0966731,6.04929453 9.67456309,6.04929453 9.41421356,6.30964406 L7.99966667,7.72333333 L6.58578644,6.30964406 C6.35147186,6.07532949 5.98613132,6.05189803 5.72561155,6.23934969 L5.6429774,6.30964406 C5.38262787,6.56999359 5.38262787,6.99210358 5.6429774,7.2524531 L7.05666667,8.66633333 L5.6429774,10.0808802 C5.40866282,10.3151948 5.38523136,10.6805354 5.57268302,10.9410551 L5.6429774,11.0236893 C5.90332692,11.2840388 6.32543691,11.2840388 6.58578644,11.0236893 L7.99966667,9.60933333 L9.41421356,11.0236893 C9.64852814,11.2580038 10.0138687,11.2814353 10.2743885,11.0939836 L10.3570226,11.0236893 C10.6173721,10.7633397 10.6173721,10.3412298 10.3570226,10.0808802 L8.94266667,8.66633333 L10.3570226,7.2524531 C10.5913372,7.01813853 10.6147686,6.65279798 10.427317,6.39227821 Z M9.33156656,1.33333333 C9.69975639,1.33333333 9.99823323,1.63181017 9.99823323,2 C9.99823323,2.36818983 9.69975639,2.66666667 9.33156656,2.66666667 L6.66489989,2.66666667 C6.33018186,2.66666667 6.05307788,2.4199916 6.00546161,2.09851511 L5.99766667,1.99933333 L6.00546161,1.90148489 C6.05307788,1.5800084 6.33018186,1.33333333 6.66489989,1.33333333 L9.33156656,1.33333333 Z" id="形状结合" fill="#999999"></path>
    </g>
</svg>