<?xml version="1.0" encoding="UTF-8"?>
<svg width="16px" height="16px" viewBox="0 0 16 16" version="1.1" xmlns="http://www.w3.org/2000/svg" xmlns:xlink="http://www.w3.org/1999/xlink">
    <title>icon/面性/el-icon-info </title>
    <g id="icon/面性/el-icon-info-" stroke="none" stroke-width="1" fill="none" fill-rule="evenodd">
        <path d="M1.33333333,8 C1.33333333,4.3181 4.3181,1.33333333 8,1.33333333 C11.6819,1.33333333 14.6666667,4.3181 14.6666667,8 C14.6666667,11.6819 11.6819,14.6666667 8,14.6666667 C4.3181,14.6666667 1.33333333,11.6819 1.33333333,8 C1.33333333,8 1.33333333,8 1.33333333,8 Z M8.66666667,6 C8.66666667,6 8.66666667,4.66666667 8.66666667,4.66666667 C8.66666667,4.66666667 7.33333333,4.66666667 7.33333333,4.66666667 C7.33333333,4.66666667 7.33333333,6 7.33333333,6 C7.33333333,6 8.66666667,6 8.66666667,6 C8.66666667,6 8.66666667,6 8.66666667,6 Z M7.33333333,6.66666667 C7.33333333,6.66666667 7.33333333,11.3333333 7.33333333,11.3333333 C7.33333333,11.3333333 8.66666667,11.3333333 8.66666667,11.3333333 C8.66666667,11.3333333 8.66666667,6.66666667 8.66666667,6.66666667 C8.66666667,6.66666667 7.33333333,6.66666667 7.33333333,6.66666667 C7.33333333,6.66666667 7.33333333,6.66666667 7.33333333,6.66666667 Z" id="形状" fill="#999999"></path>
    </g>
</svg>