<?xml version="1.0" encoding="UTF-8"?>
<svg width="16px" height="16px" viewBox="0 0 16 16" version="1.1" xmlns="http://www.w3.org/2000/svg" xmlns:xlink="http://www.w3.org/1999/xlink">
    <title>icon/通用类/el-icon-postcard</title>
    <g id="icon/通用类/el-icon-postcard" stroke="none" stroke-width="1" fill="none" fill-rule="evenodd">
        <path d="M14,2 C14.7363797,2 15.3333333,2.59695367 15.3333333,3.33333333 L15.3333333,12.6666667 C15.3333333,13.4030463 14.7363797,14 14,14 L2,14 C1.26362033,14 0.666666667,13.4030463 0.666666667,12.6666667 L0.666666667,3.33333333 C0.666666667,2.59695367 1.26362033,2 2,2 L14,2 Z M11,6.66666667 C11.5522847,6.66666667 12,6.21895142 12,5.66666667 C12,5.11438192 11.5522847,4.66666667 11,4.66666667 C10.4477153,4.66666667 10,5.11438192 10,5.66666667 C10,6.21895142 10.4477153,6.66666667 11,6.66666667 Z M4,8.66666667 L8.66666667,8.66666667 L8.66666667,10 L4,10 Z M4,6 L8.66666667,6 L8.66666667,7.33333333 L4,7.33333333 Z M14,3.33333333 L2,3.33333333 L2,12.6666667 L14,12.6666667 L14,3.33333333 Z" id="矩形" fill="#999999" fill-rule="nonzero"></path>
    </g>
</svg>