<?xml version="1.0" encoding="UTF-8"?>
<svg width="16px" height="16px" viewBox="0 0 16 16" version="1.1" xmlns="http://www.w3.org/2000/svg" xmlns:xlink="http://www.w3.org/1999/xlink">
    <title>icon/基础类/icon-basic-line-circleup</title>
    <g id="icon/基础类/icon-basic-line-circleup" stroke="none" stroke-width="1" fill="none" fill-rule="evenodd">
        <path d="M2.66666667,8 C2.66666667,5.05446667 5.05446667,2.66666667 8,2.66666667 C10.9455333,2.66666667 13.3333333,5.05446667 13.3333333,8 C13.3333333,10.9455333 10.9455333,13.3333333 8,13.3333333 C5.05446667,13.3333333 2.66666667,10.9455333 2.66666667,8 C2.66666667,8 2.66666667,8 2.66666667,8 Z M8,1.33333333 C4.31810333,1.33333333 1.33333333,4.31810333 1.33333333,8 C1.33333333,11.6819 4.31810333,14.6666667 8,14.6666667 C11.6819,14.6666667 14.6666667,11.6819 14.6666667,8 C14.6666667,4.31810333 11.6819,1.33333333 8,1.33333333 C8,1.33333333 8,1.33333333 8,1.33333333 Z M6.0237,5.64296667 C6.0237,5.64296667 8.3807,8 8.3807,8 C8.3807,8 6.0237,10.3570333 6.0237,10.3570333 C6.0237,10.3570333 6.9665,11.2998333 6.9665,11.2998333 C6.9665,11.2998333 10.2663333,8 10.2663333,8 C10.2663333,8 6.9665,4.70016667 6.9665,4.70016667 C6.9665,4.70016667 6.0237,5.64296667 6.0237,5.64296667 C6.0237,5.64296667 6.0237,5.64296667 6.0237,5.64296667 Z" id="形状" fill="#999999" transform="translate(8, 8) rotate(-90) translate(-8, -8)"></path>
    </g>
</svg>