<?xml version="1.0" encoding="UTF-8"?>
<svg width="16px" height="16px" viewBox="0 0 16 16" version="1.1" xmlns="http://www.w3.org/2000/svg" xmlns:xlink="http://www.w3.org/1999/xlink">
    <title>icon/通用类/icon-general-line-bulb</title>
    <g id="icon/通用类/icon-general-line-bulb" stroke="none" stroke-width="1" fill="none" fill-rule="evenodd">
        <path d="M8,2.33333333 C5.97495667,2.33333333 4.33333333,3.97495667 4.33333333,6 C4.33333333,6.7972 4.58698333,7.5332 5.01808667,8.13426667 C5.05322,8.18323333 5.08919333,8.2331 5.12579,8.2838 C5.59596333,8.93523333 6.16911667,9.72936667 6.3832,10.6743333 C6.3832,10.6743333 6.53253333,11.3333333 6.53253333,11.3333333 C6.53253333,11.3333333 9.46746667,11.3333333 9.46746667,11.3333333 C9.46746667,11.3333333 9.6168,10.6743333 9.6168,10.6743333 C9.8309,9.72933333 10.4040333,8.93523333 10.8742,8.2838 C10.9108,8.2331 10.9467667,8.18323333 10.9819,8.13426667 C11.413,7.5332 11.6666667,6.7972 11.6666667,6 C11.6666667,3.97495667 10.0250333,2.33333333 8,2.33333333 C8,2.33333333 8,2.33333333 8,2.33333333 Z M3,6 C3,3.23857667 5.23857667,1 8,1 C10.7614333,1 13,3.23857667 13,6 C13,7.0851 12.6535667,8.0913 12.0653667,8.91136667 C12.043,8.94256667 12.0207667,8.97353333 11.9987,9.00426667 C11.4886667,9.7145 11.0689333,10.299 10.9171667,10.9689667 C10.9171667,10.9689667 10.7090333,11.8876333 10.7090333,11.8876333 C10.6058,12.3432333 10.2009,12.6666667 9.73373333,12.6666667 C9.73373333,12.6666667 6.26626,12.6666667 6.26626,12.6666667 C5.79911,12.6666667 5.39420333,12.3432333 5.29097667,11.8876333 C5.29097667,11.8876333 5.08284,10.9689667 5.08284,10.9689667 C4.93105,10.299 4.51133333,9.7145 4.00131333,9.00426667 C3.97924667,8.97353333 3.95701333,8.94256667 3.93462667,8.91136667 C3.34643333,8.0913 3,7.0851 3,6 C3,6 3,6 3,6 Z M10.3333333,13.3333333 C10.3333333,13.3333333 10.3333333,14.6666667 10.3333333,14.6666667 C10.3333333,14.6666667 5.66666667,14.6666667 5.66666667,14.6666667 C5.66666667,14.6666667 5.66666667,13.3333333 5.66666667,13.3333333 C5.66666667,13.3333333 10.3333333,13.3333333 10.3333333,13.3333333 C10.3333333,13.3333333 10.3333333,13.3333333 10.3333333,13.3333333 Z" id="形状" fill="#999999"></path>
    </g>
</svg>