<?xml version="1.0" encoding="UTF-8"?>
<svg width="16px" height="16px" viewBox="0 0 16 16" version="1.1" xmlns="http://www.w3.org/2000/svg" xmlns:xlink="http://www.w3.org/1999/xlink">
    <title>icon/基础类/el-icon-close</title>
    <g id="icon/基础类/el-icon-close" stroke="none" stroke-width="1" fill="none" fill-rule="evenodd">
        <path d="M2.87173333,3.75737667 C2.87173333,3.75737667 3.81454333,2.81456667 3.81454333,2.81456667 C3.81454333,2.81456667 8.05716667,7.0572 8.05716667,7.0572 C8.05716667,7.0572 12.2998333,2.81456667 12.2998333,2.81456667 C12.2998333,2.81456667 13.2426333,3.75737667 13.2426333,3.75737667 C13.2426333,3.75737667 9,8 9,8 C9,8 13.2426333,12.2426667 13.2426333,12.2426667 C13.2426333,12.2426667 12.2998333,13.1854667 12.2998333,13.1854667 C12.2998333,13.1854667 8.05716667,8.94283333 8.05716667,8.94283333 C8.05716667,8.94283333 3.81454333,13.1854667 3.81454333,13.1854667 C3.81454333,13.1854667 2.87173333,12.2426667 2.87173333,12.2426667 C2.87173333,12.2426667 7.11436667,8 7.11436667,8 C7.11436667,8 2.87173333,3.75737667 2.87173333,3.75737667 Z" id="路径" fill="#999999"></path>
    </g>
</svg>