<?xml version="1.0" encoding="UTF-8"?>
<svg width="16px" height="16px" viewBox="0 0 16 16" version="1.1" xmlns="http://www.w3.org/2000/svg" xmlns:xlink="http://www.w3.org/1999/xlink">
    <title>icon/编辑类/el-icon-back</title>
    <g id="icon/编辑类/el-icon-back" stroke="none" stroke-width="1" fill="none" fill-rule="evenodd">
        <path d="M8.61996667,11.8270043 C8.61996667,11.8270043 11.7238333,8.72313763 11.7238333,8.72313763 C11.7238333,8.72313763 12.6666667,9.66593763 12.6666667,9.66593763 C12.6666667,9.66593763 7.9526,14.3800043 7.9526,14.3800043 C7.9526,14.3800043 3.23856667,9.66593763 3.23856667,9.66593763 C3.23856667,9.66593763 4.18137667,8.72313763 4.18137667,8.72313763 C4.18137667,8.72313763 7.28663333,11.8284043 7.28663333,11.8284043 C7.28663333,11.8284043 7.28663333,1.61857096 7.28663333,1.61857096 C7.28663333,1.61857096 8.61996667,1.61857096 8.61996667,1.61857096 C8.61996667,1.61857096 8.61996667,11.8270043 8.61996667,11.8270043 C8.61996667,11.8270043 8.61996667,11.8270043 8.61996667,11.8270043 Z" id="路径" fill="#999999" transform="translate(7.9526, 7.9993) rotate(90) translate(-7.9526, -7.9993)"></path>
    </g>
</svg>