<?xml version="1.0" encoding="UTF-8"?>
<svg width="16px" height="16px" viewBox="0 0 16 16" version="1.1" xmlns="http://www.w3.org/2000/svg" xmlns:xlink="http://www.w3.org/1999/xlink">
    <title>icon/通用类/icon-general-line-robotadd</title>
    <g id="icon/通用类/icon-general-line-robotadd" stroke="none" stroke-width="1" fill="none" fill-rule="evenodd">
        <path d="M6.66666667,2 C6.66666667,2 10,2 10,2 C10,2 10,3.33333333 10,3.33333333 C10,3.33333333 9,3.33333333 9,3.33333333 C9,3.33333333 9,4 9,4 C9,4 14,4 14,4 C14,4 14,8.33333333 14,8.33333333 C14,8.33333333 12.6666667,8.33333333 12.6666667,8.33333333 C12.6666667,8.33333333 12.6666667,5.33333333 12.6666667,5.33333333 C12.6666667,5.33333333 4,5.33333333 4,5.33333333 C4,5.33333333 4,13 4,13 C4,13 9.66666667,13 9.66666667,13 C9.66666667,13 9.66666667,14.3333333 9.66666667,14.3333333 C9.66666667,14.3333333 2.66666667,14.3333333 2.66666667,14.3333333 C2.66666667,14.3333333 2.66666667,4 2.66666667,4 C2.66666667,4 7.66666667,4 7.66666667,4 C7.66666667,4 7.66666667,3.33333333 7.66666667,3.33333333 C7.66666667,3.33333333 6.66666667,3.33333333 6.66666667,3.33333333 C6.66666667,3.33333333 6.66666667,2 6.66666667,2 C6.66666667,2 6.66666667,2 6.66666667,2 Z M0.666666667,11 C0.666666667,11 0.666666667,7.33333333 0.666666667,7.33333333 C0.666666667,7.33333333 2,7.33333333 2,7.33333333 C2,7.33333333 2,11 2,11 C2,11 0.666666667,11 0.666666667,11 C0.666666667,11 0.666666667,11 0.666666667,11 Z M5.66666667,8.33333333 C5.66666667,8.33333333 7.33333333,8.33333333 7.33333333,8.33333333 C7.33333333,8.33333333 7.33333333,10 7.33333333,10 C7.33333333,10 5.66666667,10 5.66666667,10 C5.66666667,10 5.66666667,8.33333333 5.66666667,8.33333333 C5.66666667,8.33333333 5.66666667,8.33333333 5.66666667,8.33333333 Z M9.33333333,8.33333333 C9.33333333,8.33333333 11,8.33333333 11,8.33333333 C11,8.33333333 11,10 11,10 C11,10 9.33333333,10 9.33333333,10 C9.33333333,10 9.33333333,8.33333333 9.33333333,8.33333333 C9.33333333,8.33333333 9.33333333,8.33333333 9.33333333,8.33333333 Z M12.6666667,11.3333333 C12.6666667,11.3333333 12.6666667,9.66666667 12.6666667,9.66666667 C12.6666667,9.66666667 14,9.66666667 14,9.66666667 C14,9.66666667 14,11.3333333 14,11.3333333 C14,11.3333333 15.6666667,11.3333333 15.6666667,11.3333333 C15.6666667,11.3333333 15.6666667,12.6666667 15.6666667,12.6666667 C15.6666667,12.6666667 14,12.6666667 14,12.6666667 C14,12.6666667 14,14.3333333 14,14.3333333 C14,14.3333333 12.6666667,14.3333333 12.6666667,14.3333333 C12.6666667,14.3333333 12.6666667,12.6666667 12.6666667,12.6666667 C12.6666667,12.6666667 11,12.6666667 11,12.6666667 C11,12.6666667 11,11.3333333 11,11.3333333 C11,11.3333333 12.6666667,11.3333333 12.6666667,11.3333333 C12.6666667,11.3333333 12.6666667,11.3333333 12.6666667,11.3333333 Z" id="形状" fill="#999999"></path>
    </g>
</svg>