<?xml version="1.0" encoding="UTF-8"?>
<svg width="16px" height="16px" viewBox="0 0 16 16" version="1.1" xmlns="http://www.w3.org/2000/svg" xmlns:xlink="http://www.w3.org/1999/xlink">
    <title>icon/基础类/el-icon-search</title>
    <g id="icon/基础类/el-icon-search" stroke="none" stroke-width="1" fill="none" fill-rule="evenodd">
        <path d="M10.6331667,4.0335 C8.81073333,2.21105333 5.85593333,2.21105333 4.0335,4.0335 C2.21105333,5.85593333 2.21105333,8.81073333 4.0335,10.6331667 C5.85593333,12.4556 8.81073333,12.4556 10.6331667,10.6331667 C12.4556,8.81073333 12.4556,5.85593333 10.6331667,4.0335 C10.6331667,4.0335 10.6331667,4.0335 10.6331667,4.0335 Z M3.09069333,3.09069333 C5.43383333,0.747546667 9.23283333,0.747546667 11.5759667,3.09069333 C13.7597667,5.2745 13.9083,8.72286667 12.0215,11.0786667 C12.0215,11.0786667 14.4044,13.4616 14.4044,13.4616 C14.4044,13.4616 13.4616,14.4044 13.4616,14.4044 C13.4616,14.4044 11.0786667,12.0215 11.0786667,12.0215 C8.72286667,13.9083 5.2745,13.7597667 3.09069333,11.5759667 C0.747546667,9.23283333 0.747546667,5.43383333 3.09069333,3.09069333 C3.09069333,3.09069333 3.09069333,3.09069333 3.09069333,3.09069333 Z" id="形状" fill="#999999"></path>
    </g>
</svg>