<?xml version="1.0" encoding="UTF-8"?>
<svg width="16px" height="16px" viewBox="0 0 16 16" version="1.1" xmlns="http://www.w3.org/2000/svg" xmlns:xlink="http://www.w3.org/1999/xlink">
    <title>icon/编辑类/icon-edit-line-h7</title>
    <g id="icon/编辑类/icon-edit-line-h7" stroke="none" stroke-width="1" fill="none" fill-rule="evenodd">
        <path d="M1.33333333,2 C1.33333333,2 2.66666667,2 2.66666667,2 C2.66666667,2 2.66666667,7.33333333 2.66666667,7.33333333 C2.66666667,7.33333333 8,7.33333333 8,7.33333333 C8,7.33333333 8,2 8,2 C8,2 9.33333333,2 9.33333333,2 C9.33333333,2 9.33333333,14 9.33333333,14 C9.33333333,14 8,14 8,14 C8,14 8,8.66666667 8,8.66666667 C8,8.66666667 2.66666667,8.66666667 2.66666667,8.66666667 C2.66666667,8.66666667 2.66666667,14 2.66666667,14 C2.66666667,14 1.33333333,14 1.33333333,14 C1.33333333,14 1.33333333,2 1.33333333,2 C1.33333333,2 1.33333333,2 1.33333333,2 Z M13.2169333,7.66666667 C13.2169333,7.66666667 10,7.66666667 10,7.66666667 C10,7.66666667 10,6.33333333 10,6.33333333 C10,6.33333333 14.6666667,6.33333333 14.6666667,6.33333333 C14.6666667,6.33333333 14.6666667,7.42333333 14.6666667,7.42333333 C14.6666667,7.42333333 13.1729333,12.8550667 13.1729333,12.8550667 C13.1729333,12.8550667 12.8026667,14.0332333 12.8026667,14.0332333 C12.8026667,14.0332333 11.5306667,13.6334333 11.5306667,13.6334333 C11.5306667,13.6334333 11.8937333,12.4782667 11.8937333,12.4782667 C11.8937333,12.4782667 13.2169333,7.66666667 13.2169333,7.66666667 C13.2169333,7.66666667 13.2169333,7.66666667 13.2169333,7.66666667 Z" id="形状" fill="#999999"></path>
    </g>
</svg>