<?xml version="1.0" encoding="UTF-8"?>
<svg width="16px" height="16px" viewBox="0 0 16 16" version="1.1" xmlns="http://www.w3.org/2000/svg" xmlns:xlink="http://www.w3.org/1999/xlink">
    <title>icon/编辑类/el-icon-brush</title>
    <g id="icon/编辑类/el-icon-brush" stroke="none" stroke-width="1" fill="none" fill-rule="evenodd">
        <path d="M3.33333333,3.33333333 C3.33333333,3.33333333 3.33333333,6 3.33333333,6 C3.33333333,6 10.6666667,6 10.6666667,6 C10.6666667,6 10.6666667,3.33333333 10.6666667,3.33333333 C10.6666667,3.33333333 3.33333333,3.33333333 3.33333333,3.33333333 C3.33333333,3.33333333 3.33333333,3.33333333 3.33333333,3.33333333 Z M2,3 C2,2.45060667 2.44372333,2 2.99889333,2 C2.99889333,2 11.0032333,2 11.0032333,2 C11.5635333,2 12,2.4556 12,2.99982333 C12,2.99982333 12,4 12,4 C12,4 13.6667333,4 13.6667333,4 C14.2192333,4 14.6666667,4.44792667 14.6666667,5 C14.6666667,5 14.6666667,9.0469 14.6666667,9.0469 C14.6666667,9.54106667 14.3056667,9.96116667 13.8171,10.0355 C13.8171,10.0355 7,11.0729 7,11.0729 C7,11.0729 7,14.6666667 7,14.6666667 C7,14.6666667 5.66666667,14.6666667 5.66666667,14.6666667 C5.66666667,14.6666667 5.66666667,10.7864333 5.66666667,10.7864333 C5.66666667,10.2922667 6.02766667,9.87216667 6.51623333,9.79783333 C6.51623333,9.79783333 13.3333333,8.76043333 13.3333333,8.76043333 C13.3333333,8.76043333 13.3333333,5.33333333 13.3333333,5.33333333 C13.3333333,5.33333333 12,5.33333333 12,5.33333333 C12,5.33333333 12,6.334 12,6.334 C12,6.88806667 11.5505,7.33333333 11,7.33333333 C11,7.33333333 3,7.33333333 3,7.33333333 C2.44771667,7.33333333 2,6.88563333 2,6.33333333 C2,6.33333333 2,3 2,3 C2,3 2,3 2,3 Z" id="形状" fill="#999999"></path>
    </g>
</svg>