<?xml version="1.0" encoding="UTF-8"?>
<svg width="16px" height="16px" viewBox="0 0 16 16" version="1.1" xmlns="http://www.w3.org/2000/svg" xmlns:xlink="http://www.w3.org/1999/xlink">
    <title>icon/面性/el-icon-s-platform</title>
    <g id="icon/面性/el-icon-s-platform" stroke="none" stroke-width="1" fill="none" fill-rule="evenodd">
        <path d="M12.6666667,2 C13.4030463,2 14,2.55715676 14,3.24444444 L14,10.0888889 C14,10.7761766 13.4030463,11.3333333 12.6666667,11.3333333 L3.33333333,11.3333333 C2.59695367,11.3333333 2,10.7761766 2,10.0888889 L2,3.24444444 C2,2.55715676 2.59695367,2 3.33333333,2 L12.6666667,2 Z M7.33333333,12 L8.66666667,12 L8.66666667,13.3684211 L7.33333333,13.3684211 L7.33333333,12 Z M5.33333333,13.3684211 L10.6666667,13.3684211 C11.0348565,13.3684211 11.3333333,13.6668979 11.3333333,14.0350877 C11.3333333,14.4032776 11.0348565,14.7017544 10.6666667,14.7017544 L5.33333333,14.7017544 C4.9651435,14.7017544 4.66666667,14.4032776 4.66666667,14.0350877 C4.66666667,13.6668979 4.9651435,13.3684211 5.33333333,13.3684211 Z" id="形状结合" fill="#999999"></path>
    </g>
</svg>