<?xml version="1.0" encoding="UTF-8"?>
<svg width="16px" height="16px" viewBox="0 0 16 16" version="1.1" xmlns="http://www.w3.org/2000/svg" xmlns:xlink="http://www.w3.org/1999/xlink">
    <title>icon/通用类/el-icon-price-tag</title>
    <g id="icon/通用类/el-icon-price-tag" stroke="none" stroke-width="1" fill="none" fill-rule="evenodd">
        <path d="M2.27611142,8.95662901 C2.27611142,8.95662901 8.62347475,2.60925901 8.62347475,2.60925901 C8.62347475,2.60925901 12.5518414,3.39493234 12.5518414,3.39493234 C12.5518414,3.39493234 13.3375414,7.32329567 13.3375414,7.32329567 C13.3375414,7.32329567 6.99014142,13.6706623 6.99014142,13.6706623 C6.99014142,13.6706623 2.27611142,8.95662901 2.27611142,8.95662901 C2.27611142,8.95662901 2.27611142,8.95662901 2.27611142,8.95662901 Z M8.71004142,1.26683121 C8.38217475,1.20125934 8.04324142,1.30388101 7.80680808,1.54030501 C7.80680808,1.54030501 1.09760108,8.24952901 1.09760108,8.24952901 C0.70707675,8.64006234 0.707077417,9.27322901 1.09760142,9.66372901 C1.09760142,9.66372901 6.28304142,14.8491957 6.28304142,14.8491957 C6.67357475,15.2396957 7.30674142,15.2396957 7.69727475,14.8491957 C7.69727475,14.8491957 14.4064748,8.13996234 14.4064748,8.13996234 C14.6429081,7.90352901 14.7455414,7.56459567 14.6799414,7.23672901 C14.6799414,7.23672901 13.8157081,2.91553567 13.8157081,2.91553567 C13.7365414,2.51967567 13.4271081,2.21024567 13.0312414,2.13107234 C13.0312414,2.13107234 8.71004142,1.26683121 8.71004142,1.26683121 C8.71004142,1.26683121 8.71004142,1.26683121 8.71004142,1.26683121 Z M10.5256414,4.44878567 C9.97334142,4.44878567 9.52564142,4.89649567 9.52564142,5.44878567 C9.52564142,5.82149567 9.72950808,6.14656234 10.0318414,6.31856234 C10.1778414,6.40196234 10.3469081,6.44962901 10.5271081,6.44962901 C11.0793748,6.44962901 11.5271081,6.00189567 11.5271081,5.44962901 C11.5271081,5.07662901 11.3229081,4.75132901 11.0201748,4.57944567 C10.8743414,4.49629234 10.7055414,4.44878567 10.5256414,4.44878567 C10.5256414,4.44878567 10.5256414,4.44878567 10.5256414,4.44878567 Z" id="形状" fill="#999999"></path>
    </g>
</svg>