<?xml version="1.0" encoding="UTF-8"?>
<svg width="16px" height="16px" viewBox="0 0 16 16" version="1.1" xmlns="http://www.w3.org/2000/svg" xmlns:xlink="http://www.w3.org/1999/xlink">
    <title>icon/面性/el-icon-d-caret</title>
    <g id="icon/面性/el-icon-d-caret" stroke="none" stroke-width="1" fill="none" fill-rule="evenodd">
        <path d="M8.25486641,13.8909828 C8.12422154,14.0363391 7.87579773,14.0363391 7.74512567,13.8909828 C7.74512567,13.8909828 4.07213902,9.80525812 4.07213902,9.80525812 C3.90116289,9.61507023 4.05332567,9.33333333 4.32702027,9.33333333 C4.32702027,9.33333333 11.6729854,9.33333333 11.6729854,9.33333333 C11.9466786,9.33333333 12.0988392,9.61507023 11.9278558,9.80526054 C11.9278558,9.80526054 8.25486641,13.8909828 8.25486641,13.8909828 C8.25486641,13.8909828 8.25486641,13.8909828 8.25486641,13.8909828 Z" id="路径备份" fill="#999999"></path>
        <path d="M7.74512567,2.10901484 C7.87577053,1.96366172 8.12422154,1.96366172 8.25486641,2.10901484 C8.25486641,2.10901484 11.9278558,6.19472555 11.9278558,6.19472555 C12.0988392,6.38491078 11.9466786,6.66666667 11.6729854,6.66666667 C11.6729854,6.66666667 4.32702027,6.66666667 4.32702027,6.66666667 C4.05332567,6.66666667 3.90116289,6.38491078 4.07213902,6.19472555 C4.07213902,6.19472555 7.74512567,2.10901484 7.74512567,2.10901484 C7.74512567,2.10901484 7.74512567,2.10901484 7.74512567,2.10901484 Z" id="路径备份" fill="#999999"></path>
    </g>
</svg>