<?xml version="1.0" encoding="UTF-8"?>
<svg width="16px" height="16px" viewBox="0 0 16 16" version="1.1" xmlns="http://www.w3.org/2000/svg" xmlns:xlink="http://www.w3.org/1999/xlink">
    <title>icon/基础类/el-icon-star-off</title>
    <g id="icon/基础类/el-icon-star-off" stroke="none" stroke-width="1" fill="none" fill-rule="evenodd">
        <path d="M6.91939171,2.00778898 C7.22505838,1.38841632 8.10825838,1.38841498 8.41395838,2.00778898 C8.41395838,2.00778898 9.97069171,5.16209232 9.97069171,5.16209232 C9.97069171,5.16209232 13.4516917,5.66792565 13.4516917,5.66792565 C14.135225,5.76725898 14.408125,6.60722565 13.913525,7.08932565 C13.913525,7.08932565 11.3946584,9.54462565 11.3946584,9.54462565 C11.3946584,9.54462565 11.9892917,13.011559 11.9892917,13.011559 C12.1060584,13.6923257 11.391525,14.211459 10.7801584,13.890059 C10.7801584,13.890059 7.66665838,12.2531923 7.66665838,12.2531923 C7.66665838,12.2531923 4.55315838,13.890059 4.55315838,13.890059 C3.94180838,14.211459 3.22728171,13.6923257 3.34404171,13.011559 C3.34404171,13.011559 3.93866838,9.54462565 3.93866838,9.54462565 C3.93866838,9.54462565 1.41979271,7.08932565 1.41979271,7.08932565 C0.92519571,6.60722565 1.19811884,5.76725898 1.88163838,5.66792565 C1.88163838,5.66792565 5.36262504,5.16209232 5.36262504,5.16209232 C5.36262504,5.16209232 6.91939171,2.00778898 6.91939171,2.00778898 C6.91939171,2.00778898 6.91939171,2.00778898 6.91939171,2.00778898 Z M7.66665838,3.50636898 C7.66665838,3.50636898 6.44195838,5.98792565 6.44195838,5.98792565 C6.32055838,6.23385898 6.08592504,6.40435898 5.81449171,6.44379232 C5.81449171,6.44379232 3.07594838,6.84172565 3.07594838,6.84172565 C3.07594838,6.84172565 5.05759171,8.77332565 5.05759171,8.77332565 C5.25399171,8.96479232 5.34362504,9.24062565 5.29725838,9.51095898 C5.29725838,9.51095898 4.82945838,12.2384257 4.82945838,12.2384257 C4.82945838,12.2384257 7.27889171,10.9506923 7.27889171,10.9506923 C7.52165838,10.823059 7.81169171,10.823059 8.05445838,10.9506923 C8.05445838,10.9506923 10.5038917,12.2384257 10.5038917,12.2384257 C10.5038917,12.2384257 10.0360917,9.51095898 10.0360917,9.51095898 C9.98972504,9.24062565 10.0793584,8.96479232 10.2757584,8.77332565 C10.2757584,8.77332565 12.2573917,6.84172565 12.2573917,6.84172565 C12.2573917,6.84172565 9.51882504,6.44379232 9.51882504,6.44379232 C9.24739171,6.40435898 9.01275838,6.23385898 8.89139171,5.98792565 C8.89139171,5.98792565 7.66665838,3.50636898 7.66665838,3.50636898 C7.66665838,3.50636898 7.66665838,3.50636898 7.66665838,3.50636898 Z" id="形状" fill="#999999"></path>
    </g>
</svg>