<?xml version="1.0" encoding="UTF-8"?>
<svg width="16px" height="16px" viewBox="0 0 16 16" version="1.1" xmlns="http://www.w3.org/2000/svg" xmlns:xlink="http://www.w3.org/1999/xlink">
    <title>icon/编辑类/icon-edit-line-undo</title>
    <g id="icon/编辑类/icon-edit-line-undo" stroke="none" stroke-width="1" fill="none" fill-rule="evenodd">
        <path d="M14.7614333,5.06412333 C14.7614333,5.06412333 11.6973,8.12826667 11.6973,8.12826667 C11.6973,8.12826667 10.7544667,7.18543333 10.7544667,7.18543333 C10.7544667,7.18543333 12.2098333,5.7301 12.2098333,5.7301 C12.2098333,5.7301 6.5,5.7301 6.5,5.7301 C4.75109667,5.7301 3.33333333,7.14786667 3.33333333,8.89676667 C3.33333333,10.6456667 4.7511,12.0634333 6.5,12.0634333 C6.5,12.0634333 10.6666667,12.0634333 10.6666667,12.0634333 C10.6666667,12.0634333 10.6666667,13.3967667 10.6666667,13.3967667 C10.6666667,13.3967667 6.5,13.3967667 6.5,13.3967667 C4.01472,13.3967667 2,11.3820333 2,8.89676667 C2,6.4115 4.01471667,4.39676667 6.5,4.39676667 C6.5,4.39676667 12.2084333,4.39676667 12.2084333,4.39676667 C12.2084333,4.39676667 10.7544667,2.94281 10.7544667,2.94281 C10.7544667,2.94281 11.6973,2 11.6973,2 C11.6973,2 14.7614333,5.06412333 14.7614333,5.06412333 Z" id="路径" fill="#999999" transform="translate(8.3807, 7.6984) scale(-1, 1) translate(-8.3807, -7.6984)"></path>
    </g>
</svg>