<?xml version="1.0" encoding="UTF-8"?>
<svg width="16px" height="16px" viewBox="0 0 16 16" version="1.1" xmlns="http://www.w3.org/2000/svg" xmlns:xlink="http://www.w3.org/1999/xlink">
    <title>icon/影音类/el-icon-headset</title>
    <g id="icon/影音类/el-icon-headset" stroke="none" stroke-width="1" fill="none" fill-rule="evenodd">
        <path d="M2.66666667,13.3333333 L2.78418186,13.3299382 C3.83405336,13.2691073 4.66666667,12.3984539 4.66666667,11.3333333 C4.66666667,10.2287638 3.77123617,9.33333333 2.66666667,9.33333333 L2.66666667,13.3333333 Z M13.2158181,9.33672846 C12.1659466,9.39755941 11.3333333,10.2682127 11.3333333,11.3333333 C11.3333333,12.4379028 12.2287638,13.3333333 13.3333333,13.3333333 L13.3333333,9.33333333 L13.2158181,9.33672846 Z M2.81125975,8.00307968 C4.58512886,8.07878792 6,9.5408302 6,11.3333333 C6,13.1742825 4.50761583,14.6666667 2.66666667,14.6666667 L1.33333333,14.6666667 L1.33333333,8 C1.33333333,4.31810167 4.31810167,1.33333333 8,1.33333333 C11.6818983,1.33333333 14.6666667,4.31810167 14.6666667,8 L14.6666667,14.6666667 L13.3333333,14.6666667 C11.4923842,14.6666667 10,13.1742825 10,11.3333333 C10,9.49238417 11.4923842,8 13.3333333,8 L13.3307955,7.83388045 C13.2430286,4.96522518 10.8899428,2.66666667 8,2.66666667 C5.05448133,2.66666667 2.66666667,5.05448133 2.66666667,8 L2.81125975,8.00307968 Z" id="路径-44" fill="#999999" fill-rule="nonzero"></path>
    </g>
</svg>