<?xml version="1.0" encoding="UTF-8"?>
<svg width="16px" height="16px" viewBox="0 0 16 16" version="1.1" xmlns="http://www.w3.org/2000/svg" xmlns:xlink="http://www.w3.org/1999/xlink">
    <title>icon/通用类/el-icon-picture-outline</title>
    <g id="icon/通用类/el-icon-picture-outline" stroke="none" stroke-width="1" fill="none" fill-rule="evenodd">
        <path d="M3.33333333,2 C2.59695333,2 2,2.59695333 2,3.33333333 C2,3.33333333 2,13.3333333 2,13.3333333 C2,14.0697 2.59695333,14.6666667 3.33333333,14.6666667 C3.33333333,14.6666667 13.3333333,14.6666667 13.3333333,14.6666667 C14.0697,14.6666667 14.6666667,14.0697 14.6666667,13.3333333 C14.6666667,13.3333333 14.6666667,3.33333333 14.6666667,3.33333333 C14.6666667,2.59695333 14.0697,2 13.3333333,2 C13.3333333,2 3.33333333,2 3.33333333,2 C3.33333333,2 3.33333333,2 3.33333333,2 Z M3.33333333,3.33333333 C3.33333333,3.33333333 13.3333333,3.33333333 13.3333333,3.33333333 C13.3333333,3.33333333 13.3333333,13.3333333 13.3333333,13.3333333 C13.3333333,13.3333333 3.33333333,13.3333333 3.33333333,13.3333333 C3.33333333,13.3333333 3.33333333,3.33333333 3.33333333,3.33333333 C3.33333333,3.33333333 3.33333333,3.33333333 3.33333333,3.33333333 Z M6.66666667,4.66666667 C6.66666667,4.66666667 4.66666667,4.66666667 4.66666667,4.66666667 C4.66666667,4.66666667 4.66666667,6.66666667 4.66666667,6.66666667 C4.66666667,6.66666667 6.66666667,6.66666667 6.66666667,6.66666667 C6.66666667,6.66666667 6.66666667,4.66666667 6.66666667,4.66666667 C6.66666667,4.66666667 6.66666667,4.66666667 6.66666667,4.66666667 Z M12,12 C12,12 12,6.72386667 12,6.72386667 C12,6.72386667 8.39593333,10.3279333 8.39593333,10.3279333 C8.39593333,10.3279333 7.16666667,8.74746667 7.16666667,8.74746667 C7.16666667,8.74746667 4.63690667,12 4.63690667,12 C4.63690667,12 12,12 12,12 C12,12 12,12 12,12 Z" id="形状" fill="#999999"></path>
    </g>
</svg>