<?xml version="1.0" encoding="UTF-8"?>
<svg width="16px" height="16px" viewBox="0 0 16 16" version="1.1" xmlns="http://www.w3.org/2000/svg" xmlns:xlink="http://www.w3.org/1999/xlink">
    <title>icon/基础类/icon-basic-line-inform</title>
    <g id="icon/基础类/icon-basic-line-inform" stroke="none" stroke-width="1" fill="none" fill-rule="evenodd">
        <path d="M11.7712333,4.22875965 C13.8540333,6.31154632 13.8540333,9.68844632 11.7712333,11.771213 L12.7140667,12.7140463 C15.3175333,10.1105463 15.3175333,5.88944632 12.7140667,3.28594965 L11.7712333,4.22875965 Z M9.88563333,6.11434632 C10.927,7.15574632 10.927,8.84414632 9.88563333,9.88554632 L10.8284333,10.8283797 C12.3905333,9.26627965 12.3905333,6.73361299 10.8284333,5.17151299 L9.88563333,6.11434632 Z M8.27123333,1.72432532 C8.51173333,1.83143532 8.66666667,2.07005299 8.66666667,2.33332632 C8.66666667,2.33332632 8.66666667,13.6666463 8.66666667,13.6666463 C8.66666667,13.9299463 8.51173333,14.1685463 8.27123333,14.2756463 C8.03073333,14.3827797 7.7497,14.338313 7.55403333,14.1621797 C7.55403333,14.1621797 4.41084333,11.333313 4.41084333,11.333313 C4.41084333,11.333313 2,11.333313 2,11.333313 C1.63181,11.333313 1.33333333,11.0348463 1.33333333,10.6666463 C1.33333333,10.6666463 1.33333333,5.33331299 1.33333333,5.33331299 C1.33333333,4.96513632 1.63181,4.66665965 2,4.66665965 C2,4.66665965 4.41084333,4.66665965 4.41084333,4.66665965 C4.41084333,4.66665965 7.55403333,1.83779599 7.55403333,1.83779599 C7.7497,1.66167492 8.03073333,1.61721532 8.27123333,1.72432532 C8.27123333,1.72432532 8.27123333,1.72432532 8.27123333,1.72432532 Z M7.33333333,3.83023299 C7.33333333,3.83023299 5.11263333,5.82884632 5.11263333,5.82884632 C4.99023333,5.93904632 4.83136667,5.99997965 4.66666667,5.99997965 C4.66666667,5.99997965 2.66666667,5.99997965 2.66666667,5.99997965 C2.66666667,5.99997965 2.66666667,9.99997965 2.66666667,9.99997965 C2.66666667,9.99997965 4.66666667,9.99997965 4.66666667,9.99997965 C4.83136667,9.99997965 4.99023333,10.0609463 5.11263333,10.171113 C5.11263333,10.171113 7.33333333,12.1697463 7.33333333,12.1697463 C7.33333333,12.1697463 7.33333333,3.83023299 7.33333333,3.83023299 C7.33333333,3.83023299 7.33333333,3.83023299 7.33333333,3.83023299 Z" id="形状" fill="#999999"></path>
    </g>
</svg>