<?xml version="1.0" encoding="UTF-8"?>
<svg width="16px" height="16px" viewBox="0 0 16 16" version="1.1" xmlns="http://www.w3.org/2000/svg" xmlns:xlink="http://www.w3.org/1999/xlink">
    <title>icon/基础类/el-icon-zoom-out</title>
    <g id="icon/基础类/el-icon-zoom-out" stroke="none" stroke-width="1" fill="none" fill-rule="evenodd">
        <path d="M7.66666667,3.33333333 C5.27343333,3.33333333 3.33333333,5.27343333 3.33333333,7.66666667 C3.33333333,10.0599 5.27343333,12 7.66666667,12 C8.86346667,12 9.9459,11.5157 10.7308,10.7308 C11.5157,9.9459 12,8.86346667 12,7.66666667 C12,5.27343333 10.0599,3.33333333 7.66666667,3.33333333 C7.66666667,3.33333333 7.66666667,3.33333333 7.66666667,3.33333333 Z M2,7.66666667 C2,4.53705333 4.53705333,2 7.66666667,2 C10.7962667,2 13.3333333,4.53705333 13.3333333,7.66666667 C13.3333333,8.99096667 12.8784333,10.2099333 12.1173,11.1745 C12.1173,11.1745 14.6380667,13.6952667 14.6380667,13.6952667 C14.6380667,13.6952667 13.6952667,14.6380667 13.6952667,14.6380667 C13.6952667,14.6380667 11.1745,12.1173 11.1745,12.1173 C10.2099333,12.8784333 8.99096667,13.3333333 7.66666667,13.3333333 C4.53705333,13.3333333 2,10.7962667 2,7.66666667 C2,7.66666667 2,7.66666667 2,7.66666667 Z M10,8.33333333 C10,8.33333333 5.33333333,8.33333333 5.33333333,8.33333333 C5.33333333,8.33333333 5.33333333,7 5.33333333,7 C5.33333333,7 10,7 10,7 C10,7 10,8.33333333 10,8.33333333 C10,8.33333333 10,8.33333333 10,8.33333333 Z" id="形状" fill="#999999"></path>
    </g>
</svg>