<?xml version="1.0" encoding="UTF-8"?>
<svg width="16px" height="16px" viewBox="0 0 16 16" version="1.1" xmlns="http://www.w3.org/2000/svg" xmlns:xlink="http://www.w3.org/1999/xlink">
    <title>icon/影音类/el-icon-microphone</title>
    <g id="icon/影音类/el-icon-microphone" stroke="none" stroke-width="1" fill="none" fill-rule="evenodd">
        <path d="M8,1.33333333 C10.0250333,1.33333333 11.3333333,2.97495667 11.3333333,5 C11.3333333,5 11.3333333,7 11.3333333,7 C11.3333333,9.02503333 10.0250333,10.6666667 8,10.6666667 C5.97496667,10.6666667 4.66666667,9.02503333 4.66666667,7 C4.66666667,7 4.66666667,5 4.66666667,5 C4.66666667,2.97495667 5.97496667,1.33333333 8,1.33333333 Z M6,5 C6,5 6,7 6,7 C6,8.28866667 6.71133333,9.33333333 8,9.33333333 C9.28866667,9.33333333 10,8.28866667 10,7 C10,7 10,5 10,5 C10,3.71133667 9.28866667,2.66666667 8,2.66666667 C6.71133333,2.66666667 6,3.71133667 6,5 Z M3.33333333,7.33333333 C3.33333333,9.91066667 5.08933333,12 7.66666667,12 C7.66666667,12 8.33333333,12 8.33333333,12 C10.9106667,12 12.6666667,9.91066667 12.6666667,7.33333333 C12.6666667,7.33333333 12.6666667,7 12.6666667,7 C12.6666667,7 14,7 14,7 C14,7 14,7.33333333 14,7.33333333 C14,10.5352 11.8253333,13.1512667 8.66666667,13.3242333 C8.66666667,13.3242333 8.66666667,14.6666667 8.66666667,14.6666667 C8.66666667,14.6666667 7.33333333,14.6666667 7.33333333,14.6666667 C7.33333333,14.6666667 7.33333333,13.3242333 7.33333333,13.3242333 C4.17467,13.1512667 2,10.5352 2,7.33333333 C2,7.33333333 2,7 2,7 C2,7 3.33333333,7 3.33333333,7 C3.33333333,7 3.33333333,7.33333333 3.33333333,7.33333333 Z" id="形状" fill="#999999"></path>
    </g>
</svg>