<?xml version="1.0" encoding="UTF-8"?>
<svg width="16px" height="16px" viewBox="0 0 16 16" version="1.1" xmlns="http://www.w3.org/2000/svg" xmlns:xlink="http://www.w3.org/1999/xlink">
    <title>icon/通用类/el-icon-toilet-paper</title>
    <g id="icon/通用类/el-icon-toilet-paper" stroke="none" stroke-width="1" fill="none" fill-rule="evenodd">
        <path d="M4,2 L12,2 C11.9451434,2 11.8911883,2.00132512 11.8381296,2.00394509 C13.7836296,2.09355209 15.3333333,3.69913302 15.3333333,5.66666667 L15.3333333,6 C15.3333333,8.209139 13.5424723,10 11.3333333,10 L9.33333333,10 L9.33333333,14 L1.33333333,14 L1.33333333,4.66666667 C1.33333333,3.19390733 2.52724067,2 4,2 Z M8,5.66666667 C8,4.78038393 8.31444807,3.96754447 8.83786583,3.33362669 L4,3.33333333 C3.26362033,3.33333333 2.66666667,3.930287 2.66666667,4.66666667 L2.66666667,12.6666667 L8,12.6666667 L8,5.66666667 Z M11.6666667,3.33333333 C10.3780023,3.33333333 9.33333333,4.37800225 9.33333333,5.66666667 L9.33333333,8.66666667 L11.3333333,8.66666667 C12.7614636,8.66666667 13.9273859,7.54402102 13.9967365,6.13309356 L14,6 L14,5.66666667 C14,4.37800225 12.9553311,3.33333333 11.6666667,3.33333333 Z M11.6666667,5 C12.2189514,5 12.6666667,5.44771525 12.6666667,6 C12.6666667,6.55228475 12.2189514,7 11.6666667,7 C11.1143819,7 10.6666667,6.55228475 10.6666667,6 C10.6666667,5.44771525 11.1143819,5 11.6666667,5 Z" id="形状" fill="#999999" fill-rule="nonzero"></path>
    </g>
</svg>