<?xml version="1.0" encoding="UTF-8"?>
<svg width="16px" height="16px" viewBox="0 0 16 16" version="1.1" xmlns="http://www.w3.org/2000/svg" xmlns:xlink="http://www.w3.org/1999/xlink">
    <title>icon/天气类/el-icon-sunset</title>
    <g id="icon/天气类/el-icon-sunset" stroke="none" stroke-width="1" fill="none" fill-rule="evenodd">
        <rect id="矩形" fill="#999999" x="1.33333333" y="10" width="13.3333333" height="1.33333333"></rect>
        <rect id="矩形备份-3" fill="#999999" x="4" y="12.6666667" width="8" height="1.33333333"></rect>
        <path d="M8,1.33333333 C11.6818983,1.33333333 14.6666667,4.31810167 14.6666667,8 C14.6666667,8.22513735 14.6555067,8.44766816 14.6337098,8.66706941 L13.2920697,8.66667601 C13.319304,8.44827685 13.3333333,8.22577678 13.3333333,8 C13.3333333,5.05448133 10.9455187,2.66666667 8,2.66666667 C5.05448133,2.66666667 2.66666667,5.05448133 2.66666667,8 C2.66666667,8.22577678 2.68069595,8.44827685 2.70793034,8.66667601 L1.36629016,8.66706941 C1.34449328,8.44766816 1.33333333,8.22513735 1.33333333,8 C1.33333333,4.31810167 4.31810167,1.33333333 8,1.33333333 Z" id="形状结合" fill="#999999" fill-rule="nonzero"></path>
    </g>
</svg>