<?xml version="1.0" encoding="UTF-8"?>
<svg width="16px" height="16px" viewBox="0 0 16 16" version="1.1" xmlns="http://www.w3.org/2000/svg" xmlns:xlink="http://www.w3.org/1999/xlink">
    <title>icon/基础类/el-icon-upload2</title>
    <g id="icon/基础类/el-icon-upload2" stroke="none" stroke-width="1" fill="none" fill-rule="evenodd">
        <path d="M8.0004,2 C8.0004,2 11.4955,5.4951 11.4955,5.4951 C11.4955,5.4951 10.5527,6.4379 10.5527,6.4379 C10.5527,6.4379 8.66743333,4.55264 8.66743333,4.55264 C8.66743333,4.55264 8.66743333,11.3235333 8.66743333,11.3235333 C8.66743333,11.3235333 7.3341,11.3235333 7.3341,11.3235333 C7.3341,11.3235333 7.3341,4.55193 7.3341,4.55193 C7.3341,4.55193 5.4481,6.4379 5.4481,6.4379 C5.4481,6.4379 4.50530667,5.4951 4.50530667,5.4951 C4.50530667,5.4951 8.0004,2 8.0004,2 C8.0004,2 8.0004,2 8.0004,2 Z M3.33333333,13.2761333 C3.33333333,13.2761333 3.33333333,11.9428 3.33333333,11.9428 C3.33333333,11.9428 2,11.9428 2,11.9428 C2,11.9428 2,14.6094667 2,14.6094667 C2,14.6094667 14,14.6094667 14,14.6094667 C14,14.6094667 14,11.9428 14,11.9428 C14,11.9428 12.6666667,11.9428 12.6666667,11.9428 C12.6666667,11.9428 12.6666667,13.2761333 12.6666667,13.2761333 C12.6666667,13.2761333 3.33333333,13.2761333 3.33333333,13.2761333 C3.33333333,13.2761333 3.33333333,13.2761333 3.33333333,13.2761333 Z" id="形状" fill="#999999"></path>
    </g>
</svg>