<?xml version="1.0" encoding="UTF-8"?>
<svg width="16px" height="16px" viewBox="0 0 16 16" version="1.1" xmlns="http://www.w3.org/2000/svg" xmlns:xlink="http://www.w3.org/1999/xlink">
    <title>icon/面性/icon-basic-file-facesmile</title>
    <g id="icon/面性/icon-basic-file-facesmile" stroke="none" stroke-width="1" fill="none" fill-rule="evenodd">
        <path d="M8,1.33333333 C11.6819,1.33333333 14.6666667,4.3181 14.6666667,8 C14.6666667,11.6819 11.6819,14.6666667 8,14.6666667 C4.3181,14.6666667 1.33333333,11.6819 1.33333333,8 C1.33333333,4.3181 4.3181,1.33333333 8,1.33333333 Z M9.85466667,9.11856667 C9.7574,9.35936667 9.61103333,9.5856 9.4142,9.78243333 C8.63316667,10.5635 7.36683333,10.5635 6.5858,9.78243333 C6.38896667,9.5856 6.2426,9.35936667 6.14533333,9.11856667 C6.14533333,9.11856667 6.08856446,9.14149371 5.99935622,9.17752191 L5.78489602,9.26413518 C5.41995323,9.4115233 4.90903333,9.61786667 4.90903333,9.61786667 C5.07213333,10.0217 5.31723333,10.3995 5.64296667,10.7252667 C6.94473333,12.027 9.05526667,12.027 10.3570333,10.7252667 C10.6827667,10.3995 10.9278667,10.0217 11.0909667,9.61786667 C11.0909667,9.61786667 9.85466667,9.11856667 9.85466667,9.11856667 Z M6.66666667,5.66666667 L5.33333333,5.66666667 L5.33333333,7.66666667 L6.66666667,7.66666667 L6.66666667,5.66666667 Z M10.6666667,5.66666667 L9.33333333,5.66666667 L9.33333333,7.66666667 L10.6666667,7.66666667 L10.6666667,5.66666667 Z" id="形状" fill="#999999"></path>
    </g>
</svg>