<?xml version="1.0" encoding="UTF-8"?>
<svg width="16px" height="16px" viewBox="0 0 16 16" version="1.1" xmlns="http://www.w3.org/2000/svg" xmlns:xlink="http://www.w3.org/1999/xlink">
    <title>icon/基础类/el-icon-plus</title>
    <g id="icon/基础类/el-icon-plus" stroke="none" stroke-width="1" fill="none" fill-rule="evenodd">
        <path d="M7.33333333,7.33333333 C7.33333333,7.33333333 7.33333333,1.66666667 7.33333333,1.66666667 C7.33333333,1.66666667 8.66666667,1.66666667 8.66666667,1.66666667 C8.66666667,1.66666667 8.66666667,7.33333333 8.66666667,7.33333333 C8.66666667,7.33333333 14.3333333,7.33333333 14.3333333,7.33333333 C14.3333333,7.33333333 14.3333333,8.66666667 14.3333333,8.66666667 C14.3333333,8.66666667 8.66666667,8.66666667 8.66666667,8.66666667 C8.66666667,8.66666667 8.66666667,14.3333333 8.66666667,14.3333333 C8.66666667,14.3333333 7.33333333,14.3333333 7.33333333,14.3333333 C7.33333333,14.3333333 7.33333333,8.66666667 7.33333333,8.66666667 C7.33333333,8.66666667 1.66666667,8.66666667 1.66666667,8.66666667 C1.66666667,8.66666667 1.66666667,7.33333333 1.66666667,7.33333333 C1.66666667,7.33333333 7.33333333,7.33333333 7.33333333,7.33333333 C7.33333333,7.33333333 7.33333333,7.33333333 7.33333333,7.33333333 Z" id="路径" fill="#999999"></path>
    </g>
</svg>