<?xml version="1.0" encoding="UTF-8"?>
<svg width="16px" height="16px" viewBox="0 0 16 16" version="1.1" xmlns="http://www.w3.org/2000/svg" xmlns:xlink="http://www.w3.org/1999/xlink">
    <title>icon/编辑类/icon-edit-line-toup</title>
    <g id="icon/编辑类/icon-edit-line-toup" stroke="none" stroke-width="1" fill="none" fill-rule="evenodd">
        <path d="M5.09106651,8.33333333 C5.09106651,8.33333333 7.33333317,8.33333333 7.33333317,8.33333333 C7.33333317,8.33333333 7.33333317,1.66666667 7.33333317,1.66666667 C7.33333317,1.66666667 8.66666651,1.66666667 8.66666651,1.66666667 C8.66666651,1.66666667 8.66666651,8.33333333 8.66666651,8.33333333 C8.66666651,8.33333333 10.9088998,8.33333333 10.9088998,8.33333333 C11.1989332,8.33333333 11.3505998,8.6781 11.1546332,8.8919 C11.1546332,8.8919 8.24569984,12.0652667 8.24569984,12.0652667 C8.11359984,12.2094 7.88639984,12.2094 7.75426651,12.0652667 C7.75426651,12.0652667 4.84535317,8.8919 4.84535317,8.8919 C4.64936984,8.6781 4.80103651,8.33333333 5.09106651,8.33333333 C5.09106651,8.33333333 5.09106651,8.33333333 5.09106651,8.33333333 Z M1.66666651,13 C1.66666651,13 1.66666651,14.3333333 1.66666651,14.3333333 C1.66666651,14.3333333 14.3333332,14.3333333 14.3333332,14.3333333 C14.3333332,14.3333333 14.3333332,13 14.3333332,13 C14.3333332,13 1.66666651,13 1.66666651,13 C1.66666651,13 1.66666651,13 1.66666651,13 Z" id="形状" fill="#999999" transform="translate(8, 8) rotate(-180) translate(-8, -8)"></path>
    </g>
</svg>