<?xml version="1.0" encoding="UTF-8"?>
<svg width="16px" height="16px" viewBox="0 0 16 16" version="1.1" xmlns="http://www.w3.org/2000/svg" xmlns:xlink="http://www.w3.org/1999/xlink">
    <title>icon/影音类/icon-general-line-ear</title>
    <g id="icon/影音类/icon-general-line-ear" stroke="none" stroke-width="1" fill="none" fill-rule="evenodd">
        <path d="M6.3544733,3.50858143 C5.81360664,4.02350809 5.41498998,4.65873808 5.22932998,5.10083141 C5.22932998,5.10083141 4,4.58457141 4,4.58457141 C4.25416133,3.97936142 4.75603666,3.18940143 5.43510665,2.54289811 C6.11079664,1.89961145 7.03815995,1.32845203 8.13623327,1.33336479 C9.69429992,1.34041256 11.1011332,2.17214478 11.9108999,3.3466981 C12.7308665,4.53601475 12.9659665,6.12789806 12.0737332,7.5847647 C10.6239666,9.951998 10.2276666,10.9253647 9.95749991,12.166098 C9.84493325,12.6831313 9.49399992,13.1140313 9.09663326,13.4133646 C8.69123326,13.7187646 8.17389994,13.9374979 7.62536661,13.9886646 C7.06879662,14.0405646 6.46705996,13.9193979 5.94334664,13.5247646 C5.42170998,13.1317313 5.03922332,12.514298 4.82732332,11.684398 C4.82732332,11.684398 6.11921664,11.3545313 6.11921664,11.3545313 C6.27571663,11.967498 6.52235663,12.291598 6.74573329,12.459898 C6.96703329,12.6266646 7.22619662,12.6867646 7.50156661,12.6610646 C7.78496661,12.6346646 8.07059994,12.5169646 8.2943666,12.348398 C8.5261666,12.1737646 8.63059993,11.9931646 8.65469993,11.882398 C8.97096659,10.429998 9.45433325,9.30886468 10.9366999,6.88843138 C11.5105332,5.95143139 11.3836999,4.93103141 10.8131666,4.10351475 C10.2324666,3.2612381 9.22026659,2.67162477 8.13023327,2.66671811 C7.51073328,2.66392811 6.89871662,2.9904381 6.3544733,3.50858143 C6.3544733,3.50858143 6.3544733,3.50858143 6.3544733,3.50858143 Z M8.12193327,5.43306473 C7.92126661,5.5016314 7.68989994,5.7069314 7.58213328,6.03909806 C7.58213328,6.03909806 6.31386997,5.6276314 6.31386997,5.6276314 C6.53947996,4.93226474 7.05809329,4.38756808 7.69076661,4.17135809 C8.35573327,3.94410476 9.11486659,4.09975475 9.63523325,4.75023141 C10.0177332,5.2283314 10.0855666,5.76439806 9.97313324,6.26766472 C9.86909991,6.73319805 9.61243325,7.17203137 9.35326659,7.5492647 C9.16479992,7.8235647 8.94309993,8.10873136 8.73643326,8.37459802 C8.65869993,8.47459802 8.5830666,8.57189802 8.51213327,8.66483135 C8.23643327,9.02606468 8.01713327,9.33923134 7.88306661,9.62033134 C7.88306661,9.62033134 6.67957996,9.04639801 6.67957996,9.04639801 C6.87837662,8.62953135 7.17335329,8.22129803 7.45223328,7.85589803 C7.53989995,7.74099803 7.62559995,7.63079803 7.70889994,7.5236647 C7.90589994,7.27026471 8.08949994,7.03413138 8.25429994,6.79423138 C8.4889666,6.45269805 8.62519993,6.18583139 8.6718666,5.97689806 C8.71013326,5.80573139 8.68649993,5.69866473 8.59409993,5.58316473 C8.44779993,5.40029807 8.2902666,5.3755314 8.12193327,5.43306473 C8.12193327,5.43306473 8.12193327,5.43306473 8.12193327,5.43306473 Z" id="形状" fill="#999999"></path>
    </g>
</svg>