<?xml version="1.0" encoding="UTF-8"?>
<svg width="16px" height="16px" viewBox="0 0 16 16" version="1.1" xmlns="http://www.w3.org/2000/svg" xmlns:xlink="http://www.w3.org/1999/xlink">
    <title>icon/通用类/el-icon-receiving</title>
    <g id="icon/通用类/el-icon-receiving" stroke="none" stroke-width="1" fill="none" fill-rule="evenodd">
        <path d="M4.7658,1.33333333 C4.7658,1.33333333 11.3333333,1.33333333 11.3333333,1.33333333 C11.8075333,1.33333333 12.2460667,1.5852 12.4850333,1.99483333 C12.4850333,1.99483333 14.4850333,9.5084 14.4850333,9.5084 C14.604,9.71233333 14.6666667,9.94416667 14.6666667,10.1802333 C14.6666667,10.1802333 14.6666667,13.3333333 14.6666667,13.3333333 C14.6666667,14.0697 14.0697,14.6666667 13.3333333,14.6666667 C13.3333333,14.6666667 2.66666667,14.6666667 2.66666667,14.6666667 C1.93028667,14.6666667 1.33333333,14.0697 1.33333333,13.3333333 C1.33333333,13.3333333 1.33333333,10.1802333 1.33333333,10.1802333 C1.33333333,9.94416667 1.39601133,9.71233333 1.51496133,9.5084 C1.51496133,9.5084 3.61411,1.99483333 3.61411,1.99483333 C3.85305667,1.5852 4.29159,1.33333333 4.7658,1.33333333 Z M4.7658,2.66666667 C4.7658,2.66666667 3.16069,9.33333333 3.16069,9.33333333 C3.16069,9.33333333 7.14716667,9.33333333 7.14716667,9.33333333 C7.14716667,9.33333333 7.2972,9.78336667 7.2972,9.78336667 C7.29786667,9.7852 7.2991,9.7884 7.3009,9.79283333 C7.3062,9.8059 7.31596667,9.82876667 7.33066667,9.8581 C7.36076667,9.9183 7.40706667,9.99713333 7.47046667,10.0732 C7.59316667,10.2204333 7.75406667,10.3333333 8,10.3333333 C8.24593333,10.3333333 8.40683333,10.2204333 8.52953333,10.0732 C8.59293333,9.99713333 8.63923333,9.9183 8.66933333,9.8581 C8.68403333,9.82876667 8.6938,9.8059 8.6991,9.79283333 C8.70043333,9.78953333 8.70146667,9.78693333 8.70216667,9.78506667 C8.7028,9.78336667 8.85283333,9.33333333 8.85283333,9.33333333 C8.85283333,9.33333333 12.8393,9.33333333 12.8393,9.33333333 C12.8393,9.33333333 11.3333333,2.66666667 11.3333333,2.66666667 C11.3333333,2.66666667 4.7658,2.66666667 4.7658,2.66666667 Z M9.7424,10.6666667 C9.69066667,10.7489333 9.6282,10.8375 9.5538,10.9268 C9.25983333,11.2795667 8.75406667,11.6666667 8,11.6666667 C7.24593333,11.6666667 6.74016667,11.2795667 6.4462,10.9268 C6.3718,10.8375 6.30933333,10.7489333 6.2576,10.6666667 C6.2576,10.6666667 2.66666667,10.6666667 2.66666667,10.6666667 C2.66666667,10.6666667 2.66666667,13.3333333 2.66666667,13.3333333 C2.66666667,13.3333333 13.3333333,13.3333333 13.3333333,13.3333333 C13.3333333,13.3333333 13.3333333,10.6666667 13.3333333,10.6666667 C13.3333333,10.6666667 9.7424,10.6666667 9.7424,10.6666667 Z" id="形状" fill="#999999"></path>
        <rect id="矩形" fill="#999999" x="5.33333333" y="6.66666667" width="5.33333333" height="1.33333333"></rect>
        <rect id="矩形" fill="#999999" x="6.66666667" y="4" width="2.66666667" height="1.33333333"></rect>
    </g>
</svg>