<?xml version="1.0" encoding="UTF-8"?>
<svg width="16px" height="16px" viewBox="0 0 16 16" version="1.1" xmlns="http://www.w3.org/2000/svg" xmlns:xlink="http://www.w3.org/1999/xlink">
    <title>icon/基础类/icon-basic-line-doubleup</title>
    <g id="icon/基础类/icon-basic-line-doubleup" stroke="none" stroke-width="1" fill="none" fill-rule="evenodd">
        <path d="M2.6666671,4.2761438 C2.6666671,4.2761438 3.60947711,3.33333379 3.60947711,3.33333379 C3.60947711,3.33333379 7.8521005,7.57596718 7.8521005,7.57596718 C7.8521005,7.57596718 12.0947672,3.33333379 12.0947672,3.33333379 C12.0947672,3.33333379 13.0375672,4.2761438 13.0375672,4.2761438 C13.0375672,4.2761438 7.8521005,9.46160053 7.8521005,9.46160053 C7.8521005,9.46160053 2.6666671,4.2761438 2.6666671,4.2761438 C2.6666671,4.2761438 2.6666671,4.2761438 2.6666671,4.2761438 Z M2.6666671,8.04736718 C2.6666671,8.04736718 3.60947711,7.10456717 3.60947711,7.10456717 C3.60947711,7.10456717 7.8521005,11.3472006 7.8521005,11.3472006 C7.8521005,11.3472006 12.0947672,7.10456717 12.0947672,7.10456717 C12.0947672,7.10456717 13.0375672,8.04736718 13.0375672,8.04736718 C13.0375672,8.04736718 7.8521005,13.2328339 7.8521005,13.2328339 C7.8521005,13.2328339 2.6666671,8.04736718 2.6666671,8.04736718 C2.6666671,8.04736718 2.6666671,8.04736718 2.6666671,8.04736718 Z" id="形状" fill="#999999" transform="translate(7.8521, 8.2831) rotate(-180) translate(-7.8521, -8.2831)"></path>
    </g>
</svg>