<?xml version="1.0" encoding="UTF-8"?>
<svg width="16px" height="16px" viewBox="0 0 16 16" version="1.1" xmlns="http://www.w3.org/2000/svg" xmlns:xlink="http://www.w3.org/1999/xlink">
    <title>icon/通用类/icon-general-line-subscribed</title>
    <g id="icon/通用类/icon-general-line-subscribed" stroke="none" stroke-width="1" fill="none" fill-rule="evenodd">
        <path d="M3.66666667,2.66666667 C3.66666667,2.66666667 3.66666667,12.8889 3.66666667,12.8889 C3.66666667,12.8889 8,10.5777667 8,10.5777667 C8,10.5777667 12.3333333,12.8889 12.3333333,12.8889 C12.3333333,12.8889 12.3333333,2.66666667 12.3333333,2.66666667 C12.3333333,2.66666667 3.66666667,2.66666667 3.66666667,2.66666667 C3.66666667,2.66666667 3.66666667,2.66666667 3.66666667,2.66666667 Z M2.33333333,2.33333333 C2.33333333,1.78105 2.78105,1.33333333 3.33333333,1.33333333 C3.33333333,1.33333333 12.6666667,1.33333333 12.6666667,1.33333333 C13.2189667,1.33333333 13.6666667,1.78105 13.6666667,2.33333333 C13.6666667,2.33333333 13.6666667,13.8889 13.6666667,13.8889 C13.6666667,14.4425 13.0767,14.7964667 12.5882333,14.5359333 C12.5882333,14.5359333 8,12.0889 8,12.0889 C8,12.0889 3.41176333,14.5359333 3.41176333,14.5359333 C2.92329333,14.7964667 2.33333333,14.4425 2.33333333,13.8889 C2.33333333,13.8889 2.33333333,2.33333333 2.33333333,2.33333333 C2.33333333,2.33333333 2.33333333,2.33333333 2.33333333,2.33333333 Z M7.3654,7.32006667 C7.3654,7.32006667 9.95813333,4.72733333 9.95813333,4.72733333 C9.95813333,4.72733333 10.9009333,5.67013333 10.9009333,5.67013333 C10.9009333,5.67013333 7.3654,9.20566667 7.3654,9.20566667 C7.3654,9.20566667 5.24409,7.08433333 5.24409,7.08433333 C5.24409,7.08433333 6.1869,6.14153333 6.1869,6.14153333 C6.1869,6.14153333 7.3654,7.32006667 7.3654,7.32006667 C7.3654,7.32006667 7.3654,7.32006667 7.3654,7.32006667 Z" id="形状" fill="#999999"></path>
    </g>
</svg>