<?xml version="1.0" encoding="UTF-8"?>
<svg width="16px" height="16px" viewBox="0 0 16 16" version="1.1" xmlns="http://www.w3.org/2000/svg" xmlns:xlink="http://www.w3.org/1999/xlink">
    <title>icon/基础类/icon-basic-line-fullscreen</title>
    <g id="icon/基础类/icon-basic-line-fullscreen" stroke="none" stroke-width="1" fill="none" fill-rule="evenodd">
        <path d="M8.66666619,1.66666667 C8.66666619,1.66666667 13.3346995,1.66666667 13.3346995,1.66666667 C13.8905995,1.66666667 14.3333329,2.11798667 14.3333329,2.66666667 C14.3333329,2.66666667 14.3333329,7.33333333 14.3333329,7.33333333 C14.3333329,7.33333333 12.9999995,7.33333333 12.9999995,7.33333333 C12.9999995,7.33333333 12.9999995,3 12.9999995,3 C12.9999995,3 8.66666619,3 8.66666619,3 C8.66666619,3 8.66666619,1.66666667 8.66666619,1.66666667 C8.66666619,1.66666667 8.66666619,1.66666667 8.66666619,1.66666667 Z M1.66666619,13.3333333 C1.66666619,13.3333333 1.66666619,8.66666667 1.66666619,8.66666667 C1.66666619,8.66666667 2.99999952,8.66666667 2.99999952,8.66666667 C2.99999952,8.66666667 2.99999952,13 2.99999952,13 C2.99999952,13 7.33333286,13 7.33333286,13 C7.33333286,13 7.33333286,14.3333333 7.33333286,14.3333333 C7.33333286,14.3333333 2.66528952,14.3333333 2.66528952,14.3333333 C2.10940952,14.3333333 1.66666619,13.882 1.66666619,13.3333333 C1.66666619,13.3333333 1.66666619,13.3333333 1.66666619,13.3333333 Z" id="形状" fill="#999999"></path>
    </g>
</svg>