<?xml version="1.0" encoding="UTF-8"?>
<svg width="16px" height="16px" viewBox="0 0 16 16" version="1.1" xmlns="http://www.w3.org/2000/svg" xmlns:xlink="http://www.w3.org/1999/xlink">
    <title>icon/通用类/el-icon-printer</title>
    <g id="icon/通用类/el-icon-printer" stroke="none" stroke-width="1" fill="none" fill-rule="evenodd">
        <path d="M4,3 C4,2.44771667 4.44771667,2 5,2 C5,2 11,2 11,2 C11.5523,2 12,2.44771667 12,3 C12,3 12,4.66666667 12,4.66666667 C12,4.66666667 13.6666667,4.66666667 13.6666667,4.66666667 C14.2189667,4.66666667 14.6666667,5.11438333 14.6666667,5.66666667 C14.6666667,5.66666667 14.6666667,11.3333333 14.6666667,11.3333333 C14.6666667,11.8856333 14.2189667,12.3333333 13.6666667,12.3333333 C13.6666667,12.3333333 12.3333333,12.3333333 12.3333333,12.3333333 C12.3333333,12.3333333 12.3333333,13.6666667 12.3333333,13.6666667 C12.3333333,14.2189667 11.8856333,14.6666667 11.3333333,14.6666667 C11.3333333,14.6666667 4.66666667,14.6666667 4.66666667,14.6666667 C4.11438333,14.6666667 3.66666667,14.2189667 3.66666667,13.6666667 C3.66666667,13.6666667 3.66666667,12.3333333 3.66666667,12.3333333 C3.66666667,12.3333333 2.33333333,12.3333333 2.33333333,12.3333333 C1.78105,12.3333333 1.33333333,11.8856333 1.33333333,11.3333333 C1.33333333,11.3333333 1.33333333,5.66666667 1.33333333,5.66666667 C1.33333333,5.11438 1.78105,4.66666667 2.33333333,4.66666667 C2.33333333,4.66666667 4,4.66666667 4,4.66666667 C4,4.66666667 4,3 4,3 C4,3 4,3 4,3 Z M5.33333333,4.66666667 C5.33333333,4.66666667 10.6666667,4.66666667 10.6666667,4.66666667 C10.6666667,4.66666667 10.6666667,3.33333333 10.6666667,3.33333333 C10.6666667,3.33333333 5.33333333,3.33333333 5.33333333,3.33333333 C5.33333333,3.33333333 5.33333333,4.66666667 5.33333333,4.66666667 C5.33333333,4.66666667 5.33333333,4.66666667 5.33333333,4.66666667 Z M3.66666667,11 C3.66666667,11 3.66666667,10 3.66666667,10 C3.66666667,9.4477 4.11438333,9 4.66666667,9 C4.66666667,9 11.3333333,9 11.3333333,9 C11.8856333,9 12.3333333,9.4477 12.3333333,10 C12.3333333,10 12.3333333,11 12.3333333,11 C12.3333333,11 13.3333333,11 13.3333333,11 C13.3333333,11 13.3333333,6 13.3333333,6 C13.3333333,6 2.66666667,6 2.66666667,6 C2.66666667,6 2.66666667,11 2.66666667,11 C2.66666667,11 3.66666667,11 3.66666667,11 C3.66666667,11 3.66666667,11 3.66666667,11 Z M5,10.3333333 C5,10.3333333 5,13.3333333 5,13.3333333 C5,13.3333333 11,13.3333333 11,13.3333333 C11,13.3333333 11,10.3333333 11,10.3333333 C11,10.3333333 5,10.3333333 5,10.3333333 C5,10.3333333 5,10.3333333 5,10.3333333 Z" id="形状" fill="#999999"></path>
    </g>
</svg>