<?xml version="1.0" encoding="UTF-8"?>
<svg width="16px" height="16px" viewBox="0 0 16 16" version="1.1" xmlns="http://www.w3.org/2000/svg" xmlns:xlink="http://www.w3.org/1999/xlink">
    <title>icon/影音类/el-icon-turn-off-microphone</title>
    <g id="icon/影音类/el-icon-turn-off-microphone" stroke="none" stroke-width="1" fill="none" fill-rule="evenodd">
        <path d="M14,7 L14,7.33333333 C14,10.5352 11.8253333,13.1512667 8.66666667,13.3242333 L8.66666667,14.6666667 L7.33333333,14.6666667 L7.33333333,13.3242333 C6.71388023,13.2903124 6.13227159,13.1624297 5.59748809,12.9545938 L6.66379725,11.8882697 C6.98135612,11.9614171 7.31642777,12 7.66666667,12 L8.33333333,12 C10.9106667,12 12.6666667,9.91066667 12.6666667,7.33333333 L12.6666667,7 L14,7 Z M8,1.33333333 C9.53403157,1.33333333 10.6567602,2.27539158 11.1110219,3.61254604 L12.9497475,1.77411016 L13.8925565,2.7169192 L2.57884801,14.0306277 L1.63603897,13.0878187 L3.38003897,11.3433333 L3.23265751,11.1574197 C2.44799608,10.1191771 2,8.78659451 2,7.33333333 L2,7 L3.33333333,7 L3.33333333,7.33333333 C3.33333333,8.50381556 3.69550375,9.57364906 4.33229796,10.3928431 L5.37803897,9.34533333 L5.26661431,9.18104408 C4.87959642,8.57150502 4.66666667,7.81695226 4.66666667,7 L4.66666667,5 C4.66666667,2.97495667 5.97496667,1.33333333 8,1.33333333 Z M11.3278878,7.22525542 C11.2345943,9.14538408 9.94939138,10.6666667 8,10.6666667 L7.888,10.6633333 L11.3278878,7.22525542 Z M8,2.66666667 C6.71133333,2.66666667 6,3.71133667 6,5 L6,7 C6,7.51926587 6.11549722,7.99891413 6.33772463,8.38656072 L9.98803897,4.73433333 L9.97948827,4.62764305 C9.85450517,3.5159657 9.1619337,2.66666667 8,2.66666667 Z" id="形状结合" fill="#999999"></path>
    </g>
</svg>