<?xml version="1.0" encoding="UTF-8"?>
<svg width="16px" height="16px" viewBox="0 0 16 16" version="1.1" xmlns="http://www.w3.org/2000/svg" xmlns:xlink="http://www.w3.org/1999/xlink">
    <title>icon/通用类/icon-general-line-application</title>
    <g id="icon/通用类/icon-general-line-application" stroke="none" stroke-width="1" fill="none" fill-rule="evenodd">
        <path d="M4.66666667,2 C4.66666667,2 2.66666667,2 2.66666667,2 C2.66666667,2 2.66666667,4 2.66666667,4 C2.66666667,4 4.66666667,4 4.66666667,4 C4.66666667,4 4.66666667,2 4.66666667,2 C4.66666667,2 4.66666667,2 4.66666667,2 Z M4.66666667,7 C4.66666667,7 2.66666667,7 2.66666667,7 C2.66666667,7 2.66666667,9 2.66666667,9 C2.66666667,9 4.66666667,9 4.66666667,9 C4.66666667,9 4.66666667,7 4.66666667,7 C4.66666667,7 4.66666667,7 4.66666667,7 Z M4.66666667,12 C4.66666667,12 2.66666667,12 2.66666667,12 C2.66666667,12 2.66666667,14 2.66666667,14 C2.66666667,14 4.66666667,14 4.66666667,14 C4.66666667,14 4.66666667,12 4.66666667,12 C4.66666667,12 4.66666667,12 4.66666667,12 Z M7.33333333,2 C7.33333333,2 9.33333333,2 9.33333333,2 C9.33333333,2 9.33333333,4 9.33333333,4 C9.33333333,4 7.33333333,4 7.33333333,4 C7.33333333,4 7.33333333,2 7.33333333,2 C7.33333333,2 7.33333333,2 7.33333333,2 Z M7.33333333,7 C7.33333333,7 9.33333333,7 9.33333333,7 C9.33333333,7 9.33333333,9 9.33333333,9 C9.33333333,9 7.33333333,9 7.33333333,9 C7.33333333,9 7.33333333,7 7.33333333,7 C7.33333333,7 7.33333333,7 7.33333333,7 Z M7.33333333,12 C7.33333333,12 9.33333333,12 9.33333333,12 C9.33333333,12 9.33333333,14 9.33333333,14 C9.33333333,14 7.33333333,14 7.33333333,14 C7.33333333,14 7.33333333,12 7.33333333,12 C7.33333333,12 7.33333333,12 7.33333333,12 Z M12,2 C12,2 14,2 14,2 C14,2 14,4 14,4 C14,4 12,4 12,4 C12,4 12,2 12,2 C12,2 12,2 12,2 Z M12,7 C12,7 14,7 14,7 C14,7 14,9 14,9 C14,9 12,9 12,9 C12,9 12,7 12,7 C12,7 12,7 12,7 Z M12,12 C12,12 14,12 14,12 C14,12 14,14 14,14 C14,14 12,14 12,14 C12,14 12,12 12,12 C12,12 12,12 12,12 Z" id="形状" fill="#999999"></path>
    </g>
</svg>