<?xml version="1.0" encoding="UTF-8"?>
<svg width="16px" height="16px" viewBox="0 0 16 16" version="1.1" xmlns="http://www.w3.org/2000/svg" xmlns:xlink="http://www.w3.org/1999/xlink">
    <title>icon/面性/icon-basic-file-Warning2</title>
    <g id="icon/面性/icon-basic-file-Warning2" stroke="none" stroke-width="1" fill="none" fill-rule="evenodd">
        <path d="" id="矩形" fill-rule="nonzero"></path>
        <path d="M8,15.2 C11.97648,15.2 15.2,11.97648 15.2,8 C15.2,4.023552 11.97648,0.8 8,0.8 C4.023552,0.8 0.8,4.023552 0.8,8 C0.8,11.97648 4.023552,15.2 8,15.2 Z" id="椭圆形" fill="#FFEFCC" fill-rule="nonzero"></path>
        <path d="M8.52125,9.94014803 C8.742162,9.94014803 8.92125,10.119236 8.92125,10.340148 L8.92125,11.380148 C8.92125,11.60106 8.742162,11.780148 8.52125,11.780148 L7.48125,11.780148 C7.2603364,11.780148 7.08125,11.60106 7.08125,11.380148 L7.08125,10.340148 C7.08125,10.119236 7.2603364,9.94014803 7.48125,9.94014803 L8.52125,9.94014803 Z M8.52125,4.06533203 C8.742162,4.06533203 8.92125,4.24441843 8.92125,4.46533203 L8.92125,8.67348403 C8.92125,8.89439603 8.742162,9.07348403 8.52125,9.07348403 L7.48125,9.07348403 C7.2603364,9.07348403 7.08125,8.89439603 7.08125,8.67348403 L7.08125,4.46533203 C7.08125,4.24441843 7.2603364,4.06533203 7.48125,4.06533203 L8.52125,4.06533203 Z" id="形状结合" fill="#FFAD00"></path>
    </g>
</svg>