<?xml version="1.0" encoding="UTF-8"?>
<svg width="16px" height="16px" viewBox="0 0 16 16" version="1.1" xmlns="http://www.w3.org/2000/svg" xmlns:xlink="http://www.w3.org/1999/xlink">
    <title>icon/通用类/el-icon-cpu</title>
    <g id="icon/通用类/el-icon-cpu" stroke="none" stroke-width="1" fill="none" fill-rule="evenodd">
        <path d="M12,2.66666667 C12.7363797,2.66666667 13.3333333,3.26362033 13.3333333,4 L13.3333333,12 C13.3333333,12.7363797 12.7363797,13.3333333 12,13.3333333 L4,13.3333333 C3.26362033,13.3333333 2.66666667,12.7363797 2.66666667,12 L2.66666667,4 C2.66666667,3.26362033 3.26362033,2.66666667 4,2.66666667 L12,2.66666667 Z M12,4 L4,4 L4,12 L12,12 L12,4 Z" id="形状结合" fill="#999999" fill-rule="nonzero"></path>
        <rect id="矩形" fill="#999999" x="7.33333333" y="0.666666667" width="1.33333333" height="2"></rect>
        <rect id="矩形备份-3" fill="#999999" x="7.33333333" y="13.3333333" width="1.33333333" height="2"></rect>
        <rect id="矩形备份" fill="#999999" x="10" y="0.666666667" width="1.33333333" height="2"></rect>
        <rect id="矩形备份-4" fill="#999999" x="10" y="13.3333333" width="1.33333333" height="2"></rect>
        <rect id="矩形备份-2" fill="#999999" x="4.66666667" y="0.666666667" width="1.33333333" height="2"></rect>
        <rect id="矩形备份-5" fill="#999999" x="4.66666667" y="13.3333333" width="1.33333333" height="2"></rect>
        <rect id="矩形备份-8" fill="#999999" x="0.666666667" y="4.66666667" width="2" height="1.33333333"></rect>
        <rect id="矩形备份-11" fill="#999999" x="13.3333333" y="4.66666667" width="2" height="1.33333333"></rect>
        <rect id="矩形备份-9" fill="#999999" x="0.666666667" y="7.33333333" width="2" height="1.33333333"></rect>
        <rect id="矩形备份-12" fill="#999999" x="13.3333333" y="7.33333333" width="2" height="1.33333333"></rect>
        <rect id="矩形备份-10" fill="#999999" x="0.666666667" y="10" width="2" height="1.33333333"></rect>
        <rect id="矩形备份-13" fill="#999999" x="13.3333333" y="10" width="2" height="1.33333333"></rect>
    </g>
</svg>