<?xml version="1.0" encoding="UTF-8"?>
<svg width="16px" height="16px" viewBox="0 0 16 16" version="1.1" xmlns="http://www.w3.org/2000/svg" xmlns:xlink="http://www.w3.org/1999/xlink">
    <title>icon/基础类/icon-basic-line-question</title>
    <g id="icon/基础类/icon-basic-line-question" stroke="none" stroke-width="1" fill="none" fill-rule="evenodd">
        <path d="M2.66666667,8 C2.66666667,5.05446667 5.05446667,2.66666667 8,2.66666667 C10.9455333,2.66666667 13.3333333,5.05446667 13.3333333,8 C13.3333333,10.9455333 10.9455333,13.3333333 8,13.3333333 C5.05446667,13.3333333 2.66666667,10.9455333 2.66666667,8 C2.66666667,8 2.66666667,8 2.66666667,8 Z M8,1.33333333 C4.3181,1.33333333 1.33333333,4.3181 1.33333333,8 C1.33333333,11.6819 4.3181,14.6666667 8,14.6666667 C11.6819,14.6666667 14.6666667,11.6819 14.6666667,8 C14.6666667,4.3181 11.6819,1.33333333 8,1.33333333 C8,1.33333333 8,1.33333333 8,1.33333333 Z M6.86666667,6.65953333 C6.86666667,6.65953333 6.86666667,6.5058 6.86666667,6.5058 C6.86746667,6.3229 6.9329,6.12 7.07883333,5.96746667 C7.21363333,5.8266 7.47636667,5.66666667 7.99616667,5.66666667 C8.4843,5.66666667 8.82376667,5.89973333 8.99686667,6.16433333 C9.18173333,6.44686667 9.1453,6.68396667 9.05756667,6.80243333 C8.94813333,6.95016667 8.81226667,7.0866 8.6481,7.2344 C8.59813333,7.27936667 8.53656667,7.33296667 8.47053333,7.3904 C8.47053333,7.3904 8.47053333,7.39043333 8.47053333,7.39043333 C8.35246667,7.49313333 8.2202,7.60823333 8.11473333,7.7086 C7.74023333,8.06493333 7.33346667,8.56226667 7.33346667,9.33333333 C7.33346667,9.33333333 7.33563333,9.67093333 7.33563333,9.67093333 C7.33563333,9.67093333 8.66893333,9.6624 8.66893333,9.6624 C8.66893333,9.6624 8.6668,9.3315 8.6668,9.3315 C8.6673,9.1035 8.76076667,8.93436667 9.03383333,8.67453333 C9.12563333,8.5872 9.20813333,8.5158 9.30253333,8.43413333 C9.30253333,8.43413333 9.30256667,8.4341 9.30256667,8.4341 C9.3724,8.3737 9.44873333,8.30766667 9.54016667,8.22536667 C9.73026667,8.0542 9.94183333,7.8487 10.129,7.59603333 C10.6344,6.91373333 10.5162,6.0512 10.1126333,5.43433333 C9.6973,4.7995 8.9416,4.33333333 7.99616667,4.33333333 C7.178,4.33333333 6.5437,4.5981 6.11543333,5.0457 C5.69856667,5.4814 5.53486667,6.03036667 5.53333333,6.50243333 C5.53333333,6.50243333 5.53333333,6.65953333 5.53333333,6.65953333 C5.53333333,6.65953333 6.86666667,6.65953333 6.86666667,6.65953333 C6.86666667,6.65953333 6.86666667,6.65953333 6.86666667,6.65953333 Z M7.3356,10.3333333 C7.3356,10.3333333 7.3356,11.6692667 7.3356,11.6692667 C7.3356,11.6692667 8.66893333,11.6692667 8.66893333,11.6692667 C8.66893333,11.6692667 8.66893333,10.3333333 8.66893333,10.3333333 C8.66893333,10.3333333 7.3356,10.3333333 7.3356,10.3333333 C7.3356,10.3333333 7.3356,10.3333333 7.3356,10.3333333 Z" id="形状" fill="#999999"></path>
    </g>
</svg>