<?xml version="1.0" encoding="UTF-8"?>
<svg width="16px" height="16px" viewBox="0 0 16 16" version="1.1" xmlns="http://www.w3.org/2000/svg" xmlns:xlink="http://www.w3.org/1999/xlink">
    <title>icon/通用类/icon-general-line-size</title>
    <g id="icon/通用类/icon-general-line-size" stroke="none" stroke-width="1" fill="none" fill-rule="evenodd">
        <path d="M13.3333333,2 C14.069713,2 14.6666667,2.59695367 14.6666667,3.33333333 L14.6666667,12.6666667 C14.6666667,13.4030463 14.069713,14 13.3333333,14 L2.66666667,14 C1.930287,14 1.33333333,13.4030463 1.33333333,12.6666667 L1.33333333,3.33333333 C1.33333333,2.59695367 1.930287,2 2.66666667,2 L13.3333333,2 Z M12.6666667,3.33333333 L3.33333333,3.33333333 C2.9651435,3.33333333 2.66666667,3.63181017 2.66666667,4 L2.66666667,12 C2.66666667,12.3681898 2.9651435,12.6666667 3.33333333,12.6666667 L12.6666667,12.6666667 C13.0348565,12.6666667 13.3333333,12.3681898 13.3333333,12 L13.3333333,4 C13.3333333,3.63181017 13.0348565,3.33333333 12.6666667,3.33333333 Z M5.33333333,8 L5.33333333,10 L7.33333333,10 L7.33333333,11.3333333 L4.66666667,11.3333333 C4.29847683,11.3333333 4,11.0348565 4,10.6666667 L4,8 L5.33333333,8 Z M11.3333333,4.66666667 C11.7015232,4.66666667 12,4.9651435 12,5.33333333 L12,8 L10.6666667,8 L10.6666667,6 L8.66666667,6 L8.66666667,4.66666667 L11.3333333,4.66666667 Z" id="形状结合" fill="#999999"></path>
    </g>
</svg>