<?xml version="1.0" encoding="UTF-8"?>
<svg width="16px" height="16px" viewBox="0 0 16 16" version="1.1" xmlns="http://www.w3.org/2000/svg" xmlns:xlink="http://www.w3.org/1999/xlink">
    <title>icon/通用类/icon-general-line-scan</title>
    <g id="icon/通用类/icon-general-line-scan" stroke="none" stroke-width="1" fill="none" fill-rule="evenodd">
        <path d="M6,2 C6,2 6,3.33333333 6,3.33333333 C6,3.33333333 3.33333333,3.33333333 3.33333333,3.33333333 C3.33333333,3.33333333 3.33333333,6 3.33333333,6 C3.33333333,6 2,6 2,6 C2,6 2,2 2,2 C2,2 6,2 6,2 Z M10,3.33333333 C10,3.33333333 10,2 10,2 C10,2 14,2 14,2 C14,2 14,6 14,6 C14,6 12.6666667,6 12.6666667,6 C12.6666667,6 12.6666667,3.33333333 12.6666667,3.33333333 C12.6666667,3.33333333 10,3.33333333 10,3.33333333 Z M1.66666667,8.66666667 C1.66666667,8.66666667 1.66666667,7.33333333 1.66666667,7.33333333 C1.66666667,7.33333333 14.3333333,7.33333333 14.3333333,7.33333333 C14.3333333,7.33333333 14.3333333,8.66666667 14.3333333,8.66666667 C14.3333333,8.66666667 1.66666667,8.66666667 1.66666667,8.66666667 Z M3.33333333,10 C3.33333333,10 2,10 2,10 C2,10 2,14 2,14 C2,14 6,14 6,14 C6,14 6,12.6666667 6,12.6666667 C6,12.6666667 3.33333333,12.6666667 3.33333333,12.6666667 C3.33333333,12.6666667 3.33333333,10 3.33333333,10 Z M12.6666667,10 C12.6666667,10 14,10 14,10 C14,10 14,14 14,14 C14,14 10,14 10,14 C10,14 10,12.6666667 10,12.6666667 C10,12.6666667 12.6666667,12.6666667 12.6666667,12.6666667 C12.6666667,12.6666667 12.6666667,10 12.6666667,10 Z" id="形状" fill="#999999"></path>
    </g>
</svg>