<?xml version="1.0" encoding="UTF-8"?>
<svg width="16px" height="16px" viewBox="0 0 16 16" version="1.1" xmlns="http://www.w3.org/2000/svg" xmlns:xlink="http://www.w3.org/1999/xlink">
    <title>icon/面性/icon-basic-file-thumbup</title>
    <g id="icon/面性/icon-basic-file-thumbup" stroke="none" stroke-width="1" fill="none" fill-rule="evenodd">
        <path d="M8.34953333,2.18571 C8.34953333,2.18571 5.41546667,6 5.41546667,6 C5.41546667,6 4.07706667,6 4.07706667,6 C4.07706667,6 4.07706667,14.6666667 4.07706667,14.6666667 C4.07706667,14.6666667 11.8333333,14.6666667 11.8333333,14.6666667 C12.2688,14.6666667 12.6542,14.3848333 12.7862667,13.9698667 C12.7862667,13.9698667 14.7692333,7.7376 14.7692333,7.7376 C15.0428667,6.87766667 14.4011,6 13.4986667,6 C13.4986667,6 10.0920667,6.01953333 10.0920667,6.01953333 C10.0920667,6.01953333 10.1997,5.73823333 10.1997,5.73823333 C10.2545,5.59503333 10.3215667,5.4454 10.3991667,5.2723 C10.4237667,5.2174 10.4494,5.16026667 10.476,5.10024 C10.5798667,4.86590333 10.6950333,4.59542333 10.7751667,4.32365333 C10.8538333,4.05684 10.9162,3.73329667 10.8688,3.40297333 C10.8183,3.05083333 10.6464333,2.72147 10.3232667,2.47629333 C10.3232667,2.47629333 9.7508,2.00174333 9.7508,2.00174333 C9.7508,2.00174333 9.7355,1.99048067 9.7355,1.99048067 C9.29736667,1.667514 8.6814,1.75427967 8.34953333,2.18571 Z M1.4104,14.6667046 C1.4104,14.6667046 2.74373333,14.6667046 2.74373333,14.6667046 C2.74373333,14.6667046 2.74373333,6.00003789 2.74373333,6.00003789 C2.74373333,6.00003789 1.4104,6.00003789 1.4104,6.00003789 C1.4104,6.00003789 1.4104,14.6667046 1.4104,14.6667046 Z" id="形状" fill="#999999"></path>
    </g>
</svg>