<?xml version="1.0" encoding="UTF-8"?>
<svg width="16px" height="16px" viewBox="0 0 16 16" version="1.1" xmlns="http://www.w3.org/2000/svg" xmlns:xlink="http://www.w3.org/1999/xlink">
    <title>icon/基础类/el-icon-arrow-left</title>
    <g id="icon/基础类/el-icon-arrow-left" stroke="none" stroke-width="1" fill="none" fill-rule="evenodd">
        <path d="M6.19526234,3.98541712 C6.19526234,3.98541712 7.52859565,3.98541712 7.52859565,3.98541712 C7.52859565,3.98541712 7.52859565,10.6520837 7.52859565,10.6520837 C7.52859565,10.6520837 14.1952623,10.6520837 14.1952623,10.6520837 C14.1952623,10.6520837 14.1952623,11.9854171 14.1952623,11.9854171 C14.1952623,11.9854171 6.861989,11.9854171 6.861989,11.9854171 C6.861949,11.9854171 6.861929,11.9854171 6.861929,11.3187503 C6.861929,11.3187503 6.861989,11.9854171 6.861989,11.9854171 C6.861989,11.9854171 6.19526234,11.9854171 6.19526234,11.9854171 C6.19526234,11.9854171 6.19526234,3.98541712 6.19526234,3.98541712 C6.19526234,3.98541712 6.19526234,3.98541712 6.19526234,3.98541712 Z" id="路径" fill="#999999" transform="translate(10.1953, 7.9854) rotate(45) translate(-10.1953, -7.9854)"></path>
    </g>
</svg>