<?xml version="1.0" encoding="UTF-8"?>
<svg width="16px" height="16px" viewBox="0 0 16 16" version="1.1" xmlns="http://www.w3.org/2000/svg" xmlns:xlink="http://www.w3.org/1999/xlink">
    <title>icon/通用类/el-icon-present</title>
    <g id="icon/通用类/el-icon-present" stroke="none" stroke-width="1" fill="none" fill-rule="evenodd">
        <path d="M5.81895136,1.34155061 C6.85872444,1.37826841 7.71830459,2.07759755 8.42645101,3.35622324 C9.13430767,2.07759755 9.99388782,1.37826841 11.0336609,1.34155061 L11.19918,1.34174819 C12.0622119,1.37540947 12.60882,1.9257459 12.808319,2.75061046 C12.8814429,3.0529547 12.9083641,3.35862905 12.9024567,3.68779211 L13.6666667,3.68894862 C14.2189514,3.68894862 14.6666667,4.13666387 14.6666667,4.68894862 L14.6666667,7.35561529 C14.6666667,7.90520268 14.223314,8.35123951 13.6747512,8.35558329 L13.674993,12.6666667 C13.674993,13.4030463 13.0780394,14 12.3416597,14 L4.34165971,14 C3.60528004,14 3.00832638,13.4030463 3.00832638,12.6666667 L3.008,8.3551117 C2.44771525,8.35561529 2,7.90790004 2,7.35561529 L2,4.68894862 C2,4.13666387 2.44771525,3.68894862 3,3.68894862 L3.95015557,3.68779211 C3.94424813,3.35862905 3.97116934,3.0529547 4.0442933,2.75061046 C4.24379225,1.9257459 4.7904004,1.37540947 5.65343228,1.34174819 L5.81895136,1.34155061 Z M12.3416597,8.37554283 L4.34165971,8.37554283 L4.34165971,12.6666667 L12.3416597,12.6666667 L12.3416597,8.37554283 Z M13.3333333,5.02228195 L3.33333333,5.02228195 L3.33333333,7.02228195 L13.3333333,7.02228195 L13.3333333,5.02228195 Z M5.77189632,2.67405336 C5.51125983,2.66484943 5.41495933,2.75519806 5.34026168,3.064049 C5.30239724,3.22060639 5.28499714,3.39677438 5.28425961,3.59352172 L5.28505938,3.66548601 L5.30639802,3.66549289 C5.67700274,3.66794167 6.1477712,3.66989709 6.71849801,3.67135645 L7.06372604,3.67148601 L7.02096692,3.60513435 C6.63146412,3.02271946 6.23660876,2.72678814 5.84926179,2.68008252 L5.77189632,2.67405336 Z M11.080716,2.67405336 L11.0033505,2.68008252 C10.6160035,2.72678814 10.2211481,3.02271946 9.83164535,3.60513435 L9.78888622,3.67148601 L10.1341143,3.67135645 C10.7048411,3.66989709 11.1756095,3.66794167 11.5462143,3.66549289 L11.5675529,3.66548601 L11.5683527,3.59352172 C11.5676151,3.39677438 11.550215,3.22060639 11.5123506,3.064049 C11.4376529,2.75519806 11.3413524,2.66484943 11.080716,2.67405336 Z" id="形状结合" fill="#999999"></path>
    </g>
</svg>