<?xml version="1.0" encoding="UTF-8"?>
<svg width="16px" height="16px" viewBox="0 0 16 16" version="1.1" xmlns="http://www.w3.org/2000/svg" xmlns:xlink="http://www.w3.org/1999/xlink">
    <title>icon/通用类/icon-general-line-translate</title>
    <g id="icon/通用类/icon-general-line-translate" stroke="none" stroke-width="1" fill="none" fill-rule="evenodd">
        <path d="M0.0571908951,7.33333333 C0.0571908951,7.33333333 2.00001,9.27613333 2.00001,9.27613333 C2.00001,9.27613333 3.94283333,7.33333333 3.94283333,7.33333333 C3.94283333,7.33333333 2.70793667,7.33333333 2.70793667,7.33333333 C3.03600333,4.70246667 5.28026667,2.66666667 8,2.66666667 C10.0337333,2.66666667 11.8026667,3.80475333 12.7028,5.48193333 C12.7028,5.48193333 13.8776242,4.8514 13.8776242,4.8514 C12.7545,2.75875 10.5442333,1.33333333 8,1.33333333 C4.5431,1.33333333 1.70074333,3.96445 1.36626,7.33333333 C1.36626,7.33333333 0.0571908951,7.33333333 0.0571908951,7.33333333 Z M8.79533333,5 C8.79533333,5 10.9575576,10.7659333 10.9575576,10.7659333 C10.9575576,10.7659333 9.70913333,11.2340667 9.70913333,11.2340667 C9.70913333,11.2340667 8.99633333,9.33333333 8.99633333,9.33333333 C8.99633333,9.33333333 7.00366667,9.33333333 7.00366667,9.33333333 C7.00366667,9.33333333 6.2909,11.2340667 6.2909,11.2340667 C6.2909,11.2340667 5.04245756,10.7659333 5.04245756,10.7659333 C5.04245756,10.7659333 7.20466667,5 7.20466667,5 C7.20466667,5 8.79533333,5 8.79533333,5 Z M8.49632423,8 C8.49632423,8 8,6.67643333 8,6.67643333 C8,6.67643333 7.50365756,8 7.50365756,8 C7.50365756,8 8.49632423,8 8.49632423,8 Z M15.9428242,8.66666667 C15.9428242,8.66666667 14.6337667,8.66666667 14.6337667,8.66666667 C14.2992667,12.0355333 11.4569,14.6666667 8,14.6666667 C5.4558,14.6666667 3.24552333,13.2412333 2.1223809,11.1486 C2.1223809,11.1486 3.29721333,10.5180667 3.29721333,10.5180667 C4.19736667,12.1952333 5.9663,13.3333333 8,13.3333333 C10.7197667,13.3333333 12.964,11.2975333 13.2920667,8.66666667 C13.2920667,8.66666667 12.0572,8.66666667 12.0572,8.66666667 C12.0572,8.66666667 14,6.72386667 14,6.72386667 C14,6.72386667 15.9428242,8.66666667 15.9428242,8.66666667 Z" id="形状" fill="#999999"></path>
    </g>
</svg>