<?xml version="1.0" encoding="UTF-8"?>
<svg width="16px" height="16px" viewBox="0 0 16 16" version="1.1" xmlns="http://www.w3.org/2000/svg" xmlns:xlink="http://www.w3.org/1999/xlink">
    <title>icon/天气类/el-icon-sunny</title>
    <g id="icon/天气类/el-icon-sunny" stroke="none" stroke-width="1" fill="none" fill-rule="evenodd">
        <path d="M6.99999984,1.66666667 C6.99999984,1.66666667 8.99999984,1.66666667 8.99999984,1.66666667 C8.99999984,1.66666667 8.99999984,3.66666667 8.99999984,3.66666667 C8.99999984,3.66666667 6.99999984,3.66666667 6.99999984,3.66666667 C6.99999984,3.66666667 6.99999984,1.66666667 6.99999984,1.66666667 C6.99999984,1.66666667 6.99999984,1.66666667 6.99999984,1.66666667 Z M7.99999984,6.33333333 C7.07953317,6.33333333 6.33333317,7.07953333 6.33333317,8 C6.33333317,8.92046667 7.07953317,9.66666667 7.99999984,9.66666667 C8.92046651,9.66666667 9.66666651,8.92046667 9.66666651,8 C9.66666651,7.07953333 8.92046651,6.33333333 7.99999984,6.33333333 C7.99999984,6.33333333 7.99999984,6.33333333 7.99999984,6.33333333 Z M4.99999984,8 C4.99999984,6.34313333 6.34313317,5 7.99999984,5 C9.65686651,5 10.9999998,6.34313333 10.9999998,8 C10.9999998,9.65686667 9.65686651,11 7.99999984,11 C6.34313317,11 4.99999984,9.65686667 4.99999984,8 C4.99999984,8 4.99999984,8 4.99999984,8 Z M8.99999984,14.3333333 C8.99999984,14.3333333 8.99999984,12.3333333 8.99999984,12.3333333 C8.99999984,12.3333333 6.99999984,12.3333333 6.99999984,12.3333333 C6.99999984,12.3333333 6.99999984,14.3333333 6.99999984,14.3333333 C6.99999984,14.3333333 8.99999984,14.3333333 8.99999984,14.3333333 C8.99999984,14.3333333 8.99999984,14.3333333 8.99999984,14.3333333 Z M14.3333332,9 C14.3333332,9 12.3333332,9 12.3333332,9 C12.3333332,9 12.3333332,7 12.3333332,7 C12.3333332,7 14.3333332,7 14.3333332,7 C14.3333332,7 14.3333332,9 14.3333332,9 C14.3333332,9 14.3333332,9 14.3333332,9 Z M3.66666651,9 C3.66666651,9 3.66666651,7 3.66666651,7 C3.66666651,7 1.66666651,7 1.66666651,7 C1.66666651,7 1.66666651,9 1.66666651,9 C1.66666651,9 3.66666651,9 3.66666651,9 C3.66666651,9 3.66666651,9 3.66666651,9 Z M13.1854332,11.7712333 C13.1854332,11.7712333 11.7712332,13.1854667 11.7712332,13.1854667 C11.7712332,13.1854667 10.3570332,11.7712333 10.3570332,11.7712333 C10.3570332,11.7712333 11.7712332,10.3570333 11.7712332,10.3570333 C11.7712332,10.3570333 13.1854332,11.7712333 13.1854332,11.7712333 C13.1854332,11.7712333 13.1854332,11.7712333 13.1854332,11.7712333 Z M4.22875984,5.64296667 C4.22875984,5.64296667 5.64296651,4.22876 5.64296651,4.22876 C5.64296651,4.22876 4.22875984,2.81454667 4.22875984,2.81454667 C4.22875984,2.81454667 2.81454651,4.22876 2.81454651,4.22876 C2.81454651,4.22876 4.22875984,5.64296667 4.22875984,5.64296667 C4.22875984,5.64296667 4.22875984,5.64296667 4.22875984,5.64296667 Z M4.22896317,13.1854333 C4.22896317,13.1854333 2.81474984,11.7712333 2.81474984,11.7712333 C2.81474984,11.7712333 4.22896317,10.3570333 4.22896317,10.3570333 C4.22896317,10.3570333 5.64316651,11.7712333 5.64316651,11.7712333 C5.64316651,11.7712333 4.22896317,13.1854333 4.22896317,13.1854333 C4.22896317,13.1854333 4.22896317,13.1854333 4.22896317,13.1854333 Z M10.3572332,4.22877 C10.3572332,4.22877 11.7714332,5.643 11.7714332,5.643 C11.7714332,5.643 13.1856332,4.22877 13.1856332,4.22877 C13.1856332,4.22877 11.7714332,2.81455667 11.7714332,2.81455667 C11.7714332,2.81455667 10.3572332,4.22877 10.3572332,4.22877 C10.3572332,4.22877 10.3572332,4.22877 10.3572332,4.22877 Z" id="形状" fill="#999999"></path>
    </g>
</svg>