<?xml version="1.0" encoding="UTF-8"?>
<svg width="16px" height="16px" viewBox="0 0 16 16" version="1.1" xmlns="http://www.w3.org/2000/svg" xmlns:xlink="http://www.w3.org/1999/xlink">
    <title>icon/通用类/icon-general-line-export</title>
    <g id="icon/通用类/icon-general-line-export" stroke="none" stroke-width="1" fill="none" fill-rule="evenodd">
        <path d="M2,2 C2,2 10.6666667,2 10.6666667,2 C10.6666667,2 10.6666667,3.33333333 10.6666667,3.33333333 C10.6666667,3.33333333 3.33333333,3.33333333 3.33333333,3.33333333 C3.33333333,3.33333333 3.33333333,13.3333333 3.33333333,13.3333333 C3.33333333,13.3333333 10.6666667,13.3333333 10.6666667,13.3333333 C10.6666667,13.3333333 10.6666667,14.6666667 10.6666667,14.6666667 C10.6666667,14.6666667 2,14.6666667 2,14.6666667 C2,14.6666667 2,2 2,2 C2,2 2,2 2,2 Z M11.4475667,4.83859333 C11.4475667,4.83859333 14.9426667,8.3337 14.9426667,8.3337 C14.9426667,8.3337 11.4475667,11.8287667 11.4475667,11.8287667 C11.4475667,11.8287667 10.5047667,10.8859667 10.5047667,10.8859667 C10.5047667,10.8859667 12.3907333,9 12.3907333,9 C12.3907333,9 5.95246667,9 5.95246667,9 C5.95246667,9 5.95246667,7.66666667 5.95246667,7.66666667 C5.95246667,7.66666667 12.3900333,7.66666667 12.3900333,7.66666667 C12.3900333,7.66666667 10.5047667,5.7814 10.5047667,5.7814 C10.5047667,5.7814 11.4475667,4.83859333 11.4475667,4.83859333 C11.4475667,4.83859333 11.4475667,4.83859333 11.4475667,4.83859333 Z" id="形状" fill="#999999"></path>
    </g>
</svg>