<?xml version="1.0" encoding="UTF-8"?>
<svg width="16px" height="16px" viewBox="0 0 16 16" version="1.1" xmlns="http://www.w3.org/2000/svg" xmlns:xlink="http://www.w3.org/1999/xlink">
    <title>icon/面性/el-icon-camera-solid</title>
    <g id="icon/面性/el-icon-camera-solid" stroke="none" stroke-width="1" fill="none" fill-rule="evenodd">
        <path d="M10.2303333,2 C10.5459667,2 10.8345333,2.17833467 10.9757,2.46065667 L10.9842853,2.47782739 L11.0438771,2.5970124 C11.0575125,2.62428354 11.072663,2.65458481 11.0888235,2.68690617 L11.1938667,2.896995 C11.2484083,3.00607958 11.30295,3.11516417 11.3438563,3.1969776 L11.4034481,3.31616261 C11.4090032,3.32727308 11.4120333,3.33333333 11.4120333,3.33333333 L13.6666667,3.33333333 C14.2189667,3.33333333 14.6666667,3.78104667 14.6666667,4.33333333 L14.6666667,13 C14.6666667,13.5523 14.2189667,14 13.6666667,14 L2.33333333,14 C1.78105,14 1.33333333,13.5523 1.33333333,13 L1.33333333,4.33333333 C1.33333333,3.78104667 1.78105,3.33333333 2.33333333,3.33333333 L4.58797667,3.33333333 C4.58797667,3.33333333 4.6970575,3.11516417 4.80613833,2.896995 L4.91117914,2.68690617 C4.92733926,2.65458481 4.94248938,2.62428354 4.95612448,2.5970124 L5.01571493,2.47782739 C5.02126998,2.46671692 5.0243,2.46065667 5.0243,2.46065667 C5.16546667,2.17833533 5.45403333,2 5.76966667,2 L10.2303333,2 Z M8,5.66666667 C6.34313333,5.66666667 5,7.0098 5,8.66666667 C5,10.3235333 6.34313333,11.6666667 8,11.6666667 C9.65686667,11.6666667 11,10.3235333 11,8.66666667 C11,7.0098 9.65686667,5.66666667 8,5.66666667 Z M8,7 C8.92046667,7 9.66666667,7.7462 9.66666667,8.66666667 C9.66666667,9.58713333 8.92046667,10.3333333 8,10.3333333 C7.07953333,10.3333333 6.33333333,9.58713333 6.33333333,8.66666667 C6.33333333,7.7462 7.07953333,7 8,7 Z" id="形状" fill="#999999"></path>
    </g>
</svg>