<?xml version="1.0" encoding="UTF-8"?>
<svg width="16px" height="16px" viewBox="0 0 16 16" version="1.1" xmlns="http://www.w3.org/2000/svg" xmlns:xlink="http://www.w3.org/1999/xlink">
    <title>icon/通用类/icon-general-line-fullscreenexit</title>
    <g id="icon/通用类/icon-general-line-fullscreenexit" stroke="none" stroke-width="1" fill="none" fill-rule="evenodd">
        <path d="M4,2 C4,2 5.33333333,2 5.33333333,2 C5.33333333,2 5.33333333,5 5.33333333,5 C5.33333333,5.55228333 4.88561667,6 4.33333333,6 C4.33333333,6 1.33333333,6 1.33333333,6 C1.33333333,6 1.33333333,4.66666667 1.33333333,4.66666667 C1.33333333,4.66666667 4,4.66666667 4,4.66666667 C4,4.66666667 4,2 4,2 Z M10.6666667,2 C10.6666667,2 12,2 12,2 C12,2 12,4.66666667 12,4.66666667 C12,4.66666667 14.6666667,4.66666667 14.6666667,4.66666667 C14.6666667,4.66666667 14.6666667,6 14.6666667,6 C14.6666667,6 11.6666667,6 11.6666667,6 C11.1143667,6 10.6666667,5.55228333 10.6666667,5 C10.6666667,5 10.6666667,2 10.6666667,2 Z M4.33333333,10 C4.88561667,10 5.33333333,10.4477 5.33333333,11 C5.33333333,11 5.33333333,14 5.33333333,14 C5.33333333,14 4,14 4,14 C4,14 4,11.3333333 4,11.3333333 C4,11.3333333 1.33333333,11.3333333 1.33333333,11.3333333 C1.33333333,11.3333333 1.33333333,10 1.33333333,10 C1.33333333,10 4.33333333,10 4.33333333,10 Z M14.6666667,11.3333333 C14.6666667,11.3333333 14.6666667,10 14.6666667,10 C14.6666667,10 11.6666667,10 11.6666667,10 C11.1143667,10 10.6666667,10.4477 10.6666667,11 C10.6666667,11 10.6666667,14 10.6666667,14 C10.6666667,14 12,14 12,14 C12,14 12,11.3333333 12,11.3333333 C12,11.3333333 14.6666667,11.3333333 14.6666667,11.3333333 Z" id="形状" fill="#999999" transform="translate(8, 8) scale(-1, 1) translate(-8, -8)"></path>
    </g>
</svg>