<?xml version="1.0" encoding="UTF-8"?>
<svg width="16px" height="16px" viewBox="0 0 16 16" version="1.1" xmlns="http://www.w3.org/2000/svg" xmlns:xlink="http://www.w3.org/1999/xlink">
    <title>icon/影音类/el-icon-camera</title>
    <g id="icon/影音类/el-icon-camera" stroke="none" stroke-width="1" fill="none" fill-rule="evenodd">
        <path d="M5.0243,2.46065667 C5.16546667,2.17833533 5.45403333,2 5.76966667,2 C5.76966667,2 10.2303333,2 10.2303333,2 C10.5459667,2 10.8345333,2.17833467 10.9757,2.46065667 C10.9757,2.46065667 11.4120333,3.33333333 11.4120333,3.33333333 C11.4120333,3.33333333 13.6666667,3.33333333 13.6666667,3.33333333 C14.2189667,3.33333333 14.6666667,3.78104667 14.6666667,4.33333333 C14.6666667,4.33333333 14.6666667,13 14.6666667,13 C14.6666667,13.5523 14.2189667,14 13.6666667,14 C13.6666667,14 2.33333333,14 2.33333333,14 C1.78105,14 1.33333333,13.5523 1.33333333,13 C1.33333333,13 1.33333333,4.33333333 1.33333333,4.33333333 C1.33333333,3.78104667 1.78105,3.33333333 2.33333333,3.33333333 C2.33333333,3.33333333 4.58797667,3.33333333 4.58797667,3.33333333 C4.58797667,3.33333333 5.0243,2.46065667 5.0243,2.46065667 C5.0243,2.46065667 5.0243,2.46065667 5.0243,2.46065667 Z M2.66666667,4.66666667 C2.66666667,4.66666667 2.66666667,12.6666667 2.66666667,12.6666667 C2.66666667,12.6666667 13.3333333,12.6666667 13.3333333,12.6666667 C13.3333333,12.6666667 13.3333333,4.66666667 13.3333333,4.66666667 C13.3333333,4.66666667 2.66666667,4.66666667 2.66666667,4.66666667 C2.66666667,4.66666667 2.66666667,4.66666667 2.66666667,4.66666667 Z M8,7 C7.07953333,7 6.33333333,7.7462 6.33333333,8.66666667 C6.33333333,9.58713333 7.07953333,10.3333333 8,10.3333333 C8.92046667,10.3333333 9.66666667,9.58713333 9.66666667,8.66666667 C9.66666667,7.7462 8.92046667,7 8,7 C8,7 8,7 8,7 Z M5,8.66666667 C5,7.0098 6.34313333,5.66666667 8,5.66666667 C9.65686667,5.66666667 11,7.0098 11,8.66666667 C11,10.3235333 9.65686667,11.6666667 8,11.6666667 C6.34313333,11.6666667 5,10.3235333 5,8.66666667 C5,8.66666667 5,8.66666667 5,8.66666667 Z" id="形状" fill="#999999"></path>
    </g>
</svg>