<?xml version="1.0" encoding="UTF-8"?>
<svg width="16px" height="16px" viewBox="0 0 16 16" version="1.1" xmlns="http://www.w3.org/2000/svg" xmlns:xlink="http://www.w3.org/1999/xlink">
    <title>icon/基础类/icon-basic-line-heart</title>
    <g id="icon/基础类/icon-basic-line-heart" stroke="none" stroke-width="1" fill="none" fill-rule="evenodd">
        <path d="M8.00000191,3.42921397 C9.55896857,2.29238397 11.7575686,2.42667164 13.1654019,3.83208397 C14.6987352,5.3627473 14.7223019,7.83013397 13.2359352,9.38980064 C13.2330686,9.39283397 13.1683686,9.4590673 13.1683686,9.4590673 L13.1572735,9.47014316 C13.149953,9.47745094 13.1390866,9.48829843 13.1249032,9.50245725 L12.9138673,9.71312688 C12.8498131,9.77706997 12.7752357,9.85151799 12.6919651,9.934644 L12.1026661,10.5229204 C11.8258603,10.7992459 11.5175992,11.106972 11.2064786,11.4175527 L10.8335914,11.7897928 C10.7718248,11.8514522 10.7104014,11.912769 10.6495498,11.973515 L10.2931337,12.3293126 C10.2354849,12.3868613 10.1788655,12.4433825 10.1235044,12.4986475 L9.41604814,13.2048761 C9.37898818,13.2418717 9.34433026,13.2764695 9.31230314,13.3084411 L9.10126729,13.5191107 C9.07290041,13.5474283 9.05780191,13.5625006 9.05780191,13.5625006 C8.47346857,14.145834 7.52653524,14.145834 6.94220191,13.5625006 C6.94220191,13.5625006 6.92710344,13.5474283 6.89873663,13.5191107 L6.68770129,13.3084411 C6.65567425,13.2764695 6.62101641,13.2418717 6.58395655,13.2048761 L5.87650203,12.4986475 C5.821141,12.4433825 5.76452176,12.3868613 5.70687308,12.3293126 L5.35045784,11.973515 C5.28960646,11.912769 5.22818316,11.8514522 5.16641672,11.7897928 L4.79353043,11.4175527 C4.60685852,11.2312042 4.42121605,11.0458835 4.24277966,10.8677563 L3.30804751,9.934644 C3.2247772,9.85151799 3.15019994,9.77706997 3.08614586,9.71312688 L2.87511051,9.50245725 C2.8467437,9.4741396 2.83164524,9.4590673 2.83164524,9.4590673 L2.81486598,9.4418957 C2.79568969,9.42227101 2.76692524,9.39283397 2.76692524,9.39283397 C1.27770524,7.83013397 1.30126524,5.3627473 2.83458524,3.83208397 C4.24243191,2.42667164 6.44103524,2.29238397 8.00000191,3.42921397 Z M3.77657524,4.77571064 C2.75805524,5.79246397 2.74144191,7.4303673 3.72658191,8.46713397 C3.72658191,8.46713397 3.75010783,8.49120804 3.76579178,8.50725743 L4.03365242,8.77499699 C4.06563373,8.80692282 4.10024207,8.84147113 4.13724901,8.87841388 L4.681845,9.42206521 C4.73438572,9.4745148 4.78841129,9.52844665 4.84369327,9.58363273 L5.36898625,10.1080145 C5.73357316,10.471969 6.11871949,10.8564473 6.47508263,11.2121923 L7.13481133,11.8707766 C7.18415392,11.9200336 7.23178322,11.9675803 7.27747081,12.0131886 L7.52646813,12.2617541 C7.63748896,12.3725823 7.7269224,12.4618606 7.78860064,12.5234319 L7.88420191,12.6188673 C7.94803524,12.6826006 8.05196857,12.6826006 8.11580191,12.6188673 L8.21140271,12.5234319 C8.27308065,12.4618606 8.36251365,12.3725823 8.47353394,12.2617541 L8.72253005,12.0131886 C8.99665421,11.7395386 9.34068004,11.3961079 9.70526517,11.0321534 L10.0748759,10.663182 C10.1370107,10.6011546 10.1992598,10.5390133 10.2613946,10.476986 L10.6310053,10.1080145 C10.6917695,10.0473555 10.7519626,9.98726648 10.8113562,9.92797565 L11.1562957,9.58363273 C11.2115774,9.52844665 11.2656027,9.4745148 11.3181432,9.42206521 L11.8627365,8.87841388 C11.8997433,8.84147113 11.9343515,8.80692282 11.9663326,8.77499699 L12.2204686,8.52130064 C12.2204686,8.52130064 12.2734019,8.46713397 12.2734019,8.46713397 C13.2585686,7.4303673 13.2419352,5.7924673 12.2234352,4.77571064 C11.1873686,3.74143064 9.50706857,3.74143064 8.47100191,4.77571064 L8.41156115,4.83504748 C8.37537982,4.87116556 8.32627658,4.92018295 8.27458896,4.97178021 L8.12211049,5.12399212 C8.05233221,5.19364841 7.9999985,5.24589064 7.9999985,5.24589064 C7.9999985,5.24589064 7.94766554,5.19364841 7.87788827,5.12399212 L7.72541201,4.97178021 C7.62203827,4.8685857 7.52900191,4.77571064 7.52900191,4.77571064 C6.49293524,3.74143064 4.81264857,3.74143064 3.77657524,4.77571064 Z" id="形状结合" fill="#999999"></path>
    </g>
</svg>