<?xml version="1.0" encoding="UTF-8"?>
<svg width="16px" height="16px" viewBox="0 0 16 16" version="1.1" xmlns="http://www.w3.org/2000/svg" xmlns:xlink="http://www.w3.org/1999/xlink">
    <title>icon/通用类/el-icon-medal-1</title>
    <g id="icon/通用类/el-icon-medal-1" stroke="none" stroke-width="1" fill="none" fill-rule="evenodd">
        <path d="M12.5201307,0.666666667 C13.2565104,0.666666667 13.8534641,1.26362033 13.8534641,2 C13.8534641,2.08780265 13.8447911,2.1753906 13.8275716,2.26148818 L12.7614689,7.5947722 C13.1272436,8.31744359 13.3333333,9.13465438 13.3333333,10 C13.3333333,12.9455187 10.9455187,15.3333333 8,15.3333333 C5.05448133,15.3333333 2.66666667,12.9455187 2.66666667,10 C2.66666667,9.13425634 2.87294599,8.31669179 3.239036,7.59377501 L2.17242837,2.26148818 C2.02801243,1.53940851 2.49630142,0.836975033 3.21838109,0.692559099 C3.30447867,0.675339583 3.39206662,0.666666667 3.47986927,0.666666667 L12.5201307,0.666666667 Z M8,6 C6.59418427,6 5.35775385,6.7252247 4.64442472,7.82195813 L4.65372045,7.86925591 L4.60897703,7.87745151 C4.22311138,8.49261915 4,9.22025435 4,10 C4,12.209139 5.790861,14 8,14 C10.209139,14 12,12.209139 12,10 C12,9.22025435 11.7768886,8.49261915 11.391023,7.87745151 L11.3462795,7.86925591 L11.3555753,7.82195813 C10.6422461,6.7252247 9.40581573,6 8,6 Z M6.66666667,12.6666667 L6.66666667,11.3333333 L7.33327881,11.3326667 L7.33333333,8.66666667 L6.66666667,8.66666667 L6.66666667,7.33333333 L7.86666667,7.33333333 C8.30849447,7.33333333 8.66666667,7.69150553 8.66666667,8.13333333 L8.66627881,11.3326667 L9.33333333,11.3333333 L9.33333333,12.6666667 L6.66666667,12.6666667 Z M5.33327881,1.99966667 L3.47986927,2 L4.30936955,6.14983499 C4.64067348,5.8321752 5.01289654,5.55685986 5.4173408,5.33258693 L5.33333333,5.33333333 L5.33327881,1.99966667 Z M12.5201307,2 L10.6662788,1.99966667 L10.6666667,5.33333333 L10.582933,5.33273878 C10.9872715,5.55698413 11.3594013,5.83224689 11.6906305,6.14983499 L12.5201307,2 Z M9.33327881,1.99966667 L6.66627881,1.99966667 L6.66611453,4.83483212 C7.09244066,4.7250544 7.53940174,4.66666667 8,4.66666667 C8.46059826,4.66666667 8.90755934,4.7250544 9.33388547,4.83483212 L9.33327881,1.99966667 Z" id="形状结合" fill="#999999" fill-rule="nonzero"></path>
    </g>
</svg>