<?xml version="1.0" encoding="UTF-8"?>
<svg width="16px" height="16px" viewBox="0 0 16 16" version="1.1" xmlns="http://www.w3.org/2000/svg" xmlns:xlink="http://www.w3.org/1999/xlink">
    <title>icon/面性/el-icon-s-check</title>
    <g id="icon/面性/el-icon-s-check" stroke="none" stroke-width="1" fill="none" fill-rule="evenodd">
        <path d="M7.89057143,0.666666667 C9.36332698,0.666666667 10.5572381,1.86057333 10.5572381,3.33333333 C10.5572381,4.16257778 10.1798159,4.90288889 9.58399365,5.39342222 L9.51756744,5.44810901 C9.41648406,5.53132803 9.22514768,5.68884975 9.12406431,5.77206877 L9.0576381,5.82675556 C9.0576381,5.82675556 10.1166986,8.1566837 10.6521687,9.33471551 L13.316744,9.33333333 C13.8690287,9.33333333 14.316744,9.78104858 14.316744,10.3333333 L14.316744,11.9837926 L1.65007731,11.9837926 L1.65007731,10.3333333 C1.65007731,9.78104858 2.09779256,9.33333333 2.65007731,9.33333333 L5.12897412,9.33471551 C5.66444426,8.1566837 6.72350476,5.82675556 6.72350476,5.82675556 L6.65707855,5.77206877 C6.55599517,5.68884975 6.36465879,5.53132803 6.26357542,5.44810901 L6.19714921,5.39342222 C5.60132698,4.90288889 5.22390476,4.16257778 5.22390476,3.33333333 C5.22390476,1.86057333 6.41781587,0.666666667 7.89057143,0.666666667 Z M14.316744,13.3543002 L14.316744,14.3453809 C14.316744,14.8976657 13.8690287,15.3453809 13.316744,15.3453809 L2.65007731,15.3453809 C2.09779256,15.3453809 1.65007731,14.8976657 1.65007731,14.3453809 L1.65007731,13.3543002 L14.316744,13.3543002 Z" id="形状结合" fill="#999999" fill-rule="nonzero"></path>
    </g>
</svg>