<?xml version="1.0" encoding="UTF-8"?>
<svg width="16px" height="16px" viewBox="0 0 16 16" version="1.1" xmlns="http://www.w3.org/2000/svg" xmlns:xlink="http://www.w3.org/1999/xlink">
    <title>icon/通用类/icon-general-line-forward</title>
    <g id="icon/通用类/icon-general-line-forward" stroke="none" stroke-width="1" fill="none" fill-rule="evenodd">
        <path d="M3.70710667,3.62823158 C3.70710667,3.62823158 7.56903333,7.49016658 7.56903333,7.49016658 C7.95956667,7.88069991 7.95956667,8.51383325 7.56903333,8.90436658 C7.56903333,8.90436658 3.70710667,12.7662999 3.70710667,12.7662999 C3.07714333,13.3962666 2,12.9500999 2,12.0591999 C2,12.0591999 2,4.33533991 2,4.33533991 C2,3.44443925 3.07713667,2.99826325 3.70710667,3.62823158 Z M3.33333333,11.2544666 C3.33333333,11.2544666 6.39053333,8.19726658 6.39053333,8.19726658 C6.39053333,8.19726658 3.33333333,5.14007658 3.33333333,5.14007658 C3.33333333,5.14007658 3.33333333,11.2544666 3.33333333,11.2544666 Z M10,11.25246 C10,11.25246 13.0572,8.19526 13.0572,8.19526 C13.0572,8.19526 10,5.13807 10,5.13807 C10,5.13807 10,11.25246 10,11.25246 Z M10.3737667,3.626225 C10.3737667,3.626225 14.2357,7.48816 14.2357,7.48816 C14.6262333,7.87869333 14.6262333,8.51186 14.2357,8.90236 C14.2357,8.90236 10.3737667,12.7642933 10.3737667,12.7642933 C9.7438,13.39426 8.66666667,12.9480933 8.66666667,12.0571933 C8.66666667,12.0571933 8.66666667,4.33333333 8.66666667,4.33333333 C8.66666667,3.44243333 9.7438,2.99625667 10.3737667,3.626225 Z" id="形状" fill="#999999"></path>
    </g>
</svg>