<?xml version="1.0" encoding="UTF-8"?>
<svg width="16px" height="16px" viewBox="0 0 16 16" version="1.1" xmlns="http://www.w3.org/2000/svg" xmlns:xlink="http://www.w3.org/1999/xlink">
    <title>icon/影音类/el-icon-video-pause</title>
    <g id="icon/影音类/el-icon-video-pause" stroke="none" stroke-width="1" fill="none" fill-rule="evenodd">
        <path d="M8,2.66666667 C5.05446667,2.66666667 2.66666667,5.05446667 2.66666667,8 C2.66666667,10.9455333 5.05446667,13.3333333 8,13.3333333 C10.9455333,13.3333333 13.3333333,10.9455333 13.3333333,8 C13.3333333,5.05446667 10.9455333,2.66666667 8,2.66666667 C8,2.66666667 8,2.66666667 8,2.66666667 Z M1.33333333,8 C1.33333333,4.3181 4.3181,1.33333333 8,1.33333333 C11.6819,1.33333333 14.6666667,4.3181 14.6666667,8 C14.6666667,11.6819 11.6819,14.6666667 8,14.6666667 C4.3181,14.6666667 1.33333333,11.6819 1.33333333,8 C1.33333333,8 1.33333333,8 1.33333333,8 Z M5.66666667,5.66666667 C5.66666667,5.66666667 7.33333333,5.66666667 7.33333333,5.66666667 C7.33333333,5.66666667 7.33333333,10.3333333 7.33333333,10.3333333 C7.33333333,10.3333333 5.66666667,10.3333333 5.66666667,10.3333333 C5.66666667,10.3333333 5.66666667,5.66666667 5.66666667,5.66666667 C5.66666667,5.66666667 5.66666667,5.66666667 5.66666667,5.66666667 Z M8.66666667,5.66666667 C8.66666667,5.66666667 10.3333333,5.66666667 10.3333333,5.66666667 C10.3333333,5.66666667 10.3333333,10.3333333 10.3333333,10.3333333 C10.3333333,10.3333333 8.66666667,10.3333333 8.66666667,10.3333333 C8.66666667,10.3333333 8.66666667,5.66666667 8.66666667,5.66666667 C8.66666667,5.66666667 8.66666667,5.66666667 8.66666667,5.66666667 Z" id="形状" fill="#999999"></path>
    </g>
</svg>