<?xml version="1.0" encoding="UTF-8"?>
<svg width="16px" height="16px" viewBox="0 0 16 16" version="1.1" xmlns="http://www.w3.org/2000/svg" xmlns:xlink="http://www.w3.org/1999/xlink">
    <title>icon/通用类/el-icon-film</title>
    <g id="icon/通用类/el-icon-film" stroke="none" stroke-width="1" fill="none" fill-rule="evenodd">
        <path d="M13,2.01178233 C13.5522847,2.01178233 14,2.45949758 14,3.01178233 L14,13.0117823 C14,13.5640671 13.5522847,14.0117823 13,14.0117823 L3,14.0117823 C2.44771525,14.0117823 2,13.5640671 2,13.0117823 L2,3.01178233 C2,2.45949758 2.44771525,2.01178233 3,2.01178233 L13,2.01178233 Z M5.33333333,3.34511566 L6.66666667,3.34511566 L6.66666667,12.678449 L5.33333333,12.678449 L5.33333333,3.34511566 Z M9.33333333,3.34511566 L10.6666667,3.34511566 L10.6666667,12.678449 L9.33333333,12.678449 L9.33333333,3.34511566 Z M12.6666667,3.33673096 L3.33333333,3.33673096 L3.33333333,12.6700643 L12.6666667,12.6700643 L12.6666667,3.33673096 Z" id="形状结合" fill="#999999" transform="translate(8, 8.0118) scale(1, -1) translate(-8, -8.0118)"></path>
        <rect id="矩形" fill="#999999" x="3.33333333" y="7.34511566" width="9.33333333" height="1.33333333"></rect>
        <rect id="矩形" fill="#999999" x="3.33333333" y="4.67844899" width="2" height="1.33333333"></rect>
        <rect id="矩形备份-2" fill="#999999" x="3.33333333" y="10.0117823" width="2" height="1.33333333"></rect>
        <rect id="矩形备份" fill="#999999" x="10.6666667" y="4.67844899" width="2" height="1.33333333"></rect>
        <rect id="矩形备份-3" fill="#999999" x="10.6666667" y="10.0117823" width="2" height="1.33333333"></rect>
    </g>
</svg>