<?xml version="1.0" encoding="UTF-8"?>
<svg width="16px" height="16px" viewBox="0 0 16 16" version="1.1" xmlns="http://www.w3.org/2000/svg" xmlns:xlink="http://www.w3.org/1999/xlink">
    <title>icon/基础类/icon-basic-line-checksquare</title>
    <g id="icon/基础类/icon-basic-line-checksquare" stroke="none" stroke-width="1" fill="none" fill-rule="evenodd">
        <path d="M3,2 C3,2 13,2 13,2 C13.5523,2 14,2.44771667 14,3 C14,3 14,13 14,13 C14,13.5523 13.5523,14 13,14 C13,14 3,14 3,14 C2.44771667,14 2,13.5523 2,13 C2,13 2,3 2,3 C2,2.44771667 2.44771333,2 3,2 Z M3.33333333,12.6666667 C3.33333333,12.6666667 12.6666667,12.6666667 12.6666667,12.6666667 C12.6666667,12.6666667 12.6666667,3.33333333 12.6666667,3.33333333 C12.6666667,3.33333333 3.33333333,3.33333333 3.33333333,3.33333333 C3.33333333,3.33333333 3.33333333,12.6666667 3.33333333,12.6666667 Z M11.063,5.0858 C11.063,5.0858 12.0058,6.0286 12.0058,6.0286 C12.0058,6.0286 7.05606667,10.9783333 7.05606667,10.9783333 C7.05606667,10.9783333 3.99193,7.9142 3.99193,7.9142 C3.99193,7.9142 4.93473667,6.9714 4.93473667,6.9714 C4.93473667,6.9714 7.05606667,9.09273333 7.05606667,9.09273333 C7.05606667,9.09273333 11.063,5.0858 11.063,5.0858 Z" id="形状" fill="#999999"></path>
    </g>
</svg>