<?xml version="1.0" encoding="UTF-8"?>
<svg width="16px" height="16px" viewBox="0 0 16 16" version="1.1" xmlns="http://www.w3.org/2000/svg" xmlns:xlink="http://www.w3.org/1999/xlink">
    <title>icon/通用类/el-icon-odometer</title>
    <g id="icon/通用类/el-icon-odometer" stroke="none" stroke-width="1" fill="none" fill-rule="evenodd">
        <path d="M6.07916633,5.30966667 C6.07916633,5.30966667 4.479973,4.04978667 4.479973,4.04978667 C5.23069966,3.34000667 6.19649966,2.84650333 7.333333,2.70694 C7.333333,2.70694 7.333333,4.5 7.333333,4.5 C7.333333,4.5 8.66666633,4.5 8.66666633,4.5 C8.66666633,4.5 8.66666633,2.70693333 8.66666633,2.70693333 C9.75856633,2.84095667 10.6921997,3.30142333 11.429133,3.96588 C11.429133,3.96588 9.89009966,5.33526667 9.89009966,5.33526667 C9.89009966,5.33526667 10.776433,6.3314 10.776433,6.3314 C10.776433,6.3314 12.3004997,4.97526667 12.3004997,4.97526667 C12.7721663,5.6794 13.0850997,6.49183333 13.2100997,7.33333333 C13.2100997,7.33333333 11.1665997,7.33333333 11.1665997,7.33333333 C11.1665997,7.33333333 11.1665997,8.66666667 11.1665997,8.66666667 C11.1665997,8.66666667 13.2477997,8.66666667 13.2477997,8.66666667 C13.139733,9.8208 12.6571997,10.9468667 11.731433,11.8582667 C11.731433,11.8582667 12.666833,12.8084 12.666833,12.8084 C14.051033,11.4457333 14.6462997,9.69443333 14.6024663,7.98293333 C14.5611997,6.37033333 13.953433,4.78386667 12.897833,3.56380333 C11.743233,2.22928 10.050933,1.33333333 7.99999966,1.33333333 C5.877033,1.33333333 4.13960966,2.29307667 2.98414966,3.70400333 C1.69256833,5.28113333 1.11915566,7.4309 1.52255366,9.46313333 C1.76306633,10.6748 2.35067966,11.8412 3.33317966,12.8084 C3.33317966,12.8084 4.268573,11.8582667 4.268573,11.8582667 C3.63193966,11.2315 3.20662966,10.5054333 2.96714966,9.74043333 C2.96714966,9.74043333 5.408933,8.78773333 5.408933,8.78773333 C5.408933,8.78773333 4.92426633,7.5456 4.92426633,7.5456 C4.92426633,7.5456 2.73395633,8.4002 2.73395633,8.4002 C2.682653,7.23603333 3.00502966,6.06043333 3.631703,5.0789 C3.631703,5.0789 5.254033,6.357 5.254033,6.357 C5.254033,6.357 6.07916633,5.30966667 6.07916633,5.30966667 C6.07916633,5.30966667 6.07916633,5.30966667 6.07916633,5.30966667 Z M8.66666633,6.33333333 L8.66666633,10.0966333 C9.63049966,10.3834667 10.333333,11.2763333 10.333333,12.3333333 C10.333333,13.622 9.28866633,14.6666667 7.99999966,14.6666667 C6.711333,14.6666667 5.66666633,13.622 5.66666633,12.3333333 C5.66666633,11.2763333 6.36949966,10.3834667 7.333333,10.0966333 L7.333333,6.33333333 L8.66666633,6.33333333 Z M7.99999966,11.3333333 C7.44769966,11.3333333 6.99999966,11.7810333 6.99999966,12.3333333 C6.99999966,12.8856333 7.44769966,13.3333333 7.99999966,13.3333333 C8.55229966,13.3333333 8.99999966,12.8856333 8.99999966,12.3333333 C8.99999966,11.7810333 8.55229966,11.3333333 7.99999966,11.3333333 Z" id="形状" fill="#999999"></path>
    </g>
</svg>