<?xml version="1.0" encoding="UTF-8"?>
<svg width="16px" height="16px" viewBox="0 0 16 16" version="1.1" xmlns="http://www.w3.org/2000/svg" xmlns:xlink="http://www.w3.org/1999/xlink">
    <title>icon/通用类/el-icon-magic-stick </title>
    <g id="icon/通用类/el-icon-magic-stick-" stroke="none" stroke-width="1" fill="none" fill-rule="evenodd">
        <path d="M6.82940425,10.1150627 L2.5384079,14.4044011 L1.59559885,13.4615921 L5.88561262,9.1716158 C6.13353105,9.54592729 6.45499658,9.86727791 6.82940425,10.1150627 Z M9.33324032,10.6000068 L9.33333333,13.3333333 L8,13.3333333 L8.00009302,10.6000068 C8.21547081,10.6437198 8.43838897,10.6666667 8.66666667,10.6666667 C8.89494436,10.6666667 9.11786252,10.6437198 9.33324032,10.6000068 Z M11.4483961,9.17059575 L13.3807119,11.1045695 L12.4379028,12.0473785 L10.5039291,10.1150627 C10.8786768,9.86705286 11.2003862,9.54534348 11.4483961,9.17059575 Z M11.9333401,6.66675968 L14.6666667,6.66666667 L14.6666667,8 L11.9333401,7.99990698 C11.9770531,7.78452919 12,7.56161103 12,7.33333333 C12,7.10505564 11.9770531,6.88213748 11.9333401,6.66675968 Z M5.33333333,7.33333333 C5.33333333,7.56161103 5.35628023,7.78452919 5.3999932,7.99990698 L2.66666667,8 L2.66666667,6.66666667 L5.3999932,6.66675968 C5.35628023,6.88213748 5.33333333,7.10505564 5.33333333,7.33333333 Z M12.4379028,2.61928813 L13.3807119,3.56209717 L11.4483961,5.49607092 C11.2003862,5.12132318 10.8786768,4.79961381 10.5039291,4.55160394 L12.4379028,2.61928813 Z M4.8954305,2.61928813 L6.82940425,4.55160394 C6.45499658,4.79938875 6.13353105,5.12073938 5.88561262,5.49505087 L3.95262146,3.56209717 L4.8954305,2.61928813 Z M9.33333333,1.33333333 L9.33324032,4.06665986 C9.11786252,4.0229469 8.89494436,4 8.66666667,4 C8.43838897,4 8.21547081,4.0229469 8.00009302,4.06665986 L8,1.33333333 L9.33333333,1.33333333 Z" id="形状结合" fill="#999999"></path>
    </g>
</svg>