<?xml version="1.0" encoding="UTF-8"?>
<svg width="16px" height="16px" viewBox="0 0 16 16" version="1.1" xmlns="http://www.w3.org/2000/svg" xmlns:xlink="http://www.w3.org/1999/xlink">
    <title>icon/通用类/icon-general-line-paintcoat</title>
    <g id="icon/通用类/icon-general-line-paintcoat" stroke="none" stroke-width="1" fill="none" fill-rule="evenodd">
        <path d="M14.1106667,9.97219565 L15.3333333,10.6666667 L8.54659439,14.5230782 C8.20250524,14.7145295 7.79749476,14.7145295 7.45340561,14.5230782 L0.666666667,10.6666667 L1.88766667,9.97219565 L8,13.3333333 L14.1106667,9.97219565 Z M14.1106667,7.30578921 L15.3333333,8 L8.54659439,11.8564115 C8.20250524,12.0478628 7.79749476,12.0478628 7.45340561,11.8564115 C4.59059157,10.2296819 2.44348104,9.00963475 1.01207402,8.19626995 C0.935316833,8.15265441 0.820181047,8.08723109 0.666666667,8 L1.88766667,7.30578921 L8,10.6666667 L14.1106667,7.30578921 Z M8.54659439,1.4769218 L15.3333333,5.33333333 L8.54659439,9.18974487 C8.20250524,9.38119616 7.79749476,9.38119616 7.45340561,9.18974487 L0.666666667,5.33333333 L7.45340561,1.4769218 C7.79749476,1.28547051 8.20250524,1.28547051 8.54659439,1.4769218 Z M8,2.66666667 L3.33333333,5.33333333 L8,8 L12.6666667,5.33333333 L8,2.66666667 Z" id="形状结合" fill="#999999"></path>
    </g>
</svg>