<?xml version="1.0" encoding="UTF-8"?>
<svg width="16px" height="16px" viewBox="0 0 16 16" version="1.1" xmlns="http://www.w3.org/2000/svg" xmlns:xlink="http://www.w3.org/1999/xlink">
    <title>icon/通用类/icon-general-line-bug</title>
    <g id="icon/通用类/icon-general-line-bug" stroke="none" stroke-width="1" fill="none" fill-rule="evenodd">
        <path d="M8,3 C7.07953333,3 6.33333333,3.74619333 6.33333333,4.66666667 C6.33333333,4.66666667 5,4.66666667 5,4.66666667 C5,3.00981333 6.34313333,1.66666667 8,1.66666667 C9.65686667,1.66666667 11,3.00981333 11,4.66666667 C11,4.66666667 9.66666667,4.66666667 9.66666667,4.66666667 C9.66666667,3.74619333 8.92046667,3 8,3 C8,3 8,3 8,3 Z M3,4.66666667 C3,5.03486667 3.29847667,5.33333333 3.66666667,5.33333333 C3.66666667,5.33333333 12.3333333,5.33333333 12.3333333,5.33333333 C12.7015333,5.33333333 13,5.03486667 13,4.66666667 C13,4.66666667 14.3333333,4.66666667 14.3333333,4.66666667 C14.3333333,5.77123333 13.4379,6.66666667 12.3333333,6.66666667 C12.3333333,6.66666667 12.3333333,8.33333333 12.3333333,8.33333333 C12.3333333,8.33333333 14.3333333,8.33333333 14.3333333,8.33333333 C14.3333333,8.33333333 14.3333333,9.66666667 14.3333333,9.66666667 C14.3333333,9.66666667 12.3333333,9.66666667 12.3333333,9.66666667 C12.3333333,9.66666667 12.3333333,10.3333333 12.3333333,10.3333333 C12.3333333,10.5965 12.3098667,10.8542 12.2649333,11.1044667 C13.4581333,11.4382333 14.3333333,12.5335667 14.3333333,13.8333333 C14.3333333,13.8333333 14.3333333,14 14.3333333,14 C14.3333333,14 13,14 13,14 C13,14 13,13.8333333 13,13.8333333 C13,13.117 12.4979,12.5179667 11.8264,12.3689667 C11.0975667,13.7361 9.65746667,14.6666667 8,14.6666667 C6.34253333,14.6666667 4.90242,13.7361 4.17358333,12.3689667 C3.50211667,12.5179667 3,13.117 3,13.8333333 C3,13.8333333 3,14 3,14 C3,14 1.66666667,14 1.66666667,14 C1.66666667,14 1.66666667,13.8333333 1.66666667,13.8333333 C1.66666667,12.5335667 2.54185667,11.4382333 3.73507333,11.1044667 C3.69013,10.8542 3.66666667,10.5965 3.66666667,10.3333333 C3.66666667,10.3333333 3.66666667,9.66666667 3.66666667,9.66666667 C3.66666667,9.66666667 1.66666667,9.66666667 1.66666667,9.66666667 C1.66666667,9.66666667 1.66666667,8.33333333 1.66666667,8.33333333 C1.66666667,8.33333333 3.66666667,8.33333333 3.66666667,8.33333333 C3.66666667,8.33333333 3.66666667,6.66666667 3.66666667,6.66666667 C2.56209667,6.66666667 1.66666667,5.77123333 1.66666667,4.66666667 C1.66666667,4.66666667 3,4.66666667 3,4.66666667 C3,4.66666667 3,4.66666667 3,4.66666667 Z M5,6.66666667 C5,6.66666667 5,10.3333333 5,10.3333333 C5,11.7610667 5.99733333,12.9558333 7.33333333,13.259 C7.33333333,13.259 7.33333333,7.66666667 7.33333333,7.66666667 C7.33333333,7.66666667 8.66666667,7.66666667 8.66666667,7.66666667 C8.66666667,7.66666667 8.66666667,13.259 8.66666667,13.259 C10.0026667,12.9558333 11,11.7610667 11,10.3333333 C11,10.3333333 11,6.66666667 11,6.66666667 C11,6.66666667 5,6.66666667 5,6.66666667 C5,6.66666667 5,6.66666667 5,6.66666667 Z" id="形状" fill="#999999"></path>
    </g>
</svg>