<?xml version="1.0" encoding="UTF-8"?>
<svg width="16px" height="16px" viewBox="0 0 16 16" version="1.1" xmlns="http://www.w3.org/2000/svg" xmlns:xlink="http://www.w3.org/1999/xlink">
    <title>icon/面性/el-icon-s-tools</title>
    <g id="icon/面性/el-icon-s-tools" stroke="none" stroke-width="1" fill="none" fill-rule="evenodd">
        <path d="M9.36066668,1.33333333 C9.80986668,1.33333333 10.2039333,1.63286833 10.3241667,2.06569 C10.3241667,2.06569 10.6650667,3.29285333 10.6650667,3.29285333 C10.6650667,3.29285333 11.8983333,2.97445667 11.8983333,2.97445667 C12.3333,2.86216667 12.7897333,3.05368667 13.0143333,3.44271 C13.0143333,3.44271 14.4276333,5.89063333 14.4276333,5.89063333 C14.6522333,6.27966667 14.5898667,6.7707 14.2751667,7.09123333 C14.2751667,7.09123333 13.3828667,8 13.3828667,8 C13.3828667,8 14.2751667,8.90876667 14.2751667,8.90876667 C14.5898667,9.2293 14.6522333,9.72036667 14.4276333,10.1093667 C14.4276333,10.1093667 13.0143333,12.5573 13.0143333,12.5573 C12.7897333,12.9463333 12.3333,13.1378333 11.8983333,13.0255333 C11.8983333,13.0255333 10.6650333,12.7071333 10.6650333,12.7071333 C10.6650333,12.7071333 10.4633371,13.4332675 10.3702465,13.7684063 L10.3299073,13.9136331 C10.3261836,13.9270387 10.3241667,13.9343 10.3241667,13.9343 C10.2039333,14.3671333 9.80986668,14.6666667 9.36066668,14.6666667 L6.53403334,14.6666667 C6.08483334,14.6666667 5.69076668,14.3671333 5.57053334,13.9343 L5.56479276,13.9136342 L5.52445351,13.7684153 C5.4592901,13.5338309 5.34090992,13.1076691 5.27574651,12.8730847 L5.23540726,12.7278658 C5.23168364,12.7144609 5.22966668,12.7072 5.22966668,12.7072 C5.22966668,12.7072 3.99663334,13.0255333 3.99663334,13.0255333 C3.56168334,13.1378333 3.10523668,12.9463333 2.88063334,12.5573 C2.88063334,12.5573 1.46732934,10.1093667 1.46732934,10.1093667 C1.24272568,9.72036667 1.30508954,9.2293 1.61980934,8.90876667 C1.61980934,8.90876667 2.51210001,8 2.51210001,8 C2.51210001,8 1.61981068,7.09123333 1.61981068,7.09123333 C1.30509211,6.7707 1.24272601,6.27966667 1.46733034,5.89063333 C1.46733034,5.89063333 2.88063668,3.44271 2.88063668,3.44271 C3.10524001,3.05368667 3.56168668,2.86216667 3.99663334,2.97445667 C3.99663334,2.97445667 5.22966668,3.29278667 5.22966668,3.29278667 C5.22966668,3.29278667 5.57053334,2.06569 5.57053334,2.06569 C5.69076668,1.63286933 6.08483334,1.33333333 6.53403334,1.33333333 L9.36066668,1.33333333 Z M7.94733334,5.33333333 C6.47460001,5.33333333 5.28066668,6.52723333 5.28066668,8 C5.28066668,9.47276667 6.47460001,10.6666667 7.94733334,10.6666667 C9.42010001,10.6666667 10.614,9.47276667 10.614,8 C10.614,6.52723333 9.42010001,5.33333333 7.94733334,5.33333333 Z" id="形状" fill="#999999"></path>
    </g>
</svg>