<?xml version="1.0" encoding="UTF-8"?>
<svg width="16px" height="16px" viewBox="0 0 16 16" version="1.1" xmlns="http://www.w3.org/2000/svg" xmlns:xlink="http://www.w3.org/1999/xlink">
    <title>icon/基础类/icon-basic-line-doubledown</title>
    <g id="icon/基础类/icon-basic-line-doubledown" stroke="none" stroke-width="1" fill="none" fill-rule="evenodd">
        <path d="M2.82859548,4.18543555 C2.82859548,4.18543555 3.77140548,3.24262555 3.77140548,3.24262555 C3.77140548,3.24262555 8.01402881,7.48525889 8.01402881,7.48525889 C8.01402881,7.48525889 12.2566955,3.24262555 12.2566955,3.24262555 C12.2566955,3.24262555 13.1994955,4.18543555 13.1994955,4.18543555 C13.1994955,4.18543555 8.01402881,9.37089222 8.01402881,9.37089222 C8.01402881,9.37089222 2.82859548,4.18543555 2.82859548,4.18543555 C2.82859548,4.18543555 2.82859548,4.18543555 2.82859548,4.18543555 Z M2.82859548,7.95665889 C2.82859548,7.95665889 3.77140548,7.01385889 3.77140548,7.01385889 C3.77140548,7.01385889 8.01402881,11.2564922 8.01402881,11.2564922 C8.01402881,11.2564922 12.2566955,7.01385889 12.2566955,7.01385889 C12.2566955,7.01385889 13.1994955,7.95665889 13.1994955,7.95665889 C13.1994955,7.95665889 8.01402881,13.1421256 8.01402881,13.1421256 C8.01402881,13.1421256 2.82859548,7.95665889 2.82859548,7.95665889 C2.82859548,7.95665889 2.82859548,7.95665889 2.82859548,7.95665889 Z" id="形状" fill="#999999"></path>
    </g>
</svg>