<?xml version="1.0" encoding="UTF-8"?>
<svg width="16px" height="16px" viewBox="0 0 16 16" version="1.1" xmlns="http://www.w3.org/2000/svg" xmlns:xlink="http://www.w3.org/1999/xlink">
    <title>icon/面性/el-icon-s-goods</title>
    <g id="icon/面性/el-icon-s-goods" stroke="none" stroke-width="1" fill="none" fill-rule="evenodd">
        <path d="M12.0807317,4 C12.7848161,4 13.3675489,4.54744906 13.4114685,5.25016229 L13.9114685,13.2501623 C13.9574026,13.9851079 13.3988484,14.618136 12.6639028,14.6640701 L12.6223375,14.6660174 L3.4192683,14.6666667 C2.68288863,14.6666667 2.08593496,14.069713 2.08593496,13.3333333 C2.08593496,13.3055894 2.0868009,13.2778522 2.08853152,13.2501623 L2.58853152,5.25016229 C2.6324511,4.54744906 3.21518392,4 3.9192683,4 L12.0807317,4 Z M6,6 C5.63181017,6 5.33333333,6.29847683 5.33333333,6.66666667 L5.33333333,8 C5.33333333,8.36818983 5.63181017,8.66666667 6,8.66666667 C6.36818983,8.66666667 6.66666667,8.36818983 6.66666667,8 L6.66666667,6.66666667 C6.66666667,6.29847683 6.36818983,6 6,6 Z M10,6 C9.63181017,6 9.33333333,6.29847683 9.33333333,6.66666667 L9.33333333,8 C9.33333333,8.36818983 9.63181017,8.66666667 10,8.66666667 C10.3681898,8.66666667 10.6666667,8.36818983 10.6666667,8 L10.6666667,6.66666667 C10.6666667,6.29847683 10.3681898,6 10,6 Z" id="形状结合" fill="#979797" fill-rule="nonzero"></path>
        <path d="M8,0.666666667 C9.47275933,0.666666667 10.6666667,1.860574 10.6666667,3.33333333 L10.6666667,5.33333333 C10.6666667,5.70152317 10.3681898,6 10,6 C9.63181017,6 9.33333333,5.70152317 9.33333333,5.33333333 L9.33333333,3.33333333 C9.33333333,2.59695367 8.73637967,2 8,2 C7.26362033,2 6.66666667,2.59695367 6.66666667,3.33333333 L6.66666667,5.33333333 C6.66666667,5.70152317 6.36818983,6 6,6 C5.63181017,6 5.33333333,5.70152317 5.33333333,5.33333333 L5.33333333,3.33333333 C5.33333333,1.860574 6.52724067,0.666666667 8,0.666666667 Z" id="路径-10" fill="#979797" fill-rule="nonzero"></path>
    </g>
</svg>