<?xml version="1.0" encoding="UTF-8"?>
<svg width="16px" height="16px" viewBox="0 0 16 16" version="1.1" xmlns="http://www.w3.org/2000/svg" xmlns:xlink="http://www.w3.org/1999/xlink">
    <title>icon/基础类/el-icon-d-arrow-left</title>
    <g id="icon/基础类/el-icon-d-arrow-left" stroke="none" stroke-width="1" fill="none" fill-rule="evenodd">
        <path d="M2.43096667,3.84517667 C2.43096667,3.84517667 3.37377667,2.90236667 3.37377667,2.90236667 C3.37377667,2.90236667 7.6164,7.145 7.6164,7.145 C7.6164,7.145 11.8590667,2.90236667 11.8590667,2.90236667 C11.8590667,2.90236667 12.8018667,3.84517667 12.8018667,3.84517667 C12.8018667,3.84517667 7.6164,9.03063333 7.6164,9.03063333 C7.6164,9.03063333 2.43096667,3.84517667 2.43096667,3.84517667 C2.43096667,3.84517667 2.43096667,3.84517667 2.43096667,3.84517667 Z M2.43096667,7.6164 C2.43096667,7.6164 3.37377667,6.6736 3.37377667,6.6736 C3.37377667,6.6736 7.6164,10.9162333 7.6164,10.9162333 C7.6164,10.9162333 11.8590667,6.6736 11.8590667,6.6736 C11.8590667,6.6736 12.8018667,7.6164 12.8018667,7.6164 C12.8018667,7.6164 7.6164,12.8018667 7.6164,12.8018667 C7.6164,12.8018667 2.43096667,7.6164 2.43096667,7.6164 C2.43096667,7.6164 2.43096667,7.6164 2.43096667,7.6164 Z" id="形状" fill="#999999" transform="translate(7.6164, 7.8521) rotate(90) translate(-7.6164, -7.8521)"></path>
    </g>
</svg>