<?xml version="1.0" encoding="UTF-8"?>
<svg width="16px" height="16px" viewBox="0 0 16 16" version="1.1" xmlns="http://www.w3.org/2000/svg" xmlns:xlink="http://www.w3.org/1999/xlink">
    <title>icon/面性/icon-basic-file-sun</title>
    <g id="icon/面性/icon-basic-file-sun" stroke="none" stroke-width="1" fill="none" fill-rule="evenodd">
        <path d="M7.16666667,1.66666667 C7.07463333,1.66666667 7,1.741286 7,1.83333333 C7,1.83333333 7,3.5 7,3.5 C7,3.59204667 7.07463333,3.66666667 7.16666667,3.66666667 C7.16666667,3.66666667 8.83333333,3.66666667 8.83333333,3.66666667 C8.92536667,3.66666667 9,3.59204667 9,3.5 C9,3.5 9,1.83333333 9,1.83333333 C9,1.741286 8.92536667,1.66666667 8.83333333,1.66666667 C8.83333333,1.66666667 7.16666667,1.66666667 7.16666667,1.66666667 C7.16666667,1.66666667 7.16666667,1.66666667 7.16666667,1.66666667 Z M7.16666667,12.3333333 C7.07463333,12.3333333 7,12.4079667 7,12.5 C7,12.5 7,14.1666667 7,14.1666667 C7,14.2587 7.07463333,14.3333333 7.16666667,14.3333333 C7.16666667,14.3333333 8.83333333,14.3333333 8.83333333,14.3333333 C8.92536667,14.3333333 9,14.2587 9,14.1666667 C9,14.1666667 9,12.5 9,12.5 C9,12.4079667 8.92536667,12.3333333 8.83333333,12.3333333 C8.83333333,12.3333333 7.16666667,12.3333333 7.16666667,12.3333333 C7.16666667,12.3333333 7.16666667,12.3333333 7.16666667,12.3333333 Z M14.1666667,7 C14.2587,7 14.3333333,7.07463333 14.3333333,7.16666667 C14.3333333,7.16666667 14.3333333,8.83333333 14.3333333,8.83333333 C14.3333333,8.92536667 14.2587,9 14.1666667,9 C14.1666667,9 12.5,9 12.5,9 C12.4079667,9 12.3333333,8.92536667 12.3333333,8.83333333 C12.3333333,8.83333333 12.3333333,7.16666667 12.3333333,7.16666667 C12.3333333,7.07463333 12.4079667,7 12.5,7 C12.5,7 14.1666667,7 14.1666667,7 C14.1666667,7 14.1666667,7 14.1666667,7 Z M3.66666667,7.16666667 C3.66666667,7.07463333 3.59204667,7 3.5,7 C3.5,7 1.83333333,7 1.83333333,7 C1.741286,7 1.66666667,7.07463333 1.66666667,7.16666667 C1.66666667,7.16666667 1.66666667,8.83333333 1.66666667,8.83333333 C1.66666667,8.92536667 1.74128567,9 1.83333333,9 C1.83333333,9 3.5,9 3.5,9 C3.59204667,9 3.66666667,8.92536667 3.66666667,8.83333333 C3.66666667,8.83333333 3.66666667,7.16666667 3.66666667,7.16666667 C3.66666667,7.16666667 3.66666667,7.16666667 3.66666667,7.16666667 Z M13.0676,11.6534 C13.1327,11.7184667 13.1327,11.824 13.0676,11.8891 C13.0676,11.8891 11.8891,13.0676 11.8891,13.0676 C11.824,13.1327 11.7184667,13.1327 11.6534,13.0676 C11.6534,13.0676 10.4748667,11.8891 10.4748667,11.8891 C10.4098,11.824 10.4098,11.7184667 10.4748667,11.6534 C10.4748667,11.6534 11.6534,10.4748667 11.6534,10.4748667 C11.7184667,10.4098 11.824,10.4098 11.8891,10.4748667 C11.8891,10.4748667 13.0676,11.6534 13.0676,11.6534 C13.0676,11.6534 13.0676,11.6534 13.0676,11.6534 Z M5.52513333,4.34661667 C5.5902,4.28152667 5.5902,4.176 5.52513333,4.11091333 C5.52513333,4.11091333 4.34661667,2.93240333 4.34661667,2.93240333 C4.28153,2.86731333 4.176,2.86731333 4.11091333,2.93240333 C4.11091333,2.93240333 2.93240333,4.11091333 2.93240333,4.11091333 C2.86731333,4.176 2.86731333,4.28152667 2.93240333,4.34661667 C2.93240333,4.34661667 4.11091333,5.52513333 4.11091333,5.52513333 C4.176,5.5902 4.28153,5.5902 4.34661667,5.52513333 C4.34661667,5.52513333 5.52513333,4.34661667 5.52513333,4.34661667 C5.52513333,4.34661667 5.52513333,4.34661667 5.52513333,4.34661667 Z M4.34671333,13.0676 C4.28162667,13.1327 4.17609667,13.1327 4.11101,13.0676 C4.11101,13.0676 2.9325,11.8891 2.9325,11.8891 C2.86741,11.824 2.86741,11.7184667 2.9325,11.6534 C2.9325,11.6534 4.11101,10.4748667 4.11101,10.4748667 C4.17609667,10.4098 4.28162667,10.4098 4.34671333,10.4748667 C4.34671333,10.4748667 5.52523333,11.6534 5.52523333,11.6534 C5.5903,11.7184667 5.5903,11.824 5.52523333,11.8891 C5.52523333,11.8891 4.34671333,13.0676 4.34671333,13.0676 C4.34671333,13.0676 4.34671333,13.0676 4.34671333,13.0676 Z M11.6534667,5.52513333 C11.7185667,5.59023333 11.8241,5.59023333 11.8892,5.52513333 C11.8892,5.52513333 13.0677,4.34662 13.0677,4.34662 C13.1327667,4.28153 13.1327667,4.17600333 13.0677,4.11091667 C13.0677,4.11091667 11.8892,2.93240667 11.8892,2.93240667 C11.8241,2.86731667 11.7185667,2.86731667 11.6534667,2.93240667 C11.6534667,2.93240667 10.4749667,4.11091667 10.4749667,4.11091667 C10.4098667,4.17600333 10.4098667,4.28153 10.4749667,4.34662 C10.4749667,4.34662 11.6534667,5.52513333 11.6534667,5.52513333 C11.6534667,5.52513333 11.6534667,5.52513333 11.6534667,5.52513333 Z M8,11 C9.65686667,11 11,9.65686667 11,8 C11,6.34313333 9.65686667,5 8,5 C6.34313333,5 5,6.34313333 5,8 C5,9.65686667 6.34313333,11 8,11 C8,11 8,11 8,11 Z" id="形状" fill="#999999"></path>
    </g>
</svg>