<?xml version="1.0" encoding="UTF-8"?>
<svg width="16px" height="16px" viewBox="0 0 16 16" version="1.1" xmlns="http://www.w3.org/2000/svg" xmlns:xlink="http://www.w3.org/1999/xlink">
    <title>icon/天气类/el-icon-partly-cloudy</title>
    <g id="icon/天气类/el-icon-partly-cloudy" stroke="none" stroke-width="1" fill="none" fill-rule="evenodd">
        <path d="M4.52173913,13.9130435 L4.15581551,13.9130435 L4.15582609,13.8949565 L4.06483078,13.8860439 C2.21707768,13.6661616 0.773393974,12.1294567 0.698690229,10.2408398 L0.695652174,10.0869565 C0.695652174,8.29578691 1.93079823,6.77891001 3.61263176,6.36950941 L3.7133913,6.34713043 L3.72603181,6.30270258 C4.44476555,3.89344374 6.64107192,2.16869917 9.20738216,2.0897815 L9.39130435,2.08695652 C12.6569881,2.08695652 15.3043478,4.73431626 15.3043478,8 C15.3043478,11.1469316 12.8460227,13.7196906 9.74501034,13.9026391 L9.72173913,13.9033043 L9.72175576,13.9130435 L9.39130435,13.9130435 L4.52173913,13.9130435 Z M9.39130435,3.47826087 C7.22795125,3.47826087 5.37917067,5.00929668 4.95915801,7.10278086 L4.85559986,7.61894945 L4.33071122,7.65952316 C3.06904012,7.75704988 2.08695652,8.81322764 2.08695652,10.0869565 C2.08695652,11.4316498 3.17704583,12.5217391 4.52173913,12.5217391 C4.58269016,12.5217391 4.93631335,12.5217391 5.5826087,12.5217391 L8.36521739,12.5217391 C8.98186802,12.5217391 9.32389701,12.5217391 9.39130435,12.5217391 C11.8885919,12.5217391 13.9130435,10.4972876 13.9130435,8 C13.9130435,5.50271244 11.8885919,3.47826087 9.39130435,3.47826087 Z" id="形状结合" fill="#999999" fill-rule="nonzero"></path>
    </g>
</svg>