<?xml version="1.0" encoding="UTF-8"?>
<svg width="16px" height="16px" viewBox="0 0 16 16" version="1.1" xmlns="http://www.w3.org/2000/svg" xmlns:xlink="http://www.w3.org/1999/xlink">
    <title>icon/通用类/el-icon-male</title>
    <g id="icon/通用类/el-icon-male" stroke="none" stroke-width="1" fill="none" fill-rule="evenodd">
        <path d="M13.3332667,2 C13.3332667,2 9.66666667,2 9.66666667,2 C9.66666667,2 9.66666667,3.33333333 9.66666667,3.33333333 C9.66666667,3.33333333 11.7238,3.33333333 11.7238,3.33333333 C11.7238,3.33333333 9.88436667,5.17278333 9.88436667,5.17278333 C9.01476667,4.44092 7.8922,4 6.66666667,4 C3.90524333,4 1.66666667,6.23856667 1.66666667,9 C1.66666667,11.7614333 3.90524333,14 6.66666667,14 C9.4281,14 11.6666667,11.7614333 11.6666667,9 C11.6666667,7.94526667 11.3401,6.9668 10.7825333,6.16023333 C10.7825333,6.16023333 12.6666667,4.27609333 12.6666667,4.27609333 C12.6666667,4.27609333 12.6666667,6.33333333 12.6666667,6.33333333 C12.6666667,6.33333333 14,6.33333333 14,6.33333333 C14,6.33333333 14,2 14,2 C14,2 13.3332667,2 13.3332667,2 C13.3332667,2 13.3332667,2 13.3332667,2 Z M9.39136667,6.5463 C9.39466667,6.55003333 9.398,6.55376667 9.40136667,6.55743333 C9.98096667,7.20593333 10.3333333,8.0618 10.3333333,9 C10.3333333,11.0250333 8.6917,12.6666667 6.66666667,12.6666667 C4.64162333,12.6666667 3,11.0250333 3,9 C3,6.97496667 4.64162333,5.33333333 6.66666667,5.33333333 C7.74813333,5.33333333 8.72026667,5.80153333 9.39136667,6.5463 C9.39136667,6.5463 9.39136667,6.5463 9.39136667,6.5463 Z" id="形状" fill="#999999"></path>
    </g>
</svg>