<?xml version="1.0" encoding="UTF-8"?>
<svg width="16px" height="16px" viewBox="0 0 16 16" version="1.1" xmlns="http://www.w3.org/2000/svg" xmlns:xlink="http://www.w3.org/1999/xlink">
    <title>icon/通用类/el-icon-mouse</title>
    <g id="icon/通用类/el-icon-mouse" stroke="none" stroke-width="1" fill="none" fill-rule="evenodd">
        <path d="M10,3.33333333 C11.8409492,3.33333333 13.3333333,4.8257175 13.3333333,6.66666667 L13.3333333,12 C13.3333333,13.8409492 11.8409492,15.3333333 10,15.3333333 L6,15.3333333 C4.15905083,15.3333333 2.66666667,13.8409492 2.66666667,12 L2.66666667,6.66666667 C2.66666667,4.8257175 4.15905083,3.33333333 6,3.33333333 L10,3.33333333 Z M10,4.66666667 L6,4.66666667 C4.8954305,4.66666667 4,5.56209717 4,6.66666667 L4,12 C4,13.1045695 4.8954305,14 6,14 L10,14 C11.1045695,14 12,13.1045695 12,12 L12,6.66666667 C12,5.56209717 11.1045695,4.66666667 10,4.66666667 Z M8.66666667,6 L8.66666667,8.66666667 L7.33333333,8.66666667 L7.33333333,6 L8.66666667,6 Z" id="形状结合" fill="#999999" fill-rule="nonzero"></path>
        <path d="M6.66666667,0.666666667 C7.77123617,0.666666667 8.66666667,1.56209717 8.66666667,2.66666667 L8.66666667,3.33333333 L7.33333333,3.33333333 L7.33333333,2.66666667 C7.33333333,2.29847683 7.0348565,2 6.66666667,2 L5.33333333,2 L5.33333333,0.666666667 L6.66666667,0.666666667 Z" id="路径-45" fill="#979797" fill-rule="nonzero"></path>
    </g>
</svg>