<?xml version="1.0" encoding="UTF-8"?>
<svg width="16px" height="16px" viewBox="0 0 16 16" version="1.1" xmlns="http://www.w3.org/2000/svg" xmlns:xlink="http://www.w3.org/1999/xlink">
    <title>icon/编辑类/icon-edit-line-rotateright</title>
    <g id="icon/编辑类/icon-edit-line-rotateright" stroke="none" stroke-width="1" fill="none" fill-rule="evenodd">
        <path d="M7.66666667,5.21911322 C7.66666667,5.48357989 7.9599,5.64271322 8.18166667,5.49857989 C8.18166667,5.49857989 10.5700333,3.94614989 10.5700333,3.94614989 C10.7722667,3.81469989 10.7722667,3.51863322 10.5700333,3.38718655 C10.5700333,3.38718655 8.18166667,1.83474855 8.18166667,1.83474855 C7.9599,1.69061055 7.66666667,1.84975022 7.66666667,2.11422989 C7.66666667,2.11422989 7.66666667,2.99999989 7.66666667,2.99999989 C7.66666667,2.99999989 4.66666667,2.99999989 4.66666667,2.99999989 C3.19390667,2.99999989 2,4.19390655 2,5.66667989 C2,5.66667989 2,7.66667989 2,7.66667989 C2,7.66667989 3.33333333,7.66667989 3.33333333,7.66667989 C3.33333333,7.66667989 3.33333333,5.66667989 3.33333333,5.66667989 C3.33333333,4.93028655 3.93028667,4.33333322 4.66666667,4.33333322 C4.66666667,4.33333322 7.66666667,4.33333322 7.66666667,4.33333322 C7.66666667,4.33333322 7.66666667,5.21911322 7.66666667,5.21911322 C7.66666667,5.21911322 7.66666667,5.21911322 7.66666667,5.21911322 Z M13.3333333,7.33334655 C13.3333333,6.78104655 12.8856333,6.33334655 12.3333333,6.33334655 C12.3333333,6.33334655 5.66666667,6.33334655 5.66666667,6.33334655 C5.11438333,6.33334655 4.66666667,6.78104655 4.66666667,7.33334655 C4.66666667,7.33334655 4.66666667,12.6666799 4.66666667,12.6666799 C4.66666667,13.2189466 5.11438333,13.6666799 5.66666667,13.6666799 C5.66666667,13.6666799 12.3333333,13.6666799 12.3333333,13.6666799 C12.8856333,13.6666799 13.3333333,13.2189466 13.3333333,12.6666799 C13.3333333,12.6666799 13.3333333,7.33334655 13.3333333,7.33334655 C13.3333333,7.33334655 13.3333333,7.33334655 13.3333333,7.33334655 Z M12,7.66667989 C12,7.66667989 12,12.3333466 12,12.3333466 C12,12.3333466 6,12.3333466 6,12.3333466 C6,12.3333466 6,7.66667989 6,7.66667989 C6,7.66667989 12,7.66667989 12,7.66667989 C12,7.66667989 12,7.66667989 12,7.66667989 Z" id="形状" fill="#999999"></path>
    </g>
</svg>