<?xml version="1.0" encoding="UTF-8"?>
<svg width="16px" height="16px" viewBox="0 0 16 16" version="1.1" xmlns="http://www.w3.org/2000/svg" xmlns:xlink="http://www.w3.org/1999/xlink">
    <title>icon/编辑类/icon-edit-line-h3</title>
    <g id="icon/编辑类/icon-edit-line-h3" stroke="none" stroke-width="1" fill="none" fill-rule="evenodd">
        <path d="M2.66666667,2 C2.66666667,2 1.33333333,2 1.33333333,2 C1.33333333,2 1.33333333,14 1.33333333,14 C1.33333333,14 2.66666667,14 2.66666667,14 C2.66666667,14 2.66666667,8.66666667 2.66666667,8.66666667 C2.66666667,8.66666667 8,8.66666667 8,8.66666667 C8,8.66666667 8,14 8,14 C8,14 9.33333333,14 9.33333333,14 C9.33333333,14 9.33333333,2 9.33333333,2 C9.33333333,2 8,2 8,2 C8,2 8,7.33333333 8,7.33333333 C8,7.33333333 2.66666667,7.33333333 2.66666667,7.33333333 C2.66666667,7.33333333 2.66666667,2 2.66666667,2 C2.66666667,2 2.66666667,2 2.66666667,2 Z M12.1483667,6 C10.9619667,6 10.0002333,6.96176667 10.0002333,8.14813333 C10.0002333,8.14813333 11.3335667,8.14813333 11.3335667,8.14813333 C11.3335667,7.69813333 11.6983667,7.33333333 12.1483667,7.33333333 C12.1483667,7.33333333 12.3335667,7.33333333 12.3335667,7.33333333 C12.8858333,7.33333333 13.3335667,7.78103333 13.3335667,8.33333333 C13.3335667,8.88563333 12.8858333,9.33333333 12.3335667,9.33333333 C12.3335667,9.33333333 11.6669,9.33333333 11.6669,9.33333333 C11.6669,9.33333333 11.6669,10.6666667 11.6669,10.6666667 C11.6669,10.6666667 12.3335667,10.6666667 12.3335667,10.6666667 C12.8858333,10.6666667 13.3335667,11.1143667 13.3335667,11.6666667 C13.3335667,12.2189667 12.8858333,12.6666667 12.3335667,12.6666667 C12.3335667,12.6666667 12.1483667,12.6666667 12.1483667,12.6666667 C11.6983667,12.6666667 11.3335667,12.3018667 11.3335667,11.8518667 C11.3335667,11.8518667 10.0002333,11.8518667 10.0002333,11.8518667 C10.0002333,13.0382333 10.9619667,14 12.1483667,14 C12.1483667,14 12.3335667,14 12.3335667,14 C13.6222,14 14.6669,12.9553333 14.6669,11.6666667 C14.6669,11.0137667 14.3987333,10.4235 13.9665333,10 C14.3987333,9.5765 14.6669,8.98623333 14.6669,8.33333333 C14.6669,7.04466667 13.6222,6 12.3335667,6 C12.3335667,6 12.1483667,6 12.1483667,6 C12.1483667,6 12.1483667,6 12.1483667,6 Z" id="形状" fill="#999999"></path>
    </g>
</svg>