<?xml version="1.0" encoding="UTF-8"?>
<svg width="16px" height="16px" viewBox="0 0 16 16" version="1.1" xmlns="http://www.w3.org/2000/svg" xmlns:xlink="http://www.w3.org/1999/xlink">
    <title>icon/编辑类/icon-edit-line-h2</title>
    <g id="icon/编辑类/icon-edit-line-h2" stroke="none" stroke-width="1" fill="none" fill-rule="evenodd">
        <path d="M2.66666667,2 C2.66666667,2 1.33333333,2 1.33333333,2 C1.33333333,2 1.33333333,14 1.33333333,14 C1.33333333,14 2.66666667,14 2.66666667,14 C2.66666667,14 2.66666667,8.66666667 2.66666667,8.66666667 C2.66666667,8.66666667 8,8.66666667 8,8.66666667 C8,8.66666667 8,14 8,14 C8,14 9.33333333,14 9.33333333,14 C9.33333333,14 9.33333333,2 9.33333333,2 C9.33333333,2 8,2 8,2 C8,2 8,7.33333333 8,7.33333333 C8,7.33333333 2.66666667,7.33333333 2.66666667,7.33333333 C2.66666667,7.33333333 2.66666667,2 2.66666667,2 C2.66666667,2 2.66666667,2 2.66666667,2 Z M11.3333333,8.66666667 C11.3333333,8.1827 11.8043667,7.66666667 12.3333333,7.66666667 C12.9534333,7.66666667 13.3333333,8.1041 13.3333333,8.5 C13.3333333,8.66256667 13.2661667,8.86443333 13.1243667,9.10333333 C12.9893,9.33086667 12.8221333,9.53506667 12.6678333,9.72356667 C12.6678333,9.72356667 12.6526,9.74216667 12.6526,9.74216667 C12.6526,9.74216667 10,12.9253 10,12.9253 C10,12.9253 10,14 10,14 C10,14 14.6666667,14 14.6666667,14 C14.6666667,14 14.6666667,12.6666667 14.6666667,12.6666667 C14.6666667,12.6666667 11.9511333,12.6666667 11.9511333,12.6666667 C11.9511333,12.6666667 13.6807333,10.5911333 13.6807333,10.5911333 C13.6807333,10.5911333 13.6826333,10.5888333 13.6826333,10.5888333 C13.6826333,10.5888333 13.7105333,10.5548 13.7105333,10.5548 C13.8579333,10.375 14.0827667,10.1008333 14.2708667,9.78396667 C14.4695333,9.44933333 14.6666667,9.0041 14.6666667,8.5 C14.6666667,7.23903333 13.5542,6.33333333 12.3333333,6.33333333 C11.0213667,6.33333333 10,7.4938 10,8.66666667 C10,8.66666667 11.3333333,8.66666667 11.3333333,8.66666667 C11.3333333,8.66666667 11.3333333,8.66666667 11.3333333,8.66666667 Z" id="形状" fill="#999999"></path>
    </g>
</svg>