<?xml version="1.0" encoding="UTF-8"?>
<svg width="16px" height="16px" viewBox="0 0 16 16" version="1.1" xmlns="http://www.w3.org/2000/svg" xmlns:xlink="http://www.w3.org/1999/xlink">
    <title>icon/影音类/icon-general-line-music</title>
    <g id="icon/影音类/icon-general-line-music" stroke="none" stroke-width="1" fill="none" fill-rule="evenodd">
        <path d="M12.6666667,3.36002 C12.6666667,3.36002 5.33333333,3.92412 5.33333333,3.92412 C5.33333333,3.92412 5.33333333,5.7535 5.33333333,5.7535 C5.33333333,5.7535 12.6666667,5.18941334 12.6666667,5.18941334 C12.6666667,5.18941334 12.6666667,3.36002 12.6666667,3.36002 C12.6666667,3.36002 12.6666667,3.36002 12.6666667,3.36002 Z M12.6666667,6.5267 C12.6666667,6.5267 5.33333333,7.0908 5.33333333,7.0908 C5.33333333,7.0908 5.33333333,12.6401 5.33333333,12.6401 C5.33333333,13.7446667 4.43790333,14.6401 3.33333333,14.6401 C2.22876333,14.6401 1.33333333,13.7446667 1.33333333,12.6401 C1.33333333,11.5355333 2.22876333,10.6401 3.33333333,10.6401 C3.56709,10.6401 3.79148,10.6802 4,10.7539 C4,10.7539 4,3.61544334 4,3.61544334 C4,3.09290667 4.40230667,2.65846667 4.9233,2.61839 C4.9233,2.61839 12.9233,2.00300487 12.9233,2.00300487 C13.5041,1.95832834 14,2.41754667 14,3.00006 C14,3.00006 14,12.6401 14,12.6401 C14,13.7446667 13.1045667,14.6401 12,14.6401 C10.8954333,14.6401 10,13.7446667 10,12.6401 C10,11.5355333 10.8954333,10.6401 12,10.6401 C12.2337667,10.6401 12.4581333,10.6802 12.6666667,10.7539 C12.6666667,10.7539 12.6666667,6.5267 12.6666667,6.5267 C12.6666667,6.5267 12.6666667,6.5267 12.6666667,6.5267 Z M12.6666667,12.6401 C12.6666667,12.2719 12.3682,11.9734333 12,11.9734333 C11.6318,11.9734333 11.3333333,12.2719 11.3333333,12.6401 C11.3333333,13.0083 11.6318,13.3067667 12,13.3067667 C12.3682,13.3067667 12.6666667,13.0083 12.6666667,12.6401 C12.6666667,12.6401 12.6666667,12.6401 12.6666667,12.6401 Z M4,12.6401 C4,12.2719 3.70152333,11.9734333 3.33333333,11.9734333 C2.96514333,11.9734333 2.66666667,12.2719 2.66666667,12.6401 C2.66666667,13.0083 2.96514333,13.3067667 3.33333333,13.3067667 C3.70152333,13.3067667 4,13.0083 4,12.6401 C4,12.6401 4,12.6401 4,12.6401 Z" id="形状" fill="#999999"></path>
    </g>
</svg>