<?xml version="1.0" encoding="UTF-8"?>
<svg width="16px" height="16px" viewBox="0 0 16 16" version="1.1" xmlns="http://www.w3.org/2000/svg" xmlns:xlink="http://www.w3.org/1999/xlink">
    <title>icon/编辑类/icon-edit-line-sortdescending</title>
    <g id="icon/编辑类/icon-edit-line-sortdescending" stroke="none" stroke-width="1" fill="none" fill-rule="evenodd">
        <path d="M4.94345667,2.20638521 C5.38444667,1.76547088 6.1384,2.07779621 6.1384,2.70140321 C6.1384,2.70140321 6.1384,14.2875999 6.1384,14.2875999 C6.1384,14.2875999 4.80505333,14.2875999 4.80505333,14.2875999 C4.80505333,14.2875999 4.80505333,4.23022321 4.80505333,4.23022321 C4.80505333,4.23022321 3.60939667,5.42566655 3.60939667,5.42566655 C3.60939667,5.42566655 2.66666667,4.48278655 2.66666667,4.48278655 C2.66666667,4.48278655 4.94345667,2.20638521 4.94345667,2.20638521 C4.94345667,2.20638521 4.94345667,2.20638521 4.94345667,2.20638521 Z M9.89933333,2.28759921 C9.89933333,2.28759921 11.0434,2.28759921 11.0434,2.28759921 C11.0434,2.28759921 13.0836333,7.02386655 13.0836333,7.02386655 C13.0836333,7.02386655 11.8591,7.55133321 11.8591,7.55133321 C11.8591,7.55133321 10.4713667,4.32984321 10.4713667,4.32984321 C10.4713667,4.32984321 9.08363333,7.55133321 9.08363333,7.55133321 C9.08363333,7.55133321 7.8591,7.02386655 7.8591,7.02386655 C7.8591,7.02386655 9.89933333,2.28759921 9.89933333,2.28759921 C9.89933333,2.28759921 9.89933333,2.28759921 9.89933333,2.28759921 Z M10.7942667,9.95426655 C10.7942667,9.95426655 8.47136667,9.95426655 8.47136667,9.95426655 C8.47136667,9.95426655 8.47136667,8.62093321 8.47136667,8.62093321 C8.47136667,8.62093321 12.6047,8.62093321 12.6047,8.62093321 C12.6047,8.62093321 12.6047,9.71879988 12.6047,9.71879988 C12.6047,9.71879988 10.2818,12.9542665 10.2818,12.9542665 C10.2818,12.9542665 12.8047,12.9542665 12.8047,12.9542665 C12.8047,12.9542665 12.8047,14.2875999 12.8047,14.2875999 C12.8047,14.2875999 8.47136667,14.2875999 8.47136667,14.2875999 C8.47136667,14.2875999 8.47136667,13.1897332 8.47136667,13.1897332 C8.47136667,13.1897332 10.7942667,9.95426655 10.7942667,9.95426655 C10.7942667,9.95426655 10.7942667,9.95426655 10.7942667,9.95426655 Z" id="形状" fill="#999999"></path>
    </g>
</svg>