<?xml version="1.0" encoding="UTF-8"?>
<svg width="16px" height="16px" viewBox="0 0 16 16" version="1.1" xmlns="http://www.w3.org/2000/svg" xmlns:xlink="http://www.w3.org/1999/xlink">
    <title>icon/通用类/icon-general-line-pen</title>
    <g id="icon/通用类/icon-general-line-pen" stroke="none" stroke-width="1" fill="none" fill-rule="evenodd">
        <path d="M10.721,1.33333333 C10.721,1.33333333 14.0208,4.63316667 14.0208,4.63316667 C14.0208,4.63316667 4.63316667,14.0208 4.63316667,14.0208 C4.63316667,14.0208 1.33333333,14.0208 1.33333333,14.0208 C1.33333333,14.0208 1.33333333,10.721 1.33333333,10.721 C1.33333333,10.721 10.721,1.33333333 10.721,1.33333333 C10.721,1.33333333 10.721,1.33333333 10.721,1.33333333 Z M2.66666667,11.2732667 C2.66666667,11.2732667 2.66666667,12.6874667 2.66666667,12.6874667 C2.66666667,12.6874667 4.08088,12.6874667 4.08088,12.6874667 C4.08088,12.6874667 10.4852667,6.28306667 10.4852667,6.28306667 C10.4852667,6.28306667 9.07106667,4.86886667 9.07106667,4.86886667 C9.07106667,4.86886667 2.66666667,11.2732667 2.66666667,11.2732667 C2.66666667,11.2732667 2.66666667,11.2732667 2.66666667,11.2732667 Z M10.0138667,3.92605667 C10.0138667,3.92605667 11.4281,5.34026667 11.4281,5.34026667 C11.4281,5.34026667 12.1352,4.63316333 12.1352,4.63316333 C12.1352,4.63316333 10.721,3.21895 10.721,3.21895 C10.721,3.21895 10.0138667,3.92605667 10.0138667,3.92605667 C10.0138667,3.92605667 10.0138667,3.92605667 10.0138667,3.92605667 Z" id="形状" fill="#999999"></path>
    </g>
</svg>