<?xml version="1.0" encoding="UTF-8"?>
<svg width="16px" height="16px" viewBox="0 0 16 16" version="1.1" xmlns="http://www.w3.org/2000/svg" xmlns:xlink="http://www.w3.org/1999/xlink">
    <title>icon/通用类/icon-general-line-time</title>
    <g id="icon/通用类/icon-general-line-time" stroke="none" stroke-width="1" fill="none" fill-rule="evenodd">
        <path d="M2.66666667,8 C2.66666667,5.05446667 5.05446667,2.66666667 8,2.66666667 C10.9455333,2.66666667 13.3333333,5.05446667 13.3333333,8 C13.3333333,10.9455333 10.9455333,13.3333333 8,13.3333333 C5.05446667,13.3333333 2.66666667,10.9455333 2.66666667,8 C2.66666667,8 2.66666667,8 2.66666667,8 Z M8,1.33333333 C4.31810333,1.33333333 1.33333333,4.31810333 1.33333333,8 C1.33333333,11.6819 4.31810333,14.6666667 8,14.6666667 C11.6819,14.6666667 14.6666667,11.6819 14.6666667,8 C14.6666667,4.31810333 11.6819,1.33333333 8,1.33333333 C8,1.33333333 8,1.33333333 8,1.33333333 Z M7.33333333,7.92846667 C7.33333333,7.92846667 9.67813333,10.4536333 9.67813333,10.4536333 C9.67813333,10.4536333 10.6552,9.54636667 10.6552,9.54636667 C10.6552,9.54636667 8.66666667,7.40486667 8.66666667,7.40486667 C8.66666667,7.40486667 8.66666667,4.33333333 8.66666667,4.33333333 C8.66666667,4.33333333 7.33333333,4.33333333 7.33333333,4.33333333 C7.33333333,4.33333333 7.33333333,7.92846667 7.33333333,7.92846667 C7.33333333,7.92846667 7.33333333,7.92846667 7.33333333,7.92846667 Z" id="形状" fill="#999999"></path>
    </g>
</svg>