<?xml version="1.0" encoding="UTF-8"?>
<svg width="16px" height="16px" viewBox="0 0 16 16" version="1.1" xmlns="http://www.w3.org/2000/svg" xmlns:xlink="http://www.w3.org/1999/xlink">
    <title>icon/基础类/el-icon-date</title>
    <g id="icon/基础类/el-icon-date" stroke="none" stroke-width="1" fill="none" fill-rule="evenodd">
        <path d="M4,2.33333333 C4,2.33333333 4,1.66666667 4,1.66666667 C4,1.66666667 5.33333333,1.66666667 5.33333333,1.66666667 C5.33333333,1.66666667 5.33333333,2.33333333 5.33333333,2.33333333 C5.33333333,2.33333333 10.6666667,2.33333333 10.6666667,2.33333333 C10.6666667,2.33333333 10.6666667,1.66666667 10.6666667,1.66666667 C10.6666667,1.66666667 12,1.66666667 12,1.66666667 C12,1.66666667 12,2.33333333 12,2.33333333 C12,2.33333333 13.3333333,2.33333333 13.3333333,2.33333333 C13.8856,2.33333333 14.3333333,2.78104667 14.3333333,3.33333333 C14.3333333,3.33333333 14.3333333,13.3333333 14.3333333,13.3333333 C14.3333333,13.8856333 13.8856333,14.3333333 13.3333333,14.3333333 C13.3333333,14.3333333 2.66666667,14.3333333 2.66666667,14.3333333 C2.11438333,14.3333333 1.66666667,13.8856333 1.66666667,13.3333333 C1.66666667,13.3333333 1.66666667,3.33333333 1.66666667,3.33333333 C1.66666667,2.78105 2.11438333,2.33333333 2.66666667,2.33333333 C2.66666667,2.33333333 4,2.33333333 4,2.33333333 C4,2.33333333 4,2.33333333 4,2.33333333 Z M4,3.66666667 C4,3.66666667 3,3.66666667 3,3.66666667 C3,3.66666667 3,6.66666667 3,6.66666667 C3,6.66666667 13,6.66666667 13,6.66666667 C13,6.66666667 13,3.66666667 13,3.66666667 C13,3.66666667 12,3.66666667 12,3.66666667 C12,3.66666667 12,4.33333333 12,4.33333333 C12,4.33333333 10.6666667,4.33333333 10.6666667,4.33333333 C10.6666667,4.33333333 10.6666667,3.66666667 10.6666667,3.66666667 C10.6666667,3.66666667 5.33333333,3.66666667 5.33333333,3.66666667 C5.33333333,3.66666667 5.33333333,4.33333333 5.33333333,4.33333333 C5.33333333,4.33333333 4,4.33333333 4,4.33333333 C4,4.33333333 4,3.66666667 4,3.66666667 C4,3.66666667 4,3.66666667 4,3.66666667 Z M13,8 C13,8 3,8 3,8 C3,8 3,13 3,13 C3,13 13,13 13,13 C13,13 13,8 13,8 C13,8 13,8 13,8 Z" id="形状" fill="#999999"></path>
    </g>
</svg>