<?xml version="1.0" encoding="UTF-8"?>
<svg width="16px" height="16px" viewBox="0 0 16 16" version="1.1" xmlns="http://www.w3.org/2000/svg" xmlns:xlink="http://www.w3.org/1999/xlink">
    <title>icon/通用类/el-icon-medal</title>
    <g id="icon/通用类/el-icon-medal" stroke="none" stroke-width="1" fill="none" fill-rule="evenodd">
        <path d="M8,4.66666667 C10.9455187,4.66666667 13.3333333,7.05448133 13.3333333,10 C13.3333333,12.9455187 10.9455187,15.3333333 8,15.3333333 C5.05448133,15.3333333 2.66666667,12.9455187 2.66666667,10 C2.66666667,7.05448133 5.05448133,4.66666667 8,4.66666667 Z M8,6 C5.790861,6 4,7.790861 4,10 C4,12.209139 5.790861,14 8,14 C10.209139,14 12,12.209139 12,10 C12,7.790861 10.209139,6 8,6 Z" id="椭圆形" fill="#999999" fill-rule="nonzero"></path>
        <path d="M12.5201307,0.666666667 C13.2565104,0.666666667 13.8534641,1.26362033 13.8534641,2 C13.8534641,2.08780265 13.8447911,2.1753906 13.8275716,2.26148818 L12.6537205,8.13074409 L11.3462795,7.86925591 L12.5201307,2 L3.47986927,2 L4.65372045,7.86925591 L3.34627955,8.13074409 L2.17242837,2.26148818 C2.02801243,1.53940851 2.49630142,0.836975033 3.21838109,0.692559099 C3.30447867,0.675339583 3.39206662,0.666666667 3.47986927,0.666666667 L12.5201307,0.666666667 Z" id="路径-61" fill="#999999" fill-rule="nonzero"></path>
        <polygon id="路径-62" fill="#979797" fill-rule="nonzero" points="6.66666667 5.33333333 6.66666667 1.33333333 5.33333333 1.33333333 5.33333333 5.33333333"></polygon>
        <polygon id="路径-62备份" fill="#979797" fill-rule="nonzero" points="10.6666667 5.33333333 10.6666667 1.33333333 9.33333333 1.33333333 9.33333333 5.33333333"></polygon>
    </g>
</svg>