<?xml version="1.0" encoding="UTF-8"?>
<svg width="16px" height="16px" viewBox="0 0 16 16" version="1.1" xmlns="http://www.w3.org/2000/svg" xmlns:xlink="http://www.w3.org/1999/xlink">
    <title>icon/面性/el-icon-s-marketing</title>
    <g id="icon/面性/el-icon-s-marketing" stroke="none" stroke-width="1" fill="none" fill-rule="evenodd">
        <path d="M13.3333333,2 C14.069713,2 14.6666667,2.59695367 14.6666667,3.33333333 L14.6666667,12.6666667 C14.6666667,13.4030463 14.069713,14 13.3333333,14 L2.66666667,14 C1.930287,14 1.33333333,13.4030463 1.33333333,12.6666667 L1.33333333,3.33333333 C1.33333333,2.59695367 1.930287,2 2.66666667,2 L13.3333333,2 Z M12.2057805,5.19526215 L8.88785166,8.51333333 L7.04332635,6.66894636 C6.80300371,6.42862372 6.42484968,6.41013736 6.1633222,6.61348729 L6.10051731,6.66894636 L3.19526215,9.57420152 C2.93491262,9.83455105 2.93491262,10.256661 3.19526215,10.5170106 C3.45561167,10.7773601 3.87772166,10.7773601 4.13807119,10.5170106 L6.57185166,8.08333333 L8.41630679,9.92754487 C8.65662943,10.1678675 9.03478347,10.1863539 9.29631094,9.98300394 L9.35911583,9.92754487 L13.1485895,6.13807119 C13.408939,5.87772166 13.408939,5.45561167 13.1485895,5.19526215 C12.88824,4.93491262 12.46613,4.93491262 12.2057805,5.19526215 Z" id="形状结合" fill="#999999"></path>
    </g>
</svg>