<?xml version="1.0" encoding="UTF-8"?>
<svg width="16px" height="16px" viewBox="0 0 16 16" version="1.1" xmlns="http://www.w3.org/2000/svg" xmlns:xlink="http://www.w3.org/1999/xlink">
    <title>icon/通用类/icon-general-line-subscribeadd</title>
    <g id="icon/通用类/icon-general-line-subscribeadd" stroke="none" stroke-width="1" fill="none" fill-rule="evenodd">
        <path d="M10.7353,3.0076 C10.7353,3.0076 10.7353,1.33333333 10.7353,1.33333333 C10.7353,1.33333333 12.0686333,1.33333333 12.0686333,1.33333333 C12.0686333,1.33333333 12.0686333,3.0076 12.0686333,3.0076 C12.0686333,3.0076 13.6666667,3.0076 13.6666667,3.0076 C13.6666667,3.0076 13.6666667,4.34093333 13.6666667,4.34093333 C13.6666667,4.34093333 12.0686333,4.34093333 12.0686333,4.34093333 C12.0686333,4.34093333 12.0686333,6.0152 12.0686333,6.0152 C12.0686333,6.0152 10.7353,6.0152 10.7353,6.0152 C10.7353,6.0152 10.7353,4.34093333 10.7353,4.34093333 C10.7353,4.34093333 9.13726667,4.34093333 9.13726667,4.34093333 C9.13726667,4.34093333 9.13726667,3.0076 9.13726667,3.0076 C9.13726667,3.0076 10.7353,3.0076 10.7353,3.0076 C10.7353,3.0076 10.7353,3.0076 10.7353,3.0076 Z M3.66666667,2.66883667 C3.66666667,2.66883667 8.17646667,2.66883667 8.17646667,2.66883667 C8.17646667,2.66883667 8.17646667,1.33550437 8.17646667,1.33550437 C8.17646667,1.33550437 3.32353,1.33550437 3.32353,1.33550437 C2.75603,1.33550437 2.33333333,1.80468 2.33333333,2.33659 C2.33333333,2.33659 2.33333333,13.9330333 2.33333333,13.9330333 C2.33333333,14.4450667 2.88039,14.8535 3.39973333,14.5851 C3.39973333,14.5851 8.1658,12.1218333 8.1658,12.1218333 C8.1658,12.1218333 12.6115333,14.5807667 12.6115333,14.5807667 C12.6115333,14.5807667 12.6198667,14.5851 12.6198667,14.5851 C13.1392,14.8535 13.6862667,14.4450667 13.6862667,13.9330333 C13.6862667,13.9330333 13.6862667,7.35286667 13.6862667,7.35286667 C13.6862667,7.35286667 12.3529333,7.35286667 12.3529333,7.35286667 C12.3529333,7.35286667 12.3529333,12.9140667 12.3529333,12.9140667 C12.3529333,12.9140667 8.18713333,10.6099333 8.18713333,10.6099333 C8.18713333,10.6099333 3.66666667,12.9462667 3.66666667,12.9462667 C3.66666667,12.9462667 3.66666667,2.66883667 3.66666667,2.66883667 C3.66666667,2.66883667 3.66666667,2.66883667 3.66666667,2.66883667 Z" id="形状" fill="#999999"></path>
    </g>
</svg>