<?xml version="1.0" encoding="UTF-8"?>
<svg width="16px" height="16px" viewBox="0 0 16 16" version="1.1" xmlns="http://www.w3.org/2000/svg" xmlns:xlink="http://www.w3.org/1999/xlink">
    <title>icon/通用类/el-icon-timer</title>
    <g id="icon/通用类/el-icon-timer" stroke="none" stroke-width="1" fill="none" fill-rule="evenodd">
        <path d="M8,3.33333333 C11.3137085,3.33333333 14,6.01962483 14,9.33333333 C14,12.6470418 11.3137085,15.3333333 8,15.3333333 C4.6862915,15.3333333 2,12.6470418 2,9.33333333 C2,6.01962483 4.6862915,3.33333333 8,3.33333333 Z M8,4.66666667 C5.42267117,4.66666667 3.33333333,6.7560045 3.33333333,9.33333333 C3.33333333,11.9106622 5.42267117,14 8,14 C10.5773288,14 12.6666667,11.9106622 12.6666667,9.33333333 C12.6666667,6.7560045 10.5773288,4.66666667 8,4.66666667 Z" id="椭圆形" fill="#999999" fill-rule="nonzero"></path>
        <rect id="矩形" fill="#999999" x="7.33333333" y="2" width="1.33333333" height="2"></rect>
        <rect id="矩形" fill="#999999" x="6" y="0.666666667" width="4" height="1.33333333"></rect>
        <polygon id="路径-66" fill="#999999" fill-rule="nonzero" points="8.66666667 6.66666667 8.66666667 8.66666667 10.6666667 8.66666667 10.6666667 10 7.33333333 10 7.33333333 6.66666667"></polygon>
    </g>
</svg>