<?xml version="1.0" encoding="UTF-8"?>
<svg width="16px" height="16px" viewBox="0 0 16 16" version="1.1" xmlns="http://www.w3.org/2000/svg" xmlns:xlink="http://www.w3.org/1999/xlink">
    <title>icon/通用类/icon-general-line-tool</title>
    <g id="icon/通用类/icon-general-line-tool" stroke="none" stroke-width="1" fill="none" fill-rule="evenodd">
        <path d="M9.87101395,2.94943858 C9.87101395,2.94943858 9.87101395,4.86986094 9.87101395,4.86986094 C9.87101395,5.40003693 9.44122196,5.82986093 8.91101397,5.82986093 C8.91101397,5.82986093 6.991014,5.82986093 6.991014,5.82986093 C6.46082201,5.82986093 6.03101402,5.40003693 6.03101402,4.86986094 C6.03101402,4.86986094 6.03101402,2.94943858 6.03101402,2.94943858 C5.25339163,3.53357297 4.75101404,4.46352495 4.75101404,5.50986093 C4.75101404,6.90214891 5.64055642,8.08832489 6.884294,8.52794088 C6.884294,8.52794088 7.311014,8.67875688 7.311014,8.67875688 C7.311014,8.67875688 7.311014,13.5098608 7.311014,13.5098608 C7.311014,13.5098608 8.59101397,13.5098608 8.59101397,13.5098608 C8.59101397,13.5098608 8.59101397,8.67875688 8.59101397,8.67875688 C8.59101397,8.67875688 9.01773397,8.52794088 9.01773397,8.52794088 C10.2614779,8.08832489 11.1510139,6.90214891 11.1510139,5.50986093 C11.1510139,4.46352495 10.6486459,3.53357617 9.87101395,2.94943858 C9.87101395,2.94943858 9.87101395,2.94943858 9.87101395,2.94943858 Z M8.59101397,1.93360499 C8.59101397,1.47056212 9.05194197,1.14066037 9.49408596,1.30286964 C11.2071099,1.93135219 12.4310139,3.57686257 12.4310139,5.50986093 C12.4310139,7.2977969 11.3839099,8.83981288 9.87101395,9.55853286 C9.87101395,9.55853286 9.87101395,13.8298608 9.87101395,13.8298608 C9.87101395,14.3600368 9.44122196,14.7898608 8.91101397,14.7898608 C8.91101397,14.7898608 6.991014,14.7898608 6.991014,14.7898608 C6.46082201,14.7898608 6.03101402,14.3600368 6.03101402,13.8298608 C6.03101402,13.8298608 6.03101402,9.55853286 6.03101402,9.55853286 C4.51810844,8.83981288 3.47101406,7.2977969 3.47101406,5.50986093 C3.47101406,3.57686257 4.69490844,1.93135219 6.40794521,1.30286932 C6.850054,1.14066581 7.311014,1.47054516 7.311014,1.93360499 C7.311014,1.93360499 7.311014,4.54986095 7.311014,4.54986095 C7.311014,4.54986095 8.59101397,4.54986095 8.59101397,4.54986095 C8.59101397,4.54986095 8.59101397,1.93360499 8.59101397,1.93360499 C8.59101397,1.93360499 8.59101397,1.93360499 8.59101397,1.93360499 Z" id="形状" fill="#999999" transform="translate(7.951, 8.0254) rotate(45) translate(-7.951, -8.0254)"></path>
    </g>
</svg>