<?xml version="1.0" encoding="UTF-8"?>
<svg width="16px" height="16px" viewBox="0 0 16 16" version="1.1" xmlns="http://www.w3.org/2000/svg" xmlns:xlink="http://www.w3.org/1999/xlink">
    <title>icon/通用类/el-icon-box</title>
    <g id="icon/通用类/el-icon-box" stroke="none" stroke-width="1" fill="none" fill-rule="evenodd">
        <path d="M11.6609314,1.33333333 C12.5538922,1.33333333 13.3386642,1.92528796 13.5839793,2.78389108 L14.6666667,6 L14.6666667,13.3333333 C14.6666667,14.069713 14.069713,14.6666667 13.3333333,14.6666667 L2.66666667,14.6666667 C1.930287,14.6666667 1.33333333,14.069713 1.33333333,13.3333333 L1.33333333,6 L2.41602066,2.78389108 C2.66133583,1.92528796 3.44610783,1.33333333 4.33906855,1.33333333 L11.6609314,1.33333333 Z M7.33233333,7.33233333 L2.66666667,7.33333333 L2.66666667,13.3333333 L13.3333333,13.3333333 L13.3333333,7.33333333 L8.66633333,7.33233333 L8.66666667,10 L7.33333333,10 L7.33233333,7.33233333 Z M11.6609314,2.66666667 L8.66633333,2.66633333 L8.66633333,5.99933333 L13.2943333,5.99933333 L12.3019474,3.15018591 C12.2201757,2.86398488 11.958585,2.66666667 11.6609314,2.66666667 Z M7.33233333,2.66633333 L4.33906855,2.66666667 C4.04141498,2.66666667 3.77982431,2.86398488 3.69805259,3.15018591 L2.70433333,5.99933333 L7.33233333,5.99933333 L7.33233333,2.66633333 Z" id="形状结合" fill="#979797" fill-rule="nonzero"></path>
    </g>
</svg>