<?xml version="1.0" encoding="UTF-8"?>
<svg width="16px" height="16px" viewBox="0 0 16 16" version="1.1" xmlns="http://www.w3.org/2000/svg" xmlns:xlink="http://www.w3.org/1999/xlink">
    <title>icon/编辑类/icon-edit-line-quote</title>
    <g id="icon/编辑类/icon-edit-line-quote" stroke="none" stroke-width="1" fill="none" fill-rule="evenodd">
        <path d="M3.33246669,5.6965334 C3.00494669,6.51036673 2.82325002,7.44056673 2.73532335,8.3396334 C3.12922335,8.13880006 3.57479002,8.03096673 4.02650335,8.03096673 C5.49926668,8.03096673 6.69316668,9.22490006 6.69316668,10.6976334 C6.69316668,12.1704001 5.49926668,13.3643001 4.02650335,13.3643001 C2.56066335,13.3643001 1.37106236,12.1816001 1.35991636,10.7184001 C1.27604702,9.26226673 1.35728726,7.03320006 2.09553669,5.1987534 C2.46917002,4.27031674 3.02855669,3.3994134 3.86308335,2.79755674 C4.71116668,2.18592641 5.78566668,1.89422641 7.09750001,2.03477307 C7.09750001,2.03477307 6.95543335,3.36052007 6.95543335,3.36052007 C5.93393335,3.25107341 5.19596668,3.48020674 4.64300668,3.87899007 C4.07650335,4.28755007 3.64632002,4.91664007 3.33246669,5.6965334 C3.33246669,5.6965334 3.33246669,5.6965334 3.33246669,5.6965334 Z M10.3324667,5.6965334 C10.0049333,6.51036673 9.82323334,7.44056673 9.73533334,8.3396334 C10.1292333,8.13880006 10.5748,8.03096673 11.0265,8.03096673 C12.4992667,8.03096673 13.6931667,9.22490006 13.6931667,10.6976334 C13.6931667,12.1704001 12.4992667,13.3643001 11.0265,13.3643001 C9.56066667,13.3643001 8.37106668,12.1816001 8.35990001,10.7184001 C8.27603334,9.26226673 8.35730001,7.03320006 9.09553334,5.1987534 C9.46916668,4.27031674 10.0285667,3.3994134 10.8631,2.79755674 C11.7111667,2.18592641 12.7856667,1.89422641 14.0975,2.03477307 C14.0975,2.03477307 13.9554333,3.36052007 13.9554333,3.36052007 C12.9339333,3.25107341 12.1959667,3.48020674 11.643,3.87899007 C11.0765,4.28755007 10.6463333,4.91664007 10.3324667,5.6965334 C10.3324667,5.6965334 10.3324667,5.6965334 10.3324667,5.6965334 Z" id="形状" fill="#999999"></path>
    </g>
</svg>