<?xml version="1.0" encoding="UTF-8"?>
<svg width="16px" height="16px" viewBox="0 0 16 16" version="1.1" xmlns="http://www.w3.org/2000/svg" xmlns:xlink="http://www.w3.org/1999/xlink">
    <title>icon/编辑类/el-icon-sort</title>
    <g id="icon/编辑类/el-icon-sort" stroke="none" stroke-width="1" fill="none" fill-rule="evenodd">
        <path d="M11.3353336,2 C11.3353336,2 10.3925336,2.94281 10.3925336,2.94281 C10.3925336,2.94281 12.5286,5.33333667 12.5286,5.33333667 C12.5286,5.33333667 1.4714,5.33333667 1.4714,5.33333667 C1.4714,5.33333667 1.4714,6.66666667 1.4714,6.66666667 C1.4714,6.66666667 13.3333333,6.66666667 13.3333333,6.66666667 C14.2242333,6.66666667 14.6704,5.58953333 14.0404333,4.95956333 C14.0404333,4.95956333 11.3353336,2 11.3353336,2 Z M4.3925303,14.2761333 C4.3925303,14.2761333 5.33533363,13.3333333 5.33533363,13.3333333 C5.33533363,13.3333333 3.27614333,11 3.27614333,11 C3.27614333,11 14.3333333,11 14.3333333,11 C14.3333333,11 14.3333333,9.66666667 14.3333333,9.66666667 C14.3333333,9.66666667 2.47140667,9.66666667 2.47140667,9.66666667 C1.58050467,9.66666667 1.13433,10.7438 1.764298,11.3737667 C1.764298,11.3737667 4.3925303,14.2761333 4.3925303,14.2761333 Z" id="形状" fill="#999999" transform="translate(7.9024, 8.1381) rotate(-270) translate(-7.9024, -8.1381)"></path>
    </g>
</svg>