<?xml version="1.0" encoding="UTF-8"?>
<svg width="16px" height="16px" viewBox="0 0 16 16" version="1.1" xmlns="http://www.w3.org/2000/svg" xmlns:xlink="http://www.w3.org/1999/xlink">
    <title>icon/通用类/el-icon-lock</title>
    <g id="icon/通用类/el-icon-lock" stroke="none" stroke-width="1" fill="none" fill-rule="evenodd">
        <path d="M5,4.66666667 C5,2.82571667 6.4924,1.33333333 8.33333333,1.33333333 C10.1742667,1.33333333 11.6666667,2.82571667 11.6666667,4.66666667 C11.6666667,4.66666667 11.6666667,5 11.6666667,5 C11.6666667,5 13.3333333,5 13.3333333,5 C14.0697,5 14.6666667,5.59696667 14.6666667,6.33333333 C14.6666667,6.33333333 14.6666667,13 14.6666667,13 C14.6666667,13.7363667 14.0697,14.3333333 13.3333333,14.3333333 C13.3333333,14.3333333 3.33333333,14.3333333 3.33333333,14.3333333 C2.59695333,14.3333333 2,13.7363667 2,13 C2,13 2,6.33333333 2,6.33333333 C2,5.59696667 2.59695333,5 3.33333333,5 C3.33333333,5 5,5 5,5 C5,5 5,4.66666667 5,4.66666667 C5,4.66666667 5,4.66666667 5,4.66666667 Z M6.33333333,5 C6.33333333,5 10.3333333,5 10.3333333,5 C10.3333333,5 10.3333333,4.66666667 10.3333333,4.66666667 C10.3333333,3.56209667 9.4379,2.66666667 8.33333333,2.66666667 C7.22876667,2.66666667 6.33333333,3.56209667 6.33333333,4.66666667 C6.33333333,4.66666667 6.33333333,5 6.33333333,5 C6.33333333,5 6.33333333,5 6.33333333,5 Z M3.33333333,6.33333333 C3.33333333,6.33333333 3.33333333,13 3.33333333,13 C3.33333333,13 13.3333333,13 13.3333333,13 C13.3333333,13 13.3333333,6.33333333 13.3333333,6.33333333 C13.3333333,6.33333333 3.33333333,6.33333333 3.33333333,6.33333333 C3.33333333,6.33333333 3.33333333,6.33333333 3.33333333,6.33333333 Z M8.33333333,9 C7.96513333,9 7.66666667,9.29846667 7.66666667,9.66666667 C7.66666667,10.0348667 7.96513333,10.3333333 8.33333333,10.3333333 C8.70153333,10.3333333 9,10.0348667 9,9.66666667 C9,9.29846667 8.70153333,9 8.33333333,9 C8.33333333,9 8.33333333,9 8.33333333,9 Z M6.33333333,9.66666667 C6.33333333,8.5621 7.22876667,7.66666667 8.33333333,7.66666667 C9.4379,7.66666667 10.3333333,8.5621 10.3333333,9.66666667 C10.3333333,10.7712333 9.4379,11.6666667 8.33333333,11.6666667 C7.22876667,11.6666667 6.33333333,10.7712333 6.33333333,9.66666667 C6.33333333,9.66666667 6.33333333,9.66666667 6.33333333,9.66666667 Z" id="形状" fill="#999999"></path>
    </g>
</svg>