<?xml version="1.0" encoding="UTF-8"?>
<svg width="16px" height="16px" viewBox="0 0 16 16" version="1.1" xmlns="http://www.w3.org/2000/svg" xmlns:xlink="http://www.w3.org/1999/xlink">
    <title>icon/面性/el-icon-s-open</title>
    <g id="icon/面性/el-icon-s-open" stroke="none" stroke-width="1" fill="none" fill-rule="evenodd">
        <polygon id="路径" fill="#999999" transform="translate(8, 4.3333) rotate(-90) translate(-8, -4.3333)" points="5 -1 11 -1.66666667 11 0.333333333 8.66666667 1 11 1.66666667 11 10.3333333 5 9.66666667"></polygon>
        <path d="M2.66666667,8.66666667 L13.3333333,8.66666667 L13.3333333,10 C13.3333333,10.7028955 12.7894151,11.2787756 12.0995083,11.3296761 L9.33333333,11.3333333 L9.33333333,13.3333333 C9.33333333,14.069713 8.73637967,14.6666667 8,14.6666667 C7.26362033,14.6666667 6.66666667,14.069713 6.66666667,13.3333333 L6.66666667,11.3333333 L4,11.3333333 C3.29710455,11.3333333 2.72122438,10.789403 2.6703239,10.0995066 L2.66666667,8.66666667 Z" id="路径备份" fill="#999999"></path>
    </g>
</svg>