<?xml version="1.0" encoding="UTF-8"?>
<svg width="16px" height="16px" viewBox="0 0 16 16" version="1.1" xmlns="http://www.w3.org/2000/svg" xmlns:xlink="http://www.w3.org/1999/xlink">
    <title>icon/编辑类/icon-edit-line-h5</title>
    <g id="icon/编辑类/icon-edit-line-h5" stroke="none" stroke-width="1" fill="none" fill-rule="evenodd">
        <path d="M2.66666667,2 C2.66666667,2 1.33333333,2 1.33333333,2 C1.33333333,2 1.33333333,14 1.33333333,14 C1.33333333,14 2.66666667,14 2.66666667,14 C2.66666667,14 2.66666667,8.66666667 2.66666667,8.66666667 C2.66666667,8.66666667 8,8.66666667 8,8.66666667 C8,8.66666667 8,14 8,14 C8,14 9.33333333,14 9.33333333,14 C9.33333333,14 9.33333333,2 9.33333333,2 C9.33333333,2 8,2 8,2 C8,2 8,7.33333333 8,7.33333333 C8,7.33333333 2.66666667,7.33333333 2.66666667,7.33333333 C2.66666667,7.33333333 2.66666667,2 2.66666667,2 C2.66666667,2 2.66666667,2 2.66666667,2 Z M14.3333333,6.33333333 C14.3333333,6.33333333 10.1666667,6.33333333 10.1666667,6.33333333 C10.1666667,6.33333333 10.1666667,10.6666667 10.1666667,10.6666667 C10.1666667,10.6666667 11.2018667,10.6666667 11.2018667,10.6666667 C11.2018667,10.6666667 11.3635333,10.5589 11.3635333,10.5589 C11.3635333,10.5589 11.3643,10.5584 11.3643,10.5584 C11.3694333,10.5553667 11.3812667,10.5485 11.3995333,10.5389667 C11.4361333,10.5198667 11.4978,10.4905 11.582,10.4598667 C11.7503333,10.3986333 12.0063667,10.3333333 12.3333333,10.3333333 C12.8856333,10.3333333 13.3333333,10.7810333 13.3333333,11.3333333 C13.3333333,11.3333333 13.3333333,11.6666667 13.3333333,11.6666667 C13.3333333,12.2189667 12.8856333,12.6666667 12.3333333,12.6666667 C12.1119,12.6666667 11.8222333,12.5960667 11.5633333,12.4620333 C11.2945667,12.3229 11.1547,12.1666333 11.1109,12.0664333 C11.1109,12.0664333 9.8891,12.6002333 9.8891,12.6002333 C10.1025,13.0886667 10.5375667,13.4324 10.9503,13.6461 C11.3729333,13.8649 11.8713333,14 12.3333333,14 C13.622,14 14.6666667,12.9553333 14.6666667,11.6666667 C14.6666667,11.6666667 14.6666667,11.3333333 14.6666667,11.3333333 C14.6666667,10.0446667 13.622,9 12.3333333,9 C12.0159,9 11.7360667,9.03983333 11.5,9.09553333 C11.5,9.09553333 11.5,7.66666667 11.5,7.66666667 C11.5,7.66666667 14.3333333,7.66666667 14.3333333,7.66666667 C14.3333333,7.66666667 14.3333333,6.33333333 14.3333333,6.33333333 C14.3333333,6.33333333 14.3333333,6.33333333 14.3333333,6.33333333 Z" id="形状" fill="#999999"></path>
    </g>
</svg>