<?xml version="1.0" encoding="UTF-8"?>
<svg width="16px" height="16px" viewBox="0 0 16 16" version="1.1" xmlns="http://www.w3.org/2000/svg" xmlns:xlink="http://www.w3.org/1999/xlink">
    <title>icon/通用类/icon-general-line-mindmapping</title>
    <g id="icon/通用类/icon-general-line-mindmapping" stroke="none" stroke-width="1" fill="none" fill-rule="evenodd">
        <path d="M2,4 C2,3.26362 2.59695333,2.66666667 3.33333333,2.66666667 C4.06971333,2.66666667 4.66666667,3.26362 4.66666667,4 C4.66666667,4.49352 4.39853333,4.92441667 4,5.15495667 C4,5.15495667 4,8 4,8 C4,8 5.66666667,8 5.66666667,8 C5.66666667,8 5.66666667,9.33333333 5.66666667,9.33333333 C5.66666667,9.33333333 4,9.33333333 4,9.33333333 C4,9.33333333 4,12.6666667 4,12.6666667 C4,12.6666667 5.66666667,12.6666667 5.66666667,12.6666667 C5.66666667,12.6666667 5.66666667,14 5.66666667,14 C5.66666667,14 2.66666667,14 2.66666667,14 C2.66666667,14 2.66666667,5.15495667 2.66666667,5.15495667 C2.26813233,4.92441667 2,4.49352 2,4 C2,4 2,4 2,4 Z M14.6666667,4.66666667 C14.6666667,4.66666667 7,4.66666667 7,4.66666667 C7,4.66666667 7,3.33333333 7,3.33333333 C7,3.33333333 14.6666667,3.33333333 14.6666667,3.33333333 C14.6666667,3.33333333 14.6666667,4.66666667 14.6666667,4.66666667 C14.6666667,4.66666667 14.6666667,4.66666667 14.6666667,4.66666667 Z M14.6666667,9.33333333 C14.6666667,9.33333333 7,9.33333333 7,9.33333333 C7,9.33333333 7,8 7,8 C7,8 14.6666667,8 14.6666667,8 C14.6666667,8 14.6666667,9.33333333 14.6666667,9.33333333 C14.6666667,9.33333333 14.6666667,9.33333333 14.6666667,9.33333333 Z M14.6666667,14 C14.6666667,14 7,14 7,14 C7,14 7,12.6666667 7,12.6666667 C7,12.6666667 14.6666667,12.6666667 14.6666667,12.6666667 C14.6666667,12.6666667 14.6666667,14 14.6666667,14 C14.6666667,14 14.6666667,14 14.6666667,14 Z" id="形状" fill="#999999"></path>
    </g>
</svg>