<?xml version="1.0" encoding="UTF-8"?>
<svg width="16px" height="16px" viewBox="0 0 16 16" version="1.1" xmlns="http://www.w3.org/2000/svg" xmlns:xlink="http://www.w3.org/1999/xlink">
    <title>icon/天气类/el-icon-sunrise-1</title>
    <g id="icon/天气类/el-icon-sunrise-1" stroke="none" stroke-width="1" fill="none" fill-rule="evenodd">
        <rect id="矩形" fill="#999999" x="1.33333333" y="10.6666667" width="13.3333333" height="1.33333333"></rect>
        <rect id="矩形备份-3" fill="#999999" x="4" y="13.3333333" width="8" height="1.33333333"></rect>
        <path d="M8,4 C10.9455187,4 13.3333333,6.38781467 13.3333333,9.33333333 L12,9.33333333 C12,7.12419433 10.209139,5.33333333 8,5.33333333 C5.790861,5.33333333 4,7.12419433 4,9.33333333 L2.66666667,9.33333333 C2.66666667,6.38781467 5.05448133,4 8,4 Z" id="形状结合" fill="#999999" fill-rule="nonzero"></path>
        <rect id="矩形" fill="#999999" x="7.33333333" y="0.666666667" width="1.33333333" height="2"></rect>
        <polygon id="矩形备份" fill="#999999" transform="translate(12.6667, 3.6667) rotate(-315) translate(-12.6667, -3.6667)" points="12 2.66666667 13.3333333 2.66666667 13.3333333 4.66666667 12 4.66666667"></polygon>
        <polygon id="矩形备份-2" fill="#999999" transform="translate(3.3333, 3.6667) scale(-1, 1) rotate(-315) translate(-3.3333, -3.6667)" points="2.66666667 2.66666667 4 2.66666667 4 4.66666667 2.66666667 4.66666667"></polygon>
    </g>
</svg>