<?xml version="1.0" encoding="UTF-8"?>
<svg width="16px" height="16px" viewBox="0 0 16 16" version="1.1" xmlns="http://www.w3.org/2000/svg" xmlns:xlink="http://www.w3.org/1999/xlink">
    <title>icon/编辑类/icon-edit-line-redo</title>
    <g id="icon/编辑类/icon-edit-line-redo" stroke="none" stroke-width="1" fill="none" fill-rule="evenodd">
        <path d="M11.3639681,1.6032265 C11.3639681,1.6032265 14.4281014,4.66734984 14.4281014,4.66734984 C14.4281014,4.66734984 11.3639681,7.73149317 11.3639681,7.73149317 C11.3639681,7.73149317 10.4211348,6.78865984 10.4211348,6.78865984 C10.4211348,6.78865984 11.8765014,5.3333265 11.8765014,5.3333265 C11.8765014,5.3333265 6.1666681,5.3333265 6.1666681,5.3333265 C4.41776476,5.3333265 3.00000143,6.75109317 3.00000143,8.49999317 C3.00000143,10.2488932 4.4177681,11.6666598 6.1666681,11.6666598 C6.1666681,11.6666598 10.3333348,11.6666598 10.3333348,11.6666598 C10.3333348,11.6666598 10.3333348,12.9999932 10.3333348,12.9999932 C10.3333348,12.9999932 6.1666681,12.9999932 6.1666681,12.9999932 C3.6813881,12.9999932 1.6666681,10.9852598 1.6666681,8.49999317 C1.6666681,6.0147265 3.68138476,3.99999317 6.1666681,3.99999317 C6.1666681,3.99999317 11.8751014,3.99999317 11.8751014,3.99999317 C11.8751014,3.99999317 10.4211348,2.5460365 10.4211348,2.5460365 C10.4211348,2.5460365 11.3639681,1.6032265 11.3639681,1.6032265 C11.3639681,1.6032265 11.3639681,1.6032265 11.3639681,1.6032265 Z" id="路径" fill="#999999"></path>
    </g>
</svg>