<?xml version="1.0" encoding="UTF-8"?>
<svg width="16px" height="16px" viewBox="0 0 16 16" version="1.1" xmlns="http://www.w3.org/2000/svg" xmlns:xlink="http://www.w3.org/1999/xlink">
    <title>icon/面性/icon-basic-file-imgerror</title>
    <g id="icon/面性/icon-basic-file-imgerror" stroke="none" stroke-width="1" fill="none" fill-rule="evenodd">
        <path d="M14.3449969,2.02336614 C14.7403969,2.02336614 15.0642969,2.32932014 15.0928969,2.71739314 L15.0949969,2.77336614 L15.0958382,8.58251383 C14.4918509,8.2164116 13.783224,8.00565326 13.0253719,8.00565326 C12.7052533,8.00565326 12.3939176,8.04325758 12.0955413,8.1142898 L12.0949969,5.86950993 C12.0949969,5.78994993 12.0633969,5.71363993 12.0070969,5.65737993 C11.8899969,5.54021993 11.6999969,5.54021993 11.5828969,5.65737993 L7.78962686,9.45024993 L6.35955686,8.02006993 C6.24239686,7.90290993 6.05245686,7.90290993 5.93529686,8.02006993 L2.83568686,11.1196499 C2.79362686,11.1617499 2.76993686,11.2187499 2.76978624,11.2782499 C2.76949686,11.4024499 2.86998686,11.5034499 2.99424686,11.5037499 L6.20264686,11.5120499 C6.22190686,11.5173499 6.24221686,11.5202499 6.26319686,11.5202499 L9.05462972,11.5193918 C9.03531375,11.6787784 9.0253719,11.8410548 9.0253719,12.0056533 C9.0253719,12.5415891 9.13077208,13.0529073 9.32197461,13.5200103 L0.844996862,13.5202499 C0.449610862,13.5202499 0.125684862,13.2142499 0.0970539421,12.8262499 L0.0949968621,12.7702499 L0.0949968621,2.77336614 C0.0949968621,2.37798014 0.400950862,2.05405414 0.789023862,2.02542322 L0.844996862,2.02336614 L14.3449969,2.02336614 Z M5.34499686,4.52024993 L3.09499686,4.52024993 L3.09499686,6.77024993 L5.34499686,6.77024993 L5.34499686,4.52024993 Z" id="形状结合" fill="#999999"></path>
        <g id="编组" transform="translate(10, 9)" fill="#999999">
            <path d="M3,0 C4.65686667,0 6,1.34314667 6,3 C6,4.65686667 4.65686667,6 3,6 C1.34314667,6 0,4.65686667 0,3 C0,1.34314667 1.34314667,0 3,0 Z M2.2583509,1.76143857 C2.18512843,1.68821513 2.06640985,1.68821513 1.99318662,1.76143857 L1.76116745,1.99345772 C1.68794404,2.06668094 1.68794404,2.18539839 1.76116745,2.25862086 L2.50649957,3.00412429 L1.76116745,3.74990521 C1.68794404,3.82312768 1.68794404,3.94184513 1.76116745,4.0150676 L1.99318662,4.2470875 C2.06640985,4.32031372 2.18512843,4.32031372 2.2583509,4.2470875 L3.00374939,3.50137407 L3.74990538,4.24736125 C3.82312786,4.32058372 3.94184532,4.32058372 4.01506779,4.24736125 L4.24708771,4.01534135 C4.32031393,3.94211888 4.32031393,3.82339768 4.24708771,3.75017521 L3.50099922,3.00412429 L4.24708771,2.25835086 C4.32031393,2.18512839 4.32031393,2.06640982 4.24708771,1.9931866 L4.01506779,1.76116745 C3.94184532,1.68794404 3.82312786,1.68794404 3.74990538,1.76116745 L3.00374939,2.5068745 Z" id="形状结合"></path>
        </g>
    </g>
</svg>