<?xml version="1.0" encoding="UTF-8"?>
<svg width="16px" height="16px" viewBox="0 0 16 16" version="1.1" xmlns="http://www.w3.org/2000/svg" xmlns:xlink="http://www.w3.org/1999/xlink">
    <title>icon/面性/icon-basic-file-exclamationpolygon</title>
    <g id="icon/面性/icon-basic-file-exclamationpolygon" stroke="none" stroke-width="1" fill="none" fill-rule="evenodd">
        <path d="M5.03843333,1.33333333 C5.03843333,1.33333333 10.9615667,1.33333333 10.9615667,1.33333333 C10.9615667,1.33333333 14.6666667,5.40893333 14.6666667,5.40893333 C14.6666667,5.40893333 14.6666667,10.5910667 14.6666667,10.5910667 C14.6666667,10.5910667 10.9615667,14.6666667 10.9615667,14.6666667 C10.9615667,14.6666667 5.03843333,14.6666667 5.03843333,14.6666667 C5.03843333,14.6666667 1.33333333,10.5910667 1.33333333,10.5910667 C1.33333333,10.5910667 1.33333333,5.40893333 1.33333333,5.40893333 C1.33333333,5.40893333 5.03843333,1.33333333 5.03843333,1.33333333 C5.03843333,1.33333333 5.03843333,1.33333333 5.03843333,1.33333333 Z M7.33333333,10 C7.33333333,10 7.33333333,11.3333333 7.33333333,11.3333333 C7.33333333,11.3333333 8.66666667,11.3333333 8.66666667,11.3333333 C8.66666667,11.3333333 8.66666667,10 8.66666667,10 C8.66666667,10 7.33333333,10 7.33333333,10 C7.33333333,10 7.33333333,10 7.33333333,10 Z M8.66666667,9.33333333 C8.66666667,9.33333333 8.66666667,4.66666667 8.66666667,4.66666667 C8.66666667,4.66666667 7.33333333,4.66666667 7.33333333,4.66666667 C7.33333333,4.66666667 7.33333333,9.33333333 7.33333333,9.33333333 C7.33333333,9.33333333 8.66666667,9.33333333 8.66666667,9.33333333 C8.66666667,9.33333333 8.66666667,9.33333333 8.66666667,9.33333333 Z" id="形状" fill="#999999"></path>
    </g>
</svg>