<?xml version="1.0" encoding="UTF-8"?>
<svg width="16px" height="16px" viewBox="0 0 16 16" version="1.1" xmlns="http://www.w3.org/2000/svg" xmlns:xlink="http://www.w3.org/1999/xlink">
    <title>icon/基础类/el-icon-d-arrow-right</title>
    <g id="icon/基础类/el-icon-d-arrow-right" stroke="none" stroke-width="1" fill="none" fill-rule="evenodd">
        <path d="M3.09763333,3.84517667 C3.09763333,3.84517667 4.04044333,2.90236667 4.04044333,2.90236667 C4.04044333,2.90236667 8.28306667,7.145 8.28306667,7.145 C8.28306667,7.145 12.5257333,2.90236667 12.5257333,2.90236667 C12.5257333,2.90236667 13.4685333,3.84517667 13.4685333,3.84517667 C13.4685333,3.84517667 8.28306667,9.03063333 8.28306667,9.03063333 C8.28306667,9.03063333 3.09763333,3.84517667 3.09763333,3.84517667 C3.09763333,3.84517667 3.09763333,3.84517667 3.09763333,3.84517667 Z M3.09763333,7.6164 C3.09763333,7.6164 4.04044333,6.6736 4.04044333,6.6736 C4.04044333,6.6736 8.28306667,10.9162333 8.28306667,10.9162333 C8.28306667,10.9162333 12.5257333,6.6736 12.5257333,6.6736 C12.5257333,6.6736 13.4685333,7.6164 13.4685333,7.6164 C13.4685333,7.6164 8.28306667,12.8018667 8.28306667,12.8018667 C8.28306667,12.8018667 3.09763333,7.6164 3.09763333,7.6164 C3.09763333,7.6164 3.09763333,7.6164 3.09763333,7.6164 Z" id="形状" fill="#999999" transform="translate(8.2831, 7.8521) rotate(-90) translate(-8.2831, -7.8521)"></path>
    </g>
</svg>