<?xml version="1.0" encoding="UTF-8"?>
<svg width="16px" height="16px" viewBox="0 0 16 16" version="1.1" xmlns="http://www.w3.org/2000/svg" xmlns:xlink="http://www.w3.org/1999/xlink">
    <title>icon/面性/el-icon-picture</title>
    <g id="icon/面性/el-icon-picture" stroke="none" stroke-width="1" fill="none" fill-rule="evenodd">
        <path d="M14.75,2.00311621 C15.1454,2.00311621 15.4693,2.30907021 15.4979,2.69714321 L15.5,2.75311621 L15.5,12.75 C15.5,13.1454 15.194,13.4693 14.806,13.4979 L14.75,13.5 L1.25,13.5 C0.854614,13.5 0.530688,13.194 0.50205708,12.806 L0.5,12.75 L0.5,2.75311621 C0.5,2.35773021 0.805954,2.03380421 1.194027,2.00517329 L1.25,2.00311621 L14.75,2.00311621 Z M12.4121,5.63713 C12.295,5.51997 12.105,5.51997 11.9879,5.63713 L8.19463,9.43 L6.76456,7.99982 C6.6474,7.88266 6.45746,7.88266 6.3403,7.99982 L3.24069,11.0994 C3.19863,11.1415 3.17494,11.1985 3.17478937,11.258 C3.1745,11.3822 3.27499,11.4832 3.39925,11.4835 L6.60765,11.4918 C6.62691,11.4971 6.64722,11.5 6.6682,11.5 L12.275,11.5 C12.3993,11.5 12.5,11.3993 12.5,11.275 L12.5,5.84926 C12.5,5.7697 12.4684,5.69339 12.4121,5.63713 Z M5.75,4.5 L3.5,4.5 L3.5,6.75 L5.75,6.75 L5.75,4.5 Z" id="形状" fill="#999999"></path>
    </g>
</svg>