<?xml version="1.0" encoding="UTF-8"?>
<svg width="16px" height="16px" viewBox="0 0 16 16" version="1.1" xmlns="http://www.w3.org/2000/svg" xmlns:xlink="http://www.w3.org/1999/xlink">
    <title>icon/基础类/icon-basic-line-all</title>
    <g id="icon/基础类/icon-basic-line-all" stroke="none" stroke-width="1" fill="none" fill-rule="evenodd">
        <path d="M6,2 C6.73637967,2 7.33333333,2.59695367 7.33333333,3.33333333 L7.33333333,6 C7.33333333,6.73637967 6.73637967,7.33333333 6,7.33333333 L3.33333333,7.33333333 C2.59695367,7.33333333 2,6.73637967 2,6 L2,3.33333333 C2,2.59695367 2.59695367,2 3.33333333,2 L6,2 Z M6,3.33333333 L3.33333333,3.33333333 L3.33333333,6 L6,6 L6,3.33333333 Z M6,8.66666667 C6.73637967,8.66666667 7.33333333,9.26362033 7.33333333,10 L7.33333333,12.6666667 C7.33333333,13.4030463 6.73637967,14 6,14 L3.33333333,14 C2.59695367,14 2,13.4030463 2,12.6666667 L2,10 C2,9.26362033 2.59695367,8.66666667 3.33333333,8.66666667 L6,8.66666667 Z M6,10 L3.33333333,10 L3.33333333,12.6666667 L6,12.6666667 L6,10 Z M12.6666667,2 C13.4030463,2 14,2.59695367 14,3.33333333 L14,6 C14,6.73637967 13.4030463,7.33333333 12.6666667,7.33333333 L10,7.33333333 C9.26362033,7.33333333 8.66666667,6.73637967 8.66666667,6 L8.66666667,3.33333333 C8.66666667,2.59695367 9.26362033,2 10,2 L12.6666667,2 Z M12.6666667,3.33333333 L10,3.33333333 L10,6 L12.6666667,6 L12.6666667,3.33333333 Z M12.6666667,8.66666667 C13.4030463,8.66666667 14,9.26362033 14,10 L14,12.6666667 C14,13.4030463 13.4030463,14 12.6666667,14 L10,14 C9.26362033,14 8.66666667,13.4030463 8.66666667,12.6666667 L8.66666667,10 C8.66666667,9.26362033 9.26362033,8.66666667 10,8.66666667 L12.6666667,8.66666667 Z M12.6666667,10 L10,10 L10,12.6666667 L12.6666667,12.6666667 L12.6666667,10 Z" id="形状结合" fill="#999999"></path>
    </g>
</svg>