<?xml version="1.0" encoding="UTF-8"?>
<svg width="16px" height="16px" viewBox="0 0 16 16" version="1.1" xmlns="http://www.w3.org/2000/svg" xmlns:xlink="http://www.w3.org/1999/xlink">
    <title>icon/通用类/el-icon-notebook-1</title>
    <g id="icon/通用类/el-icon-notebook-1" stroke="none" stroke-width="1" fill="none" fill-rule="evenodd">
        <path d="M13.3333333,1.33333333 C14.069713,1.33333333 14.6666667,1.930287 14.6666667,2.66666667 L14.6666667,13.3333333 C14.6666667,14.069713 14.069713,14.6666667 13.3333333,14.6666667 L4,14.6666667 C3.26362033,14.6666667 2.66666667,14.069713 2.66666667,13.3333333 L2.66666667,2.66666667 C2.66666667,1.930287 3.26362033,1.33333333 4,1.33333333 L13.3333333,1.33333333 Z M13.3333333,2.66666667 L4,2.66666667 L4,13.3333333 L13.3333333,13.3333333 L13.3333333,2.66666667 Z" id="矩形" fill="#999999" fill-rule="nonzero"></path>
        <rect id="矩形" fill="#999999" x="1.33333333" y="4" width="4" height="1.33333333" rx="0.666666667"></rect>
        <rect id="矩形备份-2" fill="#999999" x="1.33333333" y="7.33333333" width="4" height="1.33333333" rx="0.666666667"></rect>
        <rect id="矩形备份-3" fill="#999999" x="1.33333333" y="10.6666667" width="4" height="1.33333333" rx="0.666666667"></rect>
        <path d="M10.6666667,1.33333333 C11.0348565,1.33333333 11.3333333,1.63181017 11.3333333,2 L11.3333333,13.3333333 C11.3333333,13.7015232 11.0348565,14 10.6666667,14 C10.2984768,14 10,13.7015232 10,13.3333333 L10,2 C10,1.63181017 10.2984768,1.33333333 10.6666667,1.33333333 Z" id="矩形备份" fill="#999999"></path>
    </g>
</svg>