<?xml version="1.0" encoding="UTF-8"?>
<svg width="16px" height="16px" viewBox="0 0 16 16" version="1.1" xmlns="http://www.w3.org/2000/svg" xmlns:xlink="http://www.w3.org/1999/xlink">
    <title>icon/通用类/icon-general-line-imageclose</title>
    <g id="icon/通用类/icon-general-line-imageclose" stroke="none" stroke-width="1" fill="none" fill-rule="evenodd">
        <path d="M1.33333333,2.66666667 C1.33333333,1.93028667 1.93028667,1.33333333 2.66666667,1.33333333 C2.66666667,1.33333333 12.6666667,1.33333333 12.6666667,1.33333333 C13.4030333,1.33333333 14,1.93028667 14,2.66666667 C14,2.66666667 14,9 14,9 C14,9 12.6666667,9 12.6666667,9 C12.6666667,9 12.6666667,2.66666667 12.6666667,2.66666667 C12.6666667,2.66666667 2.66666667,2.66666667 2.66666667,2.66666667 C2.66666667,2.66666667 2.66666667,12.6666667 2.66666667,12.6666667 C2.66666667,12.6666667 9,12.6666667 9,12.6666667 C9,12.6666667 9,14 9,14 C9,14 2.66666667,14 2.66666667,14 C1.93028667,14 1.33333333,13.4030333 1.33333333,12.6666667 C1.33333333,12.6666667 1.33333333,2.66666667 1.33333333,2.66666667 C1.33333333,2.66666667 1.33333333,2.66666667 1.33333333,2.66666667 Z M4,4 C4,4 6,4 6,4 C6,4 6,6 6,6 C6,6 4,6 4,6 C4,6 4,4 4,4 C4,4 4,4 4,4 Z M11.3333333,8.27613333 C11.3333333,8.27613333 8.9428,10.6666667 8.9428,10.6666667 C8.9428,10.6666667 3.72385667,10.6666667 3.72385667,10.6666667 C3.72385667,10.6666667 6.83333333,7.5572 6.83333333,7.5572 C6.83333333,7.5572 8.33333333,9.0572 8.33333333,9.0572 C8.33333333,9.0572 11.3333333,6.0572 11.3333333,6.0572 C11.3333333,6.0572 11.3333333,8.27613333 11.3333333,8.27613333 Z M9.75,12.25 C9.75,10.8693 10.8693,9.75 12.25,9.75 C13.6307,9.75 14.75,10.8693 14.75,12.25 C14.75,13.6307 13.6307,14.75 12.25,14.75 C10.8693,14.75 9.75,13.6307 9.75,12.25 C9.75,12.25 9.75,12.25 9.75,12.25 Z M11.5429,12.25 C11.5429,12.25 10.7179333,11.4250333 10.7179333,11.4250333 C10.7179333,11.4250333 11.4250333,10.7179333 11.4250333,10.7179333 C11.4250333,10.7179333 12.25,11.5429 12.25,11.5429 C12.25,11.5429 13.0749667,10.7179333 13.0749667,10.7179333 C13.0749667,10.7179333 13.7820667,11.4250333 13.7820667,11.4250333 C13.7820667,11.4250333 12.9571,12.25 12.9571,12.25 C12.9571,12.25 13.7820667,13.0749667 13.7820667,13.0749667 C13.7820667,13.0749667 13.0749667,13.7820667 13.0749667,13.7820667 C13.0749667,13.7820667 12.25,12.9571 12.25,12.9571 C12.25,12.9571 11.4250333,13.7820667 11.4250333,13.7820667 C11.4250333,13.7820667 10.7179333,13.0749667 10.7179333,13.0749667 C10.7179333,13.0749667 11.5429,12.25 11.5429,12.25 C11.5429,12.25 11.5429,12.25 11.5429,12.25 Z" id="形状" fill="#999999"></path>
    </g>
</svg>