<?xml version="1.0" encoding="UTF-8"?>
<svg width="16px" height="16px" viewBox="0 0 16 16" version="1.1" xmlns="http://www.w3.org/2000/svg" xmlns:xlink="http://www.w3.org/1999/xlink">
    <title>icon/面性/el-icon-s-order</title>
    <g id="icon/面性/el-icon-s-order" stroke="none" stroke-width="1" fill="none" fill-rule="evenodd">
        <path d="M4.66666667,2 C4.66666667,3.1045695 5.56209717,4 6.66666667,4 L9.33333333,4 C10.4379028,4 11.3333333,3.1045695 11.3333333,2 L12,2 C12.7363797,2 13.3333333,2.59695367 13.3333333,3.33333333 L13.3333333,13.3333333 C13.3333333,14.069713 12.7363797,14.6666667 12,14.6666667 L4,14.6666667 C3.26362033,14.6666667 2.66666667,14.069713 2.66666667,13.3333333 L2.66666667,3.33333333 C2.66666667,2.59695367 3.26362033,2 4,2 L4.66666667,2 Z M8.66666667,10 L5.33333333,10 C4.9651435,10 4.66666667,10.2984768 4.66666667,10.6666667 C4.66666667,11.0348565 4.9651435,11.3333333 5.33333333,11.3333333 L8.66666667,11.3333333 C9.0348565,11.3333333 9.33333333,11.0348565 9.33333333,10.6666667 C9.33333333,10.2984768 9.0348565,10 8.66666667,10 Z M10.6666667,6.66666667 L5.33333333,6.66666667 C4.9651435,6.66666667 4.66666667,6.9651435 4.66666667,7.33333333 C4.66666667,7.70152317 4.9651435,8 5.33333333,8 L10.6666667,8 C11.0348565,8 11.3333333,7.70152317 11.3333333,7.33333333 C11.3333333,6.9651435 11.0348565,6.66666667 10.6666667,6.66666667 Z M9.33156656,1.33333333 C9.69975639,1.33333333 9.99823323,1.63181017 9.99823323,2 C9.99823323,2.36818983 9.69975639,2.66666667 9.33156656,2.66666667 L6.66489989,2.66666667 C6.33018186,2.66666667 6.05307788,2.4199916 6.00546161,2.09851511 L5.99766667,1.99933333 L6.00546161,1.90148489 C6.05307788,1.5800084 6.33018186,1.33333333 6.66489989,1.33333333 L9.33156656,1.33333333 Z" id="形状结合" fill="#999999"></path>
    </g>
</svg>