<?xml version="1.0" encoding="UTF-8"?>
<svg width="16px" height="16px" viewBox="0 0 16 16" version="1.1" xmlns="http://www.w3.org/2000/svg" xmlns:xlink="http://www.w3.org/1999/xlink">
    <title>icon/通用类/icon-general-line-dice</title>
    <g id="icon/通用类/icon-general-line-dice" stroke="none" stroke-width="1" fill="none" fill-rule="evenodd">
        <path d="M2.00052897,3.16660563 C2.00052897,3.16660563 2,12.8333333 2,12.8333333 C2,13.4776667 2.52233333,14.000061 3.16666667,14.000061 C3.16666667,14.000061 12.8333333,14.000061 12.8333333,14.000061 C13.4776667,14.000061 14,13.4776667 14,12.8333333 C14,12.8333333 14.000529,3.16660563 14.000529,3.16660563 C14.000529,2.5222723 13.4781956,2 12.8338623,2 C12.8338623,2 3.16719564,2 3.16719564,2 C2.5228623,2 2.00052897,2.5222723 2.00052897,3.16660563 Z M3.3338623,3.33333333 C3.3338623,3.33333333 12.6671956,3.33333333 12.6671956,3.33333333 C12.6671956,3.33333333 12.6666667,12.6667277 12.6666667,12.6667277 C12.6666667,12.6667277 3.33333333,12.6667277 3.33333333,12.6667277 C3.33333333,12.6667277 3.3338623,3.33333333 3.3338623,3.33333333 Z M4.00000103,5.3333277 C4.00000103,6.0697277 4.59695436,6.66666104 5.3333377,6.66666104 C6.06970436,6.66666104 6.6666677,6.0697277 6.6666677,5.3333277 C6.6666677,4.59695437 6.06970436,4.00000104 5.3333377,4.00000104 C4.59695436,4.00000104 4.00000103,4.59695437 4.00000103,5.3333277 Z M8.00000436,6.66666104 C8.73637103,6.66666104 9.3333377,7.2636277 9.3333377,7.99999437 C9.3333377,8.73639437 8.73637103,9.3333277 8.00000436,9.3333277 C7.26360436,9.3333277 6.66667103,8.73639437 6.66667103,7.99999437 C6.66667103,7.2636277 7.26360436,6.66666104 8.00000436,6.66666104 Z M4.00000103,10.666661 C4.00000103,11.403061 4.59695436,11.9999944 5.3333377,11.9999944 C6.06970436,11.9999944 6.6666677,11.403061 6.6666677,10.666661 C6.6666677,9.93029437 6.06970436,9.3333277 5.3333377,9.3333277 C4.59695436,9.3333277 4.00000103,9.93029437 4.00000103,10.666661 Z M10.666671,4.00000104 C11.4030377,4.00000104 12.0000044,4.59695437 12.0000044,5.3333277 C12.0000044,6.0697277 11.4030377,6.66666104 10.666671,6.66666104 C9.93027103,6.66666104 9.3333377,6.0697277 9.3333377,5.3333277 C9.3333377,4.59695437 9.93027103,4.00000104 10.666671,4.00000104 Z M9.3333377,10.666661 C9.3333377,11.403061 9.93027103,11.9999944 10.666671,11.9999944 C11.4030377,11.9999944 12.0000044,11.403061 12.0000044,10.666661 C12.0000044,9.93029437 11.4030377,9.3333277 10.666671,9.3333277 C9.93027103,9.3333277 9.3333377,9.93029437 9.3333377,10.666661 Z" id="形状" fill="#999999"></path>
    </g>
</svg>