<?xml version="1.0" encoding="UTF-8"?>
<svg width="16px" height="16px" viewBox="0 0 16 16" version="1.1" xmlns="http://www.w3.org/2000/svg" xmlns:xlink="http://www.w3.org/1999/xlink">
    <title>icon/通用类/el-icon-mobile</title>
    <g id="icon/通用类/el-icon-mobile" stroke="none" stroke-width="1" fill="none" fill-rule="evenodd">
        <path d="M4,13.3333333 C4,13.3333333 4,2.66666667 4,2.66666667 C4,2.66666667 12.6666667,2.66666667 12.6666667,2.66666667 C12.6666667,2.66666667 12.6666667,13.3333333 12.6666667,13.3333333 C12.6666667,13.3333333 4,13.3333333 4,13.3333333 C4,13.3333333 4,13.3333333 4,13.3333333 Z M3.95833333,1.33333333 C3.20509,1.33333333 2.66666667,1.97147 2.66666667,2.66666667 C2.66666667,2.66666667 2.66666667,13.3333333 2.66666667,13.3333333 C2.66666667,14.0285333 3.20509,14.6666667 3.95833333,14.6666667 C3.95833333,14.6666667 12.7083333,14.6666667 12.7083333,14.6666667 C13.4615667,14.6666667 14,14.0285333 14,13.3333333 C14,13.3333333 14,2.66666667 14,2.66666667 C14,1.97147 13.4615667,1.33333333 12.7083333,1.33333333 C12.7083333,1.33333333 3.95833333,1.33333333 3.95833333,1.33333333 C3.95833333,1.33333333 3.95833333,1.33333333 3.95833333,1.33333333 Z M8.33333333,9.66666667 C7.59696667,9.66666667 7,10.2636333 7,11 C7,11.7363667 7.59696667,12.3333333 8.33333333,12.3333333 C9.0697,12.3333333 9.66666667,11.7363667 9.66666667,11 C9.66666667,10.2636333 9.0697,9.66666667 8.33333333,9.66666667 C8.33333333,9.66666667 8.33333333,9.66666667 8.33333333,9.66666667 Z" id="形状" fill="#999999"></path>
    </g>
</svg>