<?xml version="1.0" encoding="UTF-8"?>
<svg width="16px" height="16px" viewBox="0 0 16 16" version="1.1" xmlns="http://www.w3.org/2000/svg" xmlns:xlink="http://www.w3.org/1999/xlink">
    <title>icon/基础类/el-icon-paperclip</title>
    <g id="icon/基础类/el-icon-paperclip" stroke="none" stroke-width="1" fill="none" fill-rule="evenodd">
        <path d="M7.62613383,1.62823446 L8.56894287,2.5710435 L3.80473785,7.33524852 C2.59232805,8.54765832 2.59232805,10.513363 3.80473785,11.7257728 C5.01714766,12.9381826 6.98285234,12.9381826 8.19526215,11.7257728 L12.6271841,7.29385081 C13.3417582,6.57927674 13.3417582,5.42072326 12.6271841,4.70614919 C11.9126101,3.99157512 10.7540566,3.99157512 10.0394825,4.70614919 L5.84173731,8.9038944 C5.59404728,9.15158443 5.58762276,9.55114262 5.82722155,9.8066678 C5.83349262,9.81328428 5.83349262,9.81328428 5.83990406,9.81976481 C6.06133043,10.0411912 6.42033352,10.0411912 6.64175989,9.81976481 L10.5061718,5.95535293 L11.4489808,6.89816198 L7.58456894,10.7625739 C6.84244351,11.5046993 5.63922045,11.5046993 4.89709502,10.7625739 C4.87560663,10.7408539 4.87560663,10.7408539 4.85458874,10.7186783 C4.12271521,9.93815639 4.14233942,8.71767421 4.89892827,7.96108536 L9.09667348,3.76334015 C10.3319466,2.52806702 12.3347201,2.52806702 13.5699932,3.76334015 C14.8052663,4.99861327 14.8052663,7.00138673 13.5699932,8.23665985 L9.13807119,12.6685819 C7.40496233,14.4016907 4.59503767,14.4016907 2.86192881,12.6685819 C1.12881995,10.935473 1.12881995,8.12554834 2.86192881,6.39243948 L7.62613383,1.62823446 Z" id="路径-38" fill="#999999" fill-rule="nonzero"></path>
    </g>
</svg>