<?xml version="1.0" encoding="UTF-8"?>
<svg width="16px" height="16px" viewBox="0 0 16 16" version="1.1" xmlns="http://www.w3.org/2000/svg" xmlns:xlink="http://www.w3.org/1999/xlink">
    <title>icon/通用类/icon-general-line-safe1</title>
    <g id="icon/通用类/icon-general-line-safe1" stroke="none" stroke-width="1" fill="none" fill-rule="evenodd">
        <path d="M12.6666667,1.33333333 C13.4030463,1.33333333 14,1.930287 14,2.66666667 L14,9.94793902 C14,10.6065324 13.6757662,11.2229107 13.1330576,11.5960229 L8.75537176,14.4320559 C8.30036906,14.7448703 7.69963094,14.7448703 7.24462824,14.4320559 L2.86694235,11.5960229 C2.3242338,11.2229107 2,10.6065324 2,9.94793902 L2,2.66666667 C2,1.930287 2.59695367,1.33333333 3.33333333,1.33333333 L12.6666667,1.33333333 Z M12.6666667,2.66666667 L3.33333333,2.66666667 L3.33333333,9.94793902 C3.33333333,10.1674701 3.44141127,10.3729296 3.62231412,10.4973003 L8,13.3333333 L12.3776859,10.4973003 C12.5585887,10.3729296 12.6666667,10.1674701 12.6666667,9.94793902 L12.6666667,2.66666667 Z M9.4241474,4.99741932 L10.4616423,4.99911836 C10.6457369,4.99941984 10.7947307,5.14890246 10.7944293,5.33299713 C10.7943448,5.38456101 10.7822989,5.43540225 10.7592388,5.48152245 L8.8509288,9.2981424 C8.73800079,9.52399842 8.50715871,9.66666667 8.25464401,9.66666667 L7.74535599,9.66666667 C7.49284129,9.66666667 7.26199921,9.52399842 7.1490712,9.2981424 L5.24725454,5.49450908 C5.16492479,5.32984959 5.23166624,5.12962524 5.39632574,5.04729549 C5.44483258,5.02304207 5.49852454,5.01099024 5.55274366,5.01218552 L6.59628479,5.03519094 L8.04533333,7.93266667 L9.4241474,4.99741932 Z" id="形状结合" fill="#999999"></path>
    </g>
</svg>