<?xml version="1.0" encoding="UTF-8"?>
<svg width="16px" height="16px" viewBox="0 0 16 16" version="1.1" xmlns="http://www.w3.org/2000/svg" xmlns:xlink="http://www.w3.org/1999/xlink">
    <title> icon/基础类/icon-basic-line-refresh</title>
    <g id="-icon/基础类/icon-basic-line-refresh" stroke="none" stroke-width="1" fill="none" fill-rule="evenodd">
        <path d="M8.66666667,1.33333333 C8.66666667,1.33333333 8.66666667,3.04126333 8.66666667,3.04126333 C11.2975333,3.36932667 13.3333333,5.6136 13.3333333,8.33333333 C13.3333333,9.7863 12.7514333,11.1046667 11.8095,12.0659333 C11.8095,12.0659333 10.8571667,11.1327333 10.8571667,11.1327333 C11.5648,10.4106 12,9.42346667 12,8.33333333 C12,6.35133333 10.5584667,4.70603333 8.66666667,4.38864 C8.66666667,4.38864 8.66666667,6 8.66666667,6 C8.66666667,6 5.55555667,3.66666667 5.55555667,3.66666667 C5.55555667,3.66666667 8.66666667,1.33333333 8.66666667,1.33333333 C8.66666667,1.33333333 8.66666667,1.33333333 8.66666667,1.33333333 Z M5.14282667,5.53393333 C4.43519667,6.25606667 4,7.2432 4,8.33333333 C4,10.3153333 5.44152333,11.9606333 7.33333333,12.2780333 C7.33333333,12.2780333 7.33333333,10.3333333 7.33333333,10.3333333 C7.33333333,10.3333333 10.4444333,12.6666667 10.4444333,12.6666667 C10.4444333,12.6666667 7.33333333,15 7.33333333,15 C7.33333333,15 7.33333333,13.6254 7.33333333,13.6254 C4.70246,13.2973333 2.66666667,11.0530667 2.66666667,8.33333333 C2.66666667,6.88036667 3.24855333,5.562 4.19050667,4.60074333 C4.19050667,4.60074333 5.14282667,5.53393333 5.14282667,5.53393333 C5.14282667,5.53393333 5.14282667,5.53393333 5.14282667,5.53393333 Z" id="形状" fill="#999999"></path>
    </g>
</svg>