<?xml version="1.0" encoding="UTF-8"?>
<svg width="16px" height="16px" viewBox="0 0 16 16" version="1.1" xmlns="http://www.w3.org/2000/svg" xmlns:xlink="http://www.w3.org/1999/xlink">
    <title>icon/通用类/icon-general-line-nav</title>
    <g id="icon/通用类/icon-general-line-nav" stroke="none" stroke-width="1" fill="none" fill-rule="evenodd">
        <path d="M1.33333333,2.66666667 C1.33333333,2.66666667 14.6666667,2.66666667 14.6666667,2.66666667 C14.6666667,2.66666667 14.6666667,14 14.6666667,14 C14.6666667,14 1.33333333,14 1.33333333,14 C1.33333333,14 1.33333333,2.66666667 1.33333333,2.66666667 C1.33333333,2.66666667 1.33333333,2.66666667 1.33333333,2.66666667 Z M2.66666667,4 C2.66666667,4 2.66666667,6 2.66666667,6 C2.66666667,6 4.66666667,6 4.66666667,6 C4.66666667,6 4.66666667,4 4.66666667,4 C4.66666667,4 2.66666667,4 2.66666667,4 C2.66666667,4 2.66666667,4 2.66666667,4 Z M6,4 C6,4 6,6 6,6 C6,6 13.3333333,6 13.3333333,6 C13.3333333,6 13.3333333,4 13.3333333,4 C13.3333333,4 6,4 6,4 C6,4 6,4 6,4 Z M13.3333333,7.33333333 C13.3333333,7.33333333 6,7.33333333 6,7.33333333 C6,7.33333333 6,9.33333333 6,9.33333333 C6,9.33333333 13.3333333,9.33333333 13.3333333,9.33333333 C13.3333333,9.33333333 13.3333333,7.33333333 13.3333333,7.33333333 C13.3333333,7.33333333 13.3333333,7.33333333 13.3333333,7.33333333 Z M13.3333333,10.6666667 C13.3333333,10.6666667 6,10.6666667 6,10.6666667 C6,10.6666667 6,12.6666667 6,12.6666667 C6,12.6666667 13.3333333,12.6666667 13.3333333,12.6666667 C13.3333333,12.6666667 13.3333333,10.6666667 13.3333333,10.6666667 C13.3333333,10.6666667 13.3333333,10.6666667 13.3333333,10.6666667 Z M4.66666667,12.6666667 C4.66666667,12.6666667 4.66666667,10.6666667 4.66666667,10.6666667 C4.66666667,10.6666667 2.66666667,10.6666667 2.66666667,10.6666667 C2.66666667,10.6666667 2.66666667,12.6666667 2.66666667,12.6666667 C2.66666667,12.6666667 4.66666667,12.6666667 4.66666667,12.6666667 C4.66666667,12.6666667 4.66666667,12.6666667 4.66666667,12.6666667 Z M2.66666667,9.33333333 C2.66666667,9.33333333 4.66666667,9.33333333 4.66666667,9.33333333 C4.66666667,9.33333333 4.66666667,7.33333333 4.66666667,7.33333333 C4.66666667,7.33333333 2.66666667,7.33333333 2.66666667,7.33333333 C2.66666667,7.33333333 2.66666667,9.33333333 2.66666667,9.33333333 C2.66666667,9.33333333 2.66666667,9.33333333 2.66666667,9.33333333 Z" id="形状" fill="#999999"></path>
    </g>
</svg>