<?xml version="1.0" encoding="UTF-8"?>
<svg width="16px" height="16px" viewBox="0 0 16 16" version="1.1" xmlns="http://www.w3.org/2000/svg" xmlns:xlink="http://www.w3.org/1999/xlink">
    <title>icon/通用类/icon-general-line-panel</title>
    <g id="icon/通用类/icon-general-line-panel" stroke="none" stroke-width="1" fill="none" fill-rule="evenodd">
        <path d="M7.33333333,2.66666667 L7.33333333,4.33333333 C7.33333333,4.88561808 7.78104858,5.33333333 8.33333333,5.33333333 C8.88561808,5.33333333 9.33333333,4.88561808 9.33333333,4.33333333 L9.33333333,2.66666667 L12.6666667,2.66666667 C13.4030463,2.66666667 14,2.59695367 14,3.33333333 L14,13.3333333 C14,14.069713 13.4030463,14 12.6666667,14 L4,14 C3.26362033,14 2.66666667,14.069713 2.66666667,13.3333333 L2.66666667,10.6448822 C1.60127656,10.6448822 0.730402919,9.81205821 0.669556575,8.76192105 L0.666160596,8.64418468 L0.666160596,7.99999996 C0.666487748,6.93481969 1.49921011,6.06422181 2.54914466,6.0033949 L2.66666667,6 L2.66666667,3.33333333 C2.66666667,2.59695367 3.26362033,2.66666667 4,2.66666667 L7.33333333,2.66666667 Z M5.99977767,4 L4,4 L4,7.33333333 L2.66666667,7.33333333 C2.29831526,7.33333333 1.99968769,7.63190376 1.99961719,8.00025515 L1.99949393,8.64424843 L2.00398248,8.72218256 C2.04252179,9.05399337 2.32451657,9.31154887 2.66666667,9.31154887 L4,9.31154887 L4,12.6666667 L12.6666667,12.6666667 L12.6666667,4 L10.6664443,4 L10.6666667,4.33333333 C10.6666667,5.62199775 9.62199775,6.66666667 8.33333333,6.66666667 C7.04466892,6.66666667 6,5.62199775 6,4.33333333 L5.99977767,4 Z" id="矩形" fill="#999999"></path>
    </g>
</svg>