<?xml version="1.0" encoding="UTF-8"?>
<svg width="16px" height="16px" viewBox="0 0 16 16" version="1.1" xmlns="http://www.w3.org/2000/svg" xmlns:xlink="http://www.w3.org/1999/xlink">
    <title>icon/面性/icon-basic-file-inform</title>
    <g id="icon/面性/icon-basic-file-inform" stroke="none" stroke-width="1" fill="none" fill-rule="evenodd">
        <path d="M8.66666667,2.66667001 C8.66666667,2.41808334 8.52836667,2.19014801 8.30786667,2.07534934 C8.0874,1.96055101 7.82133333,1.97796068 7.6177,2.12051401 C7.6177,2.12051401 4.45652,4.33333668 4.45652,4.33333668 C4.45652,4.33333668 2,4.33333668 2,4.33333668 C1.63181,4.33333668 1.33333333,4.63181334 1.33333333,5 C1.33333333,5 1.33333333,11 1.33333333,11 C1.33333333,11.3682 1.63181,11.6666667 2,11.6666667 C2,11.6666667 4.45652,11.6666667 4.45652,11.6666667 C4.45652,11.6666667 7.6177,13.8795 7.6177,13.8795 C7.82133333,14.0220333 8.0874,14.0394667 8.30786667,13.9246667 C8.52836667,13.8098667 8.66666667,13.5819333 8.66666667,13.3333333 C8.66666667,13.3333333 8.66666667,2.66667001 8.66666667,2.66667001 C8.66666667,2.66667001 8.66666667,2.66667001 8.66666667,2.66667001 Z M11.7712667,4.13807334 C13.8540667,6.22086668 13.8540667,9.59773334 11.7712667,11.6805333 C11.7712667,11.6805333 12.7140667,12.6233667 12.7140667,12.6233667 C15.3175667,10.0198667 15.3175667,5.79876668 12.7140667,3.19526334 C12.7140667,3.19526334 11.7712667,4.13807334 11.7712667,4.13807334 C11.7712667,4.13807334 11.7712667,4.13807334 11.7712667,4.13807334 Z M9.8856,6.13806668 C10.927,7.17946668 10.927,8.86790001 9.8856,9.90930001 C9.8856,9.90930001 10.8284333,10.8521333 10.8284333,10.8521333 C12.3905333,9.29003334 12.3905333,6.75736668 10.8284333,5.19526334 C10.8284333,5.19526334 9.8856,6.13806668 9.8856,6.13806668 C9.8856,6.13806668 9.8856,6.13806668 9.8856,6.13806668 Z" id="形状" fill="#999999"></path>
    </g>
</svg>