<?xml version="1.0" encoding="UTF-8"?>
<svg width="16px" height="16px" viewBox="0 0 16 16" version="1.1" xmlns="http://www.w3.org/2000/svg" xmlns:xlink="http://www.w3.org/1999/xlink">
    <title>icon/影音类/icon-general-line-playarrow</title>
    <g id="icon/影音类/icon-general-line-playarrow" stroke="none" stroke-width="1" fill="none" fill-rule="evenodd">
        <path d="M4.66666667,3.60526676 C4.66666667,3.60526676 4.66666667,12.5235001 4.66666667,12.5235001 C4.66666667,12.5235001 11.7487667,8.06273343 11.7487667,8.06273343 C11.7487667,8.06273343 4.66666667,3.60526676 4.66666667,3.60526676 C4.66666667,3.60526676 4.66666667,3.60526676 4.66666667,3.60526676 Z M3.33333333,3.00160676 C3.33333333,2.21475543 4.20007333,1.73615176 4.86600667,2.15528643 C4.86600667,2.15528643 12.9070667,7.21630009 12.9070667,7.21630009 C13.5300333,7.60840009 13.5302,8.51646676 12.9073333,8.90876676 C12.9073333,8.90876676 4.86628667,13.9735334 4.86628667,13.9735334 C4.20037,14.3929668 3.33333333,13.9144001 3.33333333,13.1273668 C3.33333333,13.1273668 3.33333333,3.00160676 3.33333333,3.00160676 C3.33333333,3.00160676 3.33333333,3.00160676 3.33333333,3.00160676 Z" id="形状" fill="#999999"></path>
    </g>
</svg>