<?xml version="1.0" encoding="UTF-8"?>
<svg width="16px" height="16px" viewBox="0 0 16 16" version="1.1" xmlns="http://www.w3.org/2000/svg" xmlns:xlink="http://www.w3.org/1999/xlink">
    <title>icon/面性/el-icon-s-grid</title>
    <g id="icon/面性/el-icon-s-grid" stroke="none" stroke-width="1" fill="none" fill-rule="evenodd">
        <path d="M4.666,11.333 L4.66666667,14 L2,14 L2,11.3333333 L4.666,11.333 Z M10,11.333 L10,14 L6,14 L6,11.333 L10,11.333 Z M14,11.3333333 L14,14 L11.3333333,14 L11.333,11.333 L14,11.3333333 Z M4.666,6 L4.666,10 L2,10 L2,6 L4.666,6 Z M10,6 L10,10 L6,10 L6,6 L10,6 Z M14,6 L14,10 L11.333,10 L11.333,6 L14,6 Z M14,2 L14,4.66666667 L11.333,4.666 L11.3333333,2 L14,2 Z M4.66666667,2 L4.666,4.666 L2,4.66666667 L2,2 L4.66666667,2 Z M10,4.666 L6,4.666 L6,2 L10,2 L10,4.666 Z" id="形状结合" fill="#999999"></path>
    </g>
</svg>