<?xml version="1.0" encoding="UTF-8"?>
<svg width="16px" height="16px" viewBox="0 0 16 16" version="1.1" xmlns="http://www.w3.org/2000/svg" xmlns:xlink="http://www.w3.org/1999/xlink">
    <title>icon/通用类/icon-general-line-drivefile</title>
    <g id="icon/通用类/icon-general-line-drivefile" stroke="none" stroke-width="1" fill="none" fill-rule="evenodd">
        <path d="M10.0553513,1.33333333 L14,5.38371404 L14,13.3333333 C14,14.069713 13.4030463,14.6666667 12.6666667,14.6666667 L4,14.6666667 C3.26362033,14.6666667 2.66666667,14.069713 2.66666667,13.3333333 L2.66666667,2.66666667 C2.66666667,1.930287 3.26362033,1.33333333 4,1.33333333 L10.0553513,1.33333333 Z M8.69766667,2.66633333 L4,2.66666667 L4,13.3333333 L12.6666667,13.3333333 L12.6666667,6.53633333 L10.031868,6.53667704 C9.29548831,6.53667704 8.69853465,5.93972338 8.69853465,5.20334371 L8.69766667,2.66633333 Z M11.9636667,5.20333333 L10.0316667,3.21933333 L10.031868,5.20334371 L11.9636667,5.20333333 Z" id="形状结合" fill="#999999"></path>
    </g>
</svg>