<?xml version="1.0" encoding="UTF-8"?>
<svg width="16px" height="16px" viewBox="0 0 16 16" version="1.1" xmlns="http://www.w3.org/2000/svg" xmlns:xlink="http://www.w3.org/1999/xlink">
    <title>icon/编辑类/icon-edit-line-sortascending</title>
    <g id="icon/编辑类/icon-edit-line-sortascending" stroke="none" stroke-width="1" fill="none" fill-rule="evenodd">
        <path d="M4.80473667,11.7238667 C4.80473667,11.7238667 4.80473667,2 4.80473667,2 C4.80473667,2 6.13806667,2 6.13806667,2 C6.13806667,2 6.13806667,13.2528667 6.13806667,13.2528667 C6.13806667,13.8765333 5.38404667,14.1887667 4.94309667,13.7478333 C4.94309667,13.7478333 2.66666667,11.4714 2.66666667,11.4714 C2.66666667,11.4714 3.60947667,10.5286 3.60947667,10.5286 C3.60947667,10.5286 4.80473667,11.7238667 4.80473667,11.7238667 C4.80473667,11.7238667 4.80473667,11.7238667 4.80473667,11.7238667 Z M10.2327,2 C10.2327,2 11.3767667,2 11.3767667,2 C11.3767667,2 13.417,6.73626667 13.417,6.73626667 C13.417,6.73626667 12.1924667,7.26373333 12.1924667,7.26373333 C12.1924667,7.26373333 10.8047333,4.04224333 10.8047333,4.04224333 C10.8047333,4.04224333 9.417,7.26373333 9.417,7.26373333 C9.417,7.26373333 8.19246667,6.73626667 8.19246667,6.73626667 C8.19246667,6.73626667 10.2327,2 10.2327,2 C10.2327,2 10.2327,2 10.2327,2 Z M11.1276333,9.66666667 C11.1276333,9.66666667 8.80473333,9.66666667 8.80473333,9.66666667 C8.80473333,9.66666667 8.80473333,8.33333333 8.80473333,8.33333333 C8.80473333,8.33333333 12.9380667,8.33333333 12.9380667,8.33333333 C12.9380667,8.33333333 12.9380667,9.4312 12.9380667,9.4312 C12.9380667,9.4312 10.6151667,12.6666667 10.6151667,12.6666667 C10.6151667,12.6666667 13.1380667,12.6666667 13.1380667,12.6666667 C13.1380667,12.6666667 13.1380667,14 13.1380667,14 C13.1380667,14 8.80473333,14 8.80473333,14 C8.80473333,14 8.80473333,12.9021333 8.80473333,12.9021333 C8.80473333,12.9021333 11.1276333,9.66666667 11.1276333,9.66666667 C11.1276333,9.66666667 11.1276333,9.66666667 11.1276333,9.66666667 Z" id="形状" fill="#999999"></path>
    </g>
</svg>