<?xml version="1.0" encoding="UTF-8"?>
<svg width="16px" height="16px" viewBox="0 0 16 16" version="1.1" xmlns="http://www.w3.org/2000/svg" xmlns:xlink="http://www.w3.org/1999/xlink">
    <title>icon/通用类/el-icon-set-up</title>
    <g id="icon/通用类/el-icon-set-up" stroke="none" stroke-width="1" fill="none" fill-rule="evenodd">
        <path d="M13.3333333,1.33333333 C14.069713,1.33333333 14.6666667,1.930287 14.6666667,2.66666667 L14.6666667,13.3333333 C14.6666667,14.069713 14.069713,14.6666667 13.3333333,14.6666667 L2.66666667,14.6666667 C1.930287,14.6666667 1.33333333,14.069713 1.33333333,13.3333333 L1.33333333,2.66666667 C1.33333333,1.930287 1.930287,1.33333333 2.66666667,1.33333333 L13.3333333,1.33333333 Z M13.3333333,2.66666667 L2.66666667,2.66666667 L2.66666667,13.3333333 L13.3333333,13.3333333 L13.3333333,2.66666667 Z" id="矩形" fill="#999999" fill-rule="nonzero"></path>
        <rect id="矩形" fill="#999999" fill-rule="nonzero" x="4" y="5.33333333" width="5.33333333" height="1.33333333"></rect>
        <path d="M10.6666667,4 C11.7712362,4 12.6666667,4.8954305 12.6666667,6 C12.6666667,7.1045695 11.7712362,8 10.6666667,8 C9.56209717,8 8.66666667,7.1045695 8.66666667,6 C8.66666667,4.8954305 9.56209717,4 10.6666667,4 Z M10.6666667,5.33333333 C10.2984768,5.33333333 10,5.63181017 10,6 C10,6.36818983 10.2984768,6.66666667 10.6666667,6.66666667 C11.0348565,6.66666667 11.3333333,6.36818983 11.3333333,6 C11.3333333,5.63181017 11.0348565,5.33333333 10.6666667,5.33333333 Z" id="椭圆形" fill="#979797" fill-rule="nonzero"></path>
        <path d="M5.33333333,8 C6.43790283,8 7.33333333,8.8954305 7.33333333,10 C7.33333333,11.1045695 6.43790283,12 5.33333333,12 C4.22876383,12 3.33333333,11.1045695 3.33333333,10 C3.33333333,8.8954305 4.22876383,8 5.33333333,8 Z M5.33333333,9.33333333 C4.9651435,9.33333333 4.66666667,9.63181017 4.66666667,10 C4.66666667,10.3681898 4.9651435,10.6666667 5.33333333,10.6666667 C5.70152317,10.6666667 6,10.3681898 6,10 C6,9.63181017 5.70152317,9.33333333 5.33333333,9.33333333 Z" id="椭圆形备份" fill="#979797" fill-rule="nonzero"></path>
        <rect id="矩形备份" fill="#999999" fill-rule="nonzero" x="6.66666667" y="9.33333333" width="5.33333333" height="1.33333333"></rect>
    </g>
</svg>