<?xml version="1.0" encoding="UTF-8"?>
<svg width="16px" height="16px" viewBox="0 0 16 16" version="1.1" xmlns="http://www.w3.org/2000/svg" xmlns:xlink="http://www.w3.org/1999/xlink">
    <title>icon/基础类/el-icon-warning-outline</title>
    <g id="icon/基础类/el-icon-warning-outline" stroke="none" stroke-width="1" fill="none" fill-rule="evenodd">
        <path d="M8.0000005,2.66666723 C5.0544672,2.66666723 2.66666723,5.0544672 2.66666723,8.0000005 C2.66666723,10.9455338 5.0544672,13.3333338 8.0000005,13.3333338 C10.9455338,13.3333338 13.3333338,10.9455338 13.3333338,8.0000005 C13.3333338,5.0544672 10.9455338,2.66666723 8.0000005,2.66666723 C8.0000005,2.66666723 8.0000005,2.66666723 8.0000005,2.66666723 Z M1.33333392,8.0000005 C1.33333392,4.31810055 4.31810055,1.33333392 8.0000005,1.33333392 C11.6819005,1.33333392 14.6666671,4.31810055 14.6666671,8.0000005 C14.6666671,11.6819005 11.6819005,14.6666671 8.0000005,14.6666671 C4.31810055,14.6666671 1.33333392,11.6819005 1.33333392,8.0000005 C1.33333392,8.0000005 1.33333392,8.0000005 1.33333392,8.0000005 Z M8.66666716,4.66670054 C8.66666716,4.66670054 8.66666716,6.00003386 8.66666716,6.00003386 C8.66666716,6.00003386 7.33333384,6.00003386 7.33333384,6.00003386 C7.33333384,6.00003386 7.33333384,4.66670054 7.33333384,4.66670054 C7.33333384,4.66670054 8.66666716,4.66670054 8.66666716,4.66670054 C8.66666716,4.66670054 8.66666716,4.66670054 8.66666716,4.66670054 Z M7.33333384,11.3333671 C7.33333384,11.3333671 7.33333384,6.66670052 7.33333384,6.66670052 C7.33333384,6.66670052 8.66666716,6.66670052 8.66666716,6.66670052 C8.66666716,6.66670052 8.66666716,11.3333671 8.66666716,11.3333671 C8.66666716,11.3333671 7.33333384,11.3333671 7.33333384,11.3333671 C7.33333384,11.3333671 7.33333384,11.3333671 7.33333384,11.3333671 Z" id="形状" fill="#999999" transform="translate(8, 8) rotate(-180) translate(-8, -8)"></path>
    </g>
</svg>