<?xml version="1.0" encoding="UTF-8"?>
<svg width="16px" height="16px" viewBox="0 0 16 16" version="1.1" xmlns="http://www.w3.org/2000/svg" xmlns:xlink="http://www.w3.org/1999/xlink">
    <title>icon/通用类/icon-general-line-branch</title>
    <g id="icon/通用类/icon-general-line-branch" stroke="none" stroke-width="1" fill="none" fill-rule="evenodd">
        <path d="M4.33333333,3.33333333 C4.33333333,2.96514333 4.63181,2.66666667 5,2.66666667 C5.36819,2.66666667 5.66666667,2.96514333 5.66666667,3.33333333 C5.66666667,3.70152333 5.36819,4 5,4 C4.63181,4 4.33333333,3.70152333 4.33333333,3.33333333 C4.33333333,3.33333333 4.33333333,3.33333333 4.33333333,3.33333333 Z M3,3.33333333 C3,4.20414667 3.55654,4.94496667 4.33333333,5.21953333 C4.33333333,5.21953333 4.33333333,10.7804667 4.33333333,10.7804667 C3.55654,11.0550333 3,11.7958667 3,12.6666667 C3,13.7712333 3.89543,14.6666667 5,14.6666667 C6.10457,14.6666667 7,13.7712333 7,12.6666667 C7,11.7958667 6.44346667,11.0550333 5.66666667,10.7804667 C5.66666667,10.7804667 5.66666667,10.0017667 5.66666667,10.0017667 C5.66967667,9.98986667 5.68563,9.94896667 5.75628667,9.87433333 C5.86352333,9.76103333 6.04561667,9.6261 6.31979667,9.46976667 C6.74126667,9.22946667 7.26626667,8.99933333 7.85556667,8.74103333 C8.04386667,8.6585 8.23876667,8.5731 8.4389,8.48353333 C9.23,8.12963333 10.0895667,7.7161 10.754,7.19736667 C11.3664667,6.7192 11.9079667,6.07586667 11.9894333,5.22323333 C12.7717333,4.95166667 13.3333333,4.20809 13.3333333,3.33333333 C13.3333333,2.22876333 12.4379,1.33333333 11.3333333,1.33333333 C10.2287667,1.33333333 9.33333333,2.22876333 9.33333333,3.33333333 C9.33333333,4.19529667 9.87863333,4.9299 10.6430667,5.211 C10.5751667,5.51086667 10.3566333,5.81603333 9.9335,6.1464 C9.41043333,6.55473333 8.68666667,6.91203333 7.89443333,7.26646667 C7.72323333,7.34303333 7.5474,7.42003333 7.37053333,7.4975 C6.76853333,7.76113333 6.15404667,8.03023333 5.66666667,8.30733333 C5.66666667,8.30733333 5.66666667,5.21953333 5.66666667,5.21953333 C6.44346667,4.94496667 7,4.20414667 7,3.33333333 C7,2.22876333 6.10457,1.33333333 5,1.33333333 C3.89543,1.33333333 3,2.22876333 3,3.33333333 Z M10.6666667,3.33333333 C10.6666667,2.96514333 10.9651333,2.66666667 11.3333333,2.66666667 C11.7015333,2.66666667 12,2.96514333 12,3.33333333 C12,3.70152333 11.7015333,4 11.3333333,4 C10.9651333,4 10.6666667,3.70152333 10.6666667,3.33333333 C10.6666667,3.33333333 10.6666667,3.33333333 10.6666667,3.33333333 Z M5,12 C4.63181,12 4.33333333,12.2984667 4.33333333,12.6666667 C4.33333333,13.0348667 4.63181,13.3333333 5,13.3333333 C5.36819,13.3333333 5.66666667,13.0348667 5.66666667,12.6666667 C5.66666667,12.2984667 5.36819,12 5,12 C5,12 5,12 5,12 Z" id="形状" fill="#999999"></path>
    </g>
</svg>