<?xml version="1.0" encoding="UTF-8"?>
<svg width="16px" height="16px" viewBox="0 0 16 16" version="1.1" xmlns="http://www.w3.org/2000/svg" xmlns:xlink="http://www.w3.org/1999/xlink">
    <title>icon/基础类/icon-basic-line-nonoscreen</title>
    <g id="icon/基础类/icon-basic-line-nonoscreen" stroke="none" stroke-width="1" fill="none" fill-rule="evenodd">
        <path d="M8.66666714,6.33333333 C8.66666714,6.33333333 8.66666714,1.33333333 8.66666714,1.33333333 C8.66666714,1.33333333 10.0000005,1.33333333 10.0000005,1.33333333 C10.0000005,1.33333333 10.0000005,6 10.0000005,6 C10.0000005,6 14.6666671,6 14.6666671,6 C14.6666671,6 14.6666671,7.33333333 14.6666671,7.33333333 C14.6666671,7.33333333 9.66526714,7.33333333 9.66526714,7.33333333 C9.10926714,7.33333333 8.66666714,6.8819 8.66666714,6.33333333 C8.66666714,6.33333333 8.66666714,6.33333333 8.66666714,6.33333333 Z M1.33333381,8.66666667 C1.33333381,8.66666667 6.33473381,8.66666667 6.33473381,8.66666667 C6.89073381,8.66666667 7.33333381,9.1181 7.33333381,9.66666667 C7.33333381,9.66666667 7.33333381,14.6666667 7.33333381,14.6666667 C7.33333381,14.6666667 6.00000048,14.6666667 6.00000048,14.6666667 C6.00000048,14.6666667 6.00000048,10 6.00000048,10 C6.00000048,10 1.33333381,10 1.33333381,10 C1.33333381,10 1.33333381,8.66666667 1.33333381,8.66666667 C1.33333381,8.66666667 1.33333381,8.66666667 1.33333381,8.66666667 Z" id="形状" fill="#999999"></path>
    </g>
</svg>