<?xml version="1.0" encoding="UTF-8"?>
<svg width="16px" height="16px" viewBox="0 0 16 16" version="1.1" xmlns="http://www.w3.org/2000/svg" xmlns:xlink="http://www.w3.org/1999/xlink">
    <title>icon/编辑类/icon-edit-line-formula</title>
    <g id="icon/编辑类/icon-edit-line-formula" stroke="none" stroke-width="1" fill="none" fill-rule="evenodd">
        <path d="M2.33333333,3 C2.33333333,2.44771667 2.78105,2 3.33333333,2 C3.33333333,2 13.3333333,2 13.3333333,2 C13.3333333,2 13.3333333,3.33333333 13.3333333,3.33333333 C13.3333333,3.33333333 4.01239667,3.33333333 4.01239667,3.33333333 C4.01239667,3.33333333 8.49533333,7.2559 8.49533333,7.2559 C8.49533333,7.25593333 8.4953,7.2559 8.49533333,7.2559 C8.94036667,7.6453 8.9521,8.33366667 8.52086667,8.73803333 C8.52086667,8.73803333 8.447,8.80723333 8.447,8.80723333 C8.447,8.80723333 4.01515333,12.6666667 4.01515333,12.6666667 C4.01515333,12.6666667 13.3333333,12.6666667 13.3333333,12.6666667 C13.3333333,12.6666667 13.3333333,14 13.3333333,14 C13.3333333,14 3.33333333,14 3.33333333,14 C2.78106,14 2.33333333,13.5523 2.33333333,13 C2.33333333,13 2.33333333,12.8184 2.33333333,12.8184 C2.33333333,12.5292 2.45852167,12.2542 2.67661,12.0642667 C2.67662,12.0642667 2.6766,12.0643 2.67661,12.0642667 C2.67661,12.0642667 7.3323,8.00993333 7.3323,8.00993333 C7.3323,8.00993333 2.67483,3.93465 2.67483,3.93465 C2.45783467,3.74477333 2.33333333,3.47045667 2.33333333,3.18207667 C2.33333333,3.18207667 2.33333333,3 2.33333333,3 C2.33333333,3 2.33333333,3 2.33333333,3 Z" id="路径" fill="#999999"></path>
    </g>
</svg>