<?xml version="1.0" encoding="UTF-8"?>
<svg width="16px" height="16px" viewBox="0 0 16 16" version="1.1" xmlns="http://www.w3.org/2000/svg" xmlns:xlink="http://www.w3.org/1999/xlink">
    <title>icon/通用类/icon-general-line-warning</title>
    <g id="icon/通用类/icon-general-line-warning" stroke="none" stroke-width="1" fill="none" fill-rule="evenodd">
        <path d="M1.33333333,14.6666667 L1.33333333,13.3333333 L2.66633333,13.3333333 L2.66666667,6.66666667 C2.66666667,3.721148 5.05448133,1.33333333 8,1.33333333 C10.9455187,1.33333333 13.3333333,3.721148 13.3333333,6.66666667 L13.3333333,13.3333333 L14.6666667,13.3333333 L14.6666667,14.6666667 L1.33333333,14.6666667 Z M8,2.66666667 C5.790861,2.66666667 4,4.45752767 4,6.66666667 L4,13.3333333 L12,13.3333333 L12,6.66666667 C12,4.50773537 10.2896167,2.74828549 8.14995884,2.66942565 L8,2.66666667 Z M7.87091676,4.99346507 L9.33333333,5 L7.836,7.66666667 L10.5033262,7.66666667 L9.90686102,8.67320159 L8.12908324,11.6732016 L6.66666667,11.6666667 L8.16266667,9 L5.49667384,9 L6.09313898,7.99346507 L7.87091676,4.99346507 Z" id="形状结合" fill="#999999"></path>
    </g>
</svg>