<?xml version="1.0" encoding="UTF-8"?>
<svg width="16px" height="16px" viewBox="0 0 16 16" version="1.1" xmlns="http://www.w3.org/2000/svg" xmlns:xlink="http://www.w3.org/1999/xlink">
    <title>icon/面性/el-icon-video-camera-solid</title>
    <g id="icon/面性/el-icon-video-camera-solid" stroke="none" stroke-width="1" fill="none" fill-rule="evenodd">
        <path d="M10.6666667,3.33333333 C11.2189667,3.33333333 11.6666667,3.78105 11.6666667,4.33333333 L11.6666667,5.43731333 C11.6666667,5.43731333 12.0708148,5.31606955 12.5198683,5.18135423 L12.859465,5.07947577 C13.3085185,4.94476045 13.7126667,4.82351667 13.7126667,4.82351667 C14.3542667,4.63103333 15,5.11148 15,5.78134333 L15,10.8853333 C15,11.5552 14.3542667,12.0356333 13.7126667,11.8431333 C13.7126667,11.8431333 13.3085185,11.7218955 12.859465,11.5871867 L12.5198683,11.4853133 C12.0708148,11.3506045 11.6666667,11.2293667 11.6666667,11.2293667 L11.6666667,12.3333333 C11.6666667,12.8856333 11.2189667,13.3333333 10.6666667,13.3333333 L2.33333333,13.3333333 C1.78104667,13.3333333 1.33333333,12.8856333 1.33333333,12.3333333 L1.33333333,4.33333333 C1.33333333,3.78105 1.78104667,3.33333333 2.33333333,3.33333333 L10.6666667,3.33333333 Z M5.66666667,6 L3.66666667,6 L3.66666667,7.33333333 L5.66666667,7.33333333 L5.66666667,6 Z" id="形状" fill="#999999"></path>
    </g>
</svg>