<?xml version="1.0" encoding="UTF-8"?>
<svg width="16px" height="16px" viewBox="0 0 16 16" version="1.1" xmlns="http://www.w3.org/2000/svg" xmlns:xlink="http://www.w3.org/1999/xlink">
    <title> icon/通用类/icon-general-line-useradd</title>
    <g id="-icon/通用类/icon-general-line-useradd" stroke="none" stroke-width="1" fill="none" fill-rule="evenodd">
        <path d="M8,3 C7.07953333,3 6.33333333,3.74619333 6.33333333,4.66666667 C6.33333333,5.58713333 7.07953333,6.33333333 8,6.33333333 C8.92046667,6.33333333 9.66666667,5.58713333 9.66666667,4.66666667 C9.66666667,3.74619333 8.92046667,3 8,3 C8,3 8,3 8,3 Z M5,4.66666667 C5,3.00981333 6.34313333,1.66666667 8,1.66666667 C9.65686667,1.66666667 11,3.00981333 11,4.66666667 C11,6.32353333 9.65686667,7.66666667 8,7.66666667 C6.34313333,7.66666667 5,6.32353333 5,4.66666667 C5,4.66666667 5,4.66666667 5,4.66666667 Z M3.33333333,12.6666667 C3.33333333,12.6666667 3.33333333,13.3333333 3.33333333,13.3333333 C3.33333333,13.3333333 8,13.3333333 8,13.3333333 C8,13.3333333 8,14.6666667 8,14.6666667 C8,14.6666667 2,14.6666667 2,14.6666667 C2,14.6666667 2,12.6666667 2,12.6666667 C2,10.4575333 3.79086,8.66666667 6,8.66666667 C6,8.66666667 8,8.66666667 8,8.66666667 C8,8.66666667 8,10 8,10 C8,10 6,10 6,10 C4.52724,10 3.33333333,11.1939 3.33333333,12.6666667 Z M10.6666667,11.3333333 C10.6666667,11.3333333 10.6666667,9.33333333 10.6666667,9.33333333 C10.6666667,9.33333333 12,9.33333333 12,9.33333333 C12,9.33333333 12,11.3333333 12,11.3333333 C12,11.3333333 14,11.3333333 14,11.3333333 C14,11.3333333 14,12.6666667 14,12.6666667 C14,12.6666667 12,12.6666667 12,12.6666667 C12,12.6666667 12,14.6666667 12,14.6666667 C12,14.6666667 10.6666667,14.6666667 10.6666667,14.6666667 C10.6666667,14.6666667 10.6666667,12.6666667 10.6666667,12.6666667 C10.6666667,12.6666667 8.66666667,12.6666667 8.66666667,12.6666667 C8.66666667,12.6666667 8.66666667,11.3333333 8.66666667,11.3333333 C8.66666667,11.3333333 10.6666667,11.3333333 10.6666667,11.3333333 C10.6666667,11.3333333 10.6666667,11.3333333 10.6666667,11.3333333 Z" id="形状" fill="#999999"></path>
    </g>
</svg>