<?xml version="1.0" encoding="UTF-8"?>
<svg width="16px" height="16px" viewBox="0 0 16 16" version="1.1" xmlns="http://www.w3.org/2000/svg" xmlns:xlink="http://www.w3.org/1999/xlink">
    <title>icon/基础类/el-icon-edit</title>
    <g id="icon/基础类/el-icon-edit" stroke="none" stroke-width="1" fill="none" fill-rule="evenodd">
        <path d="M9.26626667,1.62622671 C9.65676667,1.23570237 10.2899333,1.23570204 10.6804667,1.62622671 C10.6804667,1.62622671 12.5423667,3.48812337 12.5423667,3.48812337 C12.9329,3.87864671 12.9329,4.51181337 12.5423667,4.90233337 C12.5423667,4.90233337 5.72573333,11.7189667 5.72573333,11.7189667 C5.5666,11.8781 5.35843333,11.9789 5.13491333,12.0050667 C5.13491333,12.0050667 3.11926333,12.2410667 3.11926333,12.2410667 C2.49464333,12.3142 1.958365,11.7994667 2.005831,11.1723667 C2.005831,11.1723667 2.165039,9.06903337 2.165039,9.06903337 C2.18308833,8.83056671 2.28598767,8.60650004 2.45508,8.43740004 C2.45508,8.43740004 9.26626667,1.62622671 9.26626667,1.62622671 C9.26626667,1.62622671 9.26626667,1.62622671 9.26626667,1.62622671 Z M8.7692,4.00890338 C8.7692,4.00890338 10.1597,5.39940004 10.1597,5.39940004 C10.1597,5.39940004 11.3638333,4.19523004 11.3638333,4.19523004 C11.3638333,4.19523004 9.97336667,2.80473671 9.97336667,2.80473671 C9.97336667,2.80473671 8.7692,4.00890338 8.7692,4.00890338 C8.7692,4.00890338 8.7692,4.00890338 8.7692,4.00890338 Z M9.21686667,6.34220004 C9.21686667,6.34220004 7.82636667,4.95170004 7.82636667,4.95170004 C7.82636667,4.95170004 3.48524333,9.29286671 3.48524333,9.29286671 C3.48524333,9.29286671 3.36588333,10.8697334 3.36588333,10.8697334 C3.36588333,10.8697334 4.86482667,10.6942667 4.86482667,10.6942667 C4.86482667,10.6942667 9.21686667,6.34220004 9.21686667,6.34220004 C9.21686667,6.34220004 9.21686667,6.34220004 9.21686667,6.34220004 Z M14,14.6628 C14,14.6628 2,14.6628 2,14.6628 C2,14.6628 2,13.3294667 2,13.3294667 C2,13.3294667 14,13.3294667 14,13.3294667 C14,13.3294667 14,14.6628 14,14.6628 C14,14.6628 14,14.6628 14,14.6628 Z" id="形状" fill="#999999"></path>
    </g>
</svg>