<?xml version="1.0" encoding="UTF-8"?>
<svg width="16px" height="16px" viewBox="0 0 16 16" version="1.1" xmlns="http://www.w3.org/2000/svg" xmlns:xlink="http://www.w3.org/1999/xlink">
    <title>icon/通用类/icon-general-line-fire</title>
    <g id="icon/通用类/icon-general-line-fire" stroke="none" stroke-width="1" fill="none" fill-rule="evenodd">
        <path d="M7.86276662,4.35516662 C7.59799996,4.96016661 7.46469996,5.59553327 7.38236663,6.23726659 C7.3333333,6.61936659 7.3063333,6.95483325 7.27906663,7.29349991 C7.25909996,7.54153324 7.23899996,7.7912999 7.20999996,8.06236657 C7.14826663,8.63953323 7.04906663,9.24759988 6.7886333,9.76933321 C6.6623333,10.0222999 6.43586664,10.3278332 6.04279998,10.4173332 C5.64819332,10.5071332 5.32699332,10.3245665 5.14329999,10.1799999 C4.78527333,9.89826654 4.48394333,9.39893321 4.26186,8.97629989 C4.20181667,8.86203322 4.14353667,8.74526656 4.08756001,8.62853323 C3.91992001,9.49506655 3.94128001,10.5767999 4.60896667,11.6170999 C5.36673999,12.7977332 6.48473331,13.3808332 7.58789996,13.5728998 C8.71723328,13.7695332 9.75823326,13.5444665 10.3055999,13.2018332 C11.7547999,12.2946332 12.9002999,10.4254665 12.0257999,8.33473323 C11.8748999,8.06563323 11.7470666,7.78556657 11.6389999,7.50973324 C11.5493999,7.75293324 11.4385332,8.00363323 11.2942332,8.20593323 C11.1966332,8.3427999 11.0555666,8.49849989 10.8550999,8.60316656 C10.6366666,8.71716656 10.3883999,8.74866656 10.1400333,8.68646656 C9.32583327,8.48259989 8.81766661,7.85596657 8.50513328,7.20339991 C8.19163328,6.54876659 8.02429995,5.76983326 7.93276662,5.05719994 C7.90209995,4.81856661 7.87936662,4.58263328 7.86276662,4.35516662 C7.86276662,4.35516662 7.86276662,4.35516662 7.86276662,4.35516662 Z M12.3940666,5.10269994 C12.3940666,5.10269994 12.3941666,5.10363327 12.3941666,5.10363327 C12.3941666,5.10363327 12.3953666,5.11349994 12.3953666,5.11349994 C12.3964999,5.12299994 12.3984332,5.13816661 12.4011999,5.15859994 C12.4066999,5.19943327 12.4155666,5.26109994 12.4284666,5.3397666 C12.4542666,5.49743327 12.4958999,5.72173326 12.5584666,5.98283326 C12.6853999,6.51259992 12.8906999,7.16033325 13.2039332,7.7093999 C13.2039332,7.7093999 13.2228332,7.7424999 13.2228332,7.7424999 C13.2228332,7.7424999 13.2377999,7.7774999 13.2377999,7.7774999 C14.4817999,10.6848332 12.8202999,13.2006665 11.0130666,14.3319998 C10.1309333,14.8842331 8.74089994,15.1270665 7.35919996,14.8864665 C5.95136665,14.6413665 4.47841333,13.8821332 3.48687001,12.3372665 C2.55996869,10.8931332 2.56833403,9.40266655 2.79166369,8.30906656 C2.90337402,7.76206657 3.07041335,7.30376658 3.20976668,6.98119991 C3.27969335,6.81933325 3.34335335,6.68999992 3.39084002,6.59893325 C3.41460668,6.55336659 3.43439335,6.51723325 3.44897668,6.49126659 C3.45627001,6.47829992 3.46227335,6.46783325 3.46682668,6.45996659 C3.46682668,6.45996659 3.47256001,6.45016659 3.47256001,6.45016659 C3.47256001,6.45016659 3.47457668,6.44676659 3.47457668,6.44676659 C3.47457668,6.44676659 3.47537001,6.44543325 3.47537001,6.44543325 C3.47537001,6.44543325 3.47571001,6.44486659 3.47571001,6.44486659 C3.47586668,6.44459992 3.47601335,6.44436659 4.04791667,6.78696658 C4.04791667,6.78696658 3.47601335,6.44436659 3.47601335,6.44436659 C3.47601335,6.44436659 4.20947334,5.2199666 4.20947334,5.2199666 C4.20947334,5.2199666 4.67764333,6.56813325 4.67764333,6.56813325 C4.67764333,6.56813325 4.67827333,6.56993325 4.67827333,6.56993325 C4.67827333,6.56993325 4.68087666,6.57733325 4.68087666,6.57733325 C4.68087666,6.57733325 4.69196333,6.60856659 4.69196333,6.60856659 C4.7019,6.63639992 4.71682666,6.67776659 4.73621666,6.73033325 C4.77503333,6.83559992 4.83154,6.98516658 4.90156666,7.16053325 C5.04279333,7.51416657 5.23407999,7.9600999 5.44215999,8.35606656 C5.54469665,8.55119989 5.64002998,8.71169989 5.72392998,8.83686656 C5.79555665,8.58959989 5.84492332,8.28813323 5.88424665,7.92053324 C5.90475331,7.72883324 5.92365331,7.50063324 5.94391331,7.25596658 C5.97549665,6.87453325 6.01039998,6.45313325 6.05986665,6.06753326 C6.23509998,4.70206661 6.64666664,3.13992663 8.06106662,1.82445998 C8.06106662,1.82445998 9.30593327,0.666666667 9.30593327,0.666666667 C9.30593327,0.666666667 9.17993327,2.36171998 9.17993327,2.36171998 C9.17993327,2.36171998 9.17979994,2.36355664 9.17979994,2.36355664 C9.17979994,2.36355664 9.17919994,2.37237664 9.17919994,2.37237664 C9.17863327,2.38063664 9.17779994,2.39360664 9.1767666,2.41099331 C9.1746666,2.44576664 9.1717666,2.49814664 9.16879994,2.56574997 C9.16283327,2.70106664 9.15653327,2.8967633 9.15549994,3.13393997 C9.15339994,3.61053996 9.17259994,4.24409995 9.25523327,4.88729994 C9.3388666,5.5384666 9.48249993,6.15729993 9.70769993,6.62749992 C9.88069993,6.98876658 10.0724666,7.20549991 10.2747333,7.31786658 C10.3250333,7.21686658 10.3837666,7.06979991 10.4511666,6.86726658 C10.5104999,6.68889992 10.5638666,6.50949992 10.6213333,6.31619992 C10.6599332,6.18643326 10.7003666,6.05039993 10.7457666,5.9041666 C10.8507332,5.56599993 10.9753999,5.19809994 11.1349666,4.87843328 C11.1349666,4.87843328 12.1447666,2.85559997 12.1447666,2.85559997 C12.1447666,2.85559997 12.3939666,5.10203327 12.3939666,5.10203327 C12.3939666,5.10203327 12.3940666,5.10269994 12.3940666,5.10269994 C12.3940666,5.10269994 12.3940666,5.10269994 12.3940666,5.10269994 Z" id="形状" fill="#999999"></path>
    </g>
</svg>