<?xml version="1.0" encoding="UTF-8"?>
<svg width="16px" height="16px" viewBox="0 0 16 16" version="1.1" xmlns="http://www.w3.org/2000/svg" xmlns:xlink="http://www.w3.org/1999/xlink">
    <title>icon/基础类/el-icon-download</title>
    <g id="icon/基础类/el-icon-download" stroke="none" stroke-width="1" fill="none" fill-rule="evenodd">
        <path d="M7.33333333,9.1042 C7.33333333,9.1042 7.33333333,2 7.33333333,2 C7.33333333,2 8.66666667,2 8.66666667,2 C8.66666667,2 8.66666667,9.10493333 8.66666667,9.10493333 C8.66666667,9.10493333 10.5526333,7.21896667 10.5526333,7.21896667 C10.5526333,7.21896667 11.4954333,8.16176667 11.4954333,8.16176667 C11.4954333,8.16176667 8.00036667,11.6568667 8.00036667,11.6568667 C8.00036667,11.6568667 4.50526333,8.16176667 4.50526333,8.16176667 C4.50526333,8.16176667 5.44806667,7.21896667 5.44806667,7.21896667 C5.44806667,7.21896667 7.33333333,9.1042 7.33333333,9.1042 C7.33333333,9.1042 7.33333333,9.1042 7.33333333,9.1042 Z M3.33333333,13.3333333 C3.33333333,13.3333333 3.33333333,12 3.33333333,12 C3.33333333,12 2,12 2,12 C2,12 2,14.6666667 2,14.6666667 C2,14.6666667 14,14.6666667 14,14.6666667 C14,14.6666667 14,12 14,12 C14,12 12.6666667,12 12.6666667,12 C12.6666667,12 12.6666667,13.3333333 12.6666667,13.3333333 C12.6666667,13.3333333 3.33333333,13.3333333 3.33333333,13.3333333 C3.33333333,13.3333333 3.33333333,13.3333333 3.33333333,13.3333333 Z" id="形状" fill="#999999"></path>
    </g>
</svg>