<?xml version="1.0" encoding="UTF-8"?>
<svg width="16px" height="16px" viewBox="0 0 16 16" version="1.1" xmlns="http://www.w3.org/2000/svg" xmlns:xlink="http://www.w3.org/1999/xlink">
    <title>icon/天气类/el-icon-cloudy</title>
    <g id="icon/天气类/el-icon-cloudy" stroke="none" stroke-width="1" fill="none" fill-rule="evenodd">
        <path d="M7.33333333,3.66666667 C5.4984,3.66666667 4.00970333,5.14937333 4.00004667,6.982 C4.00004667,6.982 3.99788333,7.3927 3.99788333,7.3927 C3.99788333,7.3927 3.63006667,7.5755 3.63006667,7.5755 C2.86012667,7.9581 2.33333333,8.75146667 2.33333333,9.66666667 C2.33333333,10.9553333 3.37800333,12 4.66666667,12 C4.66666667,12 11,12 11,12 C12.4727667,12 13.6666667,10.8061 13.6666667,9.33333333 C13.6666667,7.91696667 12.5620667,6.75806667 11.1678,6.67183333 C11.1678,6.67183333 10.6832667,6.64186667 10.6832667,6.64186667 C10.6832667,6.64186667 10.5630667,6.17153333 10.5630667,6.17153333 C10.1948667,4.73099333 8.88756667,3.66666667 7.33333333,3.66666667 C7.33333333,3.66666667 7.33333333,3.66666667 7.33333333,3.66666667 Z M2.68521667,6.5811 C2.89707333,4.19999333 4.8972,2.33333333 7.33333333,2.33333333 C9.3483,2.33333333 11.0637,3.60986667 11.7174,5.39756667 C13.5844333,5.7358 15,7.36903333 15,9.33333333 C15,11.5424667 13.2091333,13.3333333 11,13.3333333 C11,13.3333333 4.66666667,13.3333333 4.66666667,13.3333333 C2.64162333,13.3333333 1,11.6917 1,9.66666667 C1,8.3707 1.67243,7.23276667 2.68521667,6.5811 C2.68521667,6.5811 2.68521667,6.5811 2.68521667,6.5811 Z" id="形状" fill="#999999"></path>
    </g>
</svg>