<?xml version="1.0" encoding="UTF-8"?>
<svg width="16px" height="16px" viewBox="0 0 16 16" version="1.1" xmlns="http://www.w3.org/2000/svg" xmlns:xlink="http://www.w3.org/1999/xlink">
    <title>icon/面性/icon-basic-file-info2</title>
    <g id="icon/面性/icon-basic-file-info2" stroke="none" stroke-width="1" fill="none" fill-rule="evenodd">
        <g id="Group-2722" transform="translate(0.8, 0.8)">
            <path d="M7.2,0 C11.17648,0 14.4,3.223552 14.4,7.2 C14.4,11.17648 11.17648,14.4 7.2,14.4 C3.223552,14.4 0,11.17648 0,7.2 C0,3.223552 3.223552,0 7.2,0 Z" id="路径" fill="#CDE8FE"></path>
            <path d="M7.757032,5.86878639 C7.889584,5.86878639 7.997032,5.97624239 7.997032,6.10878639 L7.997072,6.13423439 C7.997136,6.13657039 7.99716,6.13891439 7.99716,6.14126639 L7.99716,7.01546639 L7.996344,7.02178639 L7.996344,9.49781839 L8.709016,9.49808239 C8.857472,9.49808239 8.977816,9.61842639 8.977816,9.76688239 L8.977816,10.6269944 C8.977816,10.7754504 8.857472,10.8957944 8.709016,10.8957944 L5.7437992,10.8957944 C5.5953456,10.8957944 5.475,10.7754504 5.475,10.6269944 L5.475,9.76688239 C5.475,9.61842639 5.5953456,9.49808239 5.7437992,9.49808239 L6.461112,9.49781839 L6.461112,7.28367439 L6.322904,7.28426639 C6.1744472,7.28426639 6.0541016,7.16392239 6.0541016,7.01546639 L6.0541016,6.14126639 C6.0541016,5.99281039 6.1744472,5.87246639 6.322904,5.87246639 L6.666912,5.87125839 C6.6782,5.86963439 6.689736,5.86878639 6.701472,5.86878639 L7.757032,5.86878639 Z M7.616368,3.51356239 C7.764816,3.51356239 7.885168,3.63390879 7.885168,3.78236239 L7.885168,4.78076239 C7.885168,4.92921839 7.764816,5.04956239 7.616368,5.04956239 L6.617968,5.04956239 C6.469512,5.04956239 6.349168,4.92921839 6.349168,4.78076239 L6.349168,3.78236239 C6.349168,3.63390879 6.469512,3.51356239 6.617968,3.51356239 L7.616368,3.51356239 Z" id="形状结合" fill="#078BFA"></path>
        </g>
    </g>
</svg>