<?xml version="1.0" encoding="UTF-8"?>
<svg width="16px" height="16px" viewBox="0 0 16 16" version="1.1" xmlns="http://www.w3.org/2000/svg" xmlns:xlink="http://www.w3.org/1999/xlink">
    <title>icon/基础类/el-icon-message</title>
    <g id="icon/基础类/el-icon-message" stroke="none" stroke-width="1" fill="none" fill-rule="evenodd">
        <path d="M2.33333333,2 C1.78105,2 1.33333333,2.44771667 1.33333333,3 C1.33333333,3 1.33333333,13 1.33333333,13 C1.33333333,13.5523 1.78105,14 2.33333333,14 C2.33333333,14 13.6666667,14 13.6666667,14 C14.2189667,14 14.6666667,13.5523 14.6666667,13 C14.6666667,13 14.6666667,3 14.6666667,3 C14.6666667,2.44771333 14.2189667,2 13.6666667,2 C13.6666667,2 2.33333333,2 2.33333333,2 C2.33333333,2 2.33333333,2 2.33333333,2 Z M2.66666667,12.6666667 C2.66666667,12.6666667 2.66666667,3.33333333 2.66666667,3.33333333 C2.66666667,3.33333333 13.3333333,3.33333333 13.3333333,3.33333333 C13.3333333,3.33333333 13.3333333,12.6666667 13.3333333,12.6666667 C13.3333333,12.6666667 2.66666667,12.6666667 2.66666667,12.6666667 C2.66666667,12.6666667 2.66666667,12.6666667 2.66666667,12.6666667 Z M4.04613667,5.11853 C4.04613667,5.11853 8,7.85583333 8,7.85583333 C8,7.85583333 11.9538667,5.11853 11.9538667,5.11853 C11.9538667,5.11853 12.7128,6.2148 12.7128,6.2148 C12.7128,6.2148 8.5692,9.08343333 8.5692,9.08343333 C8.22676667,9.3205 7.77323333,9.3205 7.4308,9.08343333 C7.4308,9.08343333 3.28719,6.2148 3.28719,6.2148 C3.28719,6.2148 4.04613667,5.11853 4.04613667,5.11853 C4.04613667,5.11853 4.04613667,5.11853 4.04613667,5.11853 Z" id="形状" fill="#999999"></path>
    </g>
</svg>