<?xml version="1.0" encoding="UTF-8"?>
<svg width="16px" height="16px" viewBox="0 0 16 16" version="1.1" xmlns="http://www.w3.org/2000/svg" xmlns:xlink="http://www.w3.org/1999/xlink">
    <title>icon/面性/el-icon-success</title>
    <g id="icon/面性/el-icon-success" stroke="none" stroke-width="1" fill="none" fill-rule="evenodd">
        <path d="M1.33333333,8 C1.33333333,4.3181 4.3181,1.33333333 8,1.33333333 C11.6819,1.33333333 14.6666667,4.3181 14.6666667,8 C14.6666667,11.6819 11.6819,14.6666667 8,14.6666667 C4.3181,14.6666667 1.33333333,11.6819 1.33333333,8 C1.33333333,8 1.33333333,8 1.33333333,8 Z M7.33333333,10.6095 C7.33333333,10.6095 11.6380667,6.30473333 11.6380667,6.30473333 C11.6380667,6.30473333 10.6952667,5.36193333 10.6952667,5.36193333 C10.6952667,5.36193333 7.33333333,8.72386667 7.33333333,8.72386667 C7.33333333,8.72386667 5.4714,6.86193333 5.4714,6.86193333 C5.4714,6.86193333 4.52860667,7.80473333 4.52860667,7.80473333 C4.52860667,7.80473333 7.33333333,10.6095 7.33333333,10.6095 C7.33333333,10.6095 7.33333333,10.6095 7.33333333,10.6095 Z" id="形状" fill="#999999"></path>
    </g>
</svg>