<?xml version="1.0" encoding="UTF-8"?>
<svg width="16px" height="16px" viewBox="0 0 16 16" version="1.1" xmlns="http://www.w3.org/2000/svg" xmlns:xlink="http://www.w3.org/1999/xlink">
    <title>icon/影音类/icon-general-line-skipnext</title>
    <g id="icon/影音类/icon-general-line-skipnext" stroke="none" stroke-width="1" fill="none" fill-rule="evenodd">
        <path d="M12,8 L12,14 L13.3333333,14 L13.3333333,2 L12,2 L12,8 Z M3.70313333,2.11196767 C3.49856333,1.97558693 3.23553333,1.962872 3.01876333,2.07888467 C2.80199,2.19489733 2.66666667,2.42080333 2.66666667,2.66666667 L2.66666667,13.3333333 C2.66666667,13.5792 2.80198967,13.8051 3.01876,13.9211333 C3.23553333,14.0371333 3.49856333,14.0244 3.70313333,13.8880333 L11.7031333,8.5547 C11.8886,8.43106667 12,8.2229 12,8.00000003 C12,7.7771 11.8886,7.56893333 11.7031333,7.4453 L3.70313333,2.11196767 Z M4,12.0876667 L4,3.91234667 L10.1314667,8 L4,12.0876667 Z" id="形状" fill="#999999"></path>
    </g>
</svg>