<?xml version="1.0" encoding="UTF-8"?>
<svg width="16px" height="16px" viewBox="0 0 16 16" version="1.1" xmlns="http://www.w3.org/2000/svg" xmlns:xlink="http://www.w3.org/1999/xlink">
    <title>icon/通用类/el-icon-coordinate</title>
    <g id="icon/通用类/el-icon-coordinate" stroke="none" stroke-width="1" fill="none" fill-rule="evenodd">
        <path d="M8,1.33333333 C9.84094917,1.33333333 11.3333333,2.8257175 11.3333333,4.66666667 C11.3333333,6.27933814 10.1881135,7.62452919 8.66657365,7.93334014 L8.666,10.6663333 L10.6666667,10.6666667 C12.5076158,10.6666667 14,12.1590508 14,14 L14,14.6666667 L2,14.6666667 L2,14 C2,12.1590508 3.49238417,10.6666667 5.33333333,10.6666667 L7.333,10.6663333 L7.33342635,7.93334014 C5.81188646,7.62452919 4.66666667,6.27933814 4.66666667,4.66666667 C4.66666667,2.8257175 6.15905083,1.33333333 8,1.33333333 Z M10.6666667,12 L5.33333333,12 C4.4654573,12 3.72669258,12.5527913 3.44993059,13.3254824 L12.5526667,13.3333333 C12.2858875,12.5879136 11.6007486,12.0507081 10.7841819,12.0033951 L10.6666667,12 Z M8,2.66666667 C6.8954305,2.66666667 6,3.56209717 6,4.66666667 C6,5.77123617 6.8954305,6.66666667 8,6.66666667 C9.1045695,6.66666667 10,5.77123617 10,4.66666667 C10,3.56209717 9.1045695,2.66666667 8,2.66666667 Z" id="形状结合" fill="#999999"></path>
    </g>
</svg>