<?xml version="1.0" encoding="UTF-8"?>
<svg width="16px" height="16px" viewBox="0 0 16 16" version="1.1" xmlns="http://www.w3.org/2000/svg" xmlns:xlink="http://www.w3.org/1999/xlink">
    <title>icon/编辑类/icon-edit-line-toleft</title>
    <g id="icon/编辑类/icon-edit-line-toleft" stroke="none" stroke-width="1" fill="none" fill-rule="evenodd">
        <path d="M5.42446667,8.3335 C5.42446667,8.3335 7.66666667,8.3335 7.66666667,8.3335 C7.66666667,8.3335 7.66666667,1.66666667 7.66666667,1.66666667 C7.66666667,1.66666667 9,1.66666667 9,1.66666667 C9,1.66666667 9,8.3335 9,8.3335 C9,8.3335 11.2423,8.3335 11.2423,8.3335 C11.5323333,8.3335 11.684,8.67826667 11.488,8.89206667 C11.488,8.89206667 8.5791,12.0654333 8.5791,12.0654333 C8.44696667,12.2095667 8.21976667,12.2095667 8.08766667,12.0654333 C8.08766667,12.0654333 5.17873667,8.89206667 5.17873667,8.89206667 C4.98275333,8.67826667 5.13442,8.3335 5.42446667,8.3335 C5.42446667,8.3335 5.42446667,8.3335 5.42446667,8.3335 Z M2,13 C2,13 2,14.3333333 2,14.3333333 C2,14.3333333 14.6666667,14.3333333 14.6666667,14.3333333 C14.6666667,14.3333333 14.6666667,13 14.6666667,13 C14.6666667,13 2,13 2,13 C2,13 2,13 2,13 Z" id="形状" fill="#999999" transform="translate(8.3333, 8) rotate(-270) translate(-8.3333, -8)"></path>
    </g>
</svg>