<?xml version="1.0" encoding="UTF-8"?>
<svg width="16px" height="16px" viewBox="0 0 16 16" version="1.1" xmlns="http://www.w3.org/2000/svg" xmlns:xlink="http://www.w3.org/1999/xlink">
    <title>icon/面性/icon-basic-file-more</title>
    <g id="icon/面性/icon-basic-file-more" stroke="none" stroke-width="1" fill="none" fill-rule="evenodd">
        <path d="M8,1.33333333 C11.6819,1.33333333 14.6666667,4.3181 14.6666667,8 C14.6666667,11.6819 11.6819,14.6666667 8,14.6666667 C4.3181,14.6666667 1.33333333,11.6819 1.33333333,8 C1.33333333,4.3181 4.3181,1.33333333 8,1.33333333 Z M5.16666667,7 L3.5,7 C3.40796667,7 3.33333333,7.07461933 3.33333333,7.16666667 L3.33333333,8.83333333 C3.33333333,8.92538 3.40796667,9 3.5,9 L5.16666667,9 C5.2587,9 5.33333333,8.92538 5.33333333,8.83333333 L5.33333333,7.16666667 C5.33333333,7.07461933 5.2587,7 5.16666667,7 Z M8.83333333,7 L7.16666667,7 C7.07463333,7 7,7.07461933 7,7.16666667 L7,8.83333333 C7,8.92538 7.07463333,9 7.16666667,9 L8.83333333,9 C8.92536667,9 9,8.92538 9,8.83333333 L9,7.16666667 C9,7.07461933 8.92536667,7 8.83333333,7 Z M12.5,7 L10.8333333,7 C10.7413,7 10.6666667,7.07461933 10.6666667,7.16666667 L10.6666667,8.83333333 C10.6666667,8.92538 10.7413,9 10.8333333,9 L12.5,9 C12.5920333,9 12.6666667,8.92538 12.6666667,8.83333333 L12.6666667,7.16666667 C12.6666667,7.07461933 12.5920333,7 12.5,7 Z" id="形状结合" fill="#999999"></path>
    </g>
</svg>