<?xml version="1.0" encoding="UTF-8"?>
<svg width="16px" height="16px" viewBox="0 0 16 16" version="1.1" xmlns="http://www.w3.org/2000/svg" xmlns:xlink="http://www.w3.org/1999/xlink">
    <title>icon/影音类/icon-general-line-filevideo</title>
    <g id="icon/影音类/icon-general-line-filevideo" stroke="none" stroke-width="1" fill="none" fill-rule="evenodd">
        <path d="M2.66666667,2.66666667 C2.66666667,1.93028667 3.26362,1.33333333 4,1.33333333 C4,1.33333333 11.2761333,1.33333333 11.2761333,1.33333333 C11.2761333,1.33333333 14,4.05719 14,4.05719 C14,4.05719 14,13.3333333 14,13.3333333 C14,14.0697 13.4030333,14.6666667 12.6666667,14.6666667 C12.6666667,14.6666667 4,14.6666667 4,14.6666667 C3.26362,14.6666667 2.66666667,14.0697 2.66666667,13.3333333 C2.66666667,13.3333333 2.66666667,2.66666667 2.66666667,2.66666667 C2.66666667,2.66666667 2.66666667,2.66666667 2.66666667,2.66666667 Z M10.7238667,2.66666667 C10.7238667,2.66666667 4,2.66666667 4,2.66666667 C4,2.66666667 4,13.3333333 4,13.3333333 C4,13.3333333 12.6666667,13.3333333 12.6666667,13.3333333 C12.6666667,13.3333333 12.6666667,4.60947667 12.6666667,4.60947667 C12.6666667,4.60947667 10.7238667,2.66666667 10.7238667,2.66666667 C10.7238667,2.66666667 10.7238667,2.66666667 10.7238667,2.66666667 Z M7,6.08776667 C7,6.08776667 10.6291,8.26523333 10.6291,8.26523333 C10.6291,8.26523333 7,10.4426667 7,10.4426667 C7,10.4426667 7,6.08776667 7,6.08776667 C7,6.08776667 7,6.08776667 7,6.08776667 Z" id="形状" fill="#999999"></path>
    </g>
</svg>