<?xml version="1.0" encoding="UTF-8"?>
<svg width="16px" height="16px" viewBox="0 0 16 16" version="1.1" xmlns="http://www.w3.org/2000/svg" xmlns:xlink="http://www.w3.org/1999/xlink">
    <title>icon/通用类/el-icon-phone-outline</title>
    <g id="icon/通用类/el-icon-phone-outline" stroke="none" stroke-width="1" fill="none" fill-rule="evenodd">
        <path d="M10.3471999,1.62622671 C10.7377333,1.23570237 11.3708999,1.23570204 11.7614333,1.62622671 C11.7614333,1.62622671 13.8556666,3.72048004 13.8556666,3.72048004 C13.8556666,3.72048004 13.9062666,3.83848671 13.9062666,3.83848671 C13.9062666,3.83848671 13.2934999,4.10110004 13.2934999,4.10110004 C13.9062666,3.83848671 13.9064999,3.83906671 13.9067333,3.83965338 C13.9067333,3.83965338 13.9072666,3.84087671 13.9072666,3.84087671 C13.9072666,3.84087671 13.9083666,3.84351004 13.9083666,3.84351004 C13.9083666,3.84351004 13.9108666,3.84949338 13.9108666,3.84949338 C13.9126333,3.85380004 13.9146333,3.85875004 13.9168333,3.86433338 C13.9212333,3.87550338 13.9263999,3.88921671 13.9321999,3.90544004 C13.9437999,3.93788671 13.9578333,3.98038671 13.9726999,4.03266671 C14.0024666,4.13726338 14.0355666,4.28090338 14.0593666,4.46127338 C14.1071666,4.82310005 14.1169333,5.32776671 13.9913999,5.95543338 C13.7394333,7.21533338 12.9533666,8.91956672 10.9364666,10.9364667 C8.91956659,12.9533667 7.21533326,13.7394334 5.95543326,13.9914001 C5.32776659,14.1169334 4.82309992,14.1071667 4.46127325,14.0593667 C4.28090325,14.0355667 4.13726325,14.0024667 4.03266659,13.9727001 C3.98038659,13.9578334 3.93788659,13.9438001 3.90543992,13.9322001 C3.88921659,13.9264001 3.87550325,13.9212334 3.86433325,13.9168334 C3.85874992,13.9146334 3.85379992,13.9126334 3.84949325,13.9108667 C3.84949325,13.9108667 3.84350992,13.9083667 3.84350992,13.9083667 C3.84350992,13.9083667 3.84087659,13.9072667 3.84087659,13.9072667 C3.84087659,13.9072667 3.83965325,13.9067334 3.83965325,13.9067334 C3.83906659,13.9065001 3.83848659,13.9062667 4.10109992,13.2935001 C4.10109992,13.2935001 3.83848659,13.9062667 3.83848659,13.9062667 C3.83848659,13.9062667 3.72047992,13.8556667 3.72047992,13.8556667 C3.72047992,13.8556667 1.62622658,11.7614334 1.62622658,11.7614334 C1.23570225,11.3709001 1.23570225,10.7377334 1.62622658,10.3472001 C1.62622658,10.3472001 3.51184325,8.46160005 3.51184325,8.46160005 C3.90236992,8.07106672 4.53553325,8.07106672 4.92606659,8.46160005 C4.92606659,8.46160005 6.23633326,9.77186672 6.23633326,9.77186672 C6.31879992,9.72560005 6.41296659,9.67030005 6.51726659,9.60510005 C6.95059992,9.33426672 7.55816659,8.89360005 8.22589992,8.22590005 C8.89359993,7.55816672 9.33426659,6.95060005 9.60509993,6.51726671 C9.67029993,6.41296671 9.72559993,6.31880005 9.77186659,6.23633338 C9.77186659,6.23633338 8.46159992,4.92606671 8.46159992,4.92606671 C8.07106659,4.53553338 8.07106659,3.90237004 8.46159992,3.51184338 C8.46159992,3.51184338 10.3471999,1.62622671 10.3471999,1.62622671 C10.3471999,1.62622671 10.3471999,1.62622671 10.3471999,1.62622671 Z M10.5828999,6.10456671 C11.2018999,6.35216671 11.2018333,6.35236671 11.2017333,6.35256671 C11.2017333,6.35256671 11.2015666,6.35296671 11.2015666,6.35296671 C11.2015666,6.35296671 11.2011999,6.35386671 11.2011999,6.35386671 C11.2011999,6.35386671 11.2003333,6.35603338 11.2003333,6.35603338 C11.2003333,6.35603338 11.1980333,6.36163338 11.1980333,6.36163338 C11.1980333,6.36163338 11.1912666,6.37790005 11.1912666,6.37790005 C11.1856999,6.39100005 11.1781666,6.40850005 11.1684333,6.43020005 C11.1490333,6.47363338 11.1209999,6.53383338 11.0834333,6.60896671 C11.0083333,6.75916671 10.8949666,6.96920005 10.7357666,7.22393338 C10.4173333,7.73343338 9.91519993,8.42220005 9.16869993,9.16870005 C8.42219992,9.91520005 7.73343326,10.4173334 7.22393326,10.7357667 C6.96919992,10.8949667 6.75916659,11.0083334 6.60896659,11.0834334 C6.53383326,11.1210001 6.47363326,11.1490334 6.43019992,11.1684334 C6.40849992,11.1781667 6.39099992,11.1857001 6.37789992,11.1912667 C6.37789992,11.1912667 6.36163326,11.1980334 6.36163326,11.1980334 C6.36163326,11.1980334 6.35603326,11.2003334 6.35603326,11.2003334 C6.35603326,11.2003334 6.35386659,11.2012001 6.35386659,11.2012001 C6.35386659,11.2012001 6.35296659,11.2015667 6.35296659,11.2015667 C6.35296659,11.2015667 6.35256659,11.2017334 6.35256659,11.2017334 C6.35236659,11.2018334 6.35216659,11.2019001 6.10456659,10.5829001 C6.10456659,10.5829001 6.35216659,11.2019001 6.35216659,11.2019001 C6.35216659,11.2019001 5.94399992,11.3651667 5.94399992,11.3651667 C5.94399992,11.3651667 4.21894992,9.64010005 4.21894992,9.64010005 C4.21894992,9.64010005 2.80473659,11.0543334 2.80473659,11.0543334 C2.80473659,11.0543334 4.45564992,12.7052334 4.45564992,12.7052334 C4.50120659,12.7158667 4.56144992,12.7277001 4.63585659,12.7375334 C4.85959992,12.7670667 5.21669992,12.7794001 5.69393326,12.6839667 C6.64373326,12.4940001 8.12146659,11.8658334 9.99366659,9.99366672 C11.8658333,8.12146672 12.4939999,6.64373338 12.6839666,5.69393338 C12.7793999,5.21670005 12.7670666,4.85960005 12.7375333,4.63586005 C12.7276999,4.56145005 12.7158666,4.50120671 12.7052333,4.45565005 C12.7052333,4.45565005 11.0543333,2.80473671 11.0543333,2.80473671 C11.0543333,2.80473671 9.64009993,4.21895005 9.64009993,4.21895005 C9.64009993,4.21895005 11.3651666,5.94400005 11.3651666,5.94400005 C11.3651666,5.94400005 11.2018999,6.35216671 11.2018999,6.35216671 C11.2018999,6.35216671 10.5828999,6.10456671 10.5828999,6.10456671 C10.5828999,6.10456671 10.5828999,6.10456671 10.5828999,6.10456671 Z" id="形状" fill="#999999"></path>
    </g>
</svg>