<?xml version="1.0" encoding="UTF-8"?>
<svg width="16px" height="16px" viewBox="0 0 16 16" version="1.1" xmlns="http://www.w3.org/2000/svg" xmlns:xlink="http://www.w3.org/1999/xlink">
    <title>icon/面性/el-icon-s-comment</title>
    <g id="icon/面性/el-icon-s-comment" stroke="none" stroke-width="1" fill="none" fill-rule="evenodd">
        <path d="M14.0000334,1.33333349 C14.3682334,1.33333349 14.6666334,1.63812249 14.6666334,2.01409949 L14.6666334,11.6599335 C14.6666334,12.0359335 14.3682334,12.3407335 14.0000334,12.3407335 L10.6666634,12.3407335 L8.47140337,14.4672335 C8.21105337,14.7331335 7.78894337,14.7331335 7.52859337,14.4672335 L5.33333337,12.3407335 L2.00000037,12.3407335 C1.63181037,12.3407335 1.33333337,12.0359335 1.33333337,11.6599335 L1.33333337,2.01409949 C1.33333337,1.63812249 1.63181037,1.33333349 2.00000037,1.33333349 L14.0000334,1.33333349 Z M9.33333337,7.33333349 L4.00000337,7.33333349 L4.00000337,8.66666349 L9.33333337,8.66666349 L9.33333337,7.33333349 Z M12.0000334,4.66666349 L4.00000337,4.66666349 L4.00000337,6.00000349 L12.0000334,6.00000349 L12.0000334,4.66666349 Z" id="Combined-Shape" fill="#999999"></path>
    </g>
</svg>