<?xml version="1.0" encoding="UTF-8"?>
<svg width="16px" height="16px" viewBox="0 0 16 16" version="1.1" xmlns="http://www.w3.org/2000/svg" xmlns:xlink="http://www.w3.org/1999/xlink">
    <title>icon/消费类/el-icon-money</title>
    <g id="icon/消费类/el-icon-money" stroke="none" stroke-width="1" fill="none" fill-rule="evenodd">
        <path d="M11.3333333,2 C12.069713,2 12.6666667,2.59695367 12.6666667,3.33333333 L12.6666667,4.66666667 L13.3333333,4.66666667 C14.069713,4.66666667 14.6666667,5.26362033 14.6666667,6 L14.6666667,12 C14.6666667,12.7363797 14.069713,13.3333333 13.3333333,13.3333333 L4.66666667,13.3333333 C3.930287,13.3333333 3.33333333,12.7363797 3.33333333,12 L3.33333333,10.666 L2.66666667,10.6666667 C1.930287,10.6666667 1.33333333,10.069713 1.33333333,9.33333333 L1.33333333,3.33333333 C1.33333333,2.59695367 1.930287,2 2.66666667,2 L11.3333333,2 Z M12.6666667,9.33333333 C12.6666667,10.069713 12.069713,10.6666667 11.3333333,10.6666667 L4.66633333,10.666 L4.66666667,12 L13.3333333,12 L13.3333333,6 L12.6666667,6 L12.6666667,9.33333333 Z M11.3333333,3.33333333 L2.66666667,3.33333333 L2.66666667,9.33333333 L11.3333333,9.33333333 L11.3333333,3.33333333 Z M7,4 C8.28866442,4 9.33333333,5.04466892 9.33333333,6.33333333 C9.33333333,7.62199775 8.28866442,8.66666667 7,8.66666667 C5.71133558,8.66666667 4.66666667,7.62199775 4.66666667,6.33333333 C4.66666667,5.04466892 5.71133558,4 7,4 Z M7,5.33333333 C6.44771525,5.33333333 6,5.78104858 6,6.33333333 C6,6.88561808 6.44771525,7.33333333 7,7.33333333 C7.55228475,7.33333333 8,6.88561808 8,6.33333333 C8,5.78104858 7.55228475,5.33333333 7,5.33333333 Z" id="形状结合" fill="#979797" fill-rule="nonzero"></path>
    </g>
</svg>