<?xml version="1.0" encoding="UTF-8"?>
<svg width="16px" height="16px" viewBox="0 0 16 16" version="1.1" xmlns="http://www.w3.org/2000/svg" xmlns:xlink="http://www.w3.org/1999/xlink">
    <title>icon/通用类/icon-general-line-stamp</title>
    <g id="icon/通用类/icon-general-line-stamp" stroke="none" stroke-width="1" fill="none" fill-rule="evenodd">
        <path d="M13.316744,10 C13.8690287,10 14.316744,10.4477153 14.316744,11 L14.316744,13.3244141 C14.316744,13.8766988 13.8690287,14.3244141 13.316744,14.3244141 L2.65007731,14.3244141 C2.09779256,14.3244141 1.65007731,13.8766988 1.65007731,13.3244141 L1.65007731,11 C1.65007731,10.4477153 2.09779256,10 2.65007731,10 L13.316744,10 Z M12.9834106,11.3333333 L2.98341064,11.3333333 L2.98341064,12.9906667 L12.9834106,12.9906667 L12.9834106,11.3333333 Z M8,1.66666667 C9.84093333,1.66666667 11.3333333,3.15905 11.3333333,5 C11.3333333,5.8483 11.0159333,6.62283333 10.4947667,7.2107 C10.4947667,7.2107 11.7626,10 11.7626,10 L10.298,10 C10.298,10 8.8753,6.87006667 8.8753,6.87006667 C8.8753,6.87006667 9.27006667,6.54506667 9.27006667,6.54506667 C9.71693333,6.17716667 10,5.62193333 10,5 C10,3.89543 9.10456667,3 8,3 C6.89543333,3 6,3.89543 6,5 C6,5.62193333 6.28306667,6.17716667 6.72993333,6.54506667 C6.72993333,6.54506667 7.1247,6.87006667 7.1247,6.87006667 C7.1247,6.87006667 5.702,10 5.702,10 L4.23739,10 C4.23739,10 5.50523333,7.2107 5.50523333,7.2107 C4.98407667,6.62283333 4.66666667,5.8483 4.66666667,5 C4.66666667,3.15905 6.15906667,1.66666667 8,1.66666667 Z" id="形状结合" fill="#999999" fill-rule="nonzero"></path>
    </g>
</svg>