<?xml version="1.0" encoding="UTF-8"?>
<svg width="16px" height="16px" viewBox="0 0 16 16" version="1.1" xmlns="http://www.w3.org/2000/svg" xmlns:xlink="http://www.w3.org/1999/xlink">
    <title>icon/基础类/el-icon-refresh</title>
    <g id="icon/基础类/el-icon-refresh" stroke="none" stroke-width="1" fill="none" fill-rule="evenodd">
        <path d="M4.46544323,4.46354608 C5.21107656,3.71789941 6.13184323,3.25775941 7.09494323,3.08132275 C7.09494323,3.08132275 6.8547099,1.76981608 6.8547099,1.76981608 C5.63394323,1.99344875 4.4656799,2.57769275 3.52263323,3.52073941 C1.04931323,5.99404941 1.04931323,10.0041161 3.52263323,12.4774161 C3.52263323,12.4774161 2.38456323,13.6154827 2.38456323,13.6154827 C2.38456323,13.6154827 5.6035099,13.6154827 5.6035099,13.6154827 C5.6035099,13.6154827 5.6035099,10.3965494 5.6035099,10.3965494 C5.6035099,10.3965494 4.46544323,11.5346161 4.46544323,11.5346161 C2.5128199,9.58198275 2.5128199,6.41618275 4.46544323,4.46354608 C4.46544323,4.46354608 4.46544323,4.46354608 4.46544323,4.46354608 Z M13.6162099,2.38384941 C13.6162099,2.38384941 10.3972432,2.38384941 10.3972432,2.38384941 C10.3972432,2.38384941 10.3972432,5.60281608 10.3972432,5.60281608 C10.3972432,5.60281608 11.5353099,4.46472941 11.5353099,4.46472941 C13.4879432,6.41734941 13.4879432,9.58318275 11.5353099,11.5357827 C10.7896766,12.2814494 9.86894323,12.7415827 8.9058099,12.9180161 C8.9058099,12.9180161 9.14607656,14.2295161 9.14607656,14.2295161 C10.3668099,14.0058827 11.5350766,13.4216494 12.4781432,12.4786161 C14.9514432,10.0052827 14.9514432,5.99524941 12.4781432,3.52191941 C12.4781432,3.52191941 13.6162099,2.38384941 13.6162099,2.38384941 C13.6162099,2.38384941 13.6162099,2.38384941 13.6162099,2.38384941 Z" id="形状" fill="#999999"></path>
    </g>
</svg>