<?xml version="1.0" encoding="UTF-8"?>
<svg width="16px" height="16px" viewBox="0 0 16 16" version="1.1" xmlns="http://www.w3.org/2000/svg" xmlns:xlink="http://www.w3.org/1999/xlink">
    <title>icon/通用类/icon-general-line-command</title>
    <g id="icon/通用类/icon-general-line-command" stroke="none" stroke-width="1" fill="none" fill-rule="evenodd">
        <path d="M1.66666667,4.33333333 C1.66666667,2.86057333 2.86057333,1.66666667 4.33333333,1.66666667 C5.8061,1.66666667 7,2.86057333 7,4.33333333 C7,4.33333333 7,5.66666667 7,5.66666667 C7,5.66666667 9,5.66666667 9,5.66666667 C9,5.66666667 9,4.33333333 9,4.33333333 C9,2.86057333 10.1939,1.66666667 11.6666667,1.66666667 C13.1394333,1.66666667 14.3333333,2.86057333 14.3333333,4.33333333 C14.3333333,5.8061 13.1394333,7 11.6666667,7 C11.6666667,7 10.3333333,7 10.3333333,7 C10.3333333,7 10.3333333,9 10.3333333,9 C10.3333333,9 11.6666667,9 11.6666667,9 C13.1394333,9 14.3333333,10.1939 14.3333333,11.6666667 C14.3333333,13.1394333 13.1394333,14.3333333 11.6666667,14.3333333 C10.1939,14.3333333 9,13.1394333 9,11.6666667 C9,11.6666667 9,10.3333333 9,10.3333333 C9,10.3333333 7,10.3333333 7,10.3333333 C7,10.3333333 7,11.6666667 7,11.6666667 C7,13.1394333 5.8061,14.3333333 4.33333333,14.3333333 C2.86057333,14.3333333 1.66666667,13.1394333 1.66666667,11.6666667 C1.66666667,10.1939 2.86057333,9 4.33333333,9 C4.33333333,9 5.66666667,9 5.66666667,9 C5.66666667,9 5.66666667,7 5.66666667,7 C5.66666667,7 4.33333333,7 4.33333333,7 C2.86057333,7 1.66666667,5.8061 1.66666667,4.33333333 C1.66666667,4.33333333 1.66666667,4.33333333 1.66666667,4.33333333 Z M5.66666667,5.66666667 C5.66666667,5.66666667 5.66666667,4.33333333 5.66666667,4.33333333 C5.66666667,3.59695333 5.0697,3 4.33333333,3 C3.59695333,3 3,3.59695333 3,4.33333333 C3,5.0697 3.59695333,5.66666667 4.33333333,5.66666667 C4.33333333,5.66666667 5.66666667,5.66666667 5.66666667,5.66666667 C5.66666667,5.66666667 5.66666667,5.66666667 5.66666667,5.66666667 Z M7,7 C7,7 7,9 7,9 C7,9 9,9 9,9 C9,9 9,7 9,7 C9,7 7,7 7,7 C7,7 7,7 7,7 Z M5.66666667,10.3333333 C5.66666667,10.3333333 4.33333333,10.3333333 4.33333333,10.3333333 C3.59695333,10.3333333 3,10.9303 3,11.6666667 C3,12.4030333 3.59695333,13 4.33333333,13 C5.0697,13 5.66666667,12.4030333 5.66666667,11.6666667 C5.66666667,11.6666667 5.66666667,10.3333333 5.66666667,10.3333333 C5.66666667,10.3333333 5.66666667,10.3333333 5.66666667,10.3333333 Z M10.3333333,10.3333333 C10.3333333,10.3333333 10.3333333,11.6666667 10.3333333,11.6666667 C10.3333333,12.4030333 10.9303,13 11.6666667,13 C12.4030333,13 13,12.4030333 13,11.6666667 C13,10.9303 12.4030333,10.3333333 11.6666667,10.3333333 C11.6666667,10.3333333 10.3333333,10.3333333 10.3333333,10.3333333 C10.3333333,10.3333333 10.3333333,10.3333333 10.3333333,10.3333333 Z M10.3333333,5.66666667 C10.3333333,5.66666667 11.6666667,5.66666667 11.6666667,5.66666667 C12.4030333,5.66666667 13,5.0697 13,4.33333333 C13,3.59695333 12.4030333,3 11.6666667,3 C10.9303,3 10.3333333,3.59695333 10.3333333,4.33333333 C10.3333333,4.33333333 10.3333333,5.66666667 10.3333333,5.66666667 C10.3333333,5.66666667 10.3333333,5.66666667 10.3333333,5.66666667 Z" id="形状" fill="#999999"></path>
    </g>
</svg>