<?xml version="1.0" encoding="UTF-8"?>
<svg width="16px" height="16px" viewBox="0 0 16 16" version="1.1" xmlns="http://www.w3.org/2000/svg" xmlns:xlink="http://www.w3.org/1999/xlink">
    <title>icon/编辑类/icon-edit-line-sort</title>
    <g id="icon/编辑类/icon-edit-line-sort" stroke="none" stroke-width="1" fill="none" fill-rule="evenodd">
        <path d="M2.66666667,14.6666667 C2.66666667,14.6666667 2.66666667,2 2.66666667,2 C2.66666667,2 4,2 4,2 C4,2 4,14.6666667 4,14.6666667 C4,14.6666667 2.66666667,14.6666667 2.66666667,14.6666667 C2.66666667,14.6666667 2.66666667,14.6666667 2.66666667,14.6666667 Z M7.66666667,14.6666667 C7.66666667,14.6666667 7.66666667,4.83333333 7.66666667,4.83333333 C7.66666667,4.83333333 9,4.83333333 9,4.83333333 C9,4.83333333 9,14.6666667 9,14.6666667 C9,14.6666667 7.66666667,14.6666667 7.66666667,14.6666667 C7.66666667,14.6666667 7.66666667,14.6666667 7.66666667,14.6666667 Z M12.6666667,14.6666667 C12.6666667,14.6666667 12.6666667,10 12.6666667,10 C12.6666667,10 14,10 14,10 C14,10 14,14.6666667 14,14.6666667 C14,14.6666667 12.6666667,14.6666667 12.6666667,14.6666667 C12.6666667,14.6666667 12.6666667,14.6666667 12.6666667,14.6666667 Z" id="形状" fill="#999999" transform="translate(8.3333, 8.3333) rotate(90) translate(-8.3333, -8.3333)"></path>
    </g>
</svg>