<?xml version="1.0" encoding="UTF-8"?>
<svg width="16px" height="16px" viewBox="0 0 16 16" version="1.1" xmlns="http://www.w3.org/2000/svg" xmlns:xlink="http://www.w3.org/1999/xlink">
    <title>icon/通用类/icon-general-line-safe1 2</title>
    <g id="icon/通用类/icon-general-line-safe1" stroke="none" stroke-width="1" fill="none" fill-rule="evenodd">
        <path d="M8.00003333,1.33333333 C8.00003333,1.33333333 8.3308,1.52234033 8.3308,1.52234033 C9.42006667,2.14479 10.6851667,2.54334 11.6972667,2.78624333 C12.1995333,2.90679 12.6312,2.98707 12.9359667,3.03703333 C13.0882,3.06198667 13.2083333,3.07930667 13.2892667,3.09026333 C13.3297333,3.09574 13.3603667,3.09962 13.3803,3.10206333 C13.3803,3.10206333 13.402,3.10467333 13.402,3.10467333 C13.402,3.10467333 13.4069667,3.10524333 13.4069667,3.10524333 C13.4069667,3.10524333 13.4073333,3.10528667 13.4073333,3.10528667 C13.4073333,3.10528667 14,3.17114 14,3.17114 C14,3.17114 14,8.823 14,8.823 C14,8.823 13.9909333,8.87743333 13.9909333,8.87743333 C13.9909333,8.87743333 13.3333333,8.76783333 13.3333333,8.76783333 C13.9909333,8.87743333 13.9908667,8.8778 13.9908,8.87816667 C13.9908,8.87816667 13.9906667,8.879 13.9906667,8.879 C13.9906667,8.879 13.9903333,8.88096667 13.9903333,8.88096667 C13.9903333,8.88096667 13.9894667,8.88596667 13.9894667,8.88596667 C13.9894667,8.88596667 13.9868667,8.9003 13.9868667,8.9003 C13.9847667,8.91176667 13.9818333,8.92703333 13.978,8.9459 C13.9703667,8.98356667 13.9590333,9.03566667 13.9432333,9.10046667 C13.9116,9.22996667 13.8618333,9.4108 13.7870333,9.62953333 C13.6377,10.0662667 13.3868667,10.6586667 12.9776,11.2959 C12.1535667,12.5789667 10.6952333,14.0286 8.18433333,14.7508667 C8.18433333,14.7508667 8.00003333,14.8038667 8.00003333,14.8038667 C8.00003333,14.8038667 7.81573333,14.7508667 7.81573333,14.7508667 C5.3048,14.0286 3.84644667,12.5789667 3.02239333,11.2959 C2.61314333,10.6586667 2.36231,10.0662667 2.212951,9.62953333 C2.138152,9.4108 2.08840233,9.22996667 2.05678367,9.10046667 C2.04096367,9.03566667 2.02964977,8.98356667 2.02198807,8.9459 C2.01815633,8.92703333 2.01523503,8.91176667 2.0131182,8.9003 C2.0131182,8.9003 2.0105319,8.88596667 2.0105319,8.88596667 C2.0105319,8.88596667 2.0096657,8.88096667 2.0096657,8.88096667 C2.0096657,8.88096667 2.00933493,8.879 2.00933493,8.879 C2.00933493,8.879 2.00919457,8.87816667 2.00919457,8.87816667 C2.00913127,8.8778 2.0090707,8.87743333 2.66666667,8.76783333 C2.66666667,8.76783333 2.0090707,8.87743333 2.0090707,8.87743333 C2.0090707,8.87743333 2,8.823 2,8.823 C2,8.823 2,3.17114 2,3.17114 C2,3.17114 2.59304667,3.10524333 2.59304667,3.10524333 C2.59304667,3.10524333 2.59799333,3.10467333 2.59799333,3.10467333 C2.59799333,3.10467333 2.61970667,3.10206333 2.61970667,3.10206333 C2.63962667,3.09962 2.67026,3.09574 2.71072,3.09026333 C2.79166667,3.07930667 2.91179667,3.06198667 3.06402667,3.03703333 C3.36879,2.98707 3.80047667,2.90679 4.30275667,2.78624333 C5.31485333,2.54334 6.57996667,2.14479 7.66926667,1.522337 C7.66926667,1.522337 8.00003333,1.33333333 8.00003333,1.33333333 C8.00003333,1.33333333 8.00003333,1.33333333 8.00003333,1.33333333 Z M3.33333333,4.34392333 C3.33333333,4.34392333 3.33333333,8.7029 3.33333333,8.7029 C3.33779333,8.72366667 3.34395,8.75093333 3.35207,8.7842 C3.37514,8.8787 3.41393,9.02083333 3.47455,9.1981 C3.59602333,9.5533 3.80352667,10.0448 4.14428,10.5753667 C4.80072667,11.5975 5.95926667,12.7790333 8.00003333,13.4143 C10.0407667,12.7790333 11.1993,11.5975 11.8557333,10.5753667 C12.1964667,10.0448 12.4039667,9.5533 12.5254667,9.1981 C12.5860667,9.02083333 12.6248667,8.8787 12.6479333,8.7842 C12.6560667,8.75093333 12.6622,8.72366667 12.6666667,8.7029 C12.6666667,8.7029 12.6666667,4.34392333 12.6666667,4.34392333 C12.3403,4.28933333 11.8969333,4.20536333 11.3861,4.08276 C10.4088333,3.84822 9.1567,3.46580667 8.00003333,2.8608 C6.84333333,3.46580667 5.59116667,3.84822 4.61391667,4.08276 C4.10307333,4.20536333 3.65971333,4.28933333 3.33333333,4.34392333 C3.33333333,4.34392333 3.33333333,4.34392333 3.33333333,4.34392333 Z M11.4129667,6.62753333 C11.4129667,6.62753333 7.60823333,10.4323 7.60823333,10.4323 C7.60823333,10.4323 5.13682667,7.96086667 5.13682667,7.96086667 C5.13682667,7.96086667 6.07963333,7.01806667 6.07963333,7.01806667 C6.07963333,7.01806667 7.60823333,8.54666667 7.60823333,8.54666667 C7.60823333,8.54666667 10.4701667,5.68473333 10.4701667,5.68473333 C10.4701667,5.68473333 11.4129667,6.62753333 11.4129667,6.62753333 C11.4129667,6.62753333 11.4129667,6.62753333 11.4129667,6.62753333 Z" id="形状" fill="#999999"></path>
    </g>
</svg>