<?xml version="1.0" encoding="UTF-8"?>
<svg width="16px" height="16px" viewBox="0 0 16 16" version="1.1" xmlns="http://www.w3.org/2000/svg" xmlns:xlink="http://www.w3.org/1999/xlink">
    <title>icon/通用类/icon-general-line-launch</title>
    <g id="icon/通用类/icon-general-line-launch" stroke="none" stroke-width="1" fill="none" fill-rule="evenodd">
        <path d="M12.6666667,2 C13.4030463,2 14,2.59695367 14,3.33333333 L14,13.3333333 C14,14.069713 13.4030463,14.6666667 12.6666667,14.6666667 L2.66666667,14.6666667 C1.930287,14.6666667 1.33333333,14.069713 1.33333333,13.3333333 L1.33333333,9 L2.66633333,9 L2.66666667,13.3333333 L12.6666667,13.3333333 L12.6666667,3.33333333 L8.33333333,3.333 L8.33333333,2 L12.6666667,2 Z M6.33335951,2.00017589 L6.33333333,3.33351001 L3.6090895,3.33341334 C3.6090895,3.33341334 3.76431737,3.48863334 4.02303049,3.74733334 L4.26892109,3.99321148 C4.35852785,4.08281369 4.45537556,4.17965649 4.5582574,4.28253311 L5.42415437,5.14838617 C6.17721319,5.90140682 7.03888627,6.76303621 7.7484994,7.47261335 L8.08942747,7.81352414 C8.3609631,8.08504601 8.59855678,8.32262764 8.78335187,8.50741336 L9.18793996,8.91198094 L9.19729286,8.92133336 C9.19729286,8.92133336 8.88945068,9.22919731 8.62558596,9.49308069 L8.44143037,9.6772493 C8.41394446,9.70473715 8.38851999,9.73016342 8.36584412,9.75284089 L8.26826914,9.85042277 L8.25452619,9.8641667 L4.11537062,5.72523582 C3.81971665,5.4295979 3.55046035,5.16035622 3.32645722,4.93636524 L3.08058172,4.6905031 C2.89579799,4.5057294 2.76380961,4.37374818 2.70347207,4.31341391 L2.66666617,4.27661001 L2.66666617,6.99983335 L1.33333333,6.99983335 L1.33333333,2 L6.33335951,2.00017589 Z" id="形状结合" fill="#999999"></path>
    </g>
</svg>