<?xml version="1.0" encoding="UTF-8"?>
<svg width="16px" height="16px" viewBox="0 0 16 16" version="1.1" xmlns="http://www.w3.org/2000/svg" xmlns:xlink="http://www.w3.org/1999/xlink">
    <title>icon/消费类/el-icon-wallet</title>
    <g id="icon/消费类/el-icon-wallet" stroke="none" stroke-width="1" fill="none" fill-rule="evenodd">
        <path d="M10,1.33333333 L9.99933333,3.99933333 L13.3333333,4 C14.069713,4 14.6666667,4.59695367 14.6666667,5.33333333 L14.6666667,12.6666667 C14.6666667,13.4030463 14.069713,14 13.3333333,14 L2.66666667,14 C1.930287,14 1.33333333,13.4030463 1.33333333,12.6666667 L1.33333333,2.66666667 C1.33333333,1.930287 1.930287,1.33333333 2.66666667,1.33333333 L10,1.33333333 Z M13.3333333,5.33333333 L2.66666667,5.33333333 L2.66666667,12.6666667 L13.3333333,12.6666667 L13.3333333,5.33333333 Z M11,8 C11.5522847,8 12,8.44771525 12,9 C12,9.55228475 11.5522847,10 11,10 C10.4477153,10 10,9.55228475 10,9 C10,8.44771525 10.4477153,8 11,8 Z M8.66666667,2.66666667 L2.66666667,2.66666667 L2.66666667,4 L8.66666667,4 L8.66666667,2.66666667 Z" id="形状结合" fill="#999999" fill-rule="nonzero"></path>
    </g>
</svg>