<?xml version="1.0" encoding="UTF-8"?>
<svg width="16px" height="16px" viewBox="0 0 16 16" version="1.1" xmlns="http://www.w3.org/2000/svg" xmlns:xlink="http://www.w3.org/1999/xlink">
    <title>icon/通用类/el-icon-monitor</title>
    <g id="icon/通用类/el-icon-monitor" stroke="none" stroke-width="1" fill="none" fill-rule="evenodd">
        <path d="M7.33333333,12.2631579 L3.33333333,12.2631579 C2.59695367,12.2631579 2,11.6504949 2,10.8947368 L2,3.36842105 C2,2.61266297 2.59695367,2 3.33333333,2 L12.6666667,2 C13.4030463,2 14,2.61266297 14,3.36842105 L14,10.8947368 C14,11.6504949 13.4030463,12.2631579 12.6666667,12.2631579 L8.66666667,12.2631579 L8.66666667,13.6315789 L10.6666667,13.6315789 C11.0348565,13.6315789 11.3333333,13.9300558 11.3333333,14.2982456 L11.3333333,14.3333333 C11.3333333,14.7015232 11.0348565,15 10.6666667,15 L5.33333333,15 C4.9651435,15 4.66666667,14.7015232 4.66666667,14.3333333 L4.66666667,14.2982456 C4.66666667,13.9300558 4.9651435,13.6315789 5.33333333,13.6315789 L7.33333333,13.6315789 L7.33333333,12.2631579 Z M12.6666667,3.36842105 L3.33333333,3.36842105 L3.33333333,10.8947368 L12.6666667,10.8947368 L12.6666667,3.36842105 Z" id="形状结合" fill="#999999"></path>
    </g>
</svg>