<?xml version="1.0" encoding="UTF-8"?>
<svg width="16px" height="16px" viewBox="0 0 16 16" version="1.1" xmlns="http://www.w3.org/2000/svg" xmlns:xlink="http://www.w3.org/1999/xlink">
    <title>icon/通用类/el-icon-data-line</title>
    <g id="icon/通用类/el-icon-data-line" stroke="none" stroke-width="1" fill="none" fill-rule="evenodd">
        <path d="M13.6666667,2.01178233 C14.2189514,2.01178233 14.6666667,2.45949758 14.6666667,3.01178233 L14.6666667,11.0117823 C14.6666667,11.5640671 14.2189514,12.0117823 13.6666667,12.0117823 L11.2253333,12.0126667 L12.8129678,13.7744925 L11.8221081,14.6666667 L9.43133333,12.0126667 L6.52633333,12.0126667 L4.13644541,14.6666667 L3.14558564,13.7744925 L4.73233333,12.0126667 L2.33333333,12.0117823 C1.78104858,12.0117823 1.33333333,11.5640671 1.33333333,11.0117823 L1.33333333,3.01178233 C1.33333333,2.45949758 1.78104858,2.01178233 2.33333333,2.01178233 Z M13.3333333,3.35350037 L2.66666667,3.35350037 L2.66666667,10.6868337 L13.3333333,10.6868337 L13.3333333,3.35350037 Z M11.0886488,5.33333333 L12,6.21525817 L8.96663393,9.15068072 L8.51095832,8.7097183 L7.03336607,7.28032606 L4.91135121,9.33333333 L4,8.4514085 L6.57769047,5.95694837 L7.03336607,5.51598595 L7.48904168,5.95694837 L8.96663393,7.38634061 L11.0886488,5.33333333 Z" id="形状结合" fill="#999999"></path>
    </g>
</svg>