<?xml version="1.0" encoding="UTF-8"?>
<svg width="16px" height="16px" viewBox="0 0 16 16" version="1.1" xmlns="http://www.w3.org/2000/svg" xmlns:xlink="http://www.w3.org/1999/xlink">
    <title>icon/面性/el-icon-user-solid</title>
    <g id="icon/面性/el-icon-user-solid" stroke="none" stroke-width="1" fill="none" fill-rule="evenodd">
        <path d="M10,8.66667 C11.84095,8.66667 14,10.09523 14,12.6667 L14,14.6667 C14,15.0349 13.7015,15.3333 13.3333,15.3333 L2.666667,15.3333 C2.298477,15.3333 2,15.0349 2,14.6667 L2,12.6667 C2,10.09739 4.15905,8.66667 6,8.66667 L10,8.66667 Z M8,1 C9.84095,1 11.33333,2.49238 11.33333,4.33333 C11.33333,6.17428 9.84095,7.66667 8,7.66667 C6.15905,7.66667 4.66667,6.17428 4.66667,4.33333 C4.66667,2.49238 6.15905,1 8,1 Z" id="形状" fill="#999999"></path>
    </g>
</svg>