<?xml version="1.0" encoding="UTF-8"?>
<svg width="16px" height="16px" viewBox="0 0 16 16" version="1.1" xmlns="http://www.w3.org/2000/svg" xmlns:xlink="http://www.w3.org/1999/xlink">
    <title>icon/编辑类/el-icon-connection</title>
    <g id="icon/编辑类/el-icon-connection" stroke="none" stroke-width="1" fill="none" fill-rule="evenodd">
        <path d="M9.33333333,8.66666667 C10.069713,8.66666667 10.6666667,8.069713 10.6666667,7.33333333 L10.6666667,4.66666667 C10.6666667,3.930287 10.069713,3.33333333 9.33333333,3.33333333 L3.33333333,3.33333333 C2.59695367,3.33333333 2,3.930287 2,4.66666667 L2,7.33333333 C2,8.069713 2.59695367,8.66666667 3.33333333,8.66666667 L3.33333333,10 C1.860574,10 0.666666667,8.80609267 0.666666667,7.33333333 L0.666666667,4.66666667 C0.666666667,3.19390733 1.860574,2 3.33333333,2 L9.33333333,2 C10.8060927,2 12,3.19390733 12,4.66666667 L12,7.33333333 C12,8.80609267 10.8060927,10 9.33333333,10 L6.66666667,10 L6.66666667,8.66666667 L9.33333333,8.66666667 Z" id="形状结合" fill="#979797" fill-rule="nonzero"></path>
        <path d="M12.6666667,12.6666667 C13.4030463,12.6666667 14,12.069713 14,11.3333333 L14,8.66666667 C14,7.930287 13.4030463,7.33333333 12.6666667,7.33333333 L6.66666667,7.33333333 C5.930287,7.33333333 5.33333333,7.930287 5.33333333,8.66666667 L5.33333333,11.3333333 C5.33333333,12.069713 5.930287,12.6666667 6.66666667,12.6666667 L6.66666667,14 C5.19390733,14 4,12.8060927 4,11.3333333 L4,8.66666667 C4,7.19390733 5.19390733,6 6.66666667,6 L12.6666667,6 C14.139426,6 15.3333333,7.19390733 15.3333333,8.66666667 L15.3333333,11.3333333 C15.3333333,12.8060927 14.139426,14 12.6666667,14 L10,14 L10,12.6666667 L12.6666667,12.6666667 Z" id="形状结合备份" fill="#979797" fill-rule="nonzero" transform="translate(9.6667, 10) scale(-1, -1) translate(-9.6667, -10)"></path>
    </g>
</svg>