<?xml version="1.0" encoding="UTF-8"?>
<svg width="16px" height="16px" viewBox="0 0 16 16" version="1.1" xmlns="http://www.w3.org/2000/svg" xmlns:xlink="http://www.w3.org/1999/xlink">
    <title>icon/通用类/el-icon-turn-off</title>
    <g id="icon/通用类/el-icon-turn-off" stroke="none" stroke-width="1" fill="none" fill-rule="evenodd">
        <path d="M11,3.33333333 C13.3932339,3.33333333 15.3333333,5.27343275 15.3333333,7.66666667 C15.3333333,10.0599006 13.3932339,12 11,12 L5,12 C2.60676608,12 0.666666667,10.0599006 0.666666667,7.66666667 C0.666666667,5.27343275 2.60676608,3.33333333 5,3.33333333 L11,3.33333333 Z M11,4.66666667 L5,4.66666667 C3.34314575,4.66666667 2,6.00981242 2,7.66666667 C2,9.32352092 3.34314575,10.6666667 5,10.6666667 L11,10.6666667 C12.6568542,10.6666667 14,9.32352092 14,7.66666667 C14,6.00981242 12.6568542,4.66666667 11,4.66666667 Z" id="矩形" fill="#979797" fill-rule="nonzero"></path>
        <path d="M5.33333333,5.33333333 C6.62199775,5.33333333 7.66666667,6.37800225 7.66666667,7.66666667 C7.66666667,8.95533108 6.62199775,10 5.33333333,10 C4.04466892,10 3,8.95533108 3,7.66666667 C3,6.37800225 4.04466892,5.33333333 5.33333333,5.33333333 Z M5.33333333,6.66666667 C4.78104858,6.66666667 4.33333333,7.11438192 4.33333333,7.66666667 C4.33333333,8.21895142 4.78104858,8.66666667 5.33333333,8.66666667 C5.88561808,8.66666667 6.33333333,8.21895142 6.33333333,7.66666667 C6.33333333,7.11438192 5.88561808,6.66666667 5.33333333,6.66666667 Z" id="椭圆形" fill="#979797" fill-rule="nonzero"></path>
    </g>
</svg>