<?xml version="1.0" encoding="UTF-8"?>
<svg width="16px" height="16px" viewBox="0 0 16 16" version="1.1" xmlns="http://www.w3.org/2000/svg" xmlns:xlink="http://www.w3.org/1999/xlink">
    <title>icon/面性/el-icon-question</title>
    <g id="icon/面性/el-icon-question" stroke="none" stroke-width="1" fill="none" fill-rule="evenodd">
        <path d="M1.33333333,8 C1.33333333,4.3181 4.3181,1.33333333 8,1.33333333 C11.6819,1.33333333 14.6666667,4.3181 14.6666667,8 C14.6666667,11.6819 11.6819,14.6666667 8,14.6666667 C4.3181,14.6666667 1.33333333,11.6819 1.33333333,8 C1.33333333,8 1.33333333,8 1.33333333,8 Z M6.86653333,6.65953333 C6.86653333,6.65953333 6.86653333,6.5058 6.86653333,6.5058 C6.86733333,6.3229 6.93276667,6.12 7.0787,5.96746667 C7.2135,5.8266 7.4762,5.66666667 7.99603333,5.66666667 C8.48416667,5.66666667 8.82363333,5.89973333 8.99673333,6.16433333 C9.1816,6.44686667 9.14516667,6.68396667 9.05743333,6.80243333 C8.948,6.95016667 8.81213333,7.0866 8.64793333,7.2344 C8.598,7.27936667 8.53643333,7.33296667 8.4704,7.3904 C8.4704,7.3904 8.4704,7.39043333 8.4704,7.39043333 C8.35233333,7.49313333 8.22006667,7.60823333 8.1146,7.7086 C7.7401,8.06493333 7.33333333,8.56226667 7.33333333,9.33333333 C7.33333333,9.33333333 7.3355,9.67093333 7.3355,9.67093333 C7.3355,9.67093333 8.6688,9.6624 8.6688,9.6624 C8.6688,9.6624 8.66666667,9.3315 8.66666667,9.3315 C8.66716667,9.1035 8.76063333,8.93436667 9.0337,8.67453333 C9.1255,8.5872 9.208,8.5158 9.3024,8.43413333 C9.3024,8.43413333 9.30243333,8.4341 9.30243333,8.4341 C9.37226667,8.3737 9.4486,8.30766667 9.54003333,8.22536667 C9.73013333,8.0542 9.9417,7.8487 10.1288667,7.59603333 C10.6342667,6.91373333 10.5160667,6.0512 10.1125,5.43433333 C9.69716667,4.7995 8.94146667,4.33333333 7.99603333,4.33333333 C7.17786667,4.33333333 6.54356667,4.5981 6.1153,5.0457 C5.69843333,5.4814 5.53473333,6.03036667 5.5332,6.50243333 C5.5332,6.50243333 5.5332,6.65953333 5.5332,6.65953333 C5.5332,6.65953333 6.86653333,6.65953333 6.86653333,6.65953333 C6.86653333,6.65953333 6.86653333,6.65953333 6.86653333,6.65953333 Z M7.33546667,10.3333333 C7.33546667,10.3333333 7.33546667,11.6692667 7.33546667,11.6692667 C7.33546667,11.6692667 8.6688,11.6692667 8.6688,11.6692667 C8.6688,11.6692667 8.6688,10.3333333 8.6688,10.3333333 C8.6688,10.3333333 7.33546667,10.3333333 7.33546667,10.3333333 C7.33546667,10.3333333 7.33546667,10.3333333 7.33546667,10.3333333 Z" id="形状" fill="#999999"></path>
    </g>
</svg>