<?xml version="1.0" encoding="UTF-8"?>
<svg width="16px" height="16px" viewBox="0 0 16 16" version="1.1" xmlns="http://www.w3.org/2000/svg" xmlns:xlink="http://www.w3.org/1999/xlink">
    <title>icon/编辑类/el-icon-bottom</title>
    <g id="icon/编辑类/el-icon-bottom" stroke="none" stroke-width="1" fill="none" fill-rule="evenodd">
        <path d="M8.66666243,11.8751 C8.66666243,11.8751 11.7705291,8.77123333 11.7705291,8.77123333 C11.7705291,8.77123333 12.7133624,9.71403333 12.7133624,9.71403333 C12.7133624,9.71403333 7.99929576,14.4281 7.99929576,14.4281 C7.99929576,14.4281 3.28526243,9.71403333 3.28526243,9.71403333 C3.28526243,9.71403333 4.22807243,8.77123333 4.22807243,8.77123333 C4.22807243,8.77123333 7.33332909,11.8765 7.33332909,11.8765 C7.33332909,11.8765 7.33332909,1.66666667 7.33332909,1.66666667 C7.33332909,1.66666667 8.66666243,1.66666667 8.66666243,1.66666667 C8.66666243,1.66666667 8.66666243,11.8751 8.66666243,11.8751 C8.66666243,11.8751 8.66666243,11.8751 8.66666243,11.8751 Z" id="路径" fill="#999999"></path>
    </g>
</svg>