<?xml version="1.0" encoding="UTF-8"?>
<svg width="16px" height="16px" viewBox="0 0 16 16" version="1.1" xmlns="http://www.w3.org/2000/svg" xmlns:xlink="http://www.w3.org/1999/xlink">
    <title>icon/编辑类/icon-edit-line-h6</title>
    <g id="icon/编辑类/icon-edit-line-h6" stroke="none" stroke-width="1" fill="none" fill-rule="evenodd">
        <path d="M2.66666667,2 C2.66666667,2 1.33333333,2 1.33333333,2 C1.33333333,2 1.33333333,14 1.33333333,14 C1.33333333,14 2.66666667,14 2.66666667,14 C2.66666667,14 2.66666667,8.66666667 2.66666667,8.66666667 C2.66666667,8.66666667 8,8.66666667 8,8.66666667 C8,8.66666667 8,14 8,14 C8,14 9.33333333,14 9.33333333,14 C9.33333333,14 9.33333333,2 9.33333333,2 C9.33333333,2 8,2 8,2 C8,2 8,7.33333333 8,7.33333333 C8,7.33333333 2.66666667,7.33333333 2.66666667,7.33333333 C2.66666667,7.33333333 2.66666667,2 2.66666667,2 C2.66666667,2 2.66666667,2 2.66666667,2 Z M13.2668667,7.83236667 C12.3863333,7.74413333 11.5576333,8.3427 11.3719333,9.21863333 C11.6611,9.0789 11.9851667,9.00003333 12.3333333,9.00003333 C13.6803667,9.00003333 14.6666667,10.1805333 14.6666667,11.5000333 C14.6666667,12.8195333 13.6803667,14.0000333 12.3333333,14.0000333 C10.9863,14.0000333 10,12.8195333 10,11.5000333 C10,11.5000333 10,9.59013333 10,9.59013333 C10,7.6995 11.6443667,6.3298 13.3998,6.5057 C13.5492,6.52066667 13.6650333,6.53446667 13.7576333,6.54953333 C13.7576333,6.54953333 13.5433667,7.86553333 13.5433667,7.86553333 C13.4919667,7.85716667 13.4086,7.84656667 13.2668667,7.83236667 C13.2668667,7.83236667 13.2668667,7.83236667 13.2668667,7.83236667 Z M12.3333333,10.3333667 C11.8394333,10.3333667 11.3333333,10.7944667 11.3333333,11.5000333 C11.3333333,12.2055667 11.8394333,12.6667 12.3333333,12.6667 C12.8272333,12.6667 13.3333333,12.2055667 13.3333333,11.5000333 C13.3333333,10.7944667 12.8272333,10.3333667 12.3333333,10.3333667 C12.3333333,10.3333667 12.3333333,10.3333667 12.3333333,10.3333667 Z" id="形状" fill="#999999"></path>
    </g>
</svg>