<?xml version="1.0" encoding="UTF-8"?>
<svg width="16px" height="16px" viewBox="0 0 16 16" version="1.1" xmlns="http://www.w3.org/2000/svg" xmlns:xlink="http://www.w3.org/1999/xlink">
    <title>icon/基础类/el-icon-refresh-right</title>
    <g id="icon/基础类/el-icon-refresh-right" stroke="none" stroke-width="1" fill="none" fill-rule="evenodd">
        <path d="M3.33333333,8 C3.33333333,10.5773333 5.42266667,12.6666667 8,12.6666667 C10.1735667,12.6666667 12.0016,11.1800667 12.5197,9.16716667 C12.5197,9.16716667 13.8109333,9.4995 13.8109333,9.4995 C13.1449,12.0872 10.7966667,14 8,14 C4.68629,14 2,11.3137 2,8 C2,4.68629 4.68629,2 8,2 C9.88553333,2 11.5670667,2.86964 12.6666667,4.22865667 C12.6666667,4.22865667 12.6666667,2.66666667 12.6666667,2.66666667 C12.6666667,2.66666667 14,2.66666667 14,2.66666667 C14,2.66666667 14,6.66666667 14,6.66666667 C14,6.66666667 10,6.66666667 10,6.66666667 C10,6.66666667 10,5.33333333 10,5.33333333 C10,5.33333333 11.8304,5.33333333 11.8304,5.33333333 C10.9866667,4.12377667 9.58513333,3.33333333 8,3.33333333 C5.42266667,3.33333333 3.33333333,5.42266667 3.33333333,8 Z" id="路径" fill="#999999"></path>
    </g>
</svg>