<?xml version="1.0" encoding="UTF-8"?>
<svg width="16px" height="16px" viewBox="0 0 16 16" version="1.1" xmlns="http://www.w3.org/2000/svg" xmlns:xlink="http://www.w3.org/1999/xlink">
    <title>icon/编辑类/icon-edit-line-strikethrough</title>
    <g id="icon/编辑类/icon-edit-line-strikethrough" stroke="none" stroke-width="1" fill="none" fill-rule="evenodd">
        <path d="M8,1.66666667 C6.94923333,1.66666667 5.97226667,1.98526733 5.243,2.53223667 C4.51348667,3.07936 4,3.88609333 4,4.83333333 C4,5.30496667 4.20006,5.7777 4.41512667,6.14783333 C4.63838,6.53206667 4.92960333,6.89406667 5.21493333,7.15696667 C5.21493333,7.15696667 6.1184,6.17636667 6.1184,6.17636667 C5.93676667,6.00903333 5.728,5.75336667 5.56796667,5.478 C5.3998,5.18853333 5.33333333,4.9597 5.33333333,4.83333333 C5.33333333,4.39987333 5.56603333,3.95660667 6.043,3.59890333 C6.52013333,3.24105 7.20983333,3 8,3 C8.79016667,3 9.47986667,3.24105 9.957,3.59890333 C10.4339667,3.95660667 10.6666667,4.39987333 10.6666667,4.83333333 C10.6666667,4.83333333 12,4.83333333 12,4.83333333 C12,3.88609333 11.4865,3.07936 10.757,2.53223667 C10.0277333,1.98526733 9.05076667,1.66666667 8,1.66666667 C8,1.66666667 8,1.66666667 8,1.66666667 Z M10.8333333,7.93513333 C10.8333333,7.93513333 1.66666667,7.93513333 1.66666667,7.93513333 C1.66666667,7.93513333 1.66666667,9.26846667 1.66666667,9.26846667 C1.66666667,9.26846667 10.6920333,9.26846667 10.6920333,9.26846667 C11.2123667,9.5306 11.3333333,10.0474667 11.3333333,10.5 C11.3333333,11.7672 10.0404333,13 8.16666667,13 C6.24176667,13 5,11.8931667 5,10.6666667 C5,10.6666667 3.66666667,10.6666667 3.66666667,10.6666667 C3.66666667,12.9379667 5.85736667,14.3333333 8.16666667,14.3333333 C10.5271,14.3333333 12.6666667,12.7306 12.6666667,10.5 C12.6666667,10.1867333 12.622,9.7254 12.4243,9.26846667 C12.4243,9.26846667 14.3333333,9.26846667 14.3333333,9.26846667 C14.3333333,9.26846667 14.3333333,7.93513333 14.3333333,7.93513333 C14.3333333,7.93513333 10.8333333,7.93513333 10.8333333,7.93513333 C10.8333333,7.93513333 10.8333333,7.93513333 10.8333333,7.93513333 Z" id="形状" fill="#999999"></path>
    </g>
</svg>