<?xml version="1.0" encoding="UTF-8"?>
<svg width="16px" height="16px" viewBox="0 0 16 16" version="1.1" xmlns="http://www.w3.org/2000/svg" xmlns:xlink="http://www.w3.org/1999/xlink">
    <title>icon/编辑类/icon-edit-line-paste</title>
    <g id="icon/编辑类/icon-edit-line-paste" stroke="none" stroke-width="1" fill="none" fill-rule="evenodd">
        <path d="M8.67,1.33333333 C8.67,1.33333333 7.33333333,1.33333333 7.33333333,1.33333333 C7.33333333,1.33333333 7.33333333,2.67 7.33333333,2.67 C7.33333333,2.67 8.67,2.67 8.67,2.67 C8.67,2.67 8.67,1.33333333 8.67,1.33333333 C8.67,1.33333333 8.67,1.33333333 8.67,1.33333333 Z M11.3366667,1.33333333 C11.3366667,1.33333333 10,1.33333333 10,1.33333333 C10,1.33333333 10,2.67 10,2.67 C10,2.67 11.3366667,2.67 11.3366667,2.67 C11.3366667,2.67 11.3366667,1.33333333 11.3366667,1.33333333 C11.3366667,1.33333333 11.3366667,1.33333333 11.3366667,1.33333333 Z M14.0033333,1.33333333 C14.0033333,1.33333333 12.6666667,1.33333333 12.6666667,1.33333333 C12.6666667,1.33333333 12.6666667,2.67 12.6666667,2.67 C12.6666667,2.67 14.0033333,2.67 14.0033333,2.67 C14.0033333,2.67 14.0033333,1.33333333 14.0033333,1.33333333 C14.0033333,1.33333333 14.0033333,1.33333333 14.0033333,1.33333333 Z M14.0033333,3.66666667 C14.0033333,3.66666667 12.6666667,3.66666667 12.6666667,3.66666667 C12.6666667,3.66666667 12.6666667,5.00333333 12.6666667,5.00333333 C12.6666667,5.00333333 14.0033333,5.00333333 14.0033333,5.00333333 C14.0033333,5.00333333 14.0033333,3.66666667 14.0033333,3.66666667 C14.0033333,3.66666667 14.0033333,3.66666667 14.0033333,3.66666667 Z M14.0033333,6.33333333 C14.0033333,6.33333333 12.6666667,6.33333333 12.6666667,6.33333333 C12.6666667,6.33333333 12.6666667,7.67 12.6666667,7.67 C12.6666667,7.67 14.0033333,7.67 14.0033333,7.67 C14.0033333,7.67 14.0033333,6.33333333 14.0033333,6.33333333 C14.0033333,6.33333333 14.0033333,6.33333333 14.0033333,6.33333333 Z M3,4 C2.44771667,4 2,4.44771333 2,5 C2,5 2,13.6666667 2,13.6666667 C2,14.2189667 2.44771667,14.6666667 3,14.6666667 C3,14.6666667 10.3333333,14.6666667 10.3333333,14.6666667 C10.8856333,14.6666667 11.3333333,14.2189667 11.3333333,13.6666667 C11.3333333,13.6666667 11.3333333,5 11.3333333,5 C11.3333333,4.44771333 10.8856333,4 10.3333333,4 C10.3333333,4 3,4 3,4 C3,4 3,4 3,4 Z M3.33333333,13.3333333 C3.33333333,13.3333333 3.33333333,5.33333333 3.33333333,5.33333333 C3.33333333,5.33333333 10,5.33333333 10,5.33333333 C10,5.33333333 10,13.3333333 10,13.3333333 C10,13.3333333 3.33333333,13.3333333 3.33333333,13.3333333 C3.33333333,13.3333333 3.33333333,13.3333333 3.33333333,13.3333333 Z" id="形状" fill="#999999"></path>
    </g>
</svg>