<?xml version="1.0" encoding="UTF-8"?>
<svg width="16px" height="16px" viewBox="0 0 16 16" version="1.1" xmlns="http://www.w3.org/2000/svg" xmlns:xlink="http://www.w3.org/1999/xlink">
    <title>icon/通用类/icon-general-line-save</title>
    <g id="icon/通用类/icon-general-line-save" stroke="none" stroke-width="1" fill="none" fill-rule="evenodd">
        <path d="M9.73125051,1.33333333 C10.3367745,1.33333333 10.9242692,1.53941534 11.397104,1.91768317 L12.9991868,3.19934943 C13.6317607,3.7054086 14,4.47157633 14,5.28166626 L14,13.3333333 C14,14.069713 13.4030463,14.6666667 12.6666667,14.6666667 L3.33333333,14.6666667 C2.59695367,14.6666667 2,14.069713 2,13.3333333 L2,2.66666667 C2,1.930287 2.59695367,1.33333333 3.33333333,1.33333333 L9.73125051,1.33333333 Z M9.73125051,2.66666667 L3.33333333,2.66666667 L3.33333333,13.3333333 L4.66666667,13.3333333 L4.66666667,10.6666667 C4.66666667,9.930287 5.26362033,9.33333333 6,9.33333333 L10,9.33333333 C10.7363797,9.33333333 11.3333333,9.930287 11.3333333,10.6666667 L11.3333333,13.3333333 L12.6666667,13.3333333 L12.6666667,5.28166626 C12.6666667,4.8766213 12.482547,4.49353743 12.1662601,4.24050785 L10.5641772,2.95884159 C10.3277598,2.76970767 10.0340125,2.66666667 9.73125051,2.66666667 Z M10,10.6666667 L6,10.6666667 L6,13.3333333 L10,13.3333333 L10,10.6666667 Z M11.3333333,6 L11.3333333,7.33333333 L4.66666667,7.33333333 L4.66666667,6 L11.3333333,6 Z" id="形状结合" fill="#999999"></path>
    </g>
</svg>