<?xml version="1.0" encoding="UTF-8"?>
<svg width="16px" height="16px" viewBox="0 0 16 16" version="1.1" xmlns="http://www.w3.org/2000/svg" xmlns:xlink="http://www.w3.org/1999/xlink">
    <title>icon/通用类/icon-general-line-experiment</title>
    <g id="icon/通用类/icon-general-line-experiment" stroke="none" stroke-width="1" fill="none" fill-rule="evenodd">
        <path d="M4.56839338,2.66666667 C4.56839338,2.66666667 3.23506004,2.66666667 3.23506004,2.66666667 C3.23506004,2.66666667 3.23506004,1.33333333 3.23506004,1.33333333 C3.23506004,1.33333333 12.2350667,1.33333333 12.2350667,1.33333333 C12.2350667,1.33333333 12.2350667,2.66666667 12.2350667,2.66666667 C12.2350667,2.66666667 10.9017334,2.66666667 10.9017334,2.66666667 C10.9017334,2.66666667 10.9017334,5.37910002 10.9017334,5.37910002 C10.9017334,5.37910002 12.6904334,10.1490334 12.6904334,10.1490334 C12.6904334,10.1490334 13.4934001,12.1755001 13.4934001,12.1755001 C13.8401668,13.0507334 13.1952334,14.0000001 12.2538001,14.0000001 C12.2538001,14.0000001 3.33439338,14.0000001 3.33439338,14.0000001 C2.4198967,14.0000001 1.77683037,13.1003667 2.0728427,12.2351001 C2.0728427,12.2351001 2.85742671,9.94166671 2.85742671,9.94166671 C2.85742671,9.94166671 4.56839338,5.37910002 4.56839338,5.37910002 C4.56839338,5.37910002 4.56839338,2.66666667 4.56839338,2.66666667 C4.56839338,2.66666667 4.56839338,2.66666667 4.56839338,2.66666667 Z M5.90173339,2.66666667 C5.90173339,2.66666667 5.90173339,5.62090002 5.90173339,5.62090002 C5.90173339,5.62090002 4.28189671,9.94043337 4.28189671,9.94043337 C4.52779005,10.0929 4.84948005,10.2325334 5.21368672,10.2863334 C5.75206672,10.3658 6.42000006,10.2651 7.13776673,9.65773337 C8.1812334,8.77480003 9.3243334,8.63133337 10.3005001,8.8157667 C10.4777667,8.8492667 10.6497667,8.8934667 10.8152667,8.94590004 C10.8152667,8.94590004 9.56840007,5.62090002 9.56840007,5.62090002 C9.56840007,5.62090002 9.56840007,2.66666667 9.56840007,2.66666667 C9.56840007,2.66666667 5.90173339,2.66666667 5.90173339,2.66666667 C5.90173339,2.66666667 5.90173339,2.66666667 5.90173339,2.66666667 Z M11.5113334,10.7928 C11.1788001,10.5330667 10.6501334,10.2387334 10.0529667,10.1259 C9.40690007,10.0038667 8.68886673,10.0918667 7.9990334,10.6756 C6.98346673,11.5349 5.92916672,11.7397334 5.01893005,11.6053334 C4.57330671,11.5395667 4.17127338,11.3942 3.83047338,11.2166 C3.83047338,11.2166 3.33439338,12.6666667 3.33439338,12.6666667 C3.33439338,12.6666667 12.2538001,12.6666667 12.2538001,12.6666667 C12.2538001,12.6666667 11.5113334,10.7928 11.5113334,10.7928 C11.5113334,10.7928 11.5113334,10.7928 11.5113334,10.7928 Z M7.73506673,7.17000003 C7.73506673,7.17000003 7.73506673,7.16666669 7.73506673,7.16666669 C7.73506673,7.16666669 9.06840007,7.16666669 9.06840007,7.16666669 C9.06840007,7.16666669 9.06840007,7.17000003 9.06840007,7.17000003 C9.06840007,7.17000003 7.73506673,7.17000003 7.73506673,7.17000003 C7.73506673,7.17000003 7.73506673,7.17000003 7.73506673,7.17000003 Z" id="形状" fill="#999999"></path>
    </g>
</svg>