<?xml version="1.0" encoding="UTF-8"?>
<svg width="16px" height="16px" viewBox="0 0 16 16" version="1.1" xmlns="http://www.w3.org/2000/svg" xmlns:xlink="http://www.w3.org/1999/xlink">
    <title>icon/编辑类/el-icon-link</title>
    <g id="icon/编辑类/el-icon-link" stroke="none" stroke-width="1" fill="none" fill-rule="evenodd">
        <path d="M3.00000011,6.66666675 C2.26362012,6.66666675 1.66666679,7.26362007 1.66666679,8.00000006 C1.66666679,8.73636671 2.26362012,9.33333344 3.00000011,9.33333344 C3.00000011,9.33333344 7.00000004,9.33333344 7.00000004,9.33333344 C7.73636669,9.33333344 8.33333348,8.73636671 8.33333348,8.00000006 C8.33333348,8.00000006 9.66666666,8.00000006 9.66666666,8.00000006 C9.66666666,9.4727667 8.47276668,10.6666667 7.00000004,10.6666667 C7.00000004,10.6666667 3.00000011,10.6666667 3.00000011,10.6666667 C1.52724013,10.6666667 0.333333484,9.4727667 0.333333484,8.00000006 C0.333333484,6.52724008 1.52724013,5.33333344 3.00000011,5.33333344 C3.00000011,5.33333344 5.33333348,5.33333344 5.33333348,5.33333344 C5.33333348,5.33333344 5.33333348,6.66666675 5.33333348,6.66666675 C5.33333348,6.66666675 3.00000011,6.66666675 3.00000011,6.66666675 C3.00000011,6.66666675 3.00000011,6.66666675 3.00000011,6.66666675 Z M6.33333338,8.00000006 C6.33333338,6.52724008 7.52723336,5.33333368 9,5.33333368 C9,5.33333368 12.9999999,5.33333368 12.9999999,5.33333368 C14.4727666,5.33333368 15.6666666,6.52724008 15.6666666,8.00000006 C15.6666666,9.4727667 14.4727666,10.6666667 12.9999999,10.6666667 C12.9999999,10.6666667 10.6666666,10.6666667 10.6666666,10.6666667 C10.6666666,10.6666667 10.6666666,9.33333368 10.6666666,9.33333368 C10.6666666,9.33333368 12.9999999,9.33333368 12.9999999,9.33333368 C13.7363666,9.33333368 14.3333334,8.73636671 14.3333334,8.00000006 C14.3333334,7.26362007 13.7363666,6.66666675 12.9999999,6.66666675 C12.9999999,6.66666675 9,6.66666675 9,6.66666675 C8.26363335,6.66666675 7.66666669,7.26362007 7.66666669,8.00000006 C7.66666669,8.00000006 6.33333338,8.00000006 6.33333338,8.00000006 C6.33333338,8.00000006 6.33333338,8.00000006 6.33333338,8.00000006 Z" id="形状" fill="#999999" transform="translate(8, 8) rotate(-45) translate(-8, -8)"></path>
    </g>
</svg>