<?xml version="1.0" encoding="UTF-8"?>
<svg width="16px" height="16px" viewBox="0 0 16 16" version="1.1" xmlns="http://www.w3.org/2000/svg" xmlns:xlink="http://www.w3.org/1999/xlink">
    <title>icon/基础类/el-icon-arrow-down</title>
    <g id="icon/基础类/el-icon-arrow-down" stroke="none" stroke-width="1" fill="none" fill-rule="evenodd">
        <path d="M4.01453263,2.28593944 C4.01453263,2.28593944 5.34786595,2.28593944 5.34786595,2.28593944 C5.34786595,2.28593944 5.34786595,8.952606 5.34786595,8.952606 C5.34786595,8.952606 12.0145326,8.952606 12.0145326,8.952606 C12.0145326,8.952606 12.0145326,10.2859394 12.0145326,10.2859394 C12.0145326,10.2859394 4.68125929,10.2859394 4.68125929,10.2859394 C4.68125929,10.2859394 4.68119929,10.2859394 4.68119929,9.61927265 C4.68119929,9.61927265 4.68125929,10.2859394 4.68125929,10.2859394 C4.68125929,10.2859394 4.01453263,10.2859394 4.01453263,10.2859394 C4.01453263,10.2859394 4.01453263,2.28593944 4.01453263,2.28593944 C4.01453263,2.28593944 4.01453263,2.28593944 4.01453263,2.28593944 Z" id="路径" fill="#999999" transform="translate(8.0145, 6.2859) scale(-1, 1) rotate(-45) translate(-8.0145, -6.2859)"></path>
    </g>
</svg>