<?xml version="1.0" encoding="UTF-8"?>
<svg width="16px" height="16px" viewBox="0 0 16 16" version="1.1" xmlns="http://www.w3.org/2000/svg" xmlns:xlink="http://www.w3.org/1999/xlink">
    <title>icon/面性/el-icon-s-claim</title>
    <g id="icon/面性/el-icon-s-claim" stroke="none" stroke-width="1" fill="none" fill-rule="evenodd">
        <path d="M4.66666667,2 C4.66666667,3.1045695 5.56209717,4 6.66666667,4 L9.33333333,4 C10.4379028,4 11.3333333,3.1045695 11.3333333,2 L12,2 C12.7363797,2 13.3333333,2.59695367 13.3333333,3.33333333 L13.3333333,13.3333333 C13.3333333,14.069713 12.7363797,14.6666667 12,14.6666667 L4,14.6666667 C3.26362033,14.6666667 2.66666667,14.069713 2.66666667,13.3333333 L2.66666667,3.33333333 C2.66666667,2.59695367 3.26362033,2 4,2 L4.66666667,2 Z M11.2866131,6.61060873 C11.0262929,6.35577174 10.6086755,6.36021675 10.3538385,6.62053694 L7.43866667,9.59733333 L6.15105069,8.30964406 C5.91673612,8.07532949 5.55139557,8.05189803 5.2908758,8.23934969 L5.20824165,8.30964406 C4.94789212,8.56999359 4.94789212,8.99210358 5.20824165,9.2524531 L6.95966667,11.0043333 L6.97631073,11.0236893 C7.0566571,11.1023956 7.14519366,11.1544376 7.23914701,11.1848358 C7.47081499,11.2621901 7.73735817,11.208618 7.92228686,11.0236893 C7.94947892,10.9964972 7.97383092,10.9675406 7.99534287,10.9371879 L11.2966475,7.56334598 C11.5550104,7.29942405 11.5527608,6.87670361 11.2916036,6.61554642 Z M9.33156656,1.33333333 C9.69975639,1.33333333 9.99823323,1.63181017 9.99823323,2 C9.99823323,2.36818983 9.69975639,2.66666667 9.33156656,2.66666667 L6.66489989,2.66666667 C6.33018186,2.66666667 6.05307788,2.4199916 6.00546161,2.09851511 L5.99766667,1.99933333 L6.00546161,1.90148489 C6.05307788,1.5800084 6.33018186,1.33333333 6.66489989,1.33333333 L9.33156656,1.33333333 Z" id="形状结合" fill="#999999"></path>
    </g>
</svg>