<?xml version="1.0" encoding="UTF-8"?>
<svg width="16px" height="16px" viewBox="0 0 16 16" version="1.1" xmlns="http://www.w3.org/2000/svg" xmlns:xlink="http://www.w3.org/1999/xlink">
    <title>icon/基础类/el-icon-circle-check</title>
    <g id="icon/基础类/el-icon-circle-check" stroke="none" stroke-width="1" fill="none" fill-rule="evenodd">
        <path d="M8,2.66666667 C5.05446667,2.66666667 2.66666667,5.05446667 2.66666667,8 C2.66666667,10.9455333 5.05446667,13.3333333 8,13.3333333 C10.9455333,13.3333333 13.3333333,10.9455333 13.3333333,8 C13.3333333,5.05446667 10.9455333,2.66666667 8,2.66666667 C8,2.66666667 8,2.66666667 8,2.66666667 Z M1.33333333,8 C1.33333333,4.3181 4.3181,1.33333333 8,1.33333333 C11.6819,1.33333333 14.6666667,4.3181 14.6666667,8 C14.6666667,11.6819 11.6819,14.6666667 8,14.6666667 C4.3181,14.6666667 1.33333333,11.6819 1.33333333,8 C1.33333333,8 1.33333333,8 1.33333333,8 Z M11.6380667,6.30473333 C11.6380667,6.30473333 7.33333333,10.6094667 7.33333333,10.6094667 C7.33333333,10.6094667 4.52859667,7.80473333 4.52859667,7.80473333 C4.52859667,7.80473333 5.4714,6.86193333 5.4714,6.86193333 C5.4714,6.86193333 7.33333333,8.72386667 7.33333333,8.72386667 C7.33333333,8.72386667 10.6952667,5.36193333 10.6952667,5.36193333 C10.6952667,5.36193333 11.6380667,6.30473333 11.6380667,6.30473333 C11.6380667,6.30473333 11.6380667,6.30473333 11.6380667,6.30473333 Z" id="形状" fill="#999999"></path>
    </g>
</svg>