<?xml version="1.0" encoding="UTF-8"?>
<svg width="16px" height="16px" viewBox="0 0 16 16" version="1.1" xmlns="http://www.w3.org/2000/svg" xmlns:xlink="http://www.w3.org/1999/xlink">
    <title>icon/面性/el-icon-more</title>
    <g id="icon/面性/el-icon-more" stroke="none" stroke-width="1" fill="none" fill-rule="evenodd">
        <path d="M2.66666667,6 C3.77123617,6 4.66666667,6.8954305 4.66666667,8 C4.66666667,9.1045695 3.77123617,10 2.66666667,10 C1.56209717,10 0.666666667,9.1045695 0.666666667,8 C0.666666667,6.8954305 1.56209717,6 2.66666667,6 Z" id="椭圆形" fill="#979797" fill-rule="nonzero"></path>
        <path d="M8,6 C9.1045695,6 10,6.8954305 10,8 C10,9.1045695 9.1045695,10 8,10 C6.8954305,10 6,9.1045695 6,8 C6,6.8954305 6.8954305,6 8,6 Z" id="椭圆形备份" fill="#979797" fill-rule="nonzero"></path>
        <path d="M13.3333333,6 C14.4379028,6 15.3333333,6.8954305 15.3333333,8 C15.3333333,9.1045695 14.4379028,10 13.3333333,10 C12.2287638,10 11.3333333,9.1045695 11.3333333,8 C11.3333333,6.8954305 12.2287638,6 13.3333333,6 Z" id="椭圆形备份-2" fill="#979797" fill-rule="nonzero"></path>
    </g>
</svg>