<?xml version="1.0" encoding="UTF-8"?>
<svg width="16px" height="16px" viewBox="0 0 16 16" version="1.1" xmlns="http://www.w3.org/2000/svg" xmlns:xlink="http://www.w3.org/1999/xlink">
    <title>icon/通用类/el-icon-key</title>
    <g id="icon/通用类/el-icon-key" stroke="none" stroke-width="1" fill="none" fill-rule="evenodd">
        <path d="M8,7.33333333 C10.209139,7.33333333 12,9.12419433 12,11.3333333 C12,13.5424723 10.209139,15.3333333 8,15.3333333 C5.790861,15.3333333 4,13.5424723 4,11.3333333 C4,9.12419433 5.790861,7.33333333 8,7.33333333 Z M8,8.66666667 C6.52724067,8.66666667 5.33333333,9.860574 5.33333333,11.3333333 C5.33333333,12.8060927 6.52724067,14 8,14 C9.47275933,14 10.6666667,12.8060927 10.6666667,11.3333333 C10.6666667,9.860574 9.47275933,8.66666667 8,8.66666667 Z" id="椭圆形" fill="#999999" fill-rule="nonzero"></path>
        <path d="M11.3333333,0.666666667 L11.3333333,2 L8.66666667,2 L8.66633333,3.99966667 L11.3333333,4 L11.3333333,5.33333333 L8.66633333,5.33266667 L8.66666667,8 L7.33333333,8 L7.33333333,2 C7.33333333,1.26362033 7.930287,0.666666667 8.66666667,0.666666667 L11.3333333,0.666666667 Z" id="形状结合" fill="#999999" fill-rule="nonzero"></path>
    </g>
</svg>