<?xml version="1.0" encoding="UTF-8"?>
<svg width="16px" height="16px" viewBox="0 0 16 16" version="1.1" xmlns="http://www.w3.org/2000/svg" xmlns:xlink="http://www.w3.org/1999/xlink">
    <title>icon/通用类/icon-general-line-morevertical</title>
    <g id="icon/通用类/icon-general-line-morevertical" stroke="none" stroke-width="1" fill="none" fill-rule="evenodd">
        <path d="M7,2 C7,2 7,4 7,4 C7,4 9,4 9,4 C9,4 9,2 9,2 C9,2 7,2 7,2 Z M7,7 C7,7 7,9 7,9 C7,9 9,9 9,9 C9,9 9,7 9,7 C9,7 7,7 7,7 Z M7,12 C7,12 7,14 7,14 C7,14 9,14 9,14 C9,14 9,12 9,12 C9,12 7,12 7,12 Z" id="形状" fill="#999999"></path>
    </g>
</svg>