<?xml version="1.0" encoding="UTF-8"?>
<svg width="16px" height="16px" viewBox="0 0 16 16" version="1.1" xmlns="http://www.w3.org/2000/svg" xmlns:xlink="http://www.w3.org/1999/xlink">
    <title>icon/通用类/icon-general-line-qrcode</title>
    <g id="icon/通用类/icon-general-line-qrcode" stroke="none" stroke-width="1" fill="none" fill-rule="evenodd">
        <path d="M8.66666667,1.33333333 C8.66666667,1.33333333 8.66666667,8.66666667 8.66666667,8.66666667 C8.66666667,8.66666667 1.33333333,8.66666667 1.33333333,8.66666667 C1.33333333,8.66666667 1.33333333,1.33333333 1.33333333,1.33333333 C1.33333333,1.33333333 8.66666667,1.33333333 8.66666667,1.33333333 Z M2.66666667,7.33333333 C2.66666667,7.33333333 7.33333333,7.33333333 7.33333333,7.33333333 C7.33333333,7.33333333 7.33333333,2.66666667 7.33333333,2.66666667 C7.33333333,2.66666667 2.66666667,2.66666667 2.66666667,2.66666667 C2.66666667,2.66666667 2.66666667,7.33333333 2.66666667,7.33333333 Z M14.6666667,1.33333333 C14.6666667,1.33333333 14.6666667,6 14.6666667,6 C14.6666667,6 10,6 10,6 C10,6 10,1.33333333 10,1.33333333 C10,1.33333333 14.6666667,1.33333333 14.6666667,1.33333333 Z M11.3333333,4.66666667 C11.3333333,4.66666667 13.3333333,4.66666667 13.3333333,4.66666667 C13.3333333,4.66666667 13.3333333,2.66666667 13.3333333,2.66666667 C13.3333333,2.66666667 11.3333333,2.66666667 11.3333333,2.66666667 C11.3333333,2.66666667 11.3333333,4.66666667 11.3333333,4.66666667 Z M6,4 C6,4 6,6 6,6 C6,6 4,6 4,6 C4,6 4,4 4,4 C4,4 6,4 6,4 Z M14.6666667,7.33333333 C14.6666667,7.33333333 14.6666667,8.66666667 14.6666667,8.66666667 C14.6666667,8.66666667 12.3333333,8.66666667 12.3333333,8.66666667 C12.3333333,8.66666667 12.3333333,7.33333333 12.3333333,7.33333333 C12.3333333,7.33333333 14.6666667,7.33333333 14.6666667,7.33333333 Z M6,10 C6,10 6,14.6666667 6,14.6666667 C6,14.6666667 1.33333333,14.6666667 1.33333333,14.6666667 C1.33333333,14.6666667 1.33333333,10 1.33333333,10 C1.33333333,10 6,10 6,10 Z M11.3333333,7.33333333 C11.3333333,7.33333333 11.3333333,8.66666667 11.3333333,8.66666667 C11.3333333,8.66666667 10,8.66666667 10,8.66666667 C10,8.66666667 10,7.33333333 10,7.33333333 C10,7.33333333 11.3333333,7.33333333 11.3333333,7.33333333 Z M2.66666667,13.3333333 C2.66666667,13.3333333 4.66666667,13.3333333 4.66666667,13.3333333 C4.66666667,13.3333333 4.66666667,11.3333333 4.66666667,11.3333333 C4.66666667,11.3333333 2.66666667,11.3333333 2.66666667,11.3333333 C2.66666667,11.3333333 2.66666667,13.3333333 2.66666667,13.3333333 Z M14.6666667,10 C14.6666667,10 14.6666667,14.6666667 14.6666667,14.6666667 C14.6666667,14.6666667 10,14.6666667 10,14.6666667 C10,14.6666667 10,10 10,10 C10,10 14.6666667,10 14.6666667,10 Z M11.3333333,13.3333333 C11.3333333,13.3333333 13.3333333,13.3333333 13.3333333,13.3333333 C13.3333333,13.3333333 13.3333333,11.3333333 13.3333333,11.3333333 C13.3333333,11.3333333 11.3333333,11.3333333 11.3333333,11.3333333 C11.3333333,11.3333333 11.3333333,13.3333333 11.3333333,13.3333333 Z M7.33333333,10 C7.33333333,10 8.66666667,10 8.66666667,10 C8.66666667,10 8.66666667,11.3333333 8.66666667,11.3333333 C8.66666667,11.3333333 7.33333333,11.3333333 7.33333333,11.3333333 C7.33333333,11.3333333 7.33333333,10 7.33333333,10 Z M7.33333333,12.6666667 C7.33333333,12.6666667 8.66666667,12.6666667 8.66666667,12.6666667 C8.66666667,12.6666667 8.66666667,14.6666667 8.66666667,14.6666667 C8.66666667,14.6666667 7.33333333,14.6666667 7.33333333,14.6666667 C7.33333333,14.6666667 7.33333333,12.6666667 7.33333333,12.6666667 Z" id="形状" fill="#999999"></path>
    </g>
</svg>