<?xml version="1.0" encoding="UTF-8"?>
<svg width="16px" height="16px" viewBox="0 0 16 16" version="1.1" xmlns="http://www.w3.org/2000/svg" xmlns:xlink="http://www.w3.org/1999/xlink">
    <title>icon/通用类/icon-general-line-idcard</title>
    <g id="icon/通用类/icon-general-line-idcard" stroke="none" stroke-width="1" fill="none" fill-rule="evenodd">
        <path d="M1.33333333,3.33333333 C1.33333333,2.59695333 1.93028667,2 2.66666667,2 C2.66666667,2 13.3333333,2 13.3333333,2 C14.0697,2 14.6666667,2.59695333 14.6666667,3.33333333 C14.6666667,3.33333333 14.6666667,12.6666667 14.6666667,12.6666667 C14.6666667,13.4030333 14.0697,14 13.3333333,14 C13.3333333,14 2.66666667,14 2.66666667,14 C1.93028667,14 1.33333333,13.4030333 1.33333333,12.6666667 C1.33333333,12.6666667 1.33333333,3.33333333 1.33333333,3.33333333 C1.33333333,3.33333333 1.33333333,3.33333333 1.33333333,3.33333333 Z M13.3333333,3.33333333 C13.3333333,3.33333333 2.66666667,3.33333333 2.66666667,3.33333333 C2.66666667,3.33333333 2.66666667,12.6666667 2.66666667,12.6666667 C2.66666667,12.6666667 13.3333333,12.6666667 13.3333333,12.6666667 C13.3333333,12.6666667 13.3333333,3.33333333 13.3333333,3.33333333 C13.3333333,3.33333333 13.3333333,3.33333333 13.3333333,3.33333333 Z M6.66666667,6.33333333 C6.66666667,6.33333333 3.66666667,6.33333333 3.66666667,6.33333333 C3.66666667,6.33333333 3.66666667,5 3.66666667,5 C3.66666667,5 6.66666667,5 6.66666667,5 C6.66666667,5 6.66666667,6.33333333 6.66666667,6.33333333 C6.66666667,6.33333333 6.66666667,6.33333333 6.66666667,6.33333333 Z M6.66666667,8.66666667 C6.66666667,8.66666667 3.66666667,8.66666667 3.66666667,8.66666667 C3.66666667,8.66666667 3.66666667,7.33333333 3.66666667,7.33333333 C3.66666667,7.33333333 6.66666667,7.33333333 6.66666667,7.33333333 C6.66666667,7.33333333 6.66666667,8.66666667 6.66666667,8.66666667 C6.66666667,8.66666667 6.66666667,8.66666667 6.66666667,8.66666667 Z M5.33333333,11 C5.33333333,11 3.66666667,11 3.66666667,11 C3.66666667,11 3.66666667,9.66666667 3.66666667,9.66666667 C3.66666667,9.66666667 5.33333333,9.66666667 5.33333333,9.66666667 C5.33333333,9.66666667 5.33333333,11 5.33333333,11 C5.33333333,11 5.33333333,11 5.33333333,11 Z M9.66666667,4.66666667 C10.7712333,4.66666667 11.6666667,5.5621 11.6666667,6.66666667 C11.6666667,7.31453333 11.3586333,7.89043333 10.881,8.25593333 C11.9329,8.72213333 12.6666667,9.77536667 12.6666667,11 L11.3333333,11 C11.3333333,10.0795333 10.5871333,9.33333333 9.66666667,9.33333333 C8.7462,9.33333333 8,10.0795333 8,11 L6.66666667,11 C6.66666667,9.77536667 7.40043333,8.72213333 8.45233333,8.25593333 C7.9747,7.89043333 7.66666667,7.31453333 7.66666667,6.66666667 C7.66666667,5.5621 8.5621,4.66666667 9.66666667,4.66666667 Z M9.66666667,6 C9.29846667,6 9,6.29846667 9,6.66666667 C9,7.03486667 9.29846667,7.33333333 9.66666667,7.33333333 C10.0348667,7.33333333 10.3333333,7.03486667 10.3333333,6.66666667 C10.3333333,6.29846667 10.0348667,6 9.66666667,6 Z" id="形状" fill="#999999"></path>
    </g>
</svg>