<?xml version="1.0" encoding="UTF-8"?>
<svg width="16px" height="16px" viewBox="0 0 16 16" version="1.1" xmlns="http://www.w3.org/2000/svg" xmlns:xlink="http://www.w3.org/1999/xlink">
    <title>icon/通用类/el-icon-discover</title>
    <g id="icon/通用类/el-icon-discover" stroke="none" stroke-width="1" fill="none" fill-rule="evenodd">
        <path d="M8,2.66666667 C5.05446667,2.66666667 2.66666667,5.05446667 2.66666667,8 C2.66666667,10.9455333 5.05446667,13.3333333 8,13.3333333 C10.9455333,13.3333333 13.3333333,10.9455333 13.3333333,8 C13.3333333,5.05446667 10.9455333,2.66666667 8,2.66666667 C8,2.66666667 8,2.66666667 8,2.66666667 Z M1.33333333,8 C1.33333333,4.3181 4.3181,1.33333333 8,1.33333333 C11.6819,1.33333333 14.6666667,4.3181 14.6666667,8 C14.6666667,11.6819 11.6819,14.6666667 8,14.6666667 C4.3181,14.6666667 1.33333333,11.6819 1.33333333,8 C1.33333333,8 1.33333333,8 1.33333333,8 Z M9.215,6.7904 C9.215,6.7904 7.56046667,7.56253333 7.56046667,7.56253333 C7.56046667,7.56253333 6.78836667,9.21703333 6.78836667,9.21703333 C6.78836667,9.21703333 8.4429,8.44493333 8.4429,8.44493333 C8.4429,8.44493333 9.215,6.7904 9.215,6.7904 C9.215,6.7904 9.215,6.7904 9.215,6.7904 Z M10.1463333,4.8844 C10.7669667,4.59479 11.4106,5.23843333 11.121,5.85906667 C11.121,5.85906667 9.4461,9.44813333 9.4461,9.44813333 C9.4461,9.44813333 5.857,11.1230333 5.857,11.1230333 C5.2364,11.4126667 4.59274667,10.769 4.88236667,10.1484 C4.88236667,10.1484 6.55726667,6.5593 6.55726667,6.5593 C6.55726667,6.5593 10.1463333,4.8844 10.1463333,4.8844 C10.1463333,4.8844 10.1463333,4.8844 10.1463333,4.8844 Z" id="形状" fill="#999999"></path>
    </g>
</svg>