<?xml version="1.0" encoding="UTF-8"?>
<svg width="16px" height="16px" viewBox="0 0 16 16" version="1.1" xmlns="http://www.w3.org/2000/svg" xmlns:xlink="http://www.w3.org/1999/xlink">
    <title>icon/基础类/el-icon-folder-opened</title>
    <g id="icon/基础类/el-icon-folder-opened" stroke="none" stroke-width="1" fill="none" fill-rule="evenodd">
        <path d="M2.35294,2.66666667 C2.35294,2.66666667 6.86443333,2.66666667 6.86443333,2.66666667 C7.18786667,2.66666667 7.50463333,2.81848867 7.70096667,3.09479 C7.70096667,3.09479 8.34413333,4 8.34413333,4 C8.34413333,4 11.9608,4 11.9608,4 C12.6824,4 13.3333333,4.56156667 13.3333333,5.33333333 C13.3333333,5.33333333 13.3333333,12.3333333 13.3333333,12.3333333 C13.3333333,12.6701667 13.2027667,13.0413 13.0249333,13.3252333 C12.8669667,13.5774667 12.5167333,14 11.9608,14 C11.9608,14 2.70588333,14 2.70588333,14 C1.98426,14 1.33333333,13.4384333 1.33333333,12.6666667 C1.33333333,12.6666667 1.33333333,3.66666667 1.33333333,3.66666667 C1.33333333,3.07899333 1.82624333,2.66666667 2.35294,2.66666667 Z M2.66666667,12.6552667 C2.67288,12.6601333 2.68548667,12.6666667 2.70588333,12.6666667 C2.70588333,12.6666667 5.75742222,12.6666667 11.8605,12.6666667 L13.3333333,12 L13.3333333,7.33333333 L12,7.33333333 C12,6.00760889 12,5.34474667 12,5.34474667 C11.9938,5.33988 11.9811667,5.33333333 11.9608,5.33333333 C11.9608,5.33333333 2.66666667,5.33333333 2.66666667,5.33333333 C2.66666667,5.33333333 2.66666667,12.6552667 2.66666667,12.6552667 Z" id="形状" fill="#999999"></path>
        <path d="M14.9646639,6.66666667 C15.3328537,6.66666667 15.6313305,6.9651435 15.6313305,7.33333333 C15.6313305,7.42850058 15.6109554,7.52256489 15.5715749,7.60920196 L13.2646043,12.6845371 L2.03450398,12.7145205 L4.9543167,7.36153049 C5.18796093,6.93318275 5.63691851,6.66666667 6.12484413,6.66666667 L14.9646639,6.66666667 Z M13.9286667,8 L6.12484413,8 L3.57866667,12.6666667 L11.808,12.6666667 L13.9286667,8 Z" id="路径-29" fill="#979797" fill-rule="nonzero"></path>
    </g>
</svg>