<?xml version="1.0" encoding="UTF-8"?>
<svg width="16px" height="16px" viewBox="0 0 16 16" version="1.1" xmlns="http://www.w3.org/2000/svg" xmlns:xlink="http://www.w3.org/1999/xlink">
    <title>icon/编辑类/icon-edit-line-orderedlist</title>
    <g id="icon/编辑类/icon-edit-line-orderedlist" stroke="none" stroke-width="1" fill="none" fill-rule="evenodd">
        <path d="M2.22251067,4.50146667 L2.22251067,5.0665 L3.90294333,5.0665 L3.90294333,4.50146667 L3.41784333,4.50146667 L3.41784333,2.66666667 L2.94581,2.66666667 L2.11502233,3.13744667 L2.36921667,3.64204333 L2.74061,3.42981667 L2.74061,4.50146667 L2.22251067,4.50146667 Z M14.0298333,4.48167 L4.6965,4.48167 L4.6965,3.14833667 L14.0298333,3.14833667 L14.0298333,4.48167 Z M2.15321067,8.88316667 L2.15321067,9.38003333 L3.84354333,9.38003333 L3.84354333,8.815 L3.0176,8.815 L3.33101333,8.5016 C3.48223333,8.3548 3.59202667,8.21496667 3.65828333,8.08243333 C3.72448667,7.94776667 3.75774333,7.80693333 3.75774333,7.66036667 C3.75774333,7.43176667 3.68299333,7.25206667 3.52985667,7.12713333 C3.38001333,7.0031 3.16577333,6.9439 2.89277667,6.9439 C2.73504667,6.9439 2.58154,6.96763333 2.43270333,7.01496667 C2.28628633,7.06226667 2.160193,7.12683333 2.05507933,7.2091 L2.032924,7.22643333 L2.250423,7.73773333 L2.28789133,7.70943333 C2.37564333,7.64306667 2.46263,7.5944 2.54882667,7.56286667 C2.63768,7.53113333 2.72367,7.51553333 2.80697667,7.51553333 C2.90989,7.51553333 2.98032,7.53586667 3.02443667,7.57043333 C3.06685667,7.60366667 3.09041,7.65443333 3.09041,7.72966667 C3.09041,7.78843333 3.07381333,7.84826667 3.03906667,7.9096 L3.03862333,7.9104 C3.00560667,7.97233333 2.94741333,8.04896667 2.86260667,8.14033333 L2.15321067,8.88316667 Z M14.0298333,8.815 L4.6965,8.815 L4.6965,7.48166667 L14.0298333,7.48166667 L14.0298333,8.815 Z M3.70429,12.5479667 C3.78443,12.6541333 3.82374333,12.782 3.82374333,12.9295667 C3.82374333,13.1456667 3.73692,13.3184667 3.56449,13.4443 C3.39553667,13.5669667 3.16695333,13.6262333 2.88287667,13.6262333 C2.71457667,13.6262333 2.55273,13.6038 2.39747,13.5587667 L2.397,13.5586333 C2.24209633,13.5115 2.11629133,13.4491 2.02127163,13.3703 L2,13.3526667 L2.216792,12.8582 L2.253191,12.8826 C2.4552,13.018 2.65501667,13.0843 2.85317667,13.0843 C2.98363667,13.0843 3.06710333,13.0643333 3.11225333,13.0318 L3.11280333,13.0314 C3.15700333,13.0008 3.18281,12.9483 3.18281,12.8635667 C3.18281,12.7859667 3.15845333,12.7377 3.11636,12.7091 C3.07081,12.6781 2.98997,12.6593333 2.86637667,12.6593333 L2.47001,12.6593333 L2.47001,12.1174 L2.80697667,12.1174 C2.92607333,12.1174 3.00529333,12.0997667 3.05121333,12.0704 C3.09365667,12.0432333 3.11681,12.0000667 3.11681,11.9329667 C3.11681,11.8602333 3.09367667,11.8087667 3.05080333,11.7730333 L3.04953,11.7719667 C3.00789,11.7339667 2.94543333,11.7122333 2.85647667,11.7122333 C2.76905333,11.7122333 2.67539,11.7299333 2.57525,11.7661333 L2.57459667,11.7664 C2.47463,11.8004 2.37869333,11.8494 2.28675733,11.9135333 L2.25013033,11.9391 L2.032863,11.4435667 L2.05460667,11.4259667 C2.15170267,11.3473667 2.27737067,11.2861 2.43015667,11.2411333 C2.58531333,11.1939333 2.74285667,11.1703 2.90267667,11.1703 C3.07150333,11.1703 3.22069333,11.1973 3.34937,11.2524333 C3.48006,11.3075 3.58266333,11.3862667 3.65535,11.4894333 C3.72825,11.5929333 3.76434333,11.7126333 3.76434333,11.8471667 C3.76434333,11.9769333 3.73064667,12.0911667 3.66208333,12.1882 C3.64922667,12.207 3.63531333,12.2248 3.62036,12.2416 C3.57756,12.2897 3.52624333,12.3296 3.46674333,12.3613667 C3.56421667,12.4034333 3.64376,12.4655 3.70429,12.5479667 Z M14.0298333,13.1483333 L4.6965,13.1483333 L4.6965,11.815 L14.0298333,11.815 L14.0298333,13.1483333 Z" id="形状" fill="#999999"></path>
    </g>
</svg>