<?xml version="1.0" encoding="UTF-8"?>
<svg width="16px" height="16px" viewBox="0 0 16 16" version="1.1" xmlns="http://www.w3.org/2000/svg" xmlns:xlink="http://www.w3.org/1999/xlink">
    <title>icon/通用类/el-icon-unlock</title>
    <g id="icon/通用类/el-icon-unlock" stroke="none" stroke-width="1" fill="none" fill-rule="evenodd">
        <path d="M4.33333333,5 C4.33333333,2.97495667 5.97496667,1.33333333 8,1.33333333 C10.0250333,1.33333333 11.6666667,2.97495667 11.6666667,5 C11.6666667,5 10.3333333,5 10.3333333,5 C10.3333333,3.71133667 9.28866667,2.66666667 8,2.66666667 C6.71133333,2.66666667 5.66666667,3.71133667 5.66666667,5 C5.66666667,5 5.66666667,6.33333333 5.66666667,6.33333333 C5.66666667,6.33333333 13.3333333,6.33333333 13.3333333,6.33333333 C13.8856333,6.33333333 14.3333333,6.78103333 14.3333333,7.33333333 C14.3333333,7.33333333 14.3333333,13.3333333 14.3333333,13.3333333 C14.3333333,13.8856333 13.8856333,14.3333333 13.3333333,14.3333333 C13.3333333,14.3333333 2.66666667,14.3333333 2.66666667,14.3333333 C2.11438333,14.3333333 1.66666667,13.8856333 1.66666667,13.3333333 C1.66666667,13.3333333 1.66666667,7.33333333 1.66666667,7.33333333 C1.66666667,6.78103333 2.11438333,6.33333333 2.66666667,6.33333333 C2.66666667,6.33333333 4.33333333,6.33333333 4.33333333,6.33333333 C4.33333333,6.33333333 4.33333333,5 4.33333333,5 C4.33333333,5 4.33333333,5 4.33333333,5 Z M3,7.66666667 C3,7.66666667 3,13 3,13 C3,13 13,13 13,13 C13,13 13,7.66666667 13,7.66666667 C13,7.66666667 3,7.66666667 3,7.66666667 C3,7.66666667 3,7.66666667 3,7.66666667 Z M8.66666667,12 C8.66666667,12 8.66666667,8.66666667 8.66666667,8.66666667 C8.66666667,8.66666667 7.33333333,8.66666667 7.33333333,8.66666667 C7.33333333,8.66666667 7.33333333,12 7.33333333,12 C7.33333333,12 8.66666667,12 8.66666667,12 C8.66666667,12 8.66666667,12 8.66666667,12 Z" id="形状" fill="#999999"></path>
    </g>
</svg>