<?xml version="1.0" encoding="UTF-8"?>
<svg width="16px" height="16px" viewBox="0 0 16 16" version="1.1" xmlns="http://www.w3.org/2000/svg" xmlns:xlink="http://www.w3.org/1999/xlink">
    <title>icon/编辑类/el-icon-rank</title>
    <g id="icon/编辑类/el-icon-rank" stroke="none" stroke-width="1" fill="none" fill-rule="evenodd">
        <path d="M7.99999002,1.05718994 C7.99999002,1.05718994 10.47139,3.52859327 10.47139,3.52859327 C10.47139,3.52859327 9.52859002,4.47138994 9.52859002,4.47138994 C9.52859002,4.47138994 8.66665669,3.60947661 8.66665669,3.60947661 C8.66665669,3.60947661 8.66665669,7.33332327 8.66665669,7.33332327 C8.66665669,7.33332327 12.3905234,7.33332327 12.3905234,7.33332327 C12.3905234,7.33332327 11.52859,6.47138994 11.52859,6.47138994 C11.52859,6.47138994 12.47139,5.52858994 12.47139,5.52858994 C12.47139,5.52858994 14.9428234,7.99998994 14.9428234,7.99998994 C14.9428234,7.99998994 12.47139,10.4713899 12.47139,10.4713899 C12.47139,10.4713899 11.52859,9.52858994 11.52859,9.52858994 C11.52859,9.52858994 12.3905234,8.66665661 12.3905234,8.66665661 C12.3905234,8.66665661 8.66665669,8.66665661 8.66665669,8.66665661 C8.66665669,8.66665661 8.66665669,12.3905233 8.66665669,12.3905233 C8.66665669,12.3905233 9.52859002,11.5285899 9.52859002,11.5285899 C9.52859002,11.5285899 10.47139,12.4713899 10.47139,12.4713899 C10.47139,12.4713899 7.99999002,14.9428233 7.99999002,14.9428233 C7.99999002,14.9428233 5.52859002,12.4713899 5.52859002,12.4713899 C5.52859002,12.4713899 6.47139002,11.5285899 6.47139002,11.5285899 C6.47139002,11.5285899 7.33332335,12.3905233 7.33332335,12.3905233 C7.33332335,12.3905233 7.33332335,8.66665661 7.33332335,8.66665661 C7.33332335,8.66665661 3.60947669,8.66665661 3.60947669,8.66665661 C3.60947669,8.66665661 4.47139002,9.52858994 4.47139002,9.52858994 C4.47139002,9.52858994 3.52859335,10.4713899 3.52859335,10.4713899 C3.52859335,10.4713899 1.05719002,7.99998994 1.05719002,7.99998994 C1.05719002,7.99998994 3.52859335,5.52858994 3.52859335,5.52858994 C3.52859335,5.52858994 4.47139002,6.47138994 4.47139002,6.47138994 C4.47139002,6.47138994 3.60947335,7.33332327 3.60947335,7.33332327 C3.60947335,7.33332327 7.33332335,7.33332327 7.33332335,7.33332327 C7.33332335,7.33332327 7.33332335,3.60947327 7.33332335,3.60947327 C7.33332335,3.60947327 6.47139002,4.47138994 6.47139002,4.47138994 C6.47139002,4.47138994 5.52859002,3.52859327 5.52859002,3.52859327 C5.52859002,3.52859327 7.99999002,1.05718994 7.99999002,1.05718994 C7.99999002,1.05718994 7.99999002,1.05718994 7.99999002,1.05718994 Z" id="路径" fill="#999999"></path>
    </g>
</svg>