<?xml version="1.0" encoding="UTF-8"?>
<svg width="16px" height="16px" viewBox="0 0 16 16" version="1.1" xmlns="http://www.w3.org/2000/svg" xmlns:xlink="http://www.w3.org/1999/xlink">
    <title>icon/通用类/el-icon-watch</title>
    <g id="icon/通用类/el-icon-watch" stroke="none" stroke-width="1" fill="none" fill-rule="evenodd">
        <path d="M9.33333333,0.666666667 C10.069713,0.666666667 10.6666667,1.26362033 10.6666667,2 L10.667541,4.1704029 C11.8760374,5.01376588 12.6666667,6.41455226 12.6666667,8 C12.6666667,9.58544774 11.8760374,10.9862341 10.667541,11.8295971 L10.6666667,14 C10.6666667,14.7363797 10.069713,15.3333333 9.33333333,15.3333333 L6.66666667,15.3333333 C5.930287,15.3333333 5.33333333,14.7363797 5.33333333,14 L5.33245896,11.8295971 C4.12396256,10.9862341 3.33333333,9.58544774 3.33333333,8 C3.33333333,6.41455226 4.12396256,5.01376588 5.33245896,4.1704029 L5.33333333,2 C5.33333333,1.26362033 5.930287,0.666666667 6.66666667,0.666666667 L9.33333333,0.666666667 Z M8,12.6666667 C7.5364753,12.6666667 7.08873463,12.5990872 6.66609324,12.4732435 L6.66666667,14 L9.33333333,14 L9.33337899,12.4734006 C8.91089264,12.5991434 8.46333176,12.6666667 8,12.6666667 Z M8,4.66666667 C6.15905083,4.66666667 4.66666667,6.15905083 4.66666667,8 C4.66666667,9.84094917 6.15905083,11.3333333 8,11.3333333 C9.84094917,11.3333333 11.3333333,9.84094917 11.3333333,8 C11.3333333,6.15905083 9.84094917,4.66666667 8,4.66666667 Z M8.66666667,6 L8.66633333,7.33266667 L10,7.33333333 L10,8.66666667 L7.33333333,8.66666667 L7.33333333,8.66566667 L7.33333333,6 L8.66666667,6 Z M9.33333333,2 L6.66666667,2 L6.66609324,3.52675649 C7.08873463,3.4009128 7.5364753,3.33333333 8,3.33333333 C8.46333176,3.33333333 8.91089264,3.40085655 9.33337899,3.52659937 L9.33333333,2 Z" id="形状结合" fill="#999999" fill-rule="nonzero"></path>
    </g>
</svg>