<?xml version="1.0" encoding="UTF-8"?>
<svg width="16px" height="16px" viewBox="0 0 16 16" version="1.1" xmlns="http://www.w3.org/2000/svg" xmlns:xlink="http://www.w3.org/1999/xlink">
    <title>icon/编辑类/icon-edit-line-unorderedlist</title>
    <g id="icon/编辑类/icon-edit-line-unorderedlist" stroke="none" stroke-width="1" fill="none" fill-rule="evenodd">
        <path d="M2,4 C2,4 2,2.66666667 2,2.66666667 C2,2.66666667 3.33333333,2.66666667 3.33333333,2.66666667 C3.33333333,2.66666667 3.33333333,4 3.33333333,4 C3.33333333,4 2,4 2,4 Z M4.66666667,4 C4.66666667,4 4.66666667,2.66666667 4.66666667,2.66666667 C4.66666667,2.66666667 14,2.66666667 14,2.66666667 C14,2.66666667 14,4 14,4 C14,4 4.66666667,4 4.66666667,4 Z M2,8.66666667 C2,8.66666667 2,7.33333333 2,7.33333333 C2,7.33333333 3.33333333,7.33333333 3.33333333,7.33333333 C3.33333333,7.33333333 3.33333333,8.66666667 3.33333333,8.66666667 C3.33333333,8.66666667 2,8.66666667 2,8.66666667 Z M4.66666667,8.66666667 C4.66666667,8.66666667 4.66666667,7.33333333 4.66666667,7.33333333 C4.66666667,7.33333333 14,7.33333333 14,7.33333333 C14,7.33333333 14,8.66666667 14,8.66666667 C14,8.66666667 4.66666667,8.66666667 4.66666667,8.66666667 Z M2,13.3333333 C2,13.3333333 2,12 2,12 C2,12 3.33333333,12 3.33333333,12 C3.33333333,12 3.33333333,13.3333333 3.33333333,13.3333333 C3.33333333,13.3333333 2,13.3333333 2,13.3333333 Z M4.66666667,13.3333333 C4.66666667,13.3333333 4.66666667,12 4.66666667,12 C4.66666667,12 14,12 14,12 C14,12 14,13.3333333 14,13.3333333 C14,13.3333333 4.66666667,13.3333333 4.66666667,13.3333333 Z" id="形状" fill="#999999"></path>
    </g>
</svg>