<?xml version="1.0" encoding="UTF-8"?>
<svg width="16px" height="16px" viewBox="0 0 16 16" version="1.1" xmlns="http://www.w3.org/2000/svg" xmlns:xlink="http://www.w3.org/1999/xlink">
    <title>icon/通用类/icon-general-line-thumbdown</title>
    <g id="icon/通用类/icon-general-line-thumbdown" stroke="none" stroke-width="1" fill="none" fill-rule="evenodd">
        <path d="M2.57838667,8.66666667 C2.57838667,8.66666667 6.63556667,8.66666667 6.63556667,8.66666667 C6.63556667,8.66666667 5.83326667,10.7633992 5.83326667,10.7633992 C5.619,11.3233325 5.8048,11.9574325 6.2874,12.3131658 C6.2874,12.3131658 6.86983333,12.7425 6.86983333,12.7425 C6.86983333,12.7425 10.0050667,8.66666667 10.0050667,8.66666667 C10.0050667,8.66666667 10.6666667,8.66666667 10.6666667,8.66666667 C10.6666667,8.66666667 10.6666667,2.66666667 10.6666667,2.66666667 C10.6666667,2.66666667 4.48748,2.66666667 4.48748,2.66666667 C4.48748,2.66666667 2.57838667,8.66666667 2.57838667,8.66666667 Z M4.24374,1.33333333 C4.24374,1.33333333 12,1.33333333 12,1.33333333 C12,1.33333333 12,9.99999917 12,9.99999917 C12,9.99999917 10.6616,9.99999917 10.6616,9.99999917 C10.6616,9.99999917 7.72753333,13.8142992 7.72753333,13.8142992 C7.39566667,14.2457325 6.7797,14.3324992 6.34156667,14.0094992 C6.34156667,14.0094992 5.49626667,13.3863992 5.49626667,13.3863992 C4.53107667,12.6749325 4.15945667,11.4067658 4.58796667,10.2868658 C4.58796667,10.2868658 4.69776667,9.99999917 4.69776667,9.99999917 C4.69776667,9.99999917 2.57838667,9.99999917 2.57838667,9.99999917 C1.67598,9.99999917 1.03420733,9.1223325 1.30782033,8.26239917 C1.30782033,8.26239917 3.29081333,2.03012917 3.29081333,2.03012917 C3.42285333,1.61515017 3.80826333,1.33333333 4.24374,1.33333333 Z M14.6666667,10.0000008 C14.6666667,10.0000008 13.3333333,10.0000008 13.3333333,10.0000008 C13.3333333,10.0000008 13.3333333,1.33333417 13.3333333,1.33333417 C13.3333333,1.33333417 14.6666667,1.33333417 14.6666667,1.33333417 C14.6666667,1.33333417 14.6666667,10.0000008 14.6666667,10.0000008 Z" id="形状" fill="#999999"></path>
    </g>
</svg>