<?xml version="1.0" encoding="UTF-8"?>
<svg width="16px" height="16px" viewBox="0 0 16 16" version="1.1" xmlns="http://www.w3.org/2000/svg" xmlns:xlink="http://www.w3.org/1999/xlink">
    <title>icon/面性/icon-basic-file-success2</title>
    <g id="icon/面性/icon-basic-file-success2" stroke="none" stroke-width="1" fill="none" fill-rule="evenodd">
        <circle id="椭圆形备份" fill="#D8F1CC" cx="8.00515457" cy="8.01982927" r="7.2"></circle>
        <path d="M10.444288,5.72795588 L10.8273103,6.04934977 C11.0154224,6.20703667 11.0581237,6.47374414 10.9406259,6.67963524 L10.8888346,6.75367846 L7.85850678,10.3620453 L7.53911687,10.7478508 C7.36261998,10.960226 7.04737385,10.9893048 6.83499863,10.8128035 L6.8272115,10.8061963 L6.12150678,10.1960453 L6.07428592,10.1554331 L6.07450678,10.1540453 L4.83814311,9.08320042 C4.62942071,8.90239831 4.60678652,8.58662679 4.78758876,8.37790424 L5.12942053,7.99812365 C5.31128448,7.79614327 5.62117325,7.7764278 5.82716648,7.95372352 L7.04350678,9.00004535 L9.73976752,5.78949666 C9.9173958,5.57813631 10.2327041,5.55059372 10.444288,5.72795588 Z" id="形状结合" fill="#3DB800"></path>
    </g>
</svg>