<?xml version="1.0" encoding="UTF-8"?>
<svg width="16px" height="16px" viewBox="0 0 16 16" version="1.1" xmlns="http://www.w3.org/2000/svg" xmlns:xlink="http://www.w3.org/1999/xlink">
    <title>icon/基础类/icon-basic-line-usergroup</title>
    <g id="icon/基础类/icon-basic-line-usergroup" stroke="none" stroke-width="1" fill="none" fill-rule="evenodd">
        <path d="M4.33333333,5 C4.33333333,4.07952667 5.07953333,3.33333333 6,3.33333333 C6.92046667,3.33333333 7.66666667,4.07952667 7.66666667,5 C7.66666667,5.92046667 6.92046667,6.66666667 6,6.66666667 C5.07953333,6.66666667 4.33333333,5.92046667 4.33333333,5 C4.33333333,5 4.33333333,5 4.33333333,5 Z M6,2 C4.34314667,2 3,3.34314667 3,5 C3,6.65686667 4.34314667,8 6,8 C7.65686667,8 9,6.65686667 9,5 C9,3.34314667 7.65686667,2 6,2 C6,2 6,2 6,2 Z M10.6666667,6.33333333 C10.6666667,5.96513333 10.9651333,5.66666667 11.3333333,5.66666667 C11.7015333,5.66666667 12,5.96513333 12,6.33333333 C12,6.70153333 11.7015333,7 11.3333333,7 C10.9651333,7 10.6666667,6.70153333 10.6666667,6.33333333 C10.6666667,6.33333333 10.6666667,6.33333333 10.6666667,6.33333333 Z M11.3333333,4.33333333 C10.2287667,4.33333333 9.33333333,5.22876333 9.33333333,6.33333333 C9.33333333,7.4379 10.2287667,8.33333333 11.3333333,8.33333333 C12.4379,8.33333333 13.3333333,7.4379 13.3333333,6.33333333 C13.3333333,5.22876333 12.4379,4.33333333 11.3333333,4.33333333 C11.3333333,4.33333333 11.3333333,4.33333333 11.3333333,4.33333333 Z M1.33333333,11.3333333 C1.33333333,9.86056667 2.52724,8.66666667 4,8.66666667 C4,8.66666667 8,8.66666667 8,8.66666667 C9.47276667,8.66666667 10.6666667,9.86056667 10.6666667,11.3333333 C10.6666667,11.3333333 10.6666667,14 10.6666667,14 C10.6666667,14 1.33333333,14 1.33333333,14 C1.33333333,14 1.33333333,11.3333333 1.33333333,11.3333333 C1.33333333,11.3333333 1.33333333,11.3333333 1.33333333,11.3333333 Z M4,10 C3.26362,10 2.66666667,10.5969667 2.66666667,11.3333333 C2.66666667,11.3333333 2.66666667,12.6666667 2.66666667,12.6666667 C2.66666667,12.6666667 9.33333333,12.6666667 9.33333333,12.6666667 C9.33333333,12.6666667 9.33333333,11.3333333 9.33333333,11.3333333 C9.33333333,10.5969667 8.73636667,10 8,10 C8,10 4,10 4,10 C4,10 4,10 4,10 Z M14.6666667,11.3333333 C14.6666667,10.2287667 13.7712333,9.33333333 12.6666667,9.33333333 C12.6666667,9.33333333 11.3333333,9.33333333 11.3333333,9.33333333 C11.3333333,9.33333333 11.3333333,10.6666667 11.3333333,10.6666667 C11.3333333,10.6666667 12.6666667,10.6666667 12.6666667,10.6666667 C13.0348667,10.6666667 13.3333333,10.9651333 13.3333333,11.3333333 C13.3333333,11.3333333 13.3333333,12 13.3333333,12 C13.3333333,12 11.3333333,12 11.3333333,12 C11.3333333,12 11.3333333,13.3333333 11.3333333,13.3333333 C11.3333333,13.3333333 14.6666667,13.3333333 14.6666667,13.3333333 C14.6666667,13.3333333 14.6666667,11.3333333 14.6666667,11.3333333 C14.6666667,11.3333333 14.6666667,11.3333333 14.6666667,11.3333333 Z" id="形状" fill="#999999"></path>
    </g>
</svg>