<?xml version="1.0" encoding="UTF-8"?>
<svg width="16px" height="16px" viewBox="0 0 16 16" version="1.1" xmlns="http://www.w3.org/2000/svg" xmlns:xlink="http://www.w3.org/1999/xlink">
    <title>icon/影音类/icon-general-line-fileaudio</title>
    <g id="icon/影音类/icon-general-line-fileaudio" stroke="none" stroke-width="1" fill="none" fill-rule="evenodd">
        <path d="M4,1.33333333 C3.26362,1.33333333 2.66666667,1.93028667 2.66666667,2.66666667 C2.66666667,2.66666667 2.66666667,13.3333333 2.66666667,13.3333333 C2.66666667,14.0697 3.26362,14.6666667 4,14.6666667 C4,14.6666667 12.6666667,14.6666667 12.6666667,14.6666667 C13.4030333,14.6666667 14,14.0697 14,13.3333333 C14,13.3333333 14,4.05719 14,4.05719 C14,4.05719 11.2761333,1.33333333 11.2761333,1.33333333 C11.2761333,1.33333333 4,1.33333333 4,1.33333333 C4,1.33333333 4,1.33333333 4,1.33333333 Z M4,2.66666667 C4,2.66666667 10.7238667,2.66666667 10.7238667,2.66666667 C10.7238667,2.66666667 12.6666667,4.60947667 12.6666667,4.60947667 C12.6666667,4.60947667 12.6666667,13.3333333 12.6666667,13.3333333 C12.6666667,13.3333333 4,13.3333333 4,13.3333333 C4,13.3333333 4,2.66666667 4,2.66666667 C4,2.66666667 4,2.66666667 4,2.66666667 Z M10.2237333,6.6576 C10.2237333,6.6576 9.06333333,6.4642 9.06333333,6.4642 C9.06333333,6.4642 9.31763333,9.7703 9.31763333,9.7703 C9.328,9.8454 9.33333333,9.92206667 9.33333333,10 C9.33333333,10.9204667 8.58713333,11.6666667 7.66666667,11.6666667 C6.7462,11.6666667 6,10.9204667 6,10 C6,9.07953333 6.7462,8.33333333 7.66666667,8.33333333 C7.73576667,8.33333333 7.8039,8.33753333 7.87076667,8.3457 C7.87076667,8.3457 7.68496667,5.92996667 7.68496667,5.92996667 C7.64346667,5.39046667 8.1191,4.9551 8.65283333,5.04406667 C8.65283333,5.04406667 10.4429333,5.3424 10.4429333,5.3424 C10.4429333,5.3424 10.2237333,6.6576 10.2237333,6.6576 C10.2237333,6.6576 10.2237333,6.6576 10.2237333,6.6576 Z M7.99946667,10.0188333 C7.99946667,10.0188333 7.99266667,9.93006667 7.99266667,9.93006667 C7.9605,9.77956667 7.82676667,9.66666667 7.66666667,9.66666667 C7.48256667,9.66666667 7.33333333,9.8159 7.33333333,10 C7.33333333,10.1841 7.48256667,10.3333333 7.66666667,10.3333333 C7.84443333,10.3333333 7.98973333,10.1941667 7.99946667,10.0188333 C7.99946667,10.0188333 7.99946667,10.0188333 7.99946667,10.0188333 Z" id="形状" fill="#999999"></path>
    </g>
</svg>