<?xml version="1.0" encoding="UTF-8"?>
<svg width="16px" height="16px" viewBox="0 0 16 16" version="1.1" xmlns="http://www.w3.org/2000/svg" xmlns:xlink="http://www.w3.org/1999/xlink">
    <title>icon/影音类/el-icon-video-camera</title>
    <g id="icon/影音类/el-icon-video-camera" stroke="none" stroke-width="1" fill="none" fill-rule="evenodd">
        <path d="M2.66666667,4.66666667 C2.66666667,4.66666667 2.66666667,12 2.66666667,12 C2.66666667,12 10.3333333,12 10.3333333,12 C10.3333333,12 10.3333333,4.66666667 10.3333333,4.66666667 C10.3333333,4.66666667 2.66666667,4.66666667 2.66666667,4.66666667 C2.66666667,4.66666667 2.66666667,4.66666667 2.66666667,4.66666667 Z M2.33333333,3.33333333 C2.33333333,3.33333333 10.6666667,3.33333333 10.6666667,3.33333333 C11.2189667,3.33333333 11.6666667,3.78105 11.6666667,4.33333333 C11.6666667,4.33333333 11.6666667,5.43731333 11.6666667,5.43731333 C11.6666667,5.43731333 13.7126667,4.82351667 13.7126667,4.82351667 C14.3542667,4.63103333 15,5.11148 15,5.78134333 C15,5.78134333 15,10.8853333 15,10.8853333 C15,11.5552 14.3542667,12.0356333 13.7126667,11.8431333 C13.7126667,11.8431333 11.6666667,11.2293667 11.6666667,11.2293667 C11.6666667,11.2293667 11.6666667,12.3333333 11.6666667,12.3333333 C11.6666667,12.8856333 11.2189667,13.3333333 10.6666667,13.3333333 C10.6666667,13.3333333 2.33333333,13.3333333 2.33333333,13.3333333 C1.78104667,13.3333333 1.33333333,12.8856333 1.33333333,12.3333333 C1.33333333,12.3333333 1.33333333,4.33333333 1.33333333,4.33333333 C1.33333333,3.78105 1.78104667,3.33333333 2.33333333,3.33333333 Z M11.6666667,9.8373 C11.6666667,9.8373 13.6666667,10.4373 13.6666667,10.4373 C13.6666667,10.4373 13.6666667,6.22935333 13.6666667,6.22935333 C13.6666667,6.22935333 11.6666667,6.82936667 11.6666667,6.82936667 C11.6666667,6.82936667 11.6666667,9.8373 11.6666667,9.8373 C11.6666667,9.8373 11.6666667,9.8373 11.6666667,9.8373 Z M5.66666667,7.33333333 C5.66666667,7.33333333 3.66666667,7.33333333 3.66666667,7.33333333 C3.66666667,7.33333333 3.66666667,6 3.66666667,6 C3.66666667,6 5.66666667,6 5.66666667,6 C5.66666667,6 5.66666667,7.33333333 5.66666667,7.33333333 C5.66666667,7.33333333 5.66666667,7.33333333 5.66666667,7.33333333 Z" id="形状" fill="#999999"></path>
    </g>
</svg>