<?xml version="1.0" encoding="UTF-8"?>
<svg width="16px" height="16px" viewBox="0 0 16 16" version="1.1" xmlns="http://www.w3.org/2000/svg" xmlns:xlink="http://www.w3.org/1999/xlink">
    <title>icon/基础类/icon-basic-line-stop</title>
    <g id="icon/基础类/icon-basic-line-stop" stroke="none" stroke-width="1" fill="none" fill-rule="evenodd">
        <path d="M4.72933317,3.78653667 C4.72933317,3.78653667 12.2134665,11.2706667 12.2134665,11.2706667 C13.8417998,9.17836667 13.6943998,6.1519 11.7712332,4.22876333 C9.84809984,2.30561333 6.82163317,2.15820333 4.72933317,3.78653667 C4.72933317,3.78653667 4.72933317,3.78653667 4.72933317,3.78653667 Z M11.2706665,12.2134667 C11.2706665,12.2134667 3.78653651,4.72933333 3.78653651,4.72933333 C2.15820317,6.82163333 2.30561317,9.8481 4.22876317,11.7712333 C6.15189984,13.6944 9.17836651,13.8418 11.2706665,12.2134667 C11.2706665,12.2134667 11.2706665,12.2134667 11.2706665,12.2134667 Z M3.28595317,3.28595333 C5.88946651,0.68246 10.1105332,0.68246 12.7140332,3.28595333 C15.3175332,5.88946667 15.3175332,10.1105333 12.7140332,12.7140333 C10.1105332,15.3175333 5.88946651,15.3175333 3.28595317,12.7140333 C0.682459841,10.1105333 0.682459841,5.88946667 3.28595317,3.28595333 C3.28595317,3.28595333 3.28595317,3.28595333 3.28595317,3.28595333 Z" id="形状" fill="#999999"></path>
    </g>
</svg>