<?xml version="1.0" encoding="UTF-8"?>
<svg width="16px" height="16px" viewBox="0 0 16 16" version="1.1" xmlns="http://www.w3.org/2000/svg" xmlns:xlink="http://www.w3.org/1999/xlink">
    <title>icon/编辑类/icon-edit-line-eraser</title>
    <g id="icon/编辑类/icon-edit-line-eraser" stroke="none" stroke-width="1" fill="none" fill-rule="evenodd">
        <path d="M8.52112234,2.28114407 C8.89595795,1.90628414 9.50372599,1.90628638 9.8785936,2.28114439 C9.8785936,2.28114439 14.385516,6.78807314 14.385516,6.78807314 C14.7603836,7.16290876 14.7603836,7.7706768 14.385516,8.14554441 C14.385516,8.14554441 10.1040709,12.4270215 10.1040709,12.4270215 C10.1040709,12.4270215 14.4791049,12.4262216 14.4791049,12.4262216 C14.4791049,12.4262216 14.4793608,13.706102 14.4793608,13.706102 C14.4793608,13.706102 5.17262282,13.706102 5.17262282,13.706102 C4.91815695,13.706102 4.67412184,13.604898 4.49417835,13.4249513 C4.49417835,13.4249513 1.6144774,10.5452603 1.6144774,10.5452603 C1.23961779,10.1703927 1.23961939,9.56262462 1.61447772,9.187789 C1.61447772,9.187789 8.52112234,2.28114407 8.52112234,2.28114407 C8.52112234,2.28114407 8.52112234,2.28114407 8.52112234,2.28114407 Z M8.29474914,12.4272454 C8.29474914,12.4272454 8.77504427,11.9465024 8.77504427,11.9465024 C8.77504427,11.9465024 4.72038837,7.89184645 4.72038837,7.89184645 C4.72038837,7.89184645 2.74571338,9.86652464 2.74571338,9.86652464 C2.74571338,9.86652464 5.30550308,12.4262855 5.30550308,12.4262855 C5.30550308,12.4262855 8.29474914,12.4272454 8.29474914,12.4272454 C8.29474914,12.4272454 8.29474914,12.4272454 8.29474914,12.4272454 Z M5.62536921,6.98686561 C5.62536921,6.98686561 9.67980114,11.0412975 9.67980114,11.0412975 C9.67980114,11.0412975 13.2542899,7.46680878 13.2542899,7.46680878 C13.2542899,7.46680878 9.19985797,3.41238005 9.19985797,3.41238005 C9.19985797,3.41238005 5.62536921,6.98686561 5.62536921,6.98686561 C5.62536921,6.98686561 5.62536921,6.98686561 5.62536921,6.98686561 Z" id="形状" fill="#999999"></path>
    </g>
</svg>