<?xml version="1.0" encoding="UTF-8"?>
<svg width="16px" height="16px" viewBox="0 0 16 16" version="1.1" xmlns="http://www.w3.org/2000/svg" xmlns:xlink="http://www.w3.org/1999/xlink">
    <title>icon/基础类/el-icon-tickets</title>
    <g id="icon/基础类/el-icon-tickets" stroke="none" stroke-width="1" fill="none" fill-rule="evenodd">
        <path d="M12.6666667,1.33333333 C13.3597299,1.33333333 13.3387456,1.86212274 13.3338787,2.53825777 L13.3333333,13.3333333 C13.3333333,14.069713 13.4030463,14.6666667 12.6666667,14.6666667 L3.33333333,14.6666667 C2.64027012,14.6666667 2.66125439,14.1378773 2.66612127,13.4617422 L2.66666667,2.66666667 C2.66666667,1.930287 2.59695367,1.33333333 3.33333333,1.33333333 L12.6666667,1.33333333 Z M12,2.66666667 L4,2.66666667 L4,13.3333333 L12,13.3333333 L12,2.66666667 Z M8.66666667,8 L8.66666667,9.33333333 L6,9.33333333 L6,8 L8.66666667,8 Z M10,5.33333333 L10,6.66666667 L6,6.66666667 L6,5.33333333 L10,5.33333333 Z" id="形状结合" fill="#999999"></path>
    </g>
</svg>