<?xml version="1.0" encoding="UTF-8"?>
<svg width="16px" height="16px" viewBox="0 0 16 16" version="1.1" xmlns="http://www.w3.org/2000/svg" xmlns:xlink="http://www.w3.org/1999/xlink">
    <title>icon/通用类/icon-general-line-public</title>
    <g id="icon/通用类/icon-general-line-public" stroke="none" stroke-width="1" fill="none" fill-rule="evenodd">
        <path d="M2.72950333,7.17876667 C2.68813333,7.44646667 2.66666667,7.72073333 2.66666667,8 C2.66666667,10.0278333 3.79838667,11.7913333 5.46466667,12.6933333 C5.46466667,12.6933333 5.96226667,9.21623333 5.96226667,9.21623333 C5.96226667,9.21623333 4.63089,7.75173333 4.63089,7.75173333 C4.63089,7.75173333 2.72950333,7.17876667 2.72950333,7.17876667 C2.72950333,7.17876667 2.72950333,7.17876667 2.72950333,7.17876667 Z M3.09729,5.89703333 C3.09729,5.89703333 4.77896667,6.4038 4.77896667,6.4038 C4.77896667,6.4038 6.3708,4.56704333 6.3708,4.56704333 C6.3708,4.56704333 5.68246667,3.19515 5.68246667,3.19515 C4.52793,3.75304667 3.60505667,4.71483333 3.09729,5.89703333 C3.09729,5.89703333 3.09729,5.89703333 3.09729,5.89703333 Z M6.95993333,2.76802667 C6.95993333,2.76802667 7.66253333,4.1684 7.66253333,4.1684 C7.8441,4.53024667 7.78956667,4.96586667 7.52443333,5.2718 C7.52443333,5.2718 7.24393333,5.59546667 7.24393333,5.59546667 C7.24393333,5.59546667 9.8934,7.25136667 9.8934,7.25136667 C10.3739667,7.55173333 10.5091667,8.19103333 10.1913,8.66023333 C10.1913,8.66023333 7.07923333,13.2541333 7.07923333,13.2541333 C7.37833333,13.3062 7.686,13.3333333 8,13.3333333 C10.9455333,13.3333333 13.3333333,10.9455333 13.3333333,8 C13.3333333,5.05446667 10.9455333,2.66666667 8,2.66666667 C7.6441,2.66666667 7.29633333,2.70153 6.95993333,2.76802667 C6.95993333,2.76802667 6.95993333,2.76802667 6.95993333,2.76802667 Z M7.0695,10.8912 C7.0695,10.8912 8.89346667,8.19873333 8.89346667,8.19873333 C8.89346667,8.19873333 7.09546667,7.075 7.09546667,7.075 C7.09546667,7.075 6.14866667,7.43913333 6.14866667,7.43913333 C6.14866667,7.43913333 7.0544,8.43543333 7.0544,8.43543333 C7.25496667,8.65603333 7.3466,8.95463333 7.30436667,9.24976667 C7.30436667,9.24976667 7.0695,10.8912 7.0695,10.8912 C7.0695,10.8912 7.0695,10.8912 7.0695,10.8912 Z M1.33333333,8 C1.33333333,4.3181 4.3181,1.33333333 8,1.33333333 C11.6819,1.33333333 14.6666667,4.3181 14.6666667,8 C14.6666667,11.6819 11.6819,14.6666667 8,14.6666667 C4.3181,14.6666667 1.33333333,11.6819 1.33333333,8 C1.33333333,8 1.33333333,8 1.33333333,8 Z" id="形状" fill="#999999"></path>
    </g>
</svg>