<?xml version="1.0" encoding="UTF-8"?>
<svg width="16px" height="16px" viewBox="0 0 16 16" version="1.1" xmlns="http://www.w3.org/2000/svg" xmlns:xlink="http://www.w3.org/1999/xlink">
    <title>icon/通用类/icon-general-line-tags</title>
    <g id="icon/通用类/icon-general-line-tags" stroke="none" stroke-width="1" fill="none" fill-rule="evenodd">
        <path d="M3.80609979,7.25305677 C3.80609979,7.25305677 8.07276312,2.98640677 8.07276312,2.98640677 C8.07276312,2.98640677 11.1892631,3.1697301 11.1892631,3.1697301 C11.1892631,3.1697301 11.3725965,6.28622344 11.3725965,6.28622344 C11.3725965,6.28622344 7.10592979,10.5528901 7.10592979,10.5528901 C7.10592979,10.5528901 3.80609979,7.25305677 3.80609979,7.25305677 C3.80609979,7.25305677 3.80609979,7.25305677 3.80609979,7.25305677 Z M8.00162979,1.64658455 C7.71646312,1.6298113 7.43776312,1.7357761 7.23579645,1.9377521 C7.23579645,1.9377521 2.62758945,6.54595677 2.62758945,6.54595677 C2.23706512,6.9364901 2.23706579,7.56965677 2.62758979,7.96015677 C2.62758979,7.96015677 6.39882979,11.7313901 6.39882979,11.7313901 C6.78936312,12.1219234 7.42252979,12.1219234 7.81302979,11.7313901 C7.81302979,11.7313901 12.4212298,7.1231901 12.4212298,7.1231901 C12.6232298,6.92122344 12.7291631,6.64252344 12.7123965,6.35735677 C12.7123965,6.35735677 12.5028965,2.7956501 12.5028965,2.7956501 C12.4731298,2.28959344 12.0693965,1.88586577 11.5633298,1.85609777 C11.5633298,1.85609777 8.00162979,1.64658455 8.00162979,1.64658455 C8.00162979,1.64658455 8.00162979,1.64658455 8.00162979,1.64658455 Z M9.24119645,5.10572344 C9.23836312,5.1030901 9.23556312,5.1003901 9.23279645,5.09762344 C9.10262979,4.96746344 9.10262979,4.75640677 9.23279645,4.62623344 C9.36012979,4.4989001 9.56486312,4.4961201 9.69559645,4.61790344 C9.69839645,4.62054344 9.70119645,4.62323677 9.70396312,4.62599344 C9.83412979,4.75616677 9.83412979,4.96722344 9.70396312,5.0973901 C9.57662979,5.22472344 9.37189645,5.22752344 9.24119645,5.10572344 C9.24119645,5.10572344 9.24119645,5.10572344 9.24119645,5.10572344 Z M8.76112979,5.5687901 C8.37062979,5.1782901 8.37062979,4.5451101 8.76116312,4.15458677 C9.14369645,3.7720301 9.75909645,3.76422677 10.1511631,4.13117677 C10.1594298,4.13889344 10.1675631,4.1467801 10.1756298,4.1548301 C10.5661298,4.54535677 10.5661298,5.17852344 10.1756298,5.56905677 C9.79306312,5.9515901 9.17766312,5.95942344 8.78559645,5.59245677 C8.77736312,5.58472344 8.76919645,5.57685677 8.76112979,5.5687901 Z M12.0557631,8.9028901 C12.0557631,8.9028901 7.34172979,13.6169234 7.34172979,13.6169234 C7.34172979,13.6169234 3.33478979,9.6099901 3.33478979,9.6099901 C3.33478979,9.6099901 2.39198012,10.5527901 2.39198012,10.5527901 C2.39198012,10.5527901 6.63462979,14.7954234 6.63462979,14.7954234 C7.02512979,15.1859568 7.65829645,15.1859568 8.04882979,14.7954234 C8.04882979,14.7954234 12.9985965,9.8456901 12.9985965,9.8456901 C12.9985965,9.8456901 12.0557631,8.9028901 12.0557631,8.9028901 C12.0557631,8.9028901 12.0557631,8.9028901 12.0557631,8.9028901 Z" id="形状" fill="#999999"></path>
    </g>
</svg>