<?xml version="1.0" encoding="UTF-8"?>
<svg width="16px" height="16px" viewBox="0 0 16 16" version="1.1" xmlns="http://www.w3.org/2000/svg" xmlns:xlink="http://www.w3.org/1999/xlink">
    <title>icon/基础类/icon-basic-line-invisible</title>
    <g id="icon/基础类/icon-basic-line-invisible" stroke="none" stroke-width="1" fill="none" fill-rule="evenodd">
        <path d="M4.69577371,5.7212575 C4.05108678,6.29042584 3.4153666,7.04420924 2.79023021,8 C4.46147354,10.5552333 6.20836021,11.6666667 7.99999354,11.6666667 C8.7070012,11.6666667 9.40704289,11.493592 10.0982178,11.1270187 L11.0763538,12.1045551 C10.1170422,12.6915461 9.09251612,13 7.99999354,13 C5.45342688,13 3.27629354,11.3241333 1.43337621,8.35126667 C1.43337621,8.35126667 1.21562688,8 1.21562688,8 C1.21562688,8 1.43337621,7.64873333 1.43337621,7.64873333 C2.15445418,6.48554418 2.92669798,5.5209124 3.75221713,4.77753403 L1.81108248,2.83783382 L2.75389152,1.89502478 L6.83707945,5.97665797 C7.17943209,5.7794666 7.57653963,5.66666667 7.99999354,5.66666667 C9.28866021,5.66666667 10.3333269,6.71133333 10.3333269,8 C10.3333269,8.42345391 10.2205269,8.82056145 10.0233356,9.1629141 L14.1869164,13.3254696 L13.2441074,14.2682787 L9.05656994,10.080967 C8.73934721,10.2423517 8.38029555,10.3333333 7.99999354,10.3333333 C6.71132688,10.3333333 5.66666021,9.28866667 5.66666021,8 C5.66666021,7.62007113 5.75746341,7.26135092 5.91855172,6.94435745 L4.69577371,5.7212575 Z M7.99999354,3 C10.5465602,3 12.7236935,4.67587667 14.5666269,7.64873333 C14.5666269,7.64873333 14.7843602,8 14.7843602,8 C14.7843602,8 14.5666269,8.35126667 14.5666269,8.35126667 C13.9622146,9.32625422 13.3218561,10.1617376 12.6443084,10.8443521 L11.703102,9.90171488 C12.2114431,9.38910891 12.7139318,8.75809715 13.2097602,8 C11.5385269,5.44478333 9.79162688,4.33333333 7.99999354,4.33333333 C7.47320188,4.33333333 6.9502787,4.4294214 6.43200938,4.63004489 L5.4218507,3.61872713 C6.23557099,3.21192174 7.09442406,3 7.99999354,3 Z M7.00162688,8.02702478 L6.99999354,8 C6.99999354,8.54319615 7.43308809,8.98521224 7.9727704,8.99963661 L7.00162688,8.02702478 Z M7.99999354,7 C7.95561497,7 7.9119114,7.00289092 7.86906091,7.00849473 L8.99151534,8.13081302 C8.9971083,8.08800112 8.99999354,8.04433761 8.99999354,8 C8.99999354,7.4477 8.55229354,7 7.99999354,7 Z" id="形状结合" fill="#999999"></path>
    </g>
</svg>