<?xml version="1.0" encoding="UTF-8"?>
<svg width="16px" height="16px" viewBox="0 0 16 16" version="1.1" xmlns="http://www.w3.org/2000/svg" xmlns:xlink="http://www.w3.org/1999/xlink">
    <title>icon/通用类/icon-general-line-reply</title>
    <g id="icon/通用类/icon-general-line-reply" stroke="none" stroke-width="1" fill="none" fill-rule="evenodd">
        <path d="M8,2.85531 C8,2.85531 8,5.02005667 8,5.02005667 C11.8659667,5.02005667 14.6666776,8.13400892 14.6666776,12.0000089 C14.6666776,12.0551756 14.6660109,12.1102089 14.6647443,12.1650756 C14.6511776,12.7502423 13.9484109,13.0361423 13.5294443,12.6314423 C12.2695109,11.4143756 10.8894,10.6867333 9,10.6867333 C8.66016667,10.6867333 8.3263,10.7109 8,10.7575333 C8,10.7575333 8,13.1848 8,13.1848 C8,13.8496 7.18633333,14.1713667 6.73166667,13.6863667 C6.73166667,13.6863667 1.72737459,8.68394225 1.72737459,8.68394225 C1.36675626,8.29927558 1.36675693,7.70070892 1.72737359,7.31604225 C1.72737359,7.31604225 6.73166667,2.35375333 6.73166667,2.35375333 C7.18633333,1.86875967 8,2.190517 8,2.85531 Z M2.91382093,8.00000892 C2.91382093,8.00000892 6.66666667,11.6675333 6.66666667,11.6675333 C6.66666667,11.6675333 6.66666667,9.66666667 6.66666667,9.66666667 C6.66666667,9.66666667 7.18903333,9.55086667 7.18903333,9.55086667 C7.77266667,9.42146667 8.37876667,9.3534 9,9.3534 C10.6599,9.3534 11.8737776,9.81914225 13.1729443,10.6557423 C12.5694109,8.17500892 10.6664333,6.3534 8,6.3534 C7.79803333,6.3534 7.59876667,6.36393333 7.4027,6.38443333 C7.4027,6.38443333 6.66666667,6.46143333 6.66666667,6.46143333 C6.66666667,6.46143333 6.66666667,4.37257667 6.66666667,4.37257667 C6.66666667,4.37257667 2.91382093,8.00000892 2.91382093,8.00000892 Z" id="形状" fill="#999999"></path>
    </g>
</svg>