<?xml version="1.0" encoding="UTF-8"?>
<svg width="16px" height="16px" viewBox="0 0 16 16" version="1.1" xmlns="http://www.w3.org/2000/svg" xmlns:xlink="http://www.w3.org/1999/xlink">
    <title>icon/通用类/el-icon-aim</title>
    <g id="icon/通用类/el-icon-aim" stroke="none" stroke-width="1" fill="none" fill-rule="evenodd">
        <path d="M8,1.33333333 C11.6819,1.33333333 14.6666667,4.3181 14.6666667,8 C14.6666667,11.6819 11.6819,14.6666667 8,14.6666667 C4.3181,14.6666667 1.33333333,11.6819 1.33333333,8 C1.33333333,4.3181 4.3181,1.33333333 8,1.33333333 Z M8.66667889,2.7079301 L8.66666667,5.33333333 L7.33333333,5.33333333 L7.33238412,2.70804702 C4.92065882,3.00921968 3.00921968,4.92065882 2.70804702,7.33238412 L5.33333333,7.33333333 L5.33333333,8.66666667 L2.7079301,8.66667889 C3.00872462,11.0788461 4.9203465,12.9907413 7.33238412,13.291953 L7.33333333,10.6666667 L8.66666667,10.6666667 L8.66667889,13.2920699 C11.0791584,12.9912364 12.9912364,11.0791584 13.2920699,8.66667889 L10.6666667,8.66666667 L10.6666667,7.33333333 L13.291953,7.33238412 C12.9907413,4.9203465 11.0788461,3.00872462 8.66667889,2.7079301 Z" id="形状结合" fill="#999999"></path>
    </g>
</svg>