<?xml version="1.0" encoding="UTF-8"?>
<svg width="16px" height="16px" viewBox="0 0 16 16" version="1.1" xmlns="http://www.w3.org/2000/svg" xmlns:xlink="http://www.w3.org/1999/xlink">
    <title> icon/编辑类/icon-edit-line-fontcolors</title>
    <g id="-icon/编辑类/icon-edit-line-fontcolors" stroke="none" stroke-width="1" fill="none" fill-rule="evenodd">
        <path d="M7.66643333,1.66666667 C7.66643333,1.66666667 7.22963333,1.66666667 7.22963333,1.66666667 C7.22963333,1.66666667 7.0552,2.06715333 7.0552,2.06715333 C7.0552,2.06715333 4.87777667,7.06716667 4.87777667,7.06716667 C4.87777667,7.06716667 4.47153667,8 4.47153667,8 C4.47153667,8 4.49153667,8 4.49153667,8 C4.49153667,8 3.217349,11.0783667 3.217349,11.0783667 C3.217349,11.0783667 4.44931667,11.5883667 4.44931667,11.5883667 C4.44931667,11.5883667 5.93457333,8 5.93457333,8 C5.93457333,8 10.0649667,8 10.0649667,8 C10.0649667,8 11.5507,11.5883667 11.5507,11.5883667 C11.5507,11.5883667 12.7826333,11.0783 12.7826333,11.0783 C12.7826333,11.0783 11.5080667,8 11.5080667,8 C11.5080667,8 11.5279667,8 11.5279667,8 C11.5279667,8 11.1217333,7.06716667 11.1217333,7.06716667 C11.1217333,7.06716667 8.94433333,2.06715667 8.94433333,2.06715667 C8.94433333,2.06715667 8.76993333,1.66666667 8.76993333,1.66666667 C8.76993333,1.66666667 8.3331,1.66666667 8.3331,1.66666667 C8.3331,1.66666667 7.66643333,1.66666667 7.66643333,1.66666667 C7.66643333,1.66666667 7.66643333,1.66666667 7.66643333,1.66666667 Z M9.49303333,6.66666667 C9.49303333,6.66666667 6.50646667,6.66666667 6.50646667,6.66666667 C6.50646667,6.66666667 7.99976667,3.23763 7.99976667,3.23763 C7.99976667,3.23763 9.49303333,6.66666667 9.49303333,6.66666667 C9.49303333,6.66666667 9.49303333,6.66666667 9.49303333,6.66666667 Z M3,14.3333333 C3,14.3333333 13,14.3333333 13,14.3333333 C13,14.3333333 13,13 13,13 C13,13 3,13 3,13 C3,13 3,14.3333333 3,14.3333333 C3,14.3333333 3,14.3333333 3,14.3333333 Z" id="形状" fill="#999999"></path>
    </g>
</svg>