<?xml version="1.0" encoding="UTF-8"?>
<svg width="16px" height="16px" viewBox="0 0 16 16" version="1.1" xmlns="http://www.w3.org/2000/svg" xmlns:xlink="http://www.w3.org/1999/xlink">
    <title>icon/面性/icon-basic-file-thumbdown</title>
    <g id="icon/面性/icon-basic-file-thumbdown" stroke="none" stroke-width="1" fill="none" fill-rule="evenodd">
        <path d="M8.18323766,1.72363313 C8.18323766,1.72363313 5.249171,5.53792313 5.249171,5.53792313 C5.249171,5.53792313 3.910771,5.53787964 3.910771,5.53787964 C3.910771,5.53787964 3.910771,14.2045898 3.910771,14.2045898 C3.910771,14.2045898 11.6670377,14.2045898 11.6670377,14.2045898 C12.1025043,14.2045898 12.4879043,13.9227565 12.619971,13.5077898 C12.619971,13.5077898 14.6029377,7.27552313 14.6029377,7.27552313 C14.876571,6.41558979 14.2348043,5.53792313 13.332371,5.53792313 C13.332371,5.53792313 9.925771,5.55745646 9.925771,5.55745646 C9.925771,5.55745646 10.0334043,5.27615646 10.0334043,5.27615646 C10.0882043,5.13295646 10.155271,4.98332313 10.232871,4.81022313 C10.257471,4.75532313 10.2831043,4.69818979 10.3097043,4.63816313 C10.413571,4.40382646 10.5287377,4.13334646 10.608871,3.86157646 C10.6875377,3.59476313 10.7499043,3.27121979 10.7025043,2.94089646 C10.6520043,2.58875646 10.4801377,2.25939313 10.156971,2.01421646 C10.156971,2.01421646 9.58450433,1.53966646 9.58450433,1.53966646 C9.58450433,1.53966646 9.56920433,1.52840379 9.56920433,1.52840379 C9.131071,1.20543713 8.51510433,1.29220279 8.18323766,1.72363313 Z M1.24410433,14.2045898 C1.24410433,14.2045898 2.57743766,14.2045898 2.57743766,14.2045898 C2.57743766,14.2045898 2.57743766,5.53792313 2.57743766,5.53792313 C2.57743766,5.53792313 1.24410433,5.53792313 1.24410433,5.53792313 C1.24410433,5.53792313 1.24410433,14.2045898 1.24410433,14.2045898 Z" id="形状" fill="#999999" transform="translate(7.9554, 7.7689) rotate(-180) translate(-7.9554, -7.7689)"></path>
    </g>
</svg>