<?xml version="1.0" encoding="UTF-8"?>
<svg width="16px" height="16px" viewBox="0 0 16 16" version="1.1" xmlns="http://www.w3.org/2000/svg" xmlns:xlink="http://www.w3.org/1999/xlink">
    <title>icon/基础类/el-icon-circle-close</title>
    <g id="icon/基础类/el-icon-circle-close" stroke="none" stroke-width="1" fill="none" fill-rule="evenodd">
        <path d="M8,2.66666667 C5.05446667,2.66666667 2.66666667,5.05446667 2.66666667,8 C2.66666667,10.9455333 5.05446667,13.3333333 8,13.3333333 C10.9455333,13.3333333 13.3333333,10.9455333 13.3333333,8 C13.3333333,5.05446667 10.9455333,2.66666667 8,2.66666667 C8,2.66666667 8,2.66666667 8,2.66666667 Z M1.33333333,8 C1.33333333,4.3181 4.3181,1.33333333 8,1.33333333 C11.6819,1.33333333 14.6666667,4.3181 14.6666667,8 C14.6666667,11.6819 11.6819,14.6666667 8,14.6666667 C4.3181,14.6666667 1.33333333,11.6819 1.33333333,8 C1.33333333,8 1.33333333,8 1.33333333,8 Z M7.05946667,8.0023 C7.05946667,8.0023 5.40956667,6.35236667 5.40956667,6.35236667 C5.40956667,6.35236667 6.35236667,5.40956667 6.35236667,5.40956667 C6.35236667,5.40956667 8.00226667,7.05946667 8.00226667,7.05946667 C8.00226667,7.05946667 9.6522,5.40956667 9.6522,5.40956667 C9.6522,5.40956667 10.595,6.35236667 10.595,6.35236667 C10.595,6.35236667 8.9451,8.0023 8.9451,8.0023 C8.9451,8.0023 10.595,9.6522 10.595,9.6522 C10.595,9.6522 9.6522,10.595 9.6522,10.595 C9.6522,10.595 8.00226667,8.9451 8.00226667,8.9451 C8.00226667,8.9451 6.35236667,10.595 6.35236667,10.595 C6.35236667,10.595 5.40956667,9.6522 5.40956667,9.6522 C5.40956667,9.6522 7.05946667,8.0023 7.05946667,8.0023 C7.05946667,8.0023 7.05946667,8.0023 7.05946667,8.0023 Z" id="形状" fill="#999999"></path>
    </g>
</svg>