<?xml version="1.0" encoding="UTF-8"?>
<svg width="16px" height="16px" viewBox="0 0 16 16" version="1.1" xmlns="http://www.w3.org/2000/svg" xmlns:xlink="http://www.w3.org/1999/xlink">
    <title>icon/通用类/icon-general-line-selectall</title>
    <g id="icon/通用类/icon-general-line-selectall" stroke="none" stroke-width="1" fill="none" fill-rule="evenodd">
        <path d="M3.41421211,3.82842816 C3.41421211,3.82842816 5.29982878,1.94281149 5.29982878,1.94281149 C5.29982878,1.94281149 6.24262878,2.88562149 6.24262878,2.88562149 C6.24262878,2.88562149 3.41421211,5.71404482 3.41421211,5.71404482 C3.41421211,5.71404482 1.52859549,3.82842816 1.52859549,3.82842816 C1.52859549,3.82842816 2.47140545,2.88562149 2.47140545,2.88562149 C2.47140545,2.88562149 3.41421211,3.82842816 3.41421211,3.82842816 C3.41421211,3.82842816 3.41421211,3.82842816 3.41421211,3.82842816 Z M14.3333288,4.33333482 C14.3333288,4.33333482 6.99999545,4.33333482 6.99999545,4.33333482 C6.99999545,4.33333482 6.99999545,3.00000149 6.99999545,3.00000149 C6.99999545,3.00000149 14.3333288,3.00000149 14.3333288,3.00000149 C14.3333288,3.00000149 14.3333288,4.33333482 14.3333288,4.33333482 C14.3333288,4.33333482 14.3333288,4.33333482 14.3333288,4.33333482 Z M3.41421211,8.16177816 C3.41421211,8.16177816 5.29982878,6.27614482 5.29982878,6.27614482 C5.29982878,6.27614482 6.24262878,7.21894482 6.24262878,7.21894482 C6.24262878,7.21894482 3.41421211,10.0473782 3.41421211,10.0473782 C3.41421211,10.0473782 1.52859553,8.16177816 1.52859553,8.16177816 C1.52859553,8.16177816 2.47140545,7.21894482 2.47140545,7.21894482 C2.47140545,7.21894482 3.41421211,8.16177816 3.41421211,8.16177816 C3.41421211,8.16177816 3.41421211,8.16177816 3.41421211,8.16177816 Z M14.3333288,9.00001149 C14.3333288,9.00001149 6.99999545,9.00001149 6.99999545,9.00001149 C6.99999545,9.00001149 6.99999545,7.66667816 6.99999545,7.66667816 C6.99999545,7.66667816 14.3333288,7.66667816 14.3333288,7.66667816 C14.3333288,7.66667816 14.3333288,9.00001149 14.3333288,9.00001149 C14.3333288,9.00001149 14.3333288,9.00001149 14.3333288,9.00001149 Z M3.41421211,12.4950782 C3.41421211,12.4950782 5.29982878,10.6094782 5.29982878,10.6094782 C5.29982878,10.6094782 6.24262878,11.5522782 6.24262878,11.5522782 C6.24262878,11.5522782 3.41421211,14.3807115 3.41421211,14.3807115 C3.41421211,14.3807115 1.52859545,12.4950782 1.52859545,12.4950782 C1.52859545,12.4950782 2.47140545,11.5522782 2.47140545,11.5522782 C2.47140545,11.5522782 3.41421211,12.4950782 3.41421211,12.4950782 C3.41421211,12.4950782 3.41421211,12.4950782 3.41421211,12.4950782 Z M14.3333288,13.6666782 C14.3333288,13.6666782 6.99999545,13.6666782 6.99999545,13.6666782 C6.99999545,13.6666782 6.99999545,12.3333448 6.99999545,12.3333448 C6.99999545,12.3333448 14.3333288,12.3333448 14.3333288,12.3333448 C14.3333288,12.3333448 14.3333288,13.6666782 14.3333288,13.6666782 C14.3333288,13.6666782 14.3333288,13.6666782 14.3333288,13.6666782 Z" id="形状" fill="#999999"></path>
    </g>
</svg>