<?xml version="1.0" encoding="UTF-8"?>
<svg width="16px" height="16px" viewBox="0 0 16 16" version="1.1" xmlns="http://www.w3.org/2000/svg" xmlns:xlink="http://www.w3.org/1999/xlink">
    <title>icon/基础类/el-icon-chat-dot-square</title>
    <g id="icon/基础类/el-icon-chat-dot-square" stroke="none" stroke-width="1" fill="none" fill-rule="evenodd">
        <path d="M12.6666667,2 C13.7712362,2 14.6666667,2.8954305 14.6666667,4 L14.6666667,10 C14.6666667,11.1045695 13.7712362,12 12.6666667,12 L5.566,12 L2.95802838,14.0873272 C2.55372032,14.4107736 1.97536206,14.3695347 1.6203675,14.0077675 L1.55246452,13.9311534 C1.41061409,13.7538404 1.33333333,13.5335299 1.33333333,13.3064584 L1.33333333,4 C1.33333333,2.8954305 2.22876383,2 3.33333333,2 L12.6666667,2 Z M13.3333333,3.33333333 L2.66666667,3.33333333 L2.66666667,4 L2.66666667,12.6126667 L4.91686997,10.8127541 L5.09947929,10.6666667 L13.3333333,10.6666667 L13.3333333,10 L13.3333333,4 L13.3333333,3.33333333 Z" id="路径-58" fill="#979797" fill-rule="nonzero"></path>
        <circle id="椭圆形" fill="#999999" cx="5.41666667" cy="7.08333333" r="1"></circle>
        <circle id="椭圆形备份" fill="#999999" cx="8.08333333" cy="7.08333333" r="1"></circle>
        <circle id="椭圆形备份-2" fill="#999999" cx="10.75" cy="7.08333333" r="1"></circle>
    </g>
</svg>