<?xml version="1.0" encoding="UTF-8"?>
<svg width="16px" height="16px" viewBox="0 0 16 16" version="1.1" xmlns="http://www.w3.org/2000/svg" xmlns:xlink="http://www.w3.org/1999/xlink">
    <title>icon/基础类/el-icon-delete</title>
    <g id="icon/基础类/el-icon-delete" stroke="none" stroke-width="1" fill="none" fill-rule="evenodd">
        <path d="M11.3333333,2 C11.3333333,2 4.66666667,2 4.66666667,2 C4.66666667,2 4.66666667,3.33333333 4.66666667,3.33333333 C4.66666667,3.33333333 1.33333333,3.33333333 1.33333333,3.33333333 C1.33333333,3.33333333 1.33333333,4.66666667 1.33333333,4.66666667 C1.33333333,4.66666667 2.66666667,4.66666667 2.66666667,4.66666667 C2.66666667,4.66666667 2.66666667,13.6666667 2.66666667,13.6666667 C2.66666667,14.2189667 3.11438,14.6666667 3.66666667,14.6666667 C3.66666667,14.6666667 12.3333333,14.6666667 12.3333333,14.6666667 C12.8856333,14.6666667 13.3333333,14.21893 13.3333333,13.6666633 C13.3333333,13.6666633 13.3333333,4.66666667 13.3333333,4.66666667 C13.3333333,4.66666667 14.6666667,4.66667 14.6666667,4.66667 C14.6666667,4.66667 14.6666667,3.33333667 14.6666667,3.33333667 C14.6666667,3.33333667 11.3333333,3.33333667 11.3333333,3.33333667 C11.3333333,3.33333667 11.3333333,2 11.3333333,2 Z M4,4.66666667 C4,4.66666667 12,4.66666667 12,4.66666667 C12,4.66666667 12,13.3333333 12,13.3333333 C12,13.3333333 4,13.3333333 4,13.3333333 C4,13.3333333 4,4.66666667 4,4.66666667 Z M6,11.3333333 C6,11.3333333 7.33333333,11.3333333 7.33333333,11.3333333 C7.33333333,11.3333333 7.33333333,6.66666667 7.33333333,6.66666667 C7.33333333,6.66666667 6,6.66666667 6,6.66666667 C6,6.66666667 6,11.3333333 6,11.3333333 Z M8.66666667,11.3333333 C8.66666667,11.3333333 10,11.3333333 10,11.3333333 C10,11.3333333 10,6.66666667 10,6.66666667 C10,6.66666667 8.66666667,6.66666667 8.66666667,6.66666667 C8.66666667,6.66666667 8.66666667,11.3333333 8.66666667,11.3333333 Z" id="形状" fill="#999999"></path>
    </g>
</svg>