<?xml version="1.0" encoding="UTF-8"?>
<svg width="16px" height="16px" viewBox="0 0 16 16" version="1.1" xmlns="http://www.w3.org/2000/svg" xmlns:xlink="http://www.w3.org/1999/xlink">
    <title>icon/通用类/el-icon-reading</title>
    <g id="icon/通用类/el-icon-reading" stroke="none" stroke-width="1" fill="none" fill-rule="evenodd">
        <path d="M1.948285,1.78910704 C2.12490667,1.66414398 2.35119,1.63266471 2.55521333,1.70467338 C2.55521333,1.70467338 8,3.62636238 8,3.62636238 C8,3.62636238 13.4448,1.70467338 13.4448,1.70467338 C13.6488,1.63266471 13.8751,1.66414398 14.0517,1.78910704 C14.2283333,1.91407038 14.3333333,2.11697571 14.3333333,2.33333238 C14.3333333,2.33333238 14.3333333,11.6666625 14.3333333,11.6666625 C14.3333333,11.949329 14.1551,12.2012624 13.8885333,12.295329 C13.8885333,12.295329 8.22186667,14.295329 8.22186667,14.295329 C8.0783,14.3459957 7.9217,14.3459957 7.77813333,14.295329 C7.77813333,14.295329 2.11145333,12.295329 2.11145333,12.295329 C1.84491233,12.2012624 1.66666667,11.949329 1.66666667,11.6666625 C1.66666667,11.6666625 1.66666667,2.33333238 1.66666667,2.33333238 C1.66666667,2.11697571 1.77166267,1.91407038 1.948285,1.78910704 C1.948285,1.78910704 1.948285,1.78910704 1.948285,1.78910704 Z M7.33333333,4.80500904 C7.33333333,4.80500904 3,3.27559904 3,3.27559904 C3,3.27559904 3,11.1949957 3,11.1949957 C3,11.1949957 7.33333333,12.7243957 7.33333333,12.7243957 C7.33333333,12.7243957 7.33333333,4.80500904 7.33333333,4.80500904 C7.33333333,4.80500904 7.33333333,4.80500904 7.33333333,4.80500904 Z M8.66666667,12.7243957 C8.66666667,12.7243957 13,11.1949957 13,11.1949957 C13,11.1949957 13,3.27559904 13,3.27559904 C13,3.27559904 8.66666667,4.80500904 8.66666667,4.80500904 C8.66666667,4.80500904 8.66666667,12.7243957 8.66666667,12.7243957 C8.66666667,12.7243957 8.66666667,12.7243957 8.66666667,12.7243957 Z M4.22422333,4.53883904 C4.22422333,4.53883904 6.55756667,5.37216238 6.55756667,5.37216238 C6.55756667,5.37216238 6.1091,6.62782904 6.1091,6.62782904 C6.1091,6.62782904 3.77577667,5.79449571 3.77577667,5.79449571 C3.77577667,5.79449571 4.22422333,4.53883904 4.22422333,4.53883904 C4.22422333,4.53883904 4.22422333,4.53883904 4.22422333,4.53883904 Z M12.2242333,5.79449571 C12.2242333,5.79449571 9.8909,6.62782904 9.8909,6.62782904 C9.8909,6.62782904 9.44243333,5.37216238 9.44243333,5.37216238 C9.44243333,5.37216238 11.7757667,4.53883904 11.7757667,4.53883904 C11.7757667,4.53883904 12.2242333,5.79449571 12.2242333,5.79449571 C12.2242333,5.79449571 12.2242333,5.79449571 12.2242333,5.79449571 Z M4.22422333,6.87216238 C4.22422333,6.87216238 6.55756667,7.70549571 6.55756667,7.70549571 C6.55756667,7.70549571 6.1091,8.96116238 6.1091,8.96116238 C6.1091,8.96116238 3.77577667,8.12782904 3.77577667,8.12782904 C3.77577667,8.12782904 4.22422333,6.87216238 4.22422333,6.87216238 C4.22422333,6.87216238 4.22422333,6.87216238 4.22422333,6.87216238 Z M12.2242333,8.12782904 C12.2242333,8.12782904 9.8909,8.96116238 9.8909,8.96116238 C9.8909,8.96116238 9.44243333,7.70549571 9.44243333,7.70549571 C9.44243333,7.70549571 11.7757667,6.87216238 11.7757667,6.87216238 C11.7757667,6.87216238 12.2242333,8.12782904 12.2242333,8.12782904 C12.2242333,8.12782904 12.2242333,8.12782904 12.2242333,8.12782904 Z M4.22422333,9.20549571 C4.22422333,9.20549571 6.55756667,10.038829 6.55756667,10.038829 C6.55756667,10.038829 6.1091,11.2944957 6.1091,11.2944957 C6.1091,11.2944957 3.77577667,10.4611624 3.77577667,10.4611624 C3.77577667,10.4611624 4.22422333,9.20549571 4.22422333,9.20549571 C4.22422333,9.20549571 4.22422333,9.20549571 4.22422333,9.20549571 Z M12.2242333,10.4611624 C12.2242333,10.4611624 9.8909,11.2944957 9.8909,11.2944957 C9.8909,11.2944957 9.44243333,10.038829 9.44243333,10.038829 C9.44243333,10.038829 11.7757667,9.20549571 11.7757667,9.20549571 C11.7757667,9.20549571 12.2242333,10.4611624 12.2242333,10.4611624 C12.2242333,10.4611624 12.2242333,10.4611624 12.2242333,10.4611624 Z" id="形状" fill="#999999"></path>
    </g>
</svg>