<?xml version="1.0" encoding="UTF-8"?>
<svg width="16px" height="16px" viewBox="0 0 16 16" version="1.1" xmlns="http://www.w3.org/2000/svg" xmlns:xlink="http://www.w3.org/1999/xlink">
    <title>icon/基础类/el-icon-setting</title>
    <g id="icon/基础类/el-icon-setting" stroke="none" stroke-width="1" fill="none" fill-rule="evenodd">
        <path d="M5.57053334,2.06569 C5.69076668,1.63286933 6.08483334,1.33333333 6.53403334,1.33333333 C6.53403334,1.33333333 9.36066668,1.33333333 9.36066668,1.33333333 C9.80986668,1.33333333 10.2039333,1.63286833 10.3241667,2.06569 C10.3241667,2.06569 10.6650667,3.29285333 10.6650667,3.29285333 C10.6650667,3.29285333 11.8983333,2.97445667 11.8983333,2.97445667 C12.3333,2.86216667 12.7897333,3.05368667 13.0143333,3.44271 C13.0143333,3.44271 14.4276333,5.89063333 14.4276333,5.89063333 C14.6522333,6.27966667 14.5898667,6.7707 14.2751667,7.09123333 C14.2751667,7.09123333 13.3828667,8 13.3828667,8 C13.3828667,8 14.2751667,8.90876667 14.2751667,8.90876667 C14.5898667,9.2293 14.6522333,9.72036667 14.4276333,10.1093667 C14.4276333,10.1093667 13.0143333,12.5573 13.0143333,12.5573 C12.7897333,12.9463333 12.3333,13.1378333 11.8983333,13.0255333 C11.8983333,13.0255333 10.6650333,12.7071333 10.6650333,12.7071333 C10.6650333,12.7071333 10.3241667,13.9343 10.3241667,13.9343 C10.2039333,14.3671333 9.80986668,14.6666667 9.36066668,14.6666667 C9.36066668,14.6666667 6.53403334,14.6666667 6.53403334,14.6666667 C6.08483334,14.6666667 5.69076668,14.3671333 5.57053334,13.9343 C5.57053334,13.9343 5.22966668,12.7072 5.22966668,12.7072 C5.22966668,12.7072 3.99663334,13.0255333 3.99663334,13.0255333 C3.56168334,13.1378333 3.10523668,12.9463333 2.88063334,12.5573 C2.88063334,12.5573 1.46732934,10.1093667 1.46732934,10.1093667 C1.24272568,9.72036667 1.30508954,9.2293 1.61980934,8.90876667 C1.61980934,8.90876667 2.51210001,8 2.51210001,8 C2.51210001,8 1.61981068,7.09123333 1.61981068,7.09123333 C1.30509211,6.7707 1.24272601,6.27966667 1.46733034,5.89063333 C1.46733034,5.89063333 2.88063668,3.44271 2.88063668,3.44271 C3.10524001,3.05368667 3.56168668,2.86216667 3.99663334,2.97445667 C3.99663334,2.97445667 5.22966668,3.29278667 5.22966668,3.29278667 C5.22966668,3.29278667 5.57053334,2.06569 5.57053334,2.06569 C5.57053334,2.06569 5.57053334,2.06569 5.57053334,2.06569 Z M6.78740001,2.66666667 C6.78740001,2.66666667 6.42676668,3.96499667 6.42676668,3.96499667 C6.28086668,4.49026333 5.74110001,4.80186667 5.21326668,4.66560333 C5.21326668,4.66560333 3.90865334,4.32879333 3.90865334,4.32879333 C3.90865334,4.32879333 2.74871001,6.33786667 2.74871001,6.33786667 C2.74871001,6.33786667 3.69279668,7.2994 3.69279668,7.2994 C4.07473668,7.6884 4.07473668,8.31163333 3.69279668,8.7006 C3.69279668,8.7006 2.74871001,9.66213333 2.74871001,9.66213333 C2.74871001,9.66213333 3.90865334,11.6712 3.90865334,11.6712 C3.90865334,11.6712 5.21326668,11.3344 5.21326668,11.3344 C5.74113334,11.1981333 6.28086668,11.5097333 6.42676668,12.035 C6.42676668,12.035 6.78740001,13.3333333 6.78740001,13.3333333 C6.78740001,13.3333333 9.10730001,13.3333333 9.10730001,13.3333333 C9.10730001,13.3333333 9.46796668,12.0349333 9.46796668,12.0349333 C9.61386668,11.5096667 10.1536,11.1980667 10.6814333,11.3343333 C10.6814333,11.3343333 11.9863333,11.6712 11.9863333,11.6712 C11.9863333,11.6712 13.1462667,9.66213333 13.1462667,9.66213333 C13.1462667,9.66213333 12.2021667,8.7006 12.2021667,8.7006 C11.8202333,8.31163333 11.8202333,7.6884 12.2021667,7.2994 C12.2021667,7.2994 13.1462667,6.33786667 13.1462667,6.33786667 C13.1462667,6.33786667 11.9863,4.32879667 11.9863,4.32879667 C11.9863,4.32879667 10.6814333,4.66567 10.6814333,4.66567 C10.1536,4.80193333 9.61386668,4.49032667 9.46796668,3.96506333 C9.46796668,3.96506333 9.10730001,2.66666667 9.10730001,2.66666667 C9.10730001,2.66666667 6.78740001,2.66666667 6.78740001,2.66666667 C6.78740001,2.66666667 6.78740001,2.66666667 6.78740001,2.66666667 Z M7.94733334,6.66666667 C7.21096668,6.66666667 6.61400001,7.26363333 6.61400001,8 C6.61400001,8.73636667 7.21096668,9.33333333 7.94733334,9.33333333 C8.68373334,9.33333333 9.28066668,8.73636667 9.28066668,8 C9.28066668,7.26363333 8.68373334,6.66666667 7.94733334,6.66666667 C7.94733334,6.66666667 7.94733334,6.66666667 7.94733334,6.66666667 Z M5.28066668,8 C5.28066668,6.52723333 6.47460001,5.33333333 7.94733334,5.33333333 C9.42010001,5.33333333 10.614,6.52723333 10.614,8 C10.614,9.47276667 9.42010001,10.6666667 7.94733334,10.6666667 C6.47460001,10.6666667 5.28066668,9.47276667 5.28066668,8 C5.28066668,8 5.28066668,8 5.28066668,8 Z" id="形状" fill="#999999"></path>
    </g>
</svg>