<?xml version="1.0" encoding="UTF-8"?>
<svg width="16px" height="16px" viewBox="0 0 16 16" version="1.1" xmlns="http://www.w3.org/2000/svg" xmlns:xlink="http://www.w3.org/1999/xlink">
    <title>icon/天气类/el-icon-moon</title>
    <g id="icon/天气类/el-icon-moon" stroke="none" stroke-width="1" fill="none" fill-rule="evenodd">
        <path d="M6.05066667,2.03839005 C6.74113333,1.81860939 7.25076667,2.49798939 7.06973333,3.06699939 C6.9279,3.51280272 6.85113333,3.98837272 6.85113333,4.48315939 C6.85113333,7.05993605 8.94003333,9.14883605 11.5168,9.14883605 C12.0116,9.14883605 12.4871667,9.07203605 12.933,8.93020272 C13.502,8.74916939 14.1814,9.25880272 13.9616,9.94926939 C13.1526333,12.4908694 10.7733,14.3333361 7.9619,14.3333361 C4.48514,14.3333361 1.66666667,11.5148694 1.66666667,8.03810272 C1.66666667,5.22671272 3.50908333,2.84739939 6.05066667,2.03839005 C6.05066667,2.03839005 6.05066667,2.03839005 6.05066667,2.03839005 Z M5.5699,3.68953939 C4.03745,4.53434605 3,6.16566939 3,8.03810272 C3,10.7784694 5.22153333,13.0000027 7.9619,13.0000027 C9.83433333,13.0000027 11.4656667,11.9625361 12.3104667,10.4300361 C12.0506,10.4644361 11.7856333,10.4821694 11.5168,10.4821694 C8.20363333,10.4821694 5.5178,7.79630272 5.5178,4.48315939 C5.5178,4.21432272 5.53553333,3.94939605 5.5699,3.68953939 C5.5699,3.68953939 5.5699,3.68953939 5.5699,3.68953939 Z" id="形状" fill="#999999"></path>
    </g>
</svg>