<?xml version="1.0" encoding="UTF-8"?>
<svg width="16px" height="16px" viewBox="0 0 16 16" version="1.1" xmlns="http://www.w3.org/2000/svg" xmlns:xlink="http://www.w3.org/1999/xlink">
    <title>icon/面性/icon-basic-file-skipnext</title>
    <g id="icon/面性/icon-basic-file-skipnext" stroke="none" stroke-width="1" fill="none" fill-rule="evenodd">
        <path d="M4,4.31862719 C4,4.04670285 4.308054,3.88919085 4.52849667,4.04839919 C4.52849667,4.04839919 9.62583333,7.72980052 9.62583333,7.72980052 C9.81006667,7.86286719 9.81006667,8.13720052 9.62583333,8.27026719 C9.62583333,8.27026719 4.52849667,11.9516672 4.52849667,11.9516672 C4.30805433,12.1109005 4,11.9533672 4,11.6814672 C4,11.6814672 4,4.31862719 4,4.31862719 C4,4.31862719 4,4.31862719 4,4.31862719 Z M10.6666667,11.6666672 C10.6666667,11.8507672 10.8159,11.9999999 11,11.9999999 C11,11.9999999 11.6666667,11.9999999 11.6666667,11.9999999 C11.8507667,11.9999999 12,11.8507672 12,11.6666672 C12,11.6666672 12,4.33333385 12,4.33333385 C12,4.14923852 11.8507667,3.99999992 11.6666667,3.99999992 C11.6666667,3.99999992 11,3.99999992 11,3.99999992 C10.8159,3.99999992 10.6666667,4.14923852 10.6666667,4.33333385 C10.6666667,4.33333385 10.6666667,11.6666672 10.6666667,11.6666672 C10.6666667,11.6666672 10.6666667,11.6666672 10.6666667,11.6666672 Z" id="形状" fill="#999999"></path>
    </g>
</svg>