<?xml version="1.0" encoding="UTF-8"?>
<svg width="16px" height="16px" viewBox="0 0 16 16" version="1.1" xmlns="http://www.w3.org/2000/svg" xmlns:xlink="http://www.w3.org/1999/xlink">
    <title>icon/编辑类/icon-edit-line-bold</title>
    <g id="icon/编辑类/icon-edit-line-bold" stroke="none" stroke-width="1" fill="none" fill-rule="evenodd">
        <path d="M3.66666667,2.73333333 C3.66666667,2.32832367 3.994992,2 4.4,2 C4.4,2 8.33333333,2 8.33333333,2 C10.1742667,2 11.6666667,3.49238333 11.6666667,5.33333333 C11.6666667,6.1805 11.3506333,6.95386667 10.83,7.54196667 C12.0973,8.01396667 13,9.2349 13,10.6666667 C13,12.5076 11.5076,14 9.66666667,14 C9.66666667,14 4.4,14 4.4,14 C3.99499367,14 3.66666667,13.6716667 3.66666667,13.2666667 C3.66666667,13.2666667 3.66666667,2.73333333 3.66666667,2.73333333 C3.66666667,2.73333333 3.66666667,2.73333333 3.66666667,2.73333333 Z M5,8.66666667 C5,8.66666667 5,12.6666667 5,12.6666667 C5,12.6666667 9.66666667,12.6666667 9.66666667,12.6666667 C10.7712333,12.6666667 11.6666667,11.7712333 11.6666667,10.6666667 C11.6666667,9.5621 10.7712333,8.66666667 9.66666667,8.66666667 C9.66666667,8.66666667 5,8.66666667 5,8.66666667 C5,8.66666667 5,8.66666667 5,8.66666667 Z M5,7.33333333 C5,7.33333333 8.33333333,7.33333333 8.33333333,7.33333333 C9.4379,7.33333333 10.3333333,6.4379 10.3333333,5.33333333 C10.3333333,4.22876333 9.4379,3.33333333 8.33333333,3.33333333 C8.33333333,3.33333333 5,3.33333333 5,3.33333333 C5,3.33333333 5,7.33333333 5,7.33333333 C5,7.33333333 5,7.33333333 5,7.33333333 Z" id="形状" fill="#999999"></path>
    </g>
</svg>