<?xml version="1.0" encoding="UTF-8"?>
<svg width="16px" height="16px" viewBox="0 0 16 16" version="1.1" xmlns="http://www.w3.org/2000/svg" xmlns:xlink="http://www.w3.org/1999/xlink">
    <title>icon/通用类/icon-general-line-copyright</title>
    <g id="icon/通用类/icon-general-line-copyright" stroke="none" stroke-width="1" fill="none" fill-rule="evenodd">
        <path d="M8,2.66666667 C5.05446667,2.66666667 2.66666667,5.05446667 2.66666667,8 C2.66666667,10.9455333 5.05446667,13.3333333 8,13.3333333 C10.9455333,13.3333333 13.3333333,10.9455333 13.3333333,8 C13.3333333,5.05446667 10.9455333,2.66666667 8,2.66666667 C8,2.66666667 8,2.66666667 8,2.66666667 Z M1.33333333,8 C1.33333333,4.3181 4.3181,1.33333333 8,1.33333333 C11.6819,1.33333333 14.6666667,4.3181 14.6666667,8 C14.6666667,11.6819 11.6819,14.6666667 8,14.6666667 C4.3181,14.6666667 1.33333333,11.6819 1.33333333,8 C1.33333333,8 1.33333333,8 1.33333333,8 Z M8,6 C6.89543333,6 6,6.89543333 6,8 C6,9.10456667 6.89543333,10 8,10 C8.50766667,10 8.96976667,9.8117 9.32273333,9.50016667 C9.32273333,9.50016667 10.2050333,10.4998333 10.2050333,10.4998333 C9.61783333,11.0181 8.8449,11.3333333 8,11.3333333 C6.15906667,11.3333333 4.66666667,9.84093333 4.66666667,8 C4.66666667,6.15906667 6.15906667,4.66666667 8,4.66666667 C8.8449,4.66666667 9.61783333,4.9819 10.2050333,5.50016667 C10.2050333,5.50016667 9.32273333,6.49983333 9.32273333,6.49983333 C8.96976667,6.1883 8.50766667,6 8,6 C8,6 8,6 8,6 Z" id="形状" fill="#999999"></path>
    </g>
</svg>