<?xml version="1.0" encoding="UTF-8"?>
<svg width="16px" height="16px" viewBox="0 0 16 16" version="1.1" xmlns="http://www.w3.org/2000/svg" xmlns:xlink="http://www.w3.org/1999/xlink">
    <title>icon/通用类/icon-general-line-thumbup</title>
    <g id="icon/通用类/icon-general-line-thumbup" stroke="none" stroke-width="1" fill="none" fill-rule="evenodd">
        <path d="M13.4216,7.33333333 C13.4216,7.33333333 9.36443333,7.33333333 9.36443333,7.33333333 C9.36443333,7.33333333 10.1667333,5.2366 10.1667333,5.2366 C10.381,4.67666667 10.1952,4.04257667 9.7126,3.68684333 C9.7126,3.68684333 9.13016667,3.25751 9.13016667,3.25751 C9.13016667,3.25751 5.99493333,7.33333333 5.99493333,7.33333333 C5.99493333,7.33333333 5.33333333,7.33333333 5.33333333,7.33333333 C5.33333333,7.33333333 5.33333333,13.3333333 5.33333333,13.3333333 C5.33333333,13.3333333 11.5125333,13.3333333 11.5125333,13.3333333 C11.5125333,13.3333333 13.4216,7.33333333 13.4216,7.33333333 Z M11.7562667,14.6666667 C11.7562667,14.6666667 4,14.6666667 4,14.6666667 C4,14.6666667 4,6 4,6 C4,6 5.3384,6 5.3384,6 C5.3384,6 8.27246667,2.18571 8.27246667,2.18571 C8.60433333,1.754279 9.2203,1.667514 9.65843333,1.99048133 C9.65843333,1.99048133 10.5037333,2.61358667 10.5037333,2.61358667 C11.4689333,3.32506 11.8405333,4.59324 11.4120333,5.7131 C11.4120333,5.7131 11.3022333,6 11.3022333,6 C11.3022333,6 13.4216,6 13.4216,6 C14.3240333,6 14.9658,6.87766667 14.6921667,7.7376 C14.6921667,7.7376 12.7092,13.9698667 12.7092,13.9698667 C12.5771333,14.3848333 12.1917333,14.6666667 11.7562667,14.6666667 Z M1.33333333,6 C1.33333333,6 2.66666667,6 2.66666667,6 C2.66666667,6 2.66666667,14.6666667 2.66666667,14.6666667 C2.66666667,14.6666667 1.33333333,14.6666667 1.33333333,14.6666667 C1.33333333,14.6666667 1.33333333,6 1.33333333,6 Z" id="形状" fill="#999999"></path>
    </g>
</svg>