<?xml version="1.0" encoding="UTF-8"?>
<svg width="16px" height="16px" viewBox="0 0 16 16" version="1.1" xmlns="http://www.w3.org/2000/svg" xmlns:xlink="http://www.w3.org/1999/xlink">
    <title>icon/通用类/icon-general-line-messagebanned</title>
    <g id="icon/通用类/icon-general-line-messagebanned" stroke="none" stroke-width="1" fill="none" fill-rule="evenodd">
        <path d="M1.66666667,8 C1.66666667,4.50219667 4.50219667,1.66666667 8,1.66666667 C10.9854,1.66666667 13.4868667,3.73163667 14.157,6.51036667 C14.157,6.51036667 12.8608333,6.82296667 12.8608333,6.82296667 C12.3317667,4.62920667 10.3553333,3 8,3 C5.23856667,3 3,5.23856667 3,8 C3,8 3,13 3,13 C3,13 7,13 7,13 C7,13 7,14.3333333 7,14.3333333 C7,14.3333333 1.66666667,14.3333333 1.66666667,14.3333333 C1.66666667,14.3333333 1.66666667,8 1.66666667,8 C1.66666667,8 1.66666667,8 1.66666667,8 Z M8.33333333,7.33333333 C8.33333333,7.33333333 4.33333333,7.33333333 4.33333333,7.33333333 C4.33333333,7.33333333 4.33333333,6 4.33333333,6 C4.33333333,6 8.33333333,6 8.33333333,6 C8.33333333,6 8.33333333,7.33333333 8.33333333,7.33333333 C8.33333333,7.33333333 8.33333333,7.33333333 8.33333333,7.33333333 Z M10.2231333,9.28033333 C10.2231333,9.28033333 13.3863333,12.4435333 13.3863333,12.4435333 C13.8650333,11.5591667 13.7306667,10.4308333 12.9832333,9.68343333 C12.2358333,8.936 11.1075,8.80163333 10.2231333,9.28033333 C10.2231333,9.28033333 10.2231333,9.28033333 10.2231333,9.28033333 Z M12.4435333,13.3863333 C12.4435333,13.3863333 9.28033333,10.2231333 9.28033333,10.2231333 C8.80163333,11.1075 8.936,12.2358333 9.68343333,12.9832333 C10.4308333,13.7306667 11.5591667,13.8650333 12.4435333,13.3863333 C12.4435333,13.3863333 12.4435333,13.3863333 12.4435333,13.3863333 Z M8.7406,8.7406 C10.1725333,7.3087 12.4941333,7.3087 13.9260667,8.7406 C15.3579667,10.1725333 15.3579667,12.4941333 13.9260667,13.9260667 C12.4941333,15.3579667 10.1725333,15.3579667 8.7406,13.9260667 C7.3087,12.4941333 7.3087,10.1725333 8.7406,8.7406 C8.7406,8.7406 8.7406,8.7406 8.7406,8.7406 Z M6.33333333,10.3333333 C6.33333333,10.3333333 4.33333333,10.3333333 4.33333333,10.3333333 C4.33333333,10.3333333 4.33333333,9 4.33333333,9 C4.33333333,9 6.33333333,9 6.33333333,9 C6.33333333,9 6.33333333,10.3333333 6.33333333,10.3333333 C6.33333333,10.3333333 6.33333333,10.3333333 6.33333333,10.3333333 Z" id="形状" fill="#999999"></path>
    </g>
</svg>