<?xml version="1.0" encoding="UTF-8"?>
<svg width="16px" height="16px" viewBox="0 0 16 16" version="1.1" xmlns="http://www.w3.org/2000/svg" xmlns:xlink="http://www.w3.org/1999/xlink">
    <title>icon/编辑类/icon-edit-line-cright</title>
    <g id="icon/编辑类/icon-edit-line-cright" stroke="none" stroke-width="1" fill="none" fill-rule="evenodd">
        <path d="M8.15102707,6 C10.9124937,6 13.1510271,8.23857333 13.1510271,11 C13.1510271,11 14.4843604,11 14.4843604,11 C14.4843604,7.50219333 11.6488271,4.66666667 8.15102707,4.66666667 C6.03014707,4.66666667 4.15363373,5.70891333 3.00438707,7.30852667 C3.00438707,7.30852667 2.8850604,6.63179667 2.64640707,5.27833667 L1.33333333,5.50986667 C1.79639582,8.13602222 2.02792707,9.4491 2.02792707,9.4491 C2.05862707,9.62322667 2.15724707,9.77802 2.3020804,9.87943333 C2.4913204,10.01194 2.74289373,10.03616 2.95256707,9.96301333 C2.95256707,9.96301333 4.21486484,9.74043556 6.7394604,9.29528 L6.50792707,7.9822 C4.7349004,8.29483556 3.84838707,8.45115333 3.84838707,8.45115333 C4.7198804,6.98328667 6.32121373,6 8.15102707,6 Z" id="路径" fill="#999999" transform="translate(7.9088, 7.8333) scale(-1, 1) translate(-7.9088, -7.8333)"></path>
    </g>
</svg>