<?xml version="1.0" encoding="UTF-8"?>
<svg width="16px" height="16px" viewBox="0 0 16 16" version="1.1" xmlns="http://www.w3.org/2000/svg" xmlns:xlink="http://www.w3.org/1999/xlink">
    <title>icon/通用类/el-icon-collection</title>
    <g id="icon/通用类/el-icon-collection" stroke="none" stroke-width="1" fill="none" fill-rule="evenodd">
        <path d="M12.6666667,1.33333333 C13.4030463,1.33333333 14,1.930287 14,2.66666667 L14,13.3333333 C14,14.0263965 13.4712106,14.5959544 12.7950756,14.660563 L12.6666667,14.6666667 L4,14.6666667 C2.8954305,14.6666667 2,13.7712362 2,12.6666667 L2,3.33333333 C2,2.22876383 2.8954305,1.33333333 4,1.33333333 L12.6666667,1.33333333 Z M12.6666667,11.3333333 L4.33333333,11.3333333 C3.78104858,11.3333333 3.33333333,11.7810486 3.33333333,12.3333333 C3.33333333,12.8856181 3.78104858,13.3333333 4.33333333,13.3333333 L12.6666667,13.3333333 L12.6666667,11.3333333 Z M8.66666667,6.34477153 C8.66666667,6.55694472 8.58238119,6.76042785 8.43235209,6.91045695 C8.11993266,7.22287638 7.61340068,7.22287638 7.30098124,6.91045695 L6.66666667,6.276 L6.03235209,6.91045695 C5.90375572,7.03905332 5.735887,7.11934825 5.55693548,7.13966525 L5.46666667,7.14477153 C5.02483887,7.14477153 4.66666667,6.78659932 4.66666667,6.34477153 L4.66666667,2.66666667 L4,2.66666667 C3.63181017,2.66666667 3.33333333,2.9651435 3.33333333,3.33333333 L3.33308797,10.2246603 C3.63623547,10.0806072 3.975371,10 4.33333333,10 L12.666,9.99933333 L12.6666667,2.66666667 L8.66666667,2.66666667 L8.66666667,6.34477153 Z M6,2.66666667 L6,5.056 L6.19526215,4.86192881 L6.66666667,4.39052429 L7.13807119,4.86192881 L7.33333333,5.05666667 L7.33333333,2.66666667 L6,2.66666667 Z" id="形状结合" fill="#979797" fill-rule="nonzero"></path>
    </g>
</svg>