<?xml version="1.0" encoding="UTF-8"?>
<svg width="16px" height="16px" viewBox="0 0 16 16" version="1.1" xmlns="http://www.w3.org/2000/svg" xmlns:xlink="http://www.w3.org/1999/xlink">
    <title>icon/面性/el-icon-location</title>
    <g id="icon/面性/el-icon-location" stroke="none" stroke-width="1" fill="none" fill-rule="evenodd">
        <path d="M7.54343333,14.8191 C7.54353333,14.8192333 7.54363333,14.8193 8,14.3333333 C8.45636667,14.8193 8.45646667,14.8192333 8.45656667,14.8191 C8.45656667,14.8191 8,15.2478667 8,15.2478667 C8,15.2478667 7.54343333,14.8191 7.54343333,14.8191 C7.54343333,14.8191 7.54343333,14.8191 7.54343333,14.8191 Z M8,1 C11.1462667,1 13.6666667,3.61442667 13.6666667,6.8018 C13.6666667,7.6834 13.2867667,8.6303 12.8007333,9.50023333 C12.3056,10.3865 11.6541,11.273 11.0160667,12.0531333 C10.3759667,12.8357667 9.73773333,13.5255 9.2604,14.0189 C9.16478667,14.1177267 9.075488,14.20882 8.99376267,14.2913587 L8.77256533,14.5124893 L8.68136667,14.6022667 C8.61113333,14.6710667 8.55563333,14.7246333 8.51733333,14.7613 C8.4982,14.7796667 8.48333333,14.7938 8.47306667,14.8035333 C8.47306667,14.8035333 8.46116667,14.8148 8.46116667,14.8148 C8.45656667,14.8191 8,14.3333333 8,14.3333333 C8,14.3333333 7.54343333,14.8191 7.54343333,14.8191 C7.53883333,14.8148 7.52693333,14.8035333 7.52693333,14.8035333 C7.51332222,14.7905704 7.50243333,14.7802 7.50243333,14.7802 L7.49255,14.77075 L7.48266667,14.7613 C7.44436667,14.7246333 7.38886667,14.6710667 7.31863333,14.6022667 C7.1782,14.4647 6.97863333,14.2659667 6.7396,14.0189 C6.26226667,13.5255 5.62402,12.8357667 4.98394667,12.0531333 C4.34590333,11.273 3.6944,10.3865 3.19925333,9.50023333 C2.71324333,8.6303 2.33333333,7.6834 2.33333333,6.8018 C2.33333333,3.61442667 4.85374,1 8,1 Z M8,3.33333333 C6.34314286,3.33333333 5,4.67647619 5,6.33333333 C5,7.99019048 6.34314286,9.33333333 8,9.33333333 C9.65685714,9.33333333 11,7.99019048 11,6.33333333 C11,4.67647619 9.65685714,3.33333333 8,3.33333333 Z M8,5 C8.7364,5 9.33333333,5.59693333 9.33333333,6.33333333 C9.33333333,7.06973333 8.7364,7.66666667 8,7.66666667 C7.2636,7.66666667 6.66666667,7.06973333 6.66666667,6.33333333 C6.66666667,5.59693333 7.2636,5 8,5 Z" id="形状" fill="#999999"></path>
    </g>
</svg>