<?xml version="1.0" encoding="UTF-8"?>
<svg width="16px" height="16px" viewBox="0 0 16 16" version="1.1" xmlns="http://www.w3.org/2000/svg" xmlns:xlink="http://www.w3.org/1999/xlink">
    <title>icon/面性/icon-basic-file-skipprevious</title>
    <g id="icon/面性/icon-basic-file-skipprevious" stroke="none" stroke-width="1" fill="none" fill-rule="evenodd">
        <path d="M4.00000035,4.31854842 C4.00000035,4.04662409 4.30805435,3.88911209 4.52849702,4.04832042 C4.52849702,4.04832042 9.62583368,7.72972176 9.62583368,7.72972176 C9.81006702,7.86278842 9.81006702,8.13712176 9.62583368,8.27018842 C9.62583368,8.27018842 4.52849702,11.9515884 4.52849702,11.9515884 C4.30805502,12.1108218 4.00000035,11.9532884 4.00000035,11.6813884 C4.00000035,11.6813884 4.00000035,4.31854842 4.00000035,4.31854842 C4.00000035,4.31854842 4.00000035,4.31854842 4.00000035,4.31854842 Z M10.666667,11.6665884 C10.666667,11.8506884 10.8159004,11.9999205 11.0000004,11.9999205 C11.0000004,11.9999205 11.666667,11.9999205 11.666667,11.9999205 C11.850767,11.9999205 12.0000004,11.8506884 12.0000004,11.6665884 C12.0000004,11.6665884 12.0000004,4.33325509 12.0000004,4.33325509 C12.0000004,4.14915909 11.850767,3.99992052 11.666667,3.99992052 C11.666667,3.99992052 11.0000004,3.99992052 11.0000004,3.99992052 C10.8159004,3.99992052 10.666667,4.14915909 10.666667,4.33325509 C10.666667,4.33325509 10.666667,11.6665884 10.666667,11.6665884 C10.666667,11.6665884 10.666667,11.6665884 10.666667,11.6665884 Z" id="形状" fill="#999999" transform="translate(8, 8) rotate(-180) translate(-8, -8)"></path>
    </g>
</svg>