<?xml version="1.0" encoding="UTF-8"?>
<svg width="16px" height="16px" viewBox="0 0 16 16" version="1.1" xmlns="http://www.w3.org/2000/svg" xmlns:xlink="http://www.w3.org/1999/xlink">
    <title>icon/面性/icon-basic-file-video</title>
    <g id="icon/面性/icon-basic-file-video" stroke="none" stroke-width="1" fill="none" fill-rule="evenodd">
        <path d="M8,1.33333333 C11.6819,1.33333333 14.6666667,4.3181 14.6666667,8 C14.6666667,11.6819 11.6819,14.6666667 8,14.6666667 C4.3181,14.6666667 1.33333333,11.6819 1.33333333,8 C1.33333333,4.3181 4.3181,1.33333333 8,1.33333333 Z M6.5013,5.37873333 C6.3982,5.3186 6.2708,5.31816667 6.1673,5.37763333 C6.0638,5.43706667 6,5.5473 6,5.66666667 L6,10.3333315 C6,10.4527 6.0638,10.5629333 6.1673,10.6223667 C6.2708,10.6818333 6.3982,10.6814 6.5013,10.6212667 C6.5013,10.6212667 10.5013,8.28793333 10.5013,8.28793333 C10.6037,8.2282 10.6666667,8.11856667 10.6666667,8 C10.6666667,7.88143333 10.6037,7.7718 10.5013,7.71206667 C10.5013,7.71206667 6.5013,5.37873333 6.5013,5.37873333 Z" id="形状" fill="#999999"></path>
    </g>
</svg>