<?xml version="1.0" encoding="UTF-8"?>
<svg width="16px" height="16px" viewBox="0 0 16 16" version="1.1" xmlns="http://www.w3.org/2000/svg" xmlns:xlink="http://www.w3.org/1999/xlink">
    <title>icon/通用类/el-icon-help</title>
    <g id="icon/通用类/el-icon-help" stroke="none" stroke-width="1" fill="none" fill-rule="evenodd">
        <path d="M8,1.33333333 C11.6819,1.33333333 14.6666667,4.3181 14.6666667,8 C14.6666667,11.6819 11.6819,14.6666667 8,14.6666667 C4.3181,14.6666667 1.33333333,11.6819 1.33333333,8 C1.33333333,4.3181 4.3181,1.33333333 8,1.33333333 Z M8,2.66666667 C5.05447967,2.66666667 2.66666667,5.05447967 2.66666667,8 C2.66666667,10.9455203 5.05447967,13.3333333 8,13.3333333 C10.9455203,13.3333333 13.3333333,10.9455203 13.3333333,8 C13.3333333,5.05447967 10.9455203,2.66666667 8,2.66666667 Z M8,4.66666667 C9.84094967,4.66666667 11.3333333,6.15905033 11.3333333,8 C11.3333333,9.84094967 9.84094967,11.3333333 8,11.3333333 C6.15905033,11.3333333 4.66666667,9.84094967 4.66666667,8 C4.66666667,6.15905033 6.15905033,4.66666667 8,4.66666667 Z M8,6 C6.89543,6 6,6.89543 6,8 C6,9.10457 6.89543,10 8,10 C9.10457,10 10,9.10457 10,8 C10,6.89543 9.10457,6 8,6 Z" id="形状结合" fill="#999999" fill-rule="nonzero"></path>
        <path d="M10.2975051,9.35455833 L13.1854497,12.2426407 L12.2426407,13.1854497 L9.3535624,10.2980932 C9.74236187,10.0685984 10.0678466,9.74324964 10.2975051,9.35455833 Z M6.64544167,10.2975051 L3.75735931,13.1854497 L2.81455027,12.2426407 L5.70190675,9.3535624 C5.93140157,9.74236187 6.25675036,10.0678466 6.64544167,10.2975051 Z M3.75735931,2.81455027 L6.64544167,5.70249491 C6.25675036,5.93215342 5.93140157,6.25763813 5.70190675,6.6464376 L2.81455027,3.75735931 L3.75735931,2.81455027 Z M12.2426407,2.81455027 L13.1854497,3.75735931 L10.2975051,6.64544167 C10.0678466,6.25675036 9.74236187,5.93140157 9.3535624,5.70190675 L12.2426407,2.81455027 Z" id="形状结合" fill="#999999"></path>
    </g>
</svg>