<?xml version="1.0" encoding="UTF-8"?>
<svg width="16px" height="16px" viewBox="0 0 16 16" version="1.1" xmlns="http://www.w3.org/2000/svg" xmlns:xlink="http://www.w3.org/1999/xlink">
    <title>icon/面性/el-icon-delete-solid</title>
    <g id="icon/面性/el-icon-delete-solid" stroke="none" stroke-width="1" fill="none" fill-rule="evenodd">
        <path d="M11.3333333,2 L11.3333333,3.33333667 L14.6666667,3.33333667 L14.6666667,4.66667 L13.3333333,4.66666667 L13.3333333,13.6666633 C13.3333333,14.21893 12.8856333,14.6666667 12.3333333,14.6666667 L3.66666667,14.6666667 C3.11438,14.6666667 2.66666667,14.2189667 2.66666667,13.6666667 L2.66666667,4.66666667 L1.33333333,4.66666667 L1.33333333,3.33333333 L4.66666667,3.33333333 L4.66666667,2 L11.3333333,2 Z M7.33333333,6.66666667 L6,6.66666667 L6,11.3333333 L7.33333333,11.3333333 L7.33333333,6.66666667 Z M10,6.66666667 L8.66666667,6.66666667 L8.66666667,11.3333333 L10,11.3333333 L10,6.66666667 Z" id="形状" fill="#999999"></path>
    </g>
</svg>