<?xml version="1.0" encoding="UTF-8"?>
<svg width="16px" height="16px" viewBox="0 0 16 16" version="1.1" xmlns="http://www.w3.org/2000/svg" xmlns:xlink="http://www.w3.org/1999/xlink">
    <title>icon/面性/icon-basic-file-error2</title>
    <g id="icon/面性/icon-basic-file-error2" stroke="none" stroke-width="1" fill="none" fill-rule="evenodd">
        <circle id="椭圆形备份-8" fill="#FDDEDE" fill-rule="nonzero" cx="8.00515457" cy="8.01982927" r="7.2"></circle>
        <path d="" id="矩形" fill-rule="nonzero"></path>
        <g id="编组" transform="translate(5.24, 5.24)" fill="#F65A5A">
            <path d="M4.92547818,0.117157449 L5.42045401,0.612131636 C5.57666995,0.768341169 5.57666995,1.02160746 5.42045401,1.17781539 L3.82879856,2.76879871 L5.42045401,4.36037402 C5.57666995,4.51658195 5.57666995,4.76985384 5.42045401,4.92606178 L4.92547818,5.42103756 C4.76927024,5.5772455 4.51600632,5.5772455 4.35979838,5.42103756 L2.76799893,3.82959825 L1.17781549,5.42045356 C1.02160754,5.5766695 0.768341232,5.5766695 0.612131686,5.42045356 L0.117157459,4.92547778 C-0.0390524864,4.76926984 -0.0390524864,4.51600595 0.117157459,4.35979802 L1.7071993,2.76879871 L0.117157459,1.17839139 C-0.0390524864,1.02218346 -0.0390524864,0.768919568 0.117157459,0.612710036 L0.612131686,0.117735849 C0.768341232,-0.0384741634 1.02160754,-0.0384741634 1.17781549,0.117735849 L2.76799893,1.70799916 L4.35979838,0.117157449 C4.51600632,-0.0390524832 4.76927024,-0.0390524832 4.92547818,0.117157449 Z" id="形状结合"></path>
        </g>
    </g>
</svg>