<?xml version="1.0" encoding="UTF-8"?>
<svg width="16px" height="16px" viewBox="0 0 16 16" version="1.1" xmlns="http://www.w3.org/2000/svg" xmlns:xlink="http://www.w3.org/1999/xlink">
    <title>icon/通用类/el-icon-news</title>
    <g id="icon/通用类/el-icon-news" stroke="none" stroke-width="1" fill="none" fill-rule="evenodd">
        <path d="M12,1.33333333 C13.4727593,1.33333333 14.6666667,2.52724067 14.6666667,4 C14.6666667,4.67598998 14.415138,5.29323228 14.0005662,5.76324127 L14,12.6666667 C14,13.4030463 13.4030463,14 12.6666667,14 L3.33333333,14 C2.59695367,14 2,13.4030463 2,12.6666667 L2,3.33333333 C2,2.59695367 2.59695367,2 3.33333333,2 L8,2 L7.999,3.333 L3.33333333,3.33333333 L3.33333333,12.6666667 L12.6666667,12.6666667 L12.666,8 L14,8 L13.9997046,5.76421753 C13.5110823,6.31763743 12.7963012,6.66666667 12,6.66666667 C10.5272407,6.66666667 9.33333333,5.47275933 9.33333333,4 C9.33333333,2.52724067 10.5272407,1.33333333 12,1.33333333 Z M12,2.66666667 C11.2636203,2.66666667 10.6666667,3.26362033 10.6666667,4 C10.6666667,4.73637967 11.2636203,5.33333333 12,5.33333333 C12.7363797,5.33333333 13.3333333,4.73637967 13.3333333,4 C13.3333333,3.26362033 12.7363797,2.66666667 12,2.66666667 Z" id="形状结合" fill="#999999" fill-rule="nonzero"></path>
    </g>
</svg>