<?xml version="1.0" encoding="UTF-8"?>
<svg width="16px" height="16px" viewBox="0 0 16 16" version="1.1" xmlns="http://www.w3.org/2000/svg" xmlns:xlink="http://www.w3.org/1999/xlink">
    <title>icon/影音类/icon-general-line-mute</title>
    <g id="icon/影音类/icon-general-line-mute" stroke="none" stroke-width="1" fill="none" fill-rule="evenodd">
        <path d="M2.6788839,4.66666667 C2.687463,5.36507763 2.69267174,5.78911285 2.69451012,5.93877234 L2.69517862,5.99319398 L2.69526218,9.99999672 L4.6177522,9.99999672 C4.6177522,9.99999672 7.02859556,12.1697634 7.02859556,12.1697634 L7.02859556,10.36193 L8.36192883,10.36193 L8.36192883,13.5918301 C8.36192883,14.1978634 7.6441289,14.5175634 7.19366223,14.1121301 C7.19366223,14.1121301 6.52810472,13.5131286 5.8150074,12.8713412 L5.48476035,12.574119 C4.77166303,11.9323316 4.10610553,11.3333301 4.10610553,11.3333301 L2.06192884,11.3333301 C1.6753275,11.3333301 1.36192883,11.0199301 1.36192883,10.6333301 L1.36192883,5.36666334 C1.36192883,4.98007334 1.67532617,4.66666667 2.06192884,4.66666667 Z M1.63807001,1.33333333 L1.64626907,1.34153239 L1.71033217,1.40559551 C1.74193889,1.43720225 1.78357141,1.47883478 1.83455,1.52981338 L2.12474565,1.82000911 C2.43469549,2.12995904 2.87786939,2.57313307 3.41076562,3.10602945 L4.98655642,4.6818207 C5.15070749,4.84597181 5.3180872,5.01335158 5.48801585,5.18328027 L7.87496102,7.57022613 C8.68093258,8.37619792 9.47658097,9.17184654 10.1999672,9.89523298 L10.896972,10.592238 C11.3425249,11.037791 11.7467852,11.4420514 12.0914005,11.7866668 L13.024861,12.7201276 C13.0850157,12.7802823 13.1361642,12.8314309 13.1776268,12.8728935 L13.3047335,13.0000001 L12.9336606,13.371073 C12.8676921,13.4370415 12.7989749,13.5057587 12.7330063,13.5717272 L12.3619335,13.9428001 L12.2348267,13.8156936 C12.1933641,13.774231 12.1422156,13.7230825 12.0820608,13.6629278 L11.1485996,12.7294678 C10.8039841,12.3848527 10.3997236,11.9805927 9.9541704,11.5350401 L9.25716511,10.8380356 C8.7749073,10.3557784 8.26053295,9.84140472 7.73239437,9.3132668 L7.20034743,8.78122052 C7.11113483,8.69200803 7.02170982,8.60258314 6.93215737,8.51303079 L4.54521059,6.12608698 C4.37528183,5.95615843 4.207902,5.78877881 4.04375082,5.62462784 L2.46795897,4.04883794 C1.93506238,3.51594202 1.49188818,3.07276837 1.18193813,2.7628187 L0.891742293,2.47262322 C0.840763666,2.42164466 0.79913112,2.38001217 0.767524371,2.34840546 L0.70346123,2.2843424 C0.698023509,2.27890468 0.695262167,2.27614334 0.695262167,2.27614334 L0.806584959,2.16482029 C0.874615554,2.09678954 0.967384547,2.00402034 1.06633814,1.90506652 L1.26699404,1.70441016 C1.36594763,1.60545634 1.45871662,1.51268713 1.52674722,1.44465638 L1.63807001,1.33333333 Z M12.259289,2.75800549 C14.6429715,5.05990083 14.709273,8.8583121 12.4073776,11.2419945 L11.4482579,10.3157834 C13.2386209,8.46180814 13.1870531,5.50748827 11.3330779,3.71712522 L12.259289,2.75800549 Z M10.4068667,4.67624496 C11.7311347,5.9550757 11.7679689,8.06530419 10.4891382,9.38957219 L9.53001842,8.46336103 C10.2973169,7.66880023 10.2752164,6.40266314 9.48065556,5.63536469 L10.4068667,4.67624496 Z M7.29496141,2.18106713 C7.74542808,1.77565312 8.46322809,2.09532613 8.46322809,2.70137313 L8.46322809,5.9598565 L7.12989474,5.9598565 L7.12989474,4.12343648 C7.12989474,4.12343648 6.25386218,4.90907451 6.25386218,4.90907451 C6.25386218,4.90907451 5.36192883,3.91801784 5.36192883,3.91801784 C5.36192883,3.91801784 7.29496141,2.18106713 7.29496141,2.18106713 Z" id="形状结合" fill="#999999"></path>
    </g>
</svg>