<?xml version="1.0" encoding="UTF-8"?>
<svg width="16px" height="16px" viewBox="0 0 16 16" version="1.1" xmlns="http://www.w3.org/2000/svg" xmlns:xlink="http://www.w3.org/1999/xlink">
    <title>icon/通用类/icon-general-line-backward</title>
    <g id="icon/通用类/icon-general-line-backward" stroke="none" stroke-width="1" fill="none" fill-rule="evenodd">
        <path d="M7.33333333,4.33333333 C7.33333333,4.33333333 7.33333333,12.0571967 7.33333333,12.0571967 C7.33333333,12.9480967 6.2562,13.3942634 5.62623333,12.7642967 C5.62623333,12.7642967 1.76429465,8.90236335 1.76429465,8.90236335 C1.37376865,8.51183001 1.37376865,7.87866335 1.76429365,7.48816334 C1.76429365,7.48816334 5.62623333,3.62622833 5.62623333,3.62622833 C6.2562,2.99626333 7.33333333,3.44242733 7.33333333,4.33333333 Z M2.94280665,8.19526335 C2.94280665,8.19526335 6,11.2524634 6,11.2524634 C6,11.2524634 6,5.13807334 6,5.13807334 C6,5.13807334 2.94280665,8.19526335 2.94280665,8.19526335 Z M14,4.33333333 C14,4.33333333 14,12.0571967 14,12.0571967 C14,12.9480967 12.9228667,13.3942634 12.2929,12.7642967 C12.2929,12.7642967 8.43096665,8.90236335 8.43096665,8.90236335 C8.04043331,8.51183001 8.04043331,7.87869668 8.43096665,7.48816334 C8.43096665,7.48816334 12.2929,3.626229 12.2929,3.626229 C12.9228667,2.99626666 14,3.442428 14,4.33333333 Z M9.60946665,8.19526335 C9.60946665,8.19526335 12.6666667,11.2524634 12.6666667,11.2524634 C12.6666667,11.2524634 12.6666667,5.13807334 12.6666667,5.13807334 C12.6666667,5.13807334 9.60946665,8.19526335 9.60946665,8.19526335 Z" id="形状" fill="#999999"></path>
    </g>
</svg>