<?xml version="1.0" encoding="UTF-8"?>
<svg width="16px" height="16px" viewBox="0 0 16 16" version="1.1" xmlns="http://www.w3.org/2000/svg" xmlns:xlink="http://www.w3.org/1999/xlink">
    <title>icon/编辑类/el-icon-crop</title>
    <g id="icon/编辑类/el-icon-crop" stroke="none" stroke-width="1" fill="none" fill-rule="evenodd">
        <path d="M4,0.666666667 L3.99966667,2.66666667 L11.3333333,2.66666667 C12.4379028,2.66666667 13.3333333,3.56209717 13.3333333,4.66666667 L13.3326667,11.9996667 L15.3333333,12 L15.3333333,13.3333333 L13.3326667,13.3326667 L13.3333333,15.3333333 L12,15.3333333 L11.9996667,13.3326667 L4.66666667,13.3333333 C3.56209717,13.3333333 2.66666667,12.4379028 2.66666667,11.3333333 L2.66566667,3.99966667 L0.666666667,4 L0.666666667,2.66666667 L2.66566667,2.66666667 L2.66666667,0.666666667 L4,0.666666667 Z M3.99966667,3.99966667 L4,11.3333333 C4,11.7015232 4.29847683,12 4.66666667,12 L11.9996667,11.9996667 L12,4.66666667 C12,4.29847683 11.7015232,4 11.3333333,4 L3.99966667,3.99966667 Z" id="形状结合" fill="#999999" fill-rule="nonzero"></path>
    </g>
</svg>