<?xml version="1.0" encoding="UTF-8"?>
<svg width="16px" height="16px" viewBox="0 0 16 16" version="1.1" xmlns="http://www.w3.org/2000/svg" xmlns:xlink="http://www.w3.org/1999/xlink">
    <title>icon/编辑类/icon-edit-line-alignleft</title>
    <g id="icon/编辑类/icon-edit-line-alignleft" stroke="none" stroke-width="1" fill="none" fill-rule="evenodd">
        <path d="M1.33333333,2.66666667 C1.33333333,2.66666667 14.6666667,2.66666667 14.6666667,2.66666667 C14.6666667,2.66666667 14.6666667,4 14.6666667,4 C14.6666667,4 1.33333333,4 1.33333333,4 C1.33333333,4 1.33333333,2.66666667 1.33333333,2.66666667 C1.33333333,2.66666667 1.33333333,2.66666667 1.33333333,2.66666667 Z M1.33333333,6 C1.33333333,6 8.33333333,6 8.33333333,6 C8.33333333,6 8.33333333,7.33333333 8.33333333,7.33333333 C8.33333333,7.33333333 1.33333333,7.33333333 1.33333333,7.33333333 C1.33333333,7.33333333 1.33333333,6 1.33333333,6 C1.33333333,6 1.33333333,6 1.33333333,6 Z M1.33333333,9.33333333 C1.33333333,9.33333333 13.3333333,9.33333333 13.3333333,9.33333333 C13.3333333,9.33333333 13.3333333,10.6666667 13.3333333,10.6666667 C13.3333333,10.6666667 1.33333333,10.6666667 1.33333333,10.6666667 C1.33333333,10.6666667 1.33333333,9.33333333 1.33333333,9.33333333 C1.33333333,9.33333333 1.33333333,9.33333333 1.33333333,9.33333333 Z M1.33333333,12.6666667 C1.33333333,12.6666667 8.33333333,12.6666667 8.33333333,12.6666667 C8.33333333,12.6666667 8.33333333,14 8.33333333,14 C8.33333333,14 1.33333333,14 1.33333333,14 C1.33333333,14 1.33333333,12.6666667 1.33333333,12.6666667 C1.33333333,12.6666667 1.33333333,12.6666667 1.33333333,12.6666667 Z" id="形状" fill="#999999"></path>
    </g>
</svg>