<?xml version="1.0" encoding="UTF-8"?>
<svg width="16px" height="16px" viewBox="0 0 16 16" version="1.1" xmlns="http://www.w3.org/2000/svg" xmlns:xlink="http://www.w3.org/1999/xlink">
    <title>icon/通用类/el-icon-service</title>
    <g id="icon/通用类/el-icon-service" stroke="none" stroke-width="1" fill="none" fill-rule="evenodd">
        <path d="M3.01093333,6.33333333 C3.18246333,3.72732333 5.3506,1.66666667 8,1.66666667 C10.6494,1.66666667 12.8175333,3.72732333 12.9890667,6.33333333 C12.9890667,6.33333333 13.3333333,6.33333333 13.3333333,6.33333333 C13.8856333,6.33333333 14.3333333,6.78103333 14.3333333,7.33333333 C14.3333333,7.33333333 14.3333333,9.33333333 14.3333333,9.33333333 C14.3333333,9.88563333 13.8856333,10.3333333 13.3333333,10.3333333 C13.3333333,10.3333333 12.9,10.3333333 12.9,10.3333333 C12.5394667,12.1097 11.2372667,13.5432 9.53826667,14.0920667 C9.05283333,14.2488667 8.53563333,14.3333333 8,14.3333333 C8,14.3333333 7,14.3333333 7,14.3333333 C6.4477,14.3333333 6,13.8856333 6,13.3333333 C6,13.3333333 6,12.6666667 6,12.6666667 C6,12.1143667 6.4477,11.6666667 7,11.6666667 C7,11.6666667 9,11.6666667 9,11.6666667 C9.46933333,11.6666667 9.86313333,11.9899667 9.97086667,12.4260333 C10.9909,11.7745667 11.6666667,10.6323 11.6666667,9.33333333 C11.6666667,9.33333333 11.6666667,6.66666667 11.6666667,6.66666667 C11.6666667,4.64162333 10.0250333,3 8,3 C5.97496667,3 4.33333333,4.64162333 4.33333333,6.66666667 C4.33333333,6.66666667 4.33333333,10.3333333 4.33333333,10.3333333 C4.33333333,10.3333333 2.66666667,10.3333333 2.66666667,10.3333333 C2.11438333,10.3333333 1.66666667,9.88563333 1.66666667,9.33333333 C1.66666667,9.33333333 1.66666667,7.33333333 1.66666667,7.33333333 C1.66666667,6.78103333 2.11438333,6.33333333 2.66666667,6.33333333 C2.66666667,6.33333333 3.01093333,6.33333333 3.01093333,6.33333333 C3.01093333,6.33333333 3.01093333,6.33333333 3.01093333,6.33333333 Z" id="路径" fill="#999999"></path>
    </g>
</svg>