<?xml version="1.0" encoding="UTF-8"?>
<svg width="16px" height="16px" viewBox="0 0 16 16" version="1.1" xmlns="http://www.w3.org/2000/svg" xmlns:xlink="http://www.w3.org/1999/xlink">
    <title>icon/编辑类/icon-edit-line-rotateleft</title>
    <g id="icon/编辑类/icon-edit-line-rotateleft" stroke="none" stroke-width="1" fill="none" fill-rule="evenodd">
        <path d="M8.33333333,5.2191129 C8.33333333,5.48357957 8.0401,5.6427129 7.81833333,5.49857957 C7.81833333,5.49857957 5.42997,3.94614957 5.42997,3.94614957 C5.22774333,3.81469957 5.22774333,3.5186329 5.42997,3.38718623 C5.42997,3.38718623 7.81833333,1.83474823 7.81833333,1.83474823 C8.0401,1.6906099 8.33333333,1.8497499 8.33333333,2.11422957 C8.33333333,2.11422957 8.33333333,2.99999957 8.33333333,2.99999957 C8.33333333,2.99999957 11.3333333,2.99999957 11.3333333,2.99999957 C12.8061,2.99999957 14,4.19390623 14,5.66667957 C14,5.66667957 14,7.66667957 14,7.66667957 C14,7.66667957 12.6666667,7.66667957 12.6666667,7.66667957 C12.6666667,7.66667957 12.6666667,5.66667957 12.6666667,5.66667957 C12.6666667,4.93028623 12.0697,4.3333329 11.3333333,4.3333329 C11.3333333,4.3333329 8.33333333,4.3333329 8.33333333,4.3333329 C8.33333333,4.3333329 8.33333333,5.2191129 8.33333333,5.2191129 C8.33333333,5.2191129 8.33333333,5.2191129 8.33333333,5.2191129 Z M2.66666667,7.33334623 C2.66666667,6.78104623 3.11438,6.33334623 3.66666667,6.33334623 C3.66666667,6.33334623 10.3333333,6.33334623 10.3333333,6.33334623 C10.8856333,6.33334623 11.3333333,6.78104623 11.3333333,7.33334623 C11.3333333,7.33334623 11.3333333,12.6666796 11.3333333,12.6666796 C11.3333333,13.2189462 10.8856333,13.6666796 10.3333333,13.6666796 C10.3333333,13.6666796 3.66666667,13.6666796 3.66666667,13.6666796 C3.11438333,13.6666796 2.66666667,13.2189462 2.66666667,12.6666796 C2.66666667,12.6666796 2.66666667,7.33334623 2.66666667,7.33334623 C2.66666667,7.33334623 2.66666667,7.33334623 2.66666667,7.33334623 Z M4,7.66667957 C4,7.66667957 4,12.3333462 4,12.3333462 C4,12.3333462 10,12.3333462 10,12.3333462 C10,12.3333462 10,7.66667957 10,7.66667957 C10,7.66667957 4,7.66667957 4,7.66667957 C4,7.66667957 4,7.66667957 4,7.66667957 Z" id="形状" fill="#999999"></path>
    </g>
</svg>