<?xml version="1.0" encoding="UTF-8"?>
<svg width="16px" height="16px" viewBox="0 0 16 16" version="1.1" xmlns="http://www.w3.org/2000/svg" xmlns:xlink="http://www.w3.org/1999/xlink">
    <title>icon/天气类/el-icon-cloudy-and-sunny</title>
    <g id="icon/天气类/el-icon-cloudy-and-sunny" stroke="none" stroke-width="1" fill="none" fill-rule="evenodd">
        <path d="M4.52173913,14.6086957 L4.15581551,14.6086957 L4.15582609,14.5906087 L4.06483078,14.581696 C2.21707768,14.3618138 0.773393974,12.8251089 0.698690229,10.9364919 L0.695652174,10.7826087 C0.695652174,8.99143909 1.93079823,7.47456218 3.61263176,7.06516158 L3.7133913,7.04278261 L3.72603181,6.99835475 C4.44476555,4.58909592 6.64107192,2.86435134 9.20738216,2.78543367 L9.39130435,2.7826087 C12.6569881,2.7826087 15.3043478,5.42996844 15.3043478,8.69565217 C15.3043478,11.8425838 12.8460227,14.4153428 9.74501034,14.5982913 L9.72173913,14.5989565 L9.72175576,14.6086957 L9.39130435,14.6086957 L4.52173913,14.6086957 Z M9.39130435,4.17391304 C7.22795125,4.17391304 5.37917067,5.70494886 4.95915801,7.79843303 L4.85559986,8.31460163 L4.33071122,8.35517533 C3.06904012,8.45270206 2.08695652,9.50887981 2.08695652,10.7826087 C2.08695652,12.127302 3.17704583,13.2173913 4.52173913,13.2173913 C4.58269016,13.2173913 4.93631335,13.2173913 5.5826087,13.2173913 L8.36521739,13.2173913 C8.98186802,13.2173913 9.32389701,13.2173913 9.39130435,13.2173913 C11.8885919,13.2173913 13.9130435,11.1929397 13.9130435,8.69565217 C13.9130435,6.19836461 11.8885919,4.17391304 9.39130435,4.17391304 Z" id="形状结合" fill="#999999" fill-rule="nonzero"></path>
        <path d="M4.86956522,1.39130435 C6.41411914,1.39130435 7.76272469,2.2302591 8.48454593,3.47733269 L6.95652174,3.47826087 L6.86099974,3.62173936 C6.35567943,3.10402869 5.65015816,2.7826087 4.86956522,2.7826087 C3.33277287,2.7826087 2.08695652,4.02842504 2.08695652,5.56521739 C2.08695652,6.55475145 2.60347414,7.42364635 3.38160492,7.91699764 L2.08695652,8.34782609 L2.36317612,8.90311928 C1.35053824,8.14153166 0.695652174,6.92985294 0.695652174,5.56521739 C0.695652174,3.26002887 2.5643767,1.39130435 4.86956522,1.39130435 Z" id="形状结合" fill="#999999" fill-rule="nonzero"></path>
    </g>
</svg>