<?xml version="1.0" encoding="UTF-8"?>
<svg width="16px" height="16px" viewBox="0 0 16 16" version="1.1" xmlns="http://www.w3.org/2000/svg" xmlns:xlink="http://www.w3.org/1999/xlink">
    <title>icon/基础类/el-icon-chat-line-round</title>
    <g id="icon/基础类/el-icon-chat-line-round" stroke="none" stroke-width="1" fill="none" fill-rule="evenodd">
        <path d="M1.66666667,8 C1.66666667,4.50219667 4.50219667,1.66666667 8,1.66666667 C11.4978,1.66666667 14.3333333,4.50219667 14.3333333,8 C14.3333333,8 14.3333333,8.20986667 14.3333333,8.20986667 C14.3333333,11.5917667 11.5917667,14.3333333 8.20986667,14.3333333 C8.20986667,14.3333333 1.66666667,14.3333333 1.66666667,14.3333333 C1.66666667,14.3333333 1.66666667,8 1.66666667,8 C1.66666667,8 1.66666667,8 1.66666667,8 Z M8,3 C5.23856667,3 3,5.23856667 3,8 C3,8 3,13 3,13 C3,13 8.20986667,13 8.20986667,13 C10.8554,13 13,10.8554 13,8.20986667 C13,8.20986667 13,8 13,8 C13,5.23856667 10.7614333,3 8,3 C8,3 8,3 8,3 Z M11,6 C11,6 11,7.33333333 11,7.33333333 C11,7.33333333 5,7.33333333 5,7.33333333 C5,7.33333333 5,6 5,6 C5,6 11,6 11,6 C11,6 11,6 11,6 Z M8,10.3333333 C8,10.3333333 5,10.3333333 5,10.3333333 C5,10.3333333 5,9 5,9 C5,9 8,9 8,9 C8,9 8,10.3333333 8,10.3333333 C8,10.3333333 8,10.3333333 8,10.3333333 Z" id="形状" fill="#999999"></path>
    </g>
</svg>