<?xml version="1.0" encoding="UTF-8"?>
<svg width="16px" height="16px" viewBox="0 0 16 16" version="1.1" xmlns="http://www.w3.org/2000/svg" xmlns:xlink="http://www.w3.org/1999/xlink">
    <title>icon/影音类/el-icon-video-play</title>
    <g id="icon/影音类/el-icon-video-play" stroke="none" stroke-width="1" fill="none" fill-rule="evenodd">
        <path d="M8,1.33333333 C4.3181,1.33333333 1.33333333,4.3181 1.33333333,8 C1.33333333,11.6819 4.3181,14.6666667 8,14.6666667 C11.6819,14.6666667 14.6666667,11.6819 14.6666667,8 C14.6666667,4.3181 11.6819,1.33333333 8,1.33333333 Z M2.66666667,8 C2.66666667,5.05446667 5.05446667,2.66666667 8,2.66666667 C10.9455333,2.66666667 13.3333333,5.05446667 13.3333333,8 C13.3333333,10.9455333 10.9455333,13.3333333 8,13.3333333 C5.05446667,13.3333333 2.66666667,10.9455333 2.66666667,8 Z M6.66923333,5.0908 C6.46306667,4.97053333 6.2083,4.96966667 6.0013,5.08856667 C5.7943,5.20746667 5.66666667,5.42796667 5.66666667,5.66666667 L5.66666667,10.3333333 C5.66666667,10.5720333 5.7943,10.7925333 6.0013,10.9114333 C6.2083,11.0303333 6.46306667,11.0294667 6.66923333,10.9092 L10.6692333,8.57586667 C10.8740667,8.45636667 11,8.2371 11,7.99999207 C11,7.7629 10.8740667,7.54363333 10.6692333,7.42413333 L6.66923333,5.0908 Z M7,9.17263333 L7,6.82736667 L9.01023333,8 L7,9.17263333 Z" id="形状" fill="#999999"></path>
    </g>
</svg>