<?xml version="1.0" encoding="UTF-8"?>
<svg width="16px" height="16px" viewBox="0 0 16 16" version="1.1" xmlns="http://www.w3.org/2000/svg" xmlns:xlink="http://www.w3.org/1999/xlink">
    <title>icon/消费类/el-icon-shopping-cart-1</title>
    <g id="icon/消费类/el-icon-shopping-cart-1" stroke="none" stroke-width="1" fill="none" fill-rule="evenodd">
        <path d="M5.66666667,15.3333333 C6.21895142,15.3333333 6.66666667,14.8856181 6.66666667,14.3333333 C6.66666667,13.7810486 6.21895142,13.3333333 5.66666667,13.3333333 C5.11438192,13.3333333 4.66666667,13.7810486 4.66666667,14.3333333 C4.66666667,14.8856181 5.11438192,15.3333333 5.66666667,15.3333333 Z M11.6666667,15.3333333 C12.2189514,15.3333333 12.6666667,14.8856181 12.6666667,14.3333333 C12.6666667,13.7810486 12.2189514,13.3333333 11.6666667,13.3333333 C11.1143819,13.3333333 10.6666667,13.7810486 10.6666667,14.3333333 C10.6666667,14.8856181 11.1143819,15.3333333 11.6666667,15.3333333 Z M14.8728336,1.33333333 L14.6431759,2.1754116 L12.5091972,10 L3.99933333,9.99933333 L4,11.3333333 L14,11.3333333 L14,12.6666667 L2.66666667,12.6666667 L2.66666667,2.66666667 L1.33333333,2.66666667 L1.33333333,1.33333333 L14.8728336,1.33333333 Z M3.99933333,8.66633333 L11.4906667,8.66666667 L13.1273333,2.66666667 L3.99933333,2.66633333 L3.99933333,8.66633333 Z" id="形状结合" fill="#999999"></path>
    </g>
</svg>