<?xml version="1.0" encoding="UTF-8"?>
<svg width="16px" height="16px" viewBox="0 0 16 16" version="1.1" xmlns="http://www.w3.org/2000/svg" xmlns:xlink="http://www.w3.org/1999/xlink">
    <title>icon/编辑类/icon-edit-line-h4</title>
    <g id="icon/编辑类/icon-edit-line-h4" stroke="none" stroke-width="1" fill="none" fill-rule="evenodd">
        <path d="M1.33333333,2 C1.33333333,2 2.66666667,2 2.66666667,2 C2.66666667,2 2.66666667,7.33333333 2.66666667,7.33333333 C2.66666667,7.33333333 8,7.33333333 8,7.33333333 C8,7.33333333 8,2 8,2 C8,2 9.33333333,2 9.33333333,2 C9.33333333,2 9.33333333,14 9.33333333,14 C9.33333333,14 8,14 8,14 C8,14 8,8.66666667 8,8.66666667 C8,8.66666667 2.66666667,8.66666667 2.66666667,8.66666667 C2.66666667,8.66666667 2.66666667,14 2.66666667,14 C2.66666667,14 1.33333333,14 1.33333333,14 C1.33333333,14 1.33333333,2 1.33333333,2 C1.33333333,2 1.33333333,2 1.33333333,2 Z M12.6,6 C12.6,6 14.1666667,6 14.1666667,6 C14.1666667,6 14.1666667,11.3333333 14.1666667,11.3333333 C14.1666667,11.3333333 14.6666667,11.3333333 14.6666667,11.3333333 C14.6666667,11.3333333 14.6666667,12.6666667 14.6666667,12.6666667 C14.6666667,12.6666667 14.1666667,12.6666667 14.1666667,12.6666667 C14.1666667,12.6666667 14.1666667,14 14.1666667,14 C14.1666667,14 12.8333333,14 12.8333333,14 C12.8333333,14 12.8333333,12.6666667 12.8333333,12.6666667 C12.8333333,12.6666667 9.66666667,12.6666667 9.66666667,12.6666667 C9.66666667,12.6666667 9.66666667,11.5 9.66666667,11.5 C9.66666667,11.5 12.6,6 12.6,6 C12.6,6 12.6,6 12.6,6 Z M12.8333333,11.3333333 C12.8333333,11.3333333 12.8333333,8.39583333 12.8333333,8.39583333 C12.8333333,8.39583333 11.2666667,11.3333333 11.2666667,11.3333333 C11.2666667,11.3333333 12.8333333,11.3333333 12.8333333,11.3333333 C12.8333333,11.3333333 12.8333333,11.3333333 12.8333333,11.3333333 Z" id="形状" fill="#999999"></path>
    </g>
</svg>