<?xml version="1.0" encoding="UTF-8"?>
<svg width="16px" height="16px" viewBox="0 0 16 16" version="1.1" xmlns="http://www.w3.org/2000/svg" xmlns:xlink="http://www.w3.org/1999/xlink">
    <title>icon/面性/icon-basic-file-arrowrise</title>
    <g id="icon/面性/icon-basic-file-arrowrise" stroke="none" stroke-width="1" fill="none" fill-rule="evenodd">
        <path d="M9.33334372,1.33333333 C9.33334372,1.33333333 9.33334372,9.33333333 9.33334372,9.33333333 C9.33334372,9.33333333 11.3262104,9.33333333 11.3262104,9.33333333 C11.8942771,9.33333333 12.2045771,9.99586667 11.8409104,10.4322667 C11.8409104,10.4322667 8.51471039,14.4237333 8.51471039,14.4237333 C8.24687706,14.7451333 7.75317706,14.7451667 7.48527706,14.4237333 C7.48527706,14.4237333 4.15907606,10.4322667 4.15907606,10.4322667 C3.79546172,9.99593333 4.10566539,9.33333333 4.67378372,9.33333333 C4.67378372,9.33333333 6.66666706,9.33333333 6.66666706,9.33333333 C6.66666706,9.33333333 6.66666706,1.33333333 6.66666706,1.33333333 C6.66666706,1.33333333 9.33334372,1.33333333 9.33334372,1.33333333 Z" id="路径" fill="#999999" transform="translate(8, 7.9991) scale(1, -1) translate(-8, -7.9991)"></path>
    </g>
</svg>