<?xml version="1.0" encoding="UTF-8"?>
<svg width="16px" height="16px" viewBox="0 0 16 16" version="1.1" xmlns="http://www.w3.org/2000/svg" xmlns:xlink="http://www.w3.org/1999/xlink">
    <title>icon/通用类/el-icon-first-aid-kit</title>
    <g id="icon/通用类/el-icon-first-aid-kit" stroke="none" stroke-width="1" fill="none" fill-rule="evenodd">
        <path d="M13.6666667,4.01178233 C14.2189514,4.01178233 14.6666667,4.45949758 14.6666667,5.01178233 L14.6666667,13.678449 C14.6666667,14.2307337 14.2189514,14.678449 13.6666667,14.678449 L2.33333333,14.678449 C1.78104858,14.678449 1.33333333,14.2307337 1.33333333,13.678449 L1.33333333,5.01178233 C1.33333333,4.45949758 1.78104858,4.01178233 2.33333333,4.01178233 L13.6666667,4.01178233 Z M13.3333333,5.33673096 L2.66666667,5.33673096 L2.66666667,13.336731 L13.3333333,13.336731 L13.3333333,5.33673096 Z" id="形状结合" fill="#999999" transform="translate(8, 9.3451) scale(1, -1) translate(-8, -9.3451)"></path>
        <path d="M10,1.33333333 C10.7363797,1.33333333 11.3333333,1.930287 11.3333333,2.66666667 L11.3333333,4.66666667 L10,4.66666667 L10,2.66666667 L6,2.66666667 L6,4.66666667 L4.66666667,4.66666667 L4.66666667,2.66666667 C4.66666667,1.930287 5.26362033,1.33333333 6,1.33333333 L10,1.33333333 Z" id="路径-48" fill="#999999" fill-rule="nonzero"></path>
        <path d="M7.33333333,8.33333333 C7.33333333,8.33333333 7.33333333,6.66666667 7.33333333,6.66666667 C7.33333333,6.66666667 8.66666667,6.66666667 8.66666667,6.66666667 C8.66666667,6.66666667 8.66666667,8.33333333 8.66666667,8.33333333 C8.66666667,8.33333333 10.3333333,8.33333333 10.3333333,8.33333333 C10.3333333,8.33333333 10.3333333,9.66666667 10.3333333,9.66666667 C10.3333333,9.66666667 8.66666667,9.66666667 8.66666667,9.66666667 C8.66666667,9.66666667 8.66666667,11.3333333 8.66666667,11.3333333 C8.66666667,11.3333333 7.33333333,11.3333333 7.33333333,11.3333333 C7.33333333,11.3333333 7.33333333,9.66666667 7.33333333,9.66666667 C7.33333333,9.66666667 5.66666667,9.66666667 5.66666667,9.66666667 C5.66666667,9.66666667 5.66666667,8.33333333 5.66666667,8.33333333 C5.66666667,8.33333333 7.33333333,8.33333333 7.33333333,8.33333333 C7.33333333,8.33333333 7.33333333,8.33333333 7.33333333,8.33333333 Z" id="路径" fill="#999999"></path>
    </g>
</svg>