<?xml version="1.0" encoding="UTF-8"?>
<svg width="16px" height="16px" viewBox="0 0 16 16" version="1.1" xmlns="http://www.w3.org/2000/svg" xmlns:xlink="http://www.w3.org/1999/xlink">
    <title>icon/编辑类/el-icon-s-unfold</title>
    <g id="icon/编辑类/el-icon-s-unfold" stroke="none" stroke-width="1" fill="none" fill-rule="evenodd">
        <path d="M2,4.66666667 C2,4.66666667 14,4.66666667 14,4.66666667 C14,4.66666667 14,3.33333333 14,3.33333333 C14,3.33333333 2,3.33333333 2,3.33333333 C2,3.33333333 2,4.66666667 2,4.66666667 C2,4.66666667 2,4.66666667 2,4.66666667 Z M2,9 C2,9 8.66666667,9 8.66666667,9 C8.66666667,9 8.66666667,7.66666667 8.66666667,7.66666667 C8.66666667,7.66666667 2,7.66666667 2,7.66666667 C2,7.66666667 2,9 2,9 C2,9 2,9 2,9 Z M14,13.3333333 C14,13.3333333 2,13.3333333 2,13.3333333 C2,13.3333333 2,12 2,12 C2,12 14,12 14,12 C14,12 14,13.3333333 14,13.3333333 C14,13.3333333 14,13.3333333 14,13.3333333 Z M13.7127464,7.66425382 L10.6942237,5.57450733 C10.5428623,5.46971867 10.3352116,5.50747333 10.2304229,5.65883473 C10.1918297,5.71458059 10.1711537,5.78076991 10.1711537,5.84857139 L10.1711537,10.5761925 C10.1711537,10.7602874 10.3203921,10.9095258 10.504487,10.9095258 C10.5722885,10.9095258 10.6384778,10.8888499 10.6942237,10.8502566 L13.7127464,8.76051008 C14.0154692,8.55093275 14.0909785,8.13563144 13.8814012,7.83290863 C13.8357784,7.76700905 13.778646,7.70987661 13.7127464,7.66425382 Z" id="形状" fill="#999999"></path>
    </g>
</svg>