<?xml version="1.0" encoding="UTF-8"?>
<svg width="16px" height="16px" viewBox="0 0 16 16" version="1.1" xmlns="http://www.w3.org/2000/svg" xmlns:xlink="http://www.w3.org/1999/xlink">
    <title>icon/通用类/el-icon-full-screen</title>
    <g id="icon/通用类/el-icon-full-screen" stroke="none" stroke-width="1" fill="none" fill-rule="evenodd">
        <path d="M13.3333333,3.33333333 C13.3333333,3.33333333 11,3.33333333 11,3.33333333 C11,3.33333333 11,2 11,2 C11,2 13.6666667,2 13.6666667,2 C14.21895,2 14.6666667,2.44771667 14.6666667,3 C14.6666667,3 14.6666667,5.66666667 14.6666667,5.66666667 C14.6666667,5.66666667 13.3333333,5.66666667 13.3333333,5.66666667 C13.3333333,5.66666667 13.3333333,3.33333333 13.3333333,3.33333333 C13.3333333,3.33333333 13.3333333,3.33333333 13.3333333,3.33333333 Z M5,2 C5,2 2.33333333,2 2.33333333,2 C1.78103333,2 1.33333333,2.44771667 1.33333333,3 C1.33333333,3 1.33333333,5.66666667 1.33333333,5.66666667 C1.33333333,5.66666667 2.66666667,5.66666667 2.66666667,5.66666667 C2.66666667,5.66666667 2.66666667,3.33333333 2.66666667,3.33333333 C2.66666667,3.33333333 5,3.33333333 5,3.33333333 C5,3.33333333 5,2 5,2 C5,2 5,2 5,2 Z M14.6666667,13 C14.6666667,13 14.6666667,10.3333333 14.6666667,10.3333333 C14.6666667,10.3333333 13.3333333,10.3333333 13.3333333,10.3333333 C13.3333333,10.3333333 13.3333333,12.6666667 13.3333333,12.6666667 C13.3333333,12.6666667 11,12.6666667 11,12.6666667 C11,12.6666667 11,14 11,14 C11,14 13.6666667,14 13.6666667,14 C14.21895,14 14.6666667,13.5523 14.6666667,13 C14.6666667,13 14.6666667,13 14.6666667,13 Z M2.66666667,12.6666667 C2.66666667,12.6666667 2.66666667,10.3333333 2.66666667,10.3333333 C2.66666667,10.3333333 1.33333333,10.3333333 1.33333333,10.3333333 C1.33333333,10.3333333 1.33333333,13 1.33333333,13 C1.33333333,13.5523 1.78103333,14 2.33333333,14 C2.33333333,14 5,14 5,14 C5,14 5,12.6666667 5,12.6666667 C5,12.6666667 2.66666667,12.6666667 2.66666667,12.6666667 C2.66666667,12.6666667 2.66666667,12.6666667 2.66666667,12.6666667 Z" id="形状结合" fill="#999999"></path>
    </g>
</svg>