<?xml version="1.0" encoding="UTF-8"?>
<svg width="16px" height="16px" viewBox="0 0 16 16" version="1.1" xmlns="http://www.w3.org/2000/svg" xmlns:xlink="http://www.w3.org/1999/xlink">
    <title>icon/通用类/icon-general-line-list</title>
    <g id="icon/通用类/icon-general-line-list" stroke="none" stroke-width="1" fill="none" fill-rule="evenodd">
        <path d="M1.33333333,4.66666667 C1.33333333,4.66666667 1.33333333,3.33333333 1.33333333,3.33333333 C1.33333333,3.33333333 2.66666667,3.33333333 2.66666667,3.33333333 C2.66666667,3.33333333 2.66666667,4.66666667 2.66666667,4.66666667 C2.66666667,4.66666667 1.33333333,4.66666667 1.33333333,4.66666667 Z M4,4.66666667 C4,4.66666667 4,3.33333333 4,3.33333333 C4,3.33333333 14.6666667,3.33333333 14.6666667,3.33333333 C14.6666667,3.33333333 14.6666667,4.66666667 14.6666667,4.66666667 C14.6666667,4.66666667 4,4.66666667 4,4.66666667 Z M1.33333333,8.66666667 C1.33333333,8.66666667 1.33333333,7.33333333 1.33333333,7.33333333 C1.33333333,7.33333333 2.66666667,7.33333333 2.66666667,7.33333333 C2.66666667,7.33333333 2.66666667,8.66666667 2.66666667,8.66666667 C2.66666667,8.66666667 1.33333333,8.66666667 1.33333333,8.66666667 Z M4,8.66666667 C4,8.66666667 4,7.33333333 4,7.33333333 C4,7.33333333 14.6666667,7.33333333 14.6666667,7.33333333 C14.6666667,7.33333333 14.6666667,8.66666667 14.6666667,8.66666667 C14.6666667,8.66666667 4,8.66666667 4,8.66666667 Z M1.33333333,12.6666667 C1.33333333,12.6666667 1.33333333,11.3333333 1.33333333,11.3333333 C1.33333333,11.3333333 2.66666667,11.3333333 2.66666667,11.3333333 C2.66666667,11.3333333 2.66666667,12.6666667 2.66666667,12.6666667 C2.66666667,12.6666667 1.33333333,12.6666667 1.33333333,12.6666667 Z M4,12.6666667 C4,12.6666667 4,11.3333333 4,11.3333333 C4,11.3333333 14.6666667,11.3333333 14.6666667,11.3333333 C14.6666667,11.3333333 14.6666667,12.6666667 14.6666667,12.6666667 C14.6666667,12.6666667 4,12.6666667 4,12.6666667 Z" id="形状" fill="#999999"></path>
    </g>
</svg>