<?xml version="1.0" encoding="UTF-8"?>
<svg width="16px" height="16px" viewBox="0 0 16 16" version="1.1" xmlns="http://www.w3.org/2000/svg" xmlns:xlink="http://www.w3.org/1999/xlink">
    <title>icon/通用类/el-icon-share</title>
    <g id="icon/通用类/el-icon-share" stroke="none" stroke-width="1" fill="none" fill-rule="evenodd">
        <path d="M3.83333333,2.99997965 C3.37309667,2.99997965 3,3.37307632 3,3.83331299 C3,4.29354965 3.37309667,4.66664632 3.83333333,4.66664632 C4.16336667,4.66664632 4.4499,4.47483965 4.58512,4.19364632 C4.66935,4.01848299 4.68925,3.81039299 4.63947333,3.62071299 C4.5456,3.26303299 4.21934,2.99997965 3.83333333,2.99997965 C3.83333333,2.99997965 3.83333333,2.99997965 3.83333333,2.99997965 Z M1.66666667,3.83331299 C1.66666667,2.63669632 2.63671667,1.66664632 3.83333333,1.66664632 C4.84028,1.66664632 5.68523333,2.35294965 5.92913333,3.28225299 C6.00126667,3.55713632 6.01786667,3.84411965 5.98006667,4.12426632 C5.98006667,4.12426632 10.5967333,6.34027965 10.5967333,6.34027965 C10.991,5.92577965 11.5482333,5.66667965 12.1666667,5.66667965 C13.3633,5.66667965 14.3333333,6.63671299 14.3333333,7.83334632 C14.3333333,9.02994632 13.3633,10.000013 12.1666667,10.000013 C11.5732333,10.000013 11.0361,9.76134632 10.6452667,9.37584632 C10.6452667,9.37584632 5.9684,11.8078463 5.9684,11.8078463 C6.16716667,13.054313 5.21213333,14.333313 3.83333333,14.333313 C2.63671667,14.333313 1.66666667,13.3632797 1.66666667,12.1666463 C1.66666667,10.970013 2.63671667,9.99997965 3.83333333,9.99997965 C4.42677,9.99997965 4.96390667,10.2386463 5.3547,10.624113 C5.3547,10.624113 10.0298333,8.19307965 10.0298333,8.19307965 C10.0102,8.07591299 10,7.95567965 10,7.83334632 C10,7.73474632 10.0066333,7.63751299 10.0194667,7.54217965 C10.0194667,7.54217965 5.40326667,5.32637965 5.40326667,5.32637965 C5.009,5.74087965 4.45175333,5.99997965 3.83333333,5.99997965 C2.63671667,5.99997965 1.66666667,5.02994632 1.66666667,3.83331299 C1.66666667,3.83331299 1.66666667,3.83331299 1.66666667,3.83331299 Z M12.1666667,7.00001299 C11.8366333,7.00001299 11.5501,7.19181299 11.4148667,7.47301299 C11.3628333,7.58124632 11.3333333,7.70291299 11.3333333,7.83334632 C11.3333333,7.97321299 11.3672667,8.10321299 11.4268,8.21744632 C11.5666333,8.48581299 11.8460667,8.66667965 12.1666667,8.66667965 C12.6269,8.66667965 13,8.29357965 13,7.83334632 C13,7.37311299 12.6269,7.00001299 12.1666667,7.00001299 C12.1666667,7.00001299 12.1666667,7.00001299 12.1666667,7.00001299 Z M3.83333333,11.333313 C3.37309667,11.333313 3,11.706413 3,12.1666463 C3,12.6268797 3.37309333,12.9999797 3.83333333,12.9999797 C4.43721667,12.9999797 4.84857333,12.311013 4.57321333,11.7825463 C4.43337667,11.5141797 4.15392667,11.333313 3.83333333,11.333313 C3.83333333,11.333313 3.83333333,11.333313 3.83333333,11.333313 Z" id="形状" fill="#999999"></path>
    </g>
</svg>