<?xml version="1.0" encoding="UTF-8"?>
<svg width="16px" height="16px" viewBox="0 0 16 16" version="1.1" xmlns="http://www.w3.org/2000/svg" xmlns:xlink="http://www.w3.org/1999/xlink">
    <title>icon/通用类/el-icon-switch-button</title>
    <g id="icon/通用类/el-icon-switch-button" stroke="none" stroke-width="1" fill="none" fill-rule="evenodd">
        <path d="M7.33333333,2 C7.33333333,2 8.66666667,2 8.66666667,2 C8.66666667,2 8.66666667,9.33333333 8.66666667,9.33333333 C8.66666667,9.33333333 7.33333333,9.33333333 7.33333333,9.33333333 C7.33333333,9.33333333 7.33333333,2 7.33333333,2 Z M3,8.33333333 C3,11.0947667 5.23856667,13.3333333 8,13.3333333 C10.7614333,13.3333333 13,11.0947667 13,8.33333333 C13,6.48346667 11.9957667,4.86736667 10.4995,4.00183667 C10.4995,4.00183667 11.1671667,2.84769667 11.1671667,2.84769667 C13.0584333,3.94175333 14.3333333,5.98826667 14.3333333,8.33333333 C14.3333333,11.8311333 11.4978,14.6666667 8,14.6666667 C4.50219667,14.6666667 1.66666667,11.8311333 1.66666667,8.33333333 C1.66666667,5.98826667 2.94155,3.94175333 4.83285,2.84769667 C4.83285,2.84769667 5.5005,4.00183667 5.5005,4.00183667 C4.00424,4.86736667 3,6.48346667 3,8.33333333 Z" id="形状" fill="#999999"></path>
    </g>
</svg>