<?xml version="1.0" encoding="UTF-8"?>
<svg width="16px" height="16px" viewBox="0 0 16 16" version="1.1" xmlns="http://www.w3.org/2000/svg" xmlns:xlink="http://www.w3.org/1999/xlink">
    <title>icon/影音类/icon-general-line-livebroadcast</title>
    <g id="icon/影音类/icon-general-line-livebroadcast" stroke="none" stroke-width="1" fill="none" fill-rule="evenodd">
        <path d="M11.8221081,1.90933204 L12.8129678,2.80150618 L11.1333333,4.66633204 L13.6666667,4.66666667 C14.2189514,4.66666667 14.6666667,5.11438192 14.6666667,5.66666667 L14.6666667,13 C14.6666667,13.5522847 14.2189514,14 13.6666667,14 L2.33333333,14 C1.78104858,14 1.33333333,13.5522847 1.33333333,13 L1.33333333,5.66666667 C1.33333333,5.11438192 1.78104858,4.66666667 2.33333333,4.66666667 L4.82433333,4.66633204 L3.14558564,2.80150618 L4.13644541,1.90933204 L6.61833333,4.66633204 L9.33933333,4.66633204 L11.8221081,1.90933204 Z M13.3333333,6 L2.66666667,6 L2.66666667,12.6666667 L13.3333333,12.6666667 L13.3333333,6 Z M7.68813333,7.24106667 C7.68813333,7.24106667 9.7534,8.5032 9.7534,8.5032 C10.3630333,8.87573333 10.3966333,9.74886667 9.81746667,10.1671667 C9.81746667,10.1671667 9.38361024,10.4805063 8.91359912,10.8199575 L8.65603422,11.0059759 C8.4423928,11.1602719 8.23622135,11.3091729 8.07486979,11.4257042 L7.87763364,11.568152 C7.79863592,11.6252057 7.75216667,11.6587667 7.75216667,11.6587667 C7.09083333,12.1364 6.16666667,11.6638667 6.16666667,10.8481 L6.16666667,8.09436667 C6.16666667,7.31343333 7.02176667,6.83386667 7.68813333,7.24106667 Z M7.5,8.6887 L7.5,10.1961667 C7.5,10.1961667 7.51297883,10.1867932 7.5361553,10.1700549 L7.6334965,10.0997538 C7.7150777,10.0408349 7.82632478,9.96049086 7.94498834,9.87479057 L8.18561166,9.70100943 C8.30427522,9.61530914 8.4155223,9.53496511 8.4971035,9.47604616 L8.5944447,9.40574514 C8.61762117,9.3890068 8.6306,9.37963333 8.6306,9.37963333 C8.6306,9.37963333 7.5,8.6887 7.5,8.6887 Z" id="形状结合" fill="#999999"></path>
    </g>
</svg>