<?xml version="1.0" encoding="UTF-8"?>
<svg width="16px" height="16px" viewBox="0 0 16 16" version="1.1" xmlns="http://www.w3.org/2000/svg" xmlns:xlink="http://www.w3.org/1999/xlink">
    <title>icon/通用类/el-icon-notebook-2</title>
    <g id="icon/通用类/el-icon-notebook-2" stroke="none" stroke-width="1" fill="none" fill-rule="evenodd">
        <path d="M12.6666667,1.33333333 C13.4030463,1.33333333 14,1.930287 14,2.66666667 L14,13.3333333 C14,14.069713 13.4030463,14.6666667 12.6666667,14.6666667 L3.33333333,14.6666667 C2.59695367,14.6666667 2,14.069713 2,13.3333333 L2,2.66666667 C2,1.930287 2.59695367,1.33333333 3.33333333,1.33333333 L12.6666667,1.33333333 Z M12.6666667,2.66666667 L3.33333333,2.66666667 L3.33333333,13.3333333 L12.6666667,13.3333333 L12.6666667,2.66666667 Z" id="矩形" fill="#999999" fill-rule="nonzero"></path>
        <rect id="矩形" fill="#999999" x="8" y="4" width="3.33333333" height="1.33333333" rx="0.666666667"></rect>
        <rect id="矩形备份-2" fill="#999999" x="8" y="7.33333333" width="3.33333333" height="1.33333333" rx="0.666666667"></rect>
        <rect id="矩形备份-3" fill="#999999" x="8" y="10.6666667" width="3.33333333" height="1.33333333" rx="0.666666667"></rect>
        <path d="M6,1.33333333 C6.36818983,1.33333333 6.66666667,1.63181017 6.66666667,2 L6.66666667,13.3333333 C6.66666667,13.7015232 6.36818983,14 6,14 C5.63181017,14 5.33333333,13.7015232 5.33333333,13.3333333 L5.33333333,2 C5.33333333,1.63181017 5.63181017,1.33333333 6,1.33333333 Z" id="矩形备份" fill="#999999"></path>
    </g>
</svg>