<?xml version="1.0" encoding="UTF-8"?>
<svg width="16px" height="16px" viewBox="0 0 16 16" version="1.1" xmlns="http://www.w3.org/2000/svg" xmlns:xlink="http://www.w3.org/1999/xlink">
    <title>icon/编辑类/icon-edit-line-toright</title>
    <g id="icon/编辑类/icon-edit-line-toright" stroke="none" stroke-width="1" fill="none" fill-rule="evenodd">
        <path d="M4.75773333,8.33333333 C4.75773333,8.33333333 7,8.33333333 7,8.33333333 C7,8.33333333 7,1.66666667 7,1.66666667 C7,1.66666667 8.33333333,1.66666667 8.33333333,1.66666667 C8.33333333,1.66666667 8.33333333,8.33333333 8.33333333,8.33333333 C8.33333333,8.33333333 10.5756,8.33333333 10.5756,8.33333333 C10.8656333,8.33333333 11.0173,8.6781 10.8213,8.8919 C10.8213,8.8919 7.9124,12.0652667 7.9124,12.0652667 C7.78026667,12.2094 7.55306667,12.2094 7.42093333,12.0652667 C7.42093333,12.0652667 4.51202667,8.8919 4.51202667,8.8919 C4.31604333,8.6781 4.46771,8.33333333 4.75773333,8.33333333 C4.75773333,8.33333333 4.75773333,8.33333333 4.75773333,8.33333333 Z M14,14.3333333 C14,14.3333333 14,13 14,13 C14,13 1.33333333,13 1.33333333,13 C1.33333333,13 1.33333333,14.3333333 1.33333333,14.3333333 C1.33333333,14.3333333 14,14.3333333 14,14.3333333 C14,14.3333333 14,14.3333333 14,14.3333333 Z" id="形状" fill="#999999" transform="translate(7.6667, 8) rotate(-90) translate(-7.6667, -8)"></path>
    </g>
</svg>