<?xml version="1.0" encoding="UTF-8"?>
<svg width="16px" height="16px" viewBox="0 0 16 16" version="1.1" xmlns="http://www.w3.org/2000/svg" xmlns:xlink="http://www.w3.org/1999/xlink">
    <title>icon/影音类/icon-general-line-code</title>
    <g id="icon/影音类/icon-general-line-code" stroke="none" stroke-width="1" fill="none" fill-rule="evenodd">
        <path d="M8.90896372,2.03189901 L10.1968648,2.37699107 L7.09103628,13.968101 L5.80313518,13.6230089 L8.90896372,2.03189901 Z M5.106491,3.75735418 L5.47756389,4.128431 C5.5435324,4.19440022 5.6122496,4.26311815 5.67821811,4.32908736 L6.049291,4.70016418 L5.95065775,4.79879803 C5.90316767,4.8462884 5.83992366,4.90953279 5.76400802,4.98544889 L5.29310275,5.45635702 L5.06478504,5.68467611 L4.56979224,6.17967191 C4.48485805,6.26460661 4.39931502,6.35015016 4.31407641,6.43538929 L3.97691034,6.7725574 C3.5904953,7.15897478 3.23722861,7.51224361 3.00992565,7.73954796 L2.74947433,8.00000085 L2.84810758,8.0986346 C2.89559767,8.14612492 2.95884167,8.20936924 3.03475731,8.28528527 L3.61765242,8.86818332 C3.65574343,8.90627452 3.69455744,8.94508873 3.7339803,8.98451178 L4.31407641,9.56461082 L4.39938267,9.64991751 L4.82185499,10.072392 C4.97090079,10.2214385 5.11501493,10.3655534 5.24887121,10.4994103 L5.88630503,11.1368474 C5.91014505,11.1606875 5.93166172,11.1822043 5.95065775,11.2012004 L6.03779055,11.2883337 L6.049291,11.2998342 C6.049291,11.2998342 5.97232773,11.3767974 5.86238021,11.486745 L5.106491,12.2426342 L3.0815683,10.2177115 C2.95312171,10.0892649 2.8242029,9.96034608 2.69670077,9.83284395 L2.13887895,9.27502213 C2.01987697,9.15602015 1.90512505,9.04126823 1.79651213,8.93265531 L0.863857667,8.00000085 L1.96379964,6.90005542 C2.07807933,6.78577537 2.19755354,6.66630078 2.32033337,6.54352056 L4.17383654,4.69001157 C4.28244946,4.58139831 4.3849234,4.47892405 4.47936942,4.38447773 L5.106491,3.75735418 Z M10.889791,3.75735418 C10.889791,3.75735418 10.9053747,3.77293782 10.9346532,3.80221618 L11.3815045,4.24906532 C11.467451,4.33501147 11.56237,4.42993002 11.6643725,4.53193205 L12.1648223,5.03237947 C12.2838252,5.15138184 12.4070783,5.27463428 12.5326924,5.40024788 L13.4895562,6.35710714 C13.6151704,6.48272075 13.7384234,6.60597319 13.8574264,6.72497555 L14.1997959,7.06734346 C14.3627165,7.23026335 14.5118244,7.37937048 14.6407442,7.5082897 L15.0875955,7.95513885 C15.116874,7.9844172 15.1324577,8.00000085 15.1324577,8.00000085 C15.1324577,8.00000085 15.116874,8.01558444 15.0875955,8.04486271 L14.6407442,8.49171045 C14.4688511,8.6636022 14.2610682,8.87138345 14.032507,9.09994282 L13.6759705,9.45647655 C13.4304089,9.70203621 13.1716248,9.96081831 12.9147296,10.2177115 L12.5326924,10.5997456 C12.2814641,10.8509721 12.0396803,11.0927539 11.8224528,11.3099797 L11.3815045,11.7509246 C11.2525846,11.8798434 11.1438528,11.9885744 11.0616841,12.0707424 L10.9346532,12.1977723 C10.9053747,12.2270506 10.889791,12.2426342 10.889791,12.2426342 C10.889791,12.2426342 10.7166237,12.0694668 10.5187181,11.8715613 L10.3180639,11.6709071 C10.2191111,11.5719543 10.1263429,11.4791861 10.0583129,11.411156 L9.96073444,11.3135776 C9.9518012,11.3046444 9.946991,11.2998342 9.946991,11.2998342 C9.946991,11.2998342 9.98230432,11.2645209 10.0456247,11.2012004 L13.1481906,8.0986346 C13.211511,8.03531416 13.2468243,8.00000085 13.2468243,8.00000085 L13.2353238,7.98850033 L13.1481906,7.901367 C13.0426565,7.79583284 12.8593249,7.61250106 12.6320208,7.38519672 L11.511601,6.26477574 C11.3979489,6.15112356 11.2848381,6.03801259 11.1744332,5.92760763 L10.7031831,5.45635702 C10.605767,5.35894087 10.5143042,5.26747793 10.4309593,5.18413301 L9.946991,4.70016418 C9.946991,4.70016418 10.0239543,4.6232001 10.1339018,4.51325141 L10.3180639,4.32908736 C10.5819379,4.06521051 10.889791,3.75735418 10.889791,3.75735418 Z" id="形状结合" fill="#999999"></path>
    </g>
</svg>