<?xml version="1.0" encoding="UTF-8"?>
<svg width="16px" height="16px" viewBox="0 0 16 16" version="1.1" xmlns="http://www.w3.org/2000/svg" xmlns:xlink="http://www.w3.org/1999/xlink">
    <title>icon/通用类/icon-general-line-layout</title>
    <g id="icon/通用类/icon-general-line-layout" stroke="none" stroke-width="1" fill="none" fill-rule="evenodd">
        <path d="M2,2.66666667 C2,1.93028667 2.59695333,1.33333333 3.33333333,1.33333333 C3.33333333,1.33333333 12.6666667,1.33333333 12.6666667,1.33333333 C13.4030333,1.33333333 14,1.93028667 14,2.66666667 C14,2.66666667 14,13.3333333 14,13.3333333 C14,14.0697 13.4030333,14.6666667 12.6666667,14.6666667 C12.6666667,14.6666667 3.33333333,14.6666667 3.33333333,14.6666667 C2.59695333,14.6666667 2,14.0697 2,13.3333333 C2,13.3333333 2,2.66666667 2,2.66666667 C2,2.66666667 2,2.66666667 2,2.66666667 Z M12.6666667,2.66666667 C12.6666667,2.66666667 3.33333333,2.66666667 3.33333333,2.66666667 C3.33333333,2.66666667 3.33333333,5.66666667 3.33333333,5.66666667 C3.33333333,5.66666667 12.6666667,5.66666667 12.6666667,5.66666667 C12.6666667,5.66666667 12.6666667,2.66666667 12.6666667,2.66666667 C12.6666667,2.66666667 12.6666667,2.66666667 12.6666667,2.66666667 Z M12.6666667,7 C12.6666667,7 3.33333333,7 3.33333333,7 C3.33333333,7 3.33333333,13.3333333 3.33333333,13.3333333 C3.33333333,13.3333333 12.6666667,13.3333333 12.6666667,13.3333333 C12.6666667,13.3333333 12.6666667,7 12.6666667,7 C12.6666667,7 12.6666667,7 12.6666667,7 Z" id="形状" fill="#999999" transform="translate(8, 8) rotate(-90) translate(-8, -8)"></path>
    </g>
</svg>