<?xml version="1.0" encoding="UTF-8"?>
<svg width="16px" height="16px" viewBox="0 0 16 16" version="1.1" xmlns="http://www.w3.org/2000/svg" xmlns:xlink="http://www.w3.org/1999/xlink">
    <title>icon/面性/el-icon-s-help</title>
    <g id="icon/面性/el-icon-s-help" stroke="none" stroke-width="1" fill="none" fill-rule="evenodd">
        <path d="M5.07441726,8.66701269 C5.32906049,9.7886064 6.21213541,10.6714585 7.33385176,10.9257789 L7.33392611,14.6338087 C4.18416965,14.3213653 1.67919557,11.8166902 1.36629014,8.66706968 Z M8.66706968,14.6337099 L8.66701269,10.9255827 C9.78831826,10.6710049 10.6710049,9.78831826 10.9255827,8.66701269 L14.6337099,8.66706968 C14.3208374,11.8163583 11.8163583,14.3208374 8.66706968,14.6337099 Z M7.33392611,1.36619129 L7.33385176,5.07422113 C6.21184725,5.32860679 5.32860679,6.21184725 5.07422113,7.33385176 L1.36619129,7.33392611 C1.6786676,4.18383771 4.18383771,1.6786676 7.33392611,1.36619129 Z M14.6338087,7.33392611 L10.9257789,7.33385176 C10.6714585,6.21213541 9.7886064,5.32906049 8.66701269,5.07441726 L8.66706968,1.36629014 C11.8166902,1.67919557 14.3213653,4.18416965 14.6338087,7.33392611 Z" id="形状结合" fill="#999999"></path>
    </g>
</svg>