<?xml version="1.0" encoding="UTF-8"?>
<svg width="16px" height="16px" viewBox="0 0 16 16" version="1.1" xmlns="http://www.w3.org/2000/svg" xmlns:xlink="http://www.w3.org/1999/xlink">
    <title>icon/消费类/el-icon-shopping-bag-1</title>
    <g id="icon/消费类/el-icon-shopping-bag-1" stroke="none" stroke-width="1" fill="none" fill-rule="evenodd">
        <path d="M12.6753909,4 C13.3794753,4 13.9622081,4.54744906 14.0061277,5.25016229 L14.0061277,13.2501623 C14.0520618,13.9851079 13.4935076,14.618136 12.758562,14.6640701 C12.730872,14.6658007 12.7031348,14.6666667 12.6753909,14.6666667 L3.33222771,14.6666667 C2.59584804,14.6666667 1.99889437,14.069713 1.99889437,13.3333333 C1.99889437,13.3055894 1.99976032,13.2778522 2.00149094,13.2501623 L2.00149094,5.25016229 C2.04541051,4.54744906 2.62814333,4 3.33222771,4 L12.6753909,4 Z M12.6753909,5.33333333 L3.33222771,5.33333333 L3.33222771,13.3333333 L12.6753909,13.3333333 L12.6753909,5.33333333 Z" id="矩形" fill="#979797" fill-rule="nonzero"></path>
        <rect id="矩形" fill="#999999" x="2.66666667" y="10.6666667" width="10.6666667" height="1.33333333"></rect>
        <path d="M8,0.666666667 C9.47275933,0.666666667 10.6666667,1.860574 10.6666667,3.33333333 L10.6666667,6.66666667 C10.6666667,7.0348565 10.3681898,7.33333333 10,7.33333333 C9.63181017,7.33333333 9.33333333,7.0348565 9.33333333,6.66666667 L9.33333333,3.33333333 C9.33333333,2.59695367 8.73637967,2 8,2 C7.26362033,2 6.66666667,2.59695367 6.66666667,3.33333333 L6.66666667,6.66666667 C6.66666667,7.0348565 6.36818983,7.33333333 6,7.33333333 C5.63181017,7.33333333 5.33333333,7.0348565 5.33333333,6.66666667 L5.33333333,3.33333333 C5.33333333,1.860574 6.52724067,0.666666667 8,0.666666667 Z" id="路径-10" fill="#979797" fill-rule="nonzero"></path>
    </g>
</svg>