<?xml version="1.0" encoding="UTF-8"?>
<svg width="16px" height="16px" viewBox="0 0 16 16" version="1.1" xmlns="http://www.w3.org/2000/svg" xmlns:xlink="http://www.w3.org/1999/xlink">
    <title>icon/通用类/el-icon-mobile-phone</title>
    <g id="icon/通用类/el-icon-mobile-phone" stroke="none" stroke-width="1" fill="none" fill-rule="evenodd">
        <path d="M4,2 C4,2 12.6666667,2 12.6666667,2 C12.6666667,2 12.6666667,14 12.6666667,14 C12.6666667,14 4,14 4,14 C4,14 4,2 4,2 Z M2.66666667,2 C2.66666667,2 2.66666667,14 2.66666667,14 C2.66666667,14.6952 3.20509,15.3333333 3.95833333,15.3333333 C3.95833333,15.3333333 12.7083333,15.3333333 12.7083333,15.3333333 C13.4615667,15.3333333 14,14.6952 14,14 C14,14 14,2 14,2 C14,1.30480333 13.4615667,0.666666667 12.7083333,0.666666667 C12.7083333,0.666666667 3.95833333,0.666666667 3.95833333,0.666666667 C3.20509,0.666666667 2.66666667,1.30480333 2.66666667,2 Z M7.33333333,12.3333333 C7.33333333,12.8856083 7.78105833,13.3333333 8.33333333,13.3333333 C8.88560833,13.3333333 9.33333333,12.8856083 9.33333333,12.3333333 C9.33333333,11.7810583 8.88560833,11.3333333 8.33333333,11.3333333 C7.78105833,11.3333333 7.33333333,11.7810583 7.33333333,12.3333333 Z" id="形状" fill="#999999"></path>
        <rect id="矩形" fill="#999999" x="4" y="9.33333333" width="8.66666667" height="1.33333333"></rect>
    </g>
</svg>