<?xml version="1.0" encoding="UTF-8"?>
<svg width="16px" height="16px" viewBox="0 0 16 16" version="1.1" xmlns="http://www.w3.org/2000/svg" xmlns:xlink="http://www.w3.org/1999/xlink">
    <title>icon/通用类/el-icon-school</title>
    <g id="icon/通用类/el-icon-school" stroke="none" stroke-width="1" fill="none" fill-rule="evenodd">
        <path d="M2,14.6666667 C1.63181017,14.6666667 1.33333333,14.3681898 1.33333333,14 C1.33333333,13.6318102 1.63181017,13.3333333 2,13.3333333 L2.66633333,13.3323333 L2.66666667,2.66666667 C2.66666667,1.930287 3.26362033,1.33333333 4,1.33333333 L12,1.33333333 C12.7363797,1.33333333 13.3333333,1.930287 13.3333333,2.66666667 L13.3323333,13.3323333 L14,13.3333333 C14.3681898,13.3333333 14.6666667,13.6318102 14.6666667,14 C14.6666667,14.3681898 14.3681898,14.6666667 14,14.6666667 L2,14.6666667 Z M12,2.66666667 L4,2.66666667 L4,13.3333333 L12,13.3333333 L12,2.66666667 Z M6.66666667,6.66666667 C7.0348565,6.66666667 7.33333333,6.9651435 7.33333333,7.33333333 C7.33333333,7.70152317 7.0348565,8 6.66666667,8 L6,8 C5.63181017,8 5.33333333,7.70152317 5.33333333,7.33333333 C5.33333333,6.9651435 5.63181017,6.66666667 6,6.66666667 L6.66666667,6.66666667 Z M10,6.66666667 C10.3681898,6.66666667 10.6666667,6.9651435 10.6666667,7.33333333 C10.6666667,7.70152317 10.3681898,8 10,8 L9.33333333,8 C8.9651435,8 8.66666667,7.70152317 8.66666667,7.33333333 C8.66666667,6.9651435 8.9651435,6.66666667 9.33333333,6.66666667 L10,6.66666667 Z M6.66666667,4 C7.0348565,4 7.33333333,4.29847683 7.33333333,4.66666667 C7.33333333,5.0348565 7.0348565,5.33333333 6.66666667,5.33333333 L6,5.33333333 C5.63181017,5.33333333 5.33333333,5.0348565 5.33333333,4.66666667 C5.33333333,4.29847683 5.63181017,4 6,4 L6.66666667,4 Z M10,4 C10.3681898,4 10.6666667,4.29847683 10.6666667,4.66666667 C10.6666667,5.0348565 10.3681898,5.33333333 10,5.33333333 L9.33333333,5.33333333 C8.9651435,5.33333333 8.66666667,5.0348565 8.66666667,4.66666667 C8.66666667,4.29847683 8.9651435,4 9.33333333,4 L10,4 Z" id="形状结合" fill="#999999"></path>
        <path d="M8,9.33333333 C9.47275933,9.33333333 10.6666667,10.5272407 10.6666667,12 L10.6666667,13.3333333 L9.33333333,13.3333333 L9.33333333,12 C9.33333333,11.2636203 8.73637967,10.6666667 8,10.6666667 C7.26362033,10.6666667 6.66666667,11.2636203 6.66666667,12 L6.66666667,13.3333333 L5.33333333,13.3333333 L5.33333333,12 C5.33333333,10.5272407 6.52724067,9.33333333 8,9.33333333 Z" id="路径-2" fill="#999999" fill-rule="nonzero"></path>
    </g>
</svg>