<?xml version="1.0" encoding="UTF-8"?>
<svg width="16px" height="16px" viewBox="0 0 16 16" version="1.1" xmlns="http://www.w3.org/2000/svg" xmlns:xlink="http://www.w3.org/1999/xlink">
    <title>icon/编辑类/icon-edit-line-h1</title>
    <g id="icon/编辑类/icon-edit-line-h1" stroke="none" stroke-width="1" fill="none" fill-rule="evenodd">
        <path d="M3.33333333,2 C3.33333333,2 2,2 2,2 C2,2 2,14 2,14 C2,14 3.33333333,14 3.33333333,14 C3.33333333,14 3.33333333,8.66666667 3.33333333,8.66666667 C3.33333333,8.66666667 8.66666667,8.66666667 8.66666667,8.66666667 C8.66666667,8.66666667 8.66666667,14 8.66666667,14 C8.66666667,14 10,14 10,14 C10,14 10,2 10,2 C10,2 8.66666667,2 8.66666667,2 C8.66666667,2 8.66666667,7.33333333 8.66666667,7.33333333 C8.66666667,7.33333333 3.33333333,7.33333333 3.33333333,7.33333333 C3.33333333,7.33333333 3.33333333,2 3.33333333,2 C3.33333333,2 3.33333333,2 3.33333333,2 Z M14.6666667,6.33333333 C14.6666667,6.33333333 13.5093,6.33333333 13.5093,6.33333333 C13.5093,6.33333333 11.3685333,7.4037 11.3685333,7.4037 C11.3685333,7.4037 11.9648,8.5963 11.9648,8.5963 C11.9648,8.5963 13.3333333,7.91203333 13.3333333,7.91203333 C13.3333333,7.91203333 13.3333333,14 13.3333333,14 C13.3333333,14 14.6666667,14 14.6666667,14 C14.6666667,14 14.6666667,6.33333333 14.6666667,6.33333333 C14.6666667,6.33333333 14.6666667,6.33333333 14.6666667,6.33333333 Z" id="形状" fill="#999999"></path>
    </g>
</svg>