<?xml version="1.0" encoding="UTF-8"?>
<svg width="16px" height="16px" viewBox="0 0 16 16" version="1.1" xmlns="http://www.w3.org/2000/svg" xmlns:xlink="http://www.w3.org/1999/xlink">
    <title>icon/编辑类/icon-edit-line-circular</title>
    <g id="icon/编辑类/icon-edit-line-circular" stroke="none" stroke-width="1" fill="none" fill-rule="evenodd">
        <path d="M9.66666667,8 C9.66666667,7.07952667 8.92047333,6.33333333 8,6.33333333 C8,6.33333333 8,6.33333333 8,6.33333333 C7.07952667,6.33333333 6.33333333,7.07952667 6.33333333,8 C6.33333333,8 6.33333333,8 6.33333333,8 C6.33333333,8.92047333 7.07952667,9.66666667 8,9.66666667 C8,9.66666667 8,9.66666667 8,9.66666667 C8.92047333,9.66666667 9.66666667,8.92047333 9.66666667,8 C9.66666667,8 9.66666667,8 9.66666667,8 C9.66666667,8 9.66666667,8 9.66666667,8 Z" id="路径" fill="#999999" transform="translate(8, 8) rotate(-90) translate(-8, -8)"></path>
    </g>
</svg>