<?xml version="1.0" encoding="UTF-8"?>
<svg width="16px" height="16px" viewBox="0 0 16 16" version="1.1" xmlns="http://www.w3.org/2000/svg" xmlns:xlink="http://www.w3.org/1999/xlink">
    <title>icon/天气类/el-icon-light-rain</title>
    <g id="icon/天气类/el-icon-light-rain" stroke="none" stroke-width="1" fill="none" fill-rule="evenodd">
        <path d="M7.37254902,2.66666667 C5.64555294,2.66666667 4.24442667,3.97144853 4.23533804,5.58416 C4.23533804,5.58416 4.23330196,5.945576 4.23330196,5.945576 C4.23330196,5.945576 3.88712157,6.10644 3.88712157,6.10644 C3.16247216,6.443128 2.66666667,7.14129067 2.66666667,7.94666667 C2.66666667,9.08069333 3.64988549,10 4.8627451,10 C4.8627451,10 10.8235294,10 10.8235294,10 C12.2096627,10 13.3333333,8.949368 13.3333333,7.65333333 C13.3333333,6.40693067 12.2937098,5.38709867 10.9814588,5.31121333 C10.9814588,5.31121333 10.5254275,5.28484267 10.5254275,5.28484267 C10.5254275,5.28484267 10.412298,4.87094933 10.412298,4.87094933 C10.0657569,3.60327413 8.83535686,2.66666667 7.37254902,2.66666667 C7.37254902,2.66666667 7.37254902,2.66666667 7.37254902,2.66666667 Z M2.93830159,5.19493939 C3.14006984,3.03029697 5.04495238,1.33333333 7.36507937,1.33333333 C9.28409524,1.33333333 10.9178095,2.49381818 11.540381,4.119 C13.3185079,4.42648485 14.6666667,5.91124242 14.6666667,7.6969697 C14.6666667,9.70527273 12.9610794,11.3333333 10.8571429,11.3333333 C10.8571429,11.3333333 4.82539683,11.3333333 4.82539683,11.3333333 C2.89678413,11.3333333 1.33333333,9.84093939 1.33333333,8 C1.33333333,6.82184848 1.97374286,5.78736364 2.93830159,5.19493939 C2.93830159,5.19493939 2.93830159,5.19493939 2.93830159,5.19493939 Z" id="形状" fill="#999999"></path>
        <rect id="矩形" fill="#999999" x="4" y="12" width="1.33333333" height="2" rx="0.666666667"></rect>
        <rect id="矩形备份-2" fill="#999999" x="10.6666667" y="12" width="1.33333333" height="2" rx="0.666666667"></rect>
        <rect id="矩形备份" fill="#999999" x="7.33333333" y="12.6666667" width="1.33333333" height="2" rx="0.666666667"></rect>
    </g>
</svg>