<?xml version="1.0" encoding="UTF-8"?>
<svg width="16px" height="16px" viewBox="0 0 16 16" version="1.1" xmlns="http://www.w3.org/2000/svg" xmlns:xlink="http://www.w3.org/1999/xlink">
    <title>icon/通用类/icon-general-line-empty</title>
    <g id="icon/通用类/icon-general-line-empty" stroke="none" stroke-width="1" fill="none" fill-rule="evenodd">
        <path d="M7.33333333,3.66666667 C7.33333333,3.66666667 7.33333333,1.66666667 7.33333333,1.66666667 C7.33333333,1.66666667 8.66666667,1.66666667 8.66666667,1.66666667 C8.66666667,1.66666667 8.66666667,3.66666667 8.66666667,3.66666667 C8.66666667,3.66666667 7.33333333,3.66666667 7.33333333,3.66666667 C7.33333333,3.66666667 7.33333333,3.66666667 7.33333333,3.66666667 Z M4.80473333,2.19526333 C4.80473333,2.19526333 6.13806667,3.52859667 6.13806667,3.52859667 C6.13806667,3.52859667 5.19526667,4.47140333 5.19526667,4.47140333 C5.19526667,4.47140333 3.86193,3.13807 3.86193,3.13807 C3.86193,3.13807 4.80473333,2.19526333 4.80473333,2.19526333 C4.80473333,2.19526333 4.80473333,2.19526333 4.80473333,2.19526333 Z M12.1380667,3.13807 C12.1380667,3.13807 10.8047333,4.47140333 10.8047333,4.47140333 C10.8047333,4.47140333 9.86193333,3.52859667 9.86193333,3.52859667 C9.86193333,3.52859667 11.1952667,2.19526333 11.1952667,2.19526333 C11.1952667,2.19526333 12.1380667,3.13807 12.1380667,3.13807 C12.1380667,3.13807 12.1380667,3.13807 12.1380667,3.13807 Z M3.56454333,5.99483333 C3.80349,5.5852 4.24202333,5.33333333 4.71623333,5.33333333 C4.71623333,5.33333333 11.2837667,5.33333333 11.2837667,5.33333333 C11.7579667,5.33333333 12.1965,5.5852 12.4354667,5.99483333 C12.4354667,5.99483333 14.4850333,9.5084 14.4850333,9.5084 C14.604,9.71233333 14.6666667,9.94416667 14.6666667,10.1802333 C14.6666667,10.1802333 14.6666667,13 14.6666667,13 C14.6666667,13.7363667 14.0697,14.3333333 13.3333333,14.3333333 C13.3333333,14.3333333 2.66666667,14.3333333 2.66666667,14.3333333 C1.93028667,14.3333333 1.33333333,13.7363667 1.33333333,13 C1.33333333,13 1.33333333,10.1802333 1.33333333,10.1802333 C1.33333333,9.94416667 1.39601133,9.71233333 1.51496133,9.5084 C1.51496133,9.5084 3.56454333,5.99483333 3.56454333,5.99483333 C3.56454333,5.99483333 3.56454333,5.99483333 3.56454333,5.99483333 Z M11.2837667,6.66666667 C11.2837667,6.66666667 4.71623333,6.66666667 4.71623333,6.66666667 C4.71623333,6.66666667 3.16069,9.33333333 3.16069,9.33333333 C3.16069,9.33333333 7.14716667,9.33333333 7.14716667,9.33333333 C7.14716667,9.33333333 7.2972,9.78336667 7.2972,9.78336667 C7.29786667,9.7852 7.2991,9.7884 7.3009,9.79283333 C7.3062,9.8059 7.31596667,9.82876667 7.33066667,9.8581 C7.36076667,9.9183 7.40706667,9.99713333 7.47046667,10.0732 C7.59316667,10.2204333 7.75406667,10.3333333 8,10.3333333 C8.24593333,10.3333333 8.40683333,10.2204333 8.52953333,10.0732 C8.59293333,9.99713333 8.63923333,9.9183 8.66933333,9.8581 C8.68403333,9.82876667 8.6938,9.8059 8.6991,9.79283333 C8.70043333,9.78953333 8.70146667,9.78693333 8.70216667,9.78506667 C8.70243333,9.7844 8.70263333,9.78383333 8.7028,9.78336667 C8.7028,9.78336667 8.85283333,9.33333333 8.85283333,9.33333333 C8.85283333,9.33333333 12.8393,9.33333333 12.8393,9.33333333 C12.8393,9.33333333 11.2837667,6.66666667 11.2837667,6.66666667 C11.2837667,6.66666667 11.2837667,6.66666667 11.2837667,6.66666667 Z M13.3333333,10.6666667 C13.3333333,10.6666667 9.7424,10.6666667 9.7424,10.6666667 C9.69066667,10.7489333 9.6282,10.8375 9.5538,10.9268 C9.25983333,11.2795667 8.75406667,11.6666667 8,11.6666667 C7.24593333,11.6666667 6.74016667,11.2795667 6.4462,10.9268 C6.3718,10.8375 6.30933333,10.7489333 6.2576,10.6666667 C6.2576,10.6666667 2.66666667,10.6666667 2.66666667,10.6666667 C2.66666667,10.6666667 2.66666667,13 2.66666667,13 C2.66666667,13 13.3333333,13 13.3333333,13 C13.3333333,13 13.3333333,10.6666667 13.3333333,10.6666667 C13.3333333,10.6666667 13.3333333,10.6666667 13.3333333,10.6666667 Z" id="形状" fill="#999999"></path>
    </g>
</svg>