<?xml version="1.0" encoding="UTF-8"?>
<svg width="16px" height="16px" viewBox="0 0 16 16" version="1.1" xmlns="http://www.w3.org/2000/svg" xmlns:xlink="http://www.w3.org/1999/xlink">
    <title>icon/编辑类/icon-edit-line-findreplace</title>
    <g id="icon/编辑类/icon-edit-line-findreplace" stroke="none" stroke-width="1" fill="none" fill-rule="evenodd">
        <path d="M11.2381225,3.28232595 C11.2381225,3.28232595 12.8364322,1.68400362 12.8364322,1.68400362 C12.8364322,1.68400362 13.7301964,2.57777726 13.7301964,2.57777726 C13.7301964,2.57777726 12.1318867,4.17609958 12.1318867,4.17609958 C12.5175919,4.73593457 12.7438769,5.41503607 12.7438769,6.14628329 C12.7438769,8.06599289 11.1876263,9.62224345 9.26791671,9.62224345 C7.33888522,9.62224345 5.79195655,8.07531478 5.79195655,6.14628329 C5.79195655,4.21727391 7.33888522,2.67032628 9.26791671,2.67032628 C9.99916393,2.67032628 10.6782718,2.89661761 11.2381225,3.28232595 C11.2381225,3.28232595 11.2381225,3.28232595 11.2381225,3.28232595 Z M2.31599638,13.7301964 C2.31599638,13.7301964 2.31599638,2.35433306 2.31599638,2.35433306 C2.31599638,2.35433306 3.57998189,2.35433306 3.57998189,2.35433306 C3.57998189,2.35433306 3.57998189,13.7301964 3.57998189,13.7301964 C3.57998189,13.7301964 2.31599638,13.7301964 2.31599638,13.7301964 C2.31599638,13.7301964 2.31599638,13.7301964 2.31599638,13.7301964 Z M9.26791671,3.93431179 C8.03698442,3.93431179 7.05594206,4.91535099 7.05594206,6.14628329 C7.05594206,7.37721558 8.03698442,8.35825794 9.26791671,8.35825794 C10.4895587,8.35825794 11.4798914,7.36792529 11.4798914,6.14628329 C11.4798914,5.53530429 11.2330034,4.98316381 10.8320356,4.58218653 C10.4310362,4.18120292 9.87892731,3.93431179 9.26791671,3.93431179 C9.26791671,3.93431179 9.26791671,3.93431179 9.26791671,3.93431179 Z M7.37193844,13.7301964 C7.37193844,13.7301964 7.37193844,10.5702326 7.37193844,10.5702326 C7.37193844,10.5702326 8.63592396,10.5702326 8.63592396,10.5702326 C8.63592396,10.5702326 8.63592396,13.7301964 8.63592396,13.7301964 C8.63592396,13.7301964 7.37193844,13.7301964 7.37193844,13.7301964 C7.37193844,13.7301964 7.37193844,13.7301964 7.37193844,13.7301964 Z M12.4278805,13.7301964 C12.4278805,13.7301964 12.4278805,10.5702326 12.4278805,10.5702326 C12.4278805,10.5702326 13.691866,10.5702326 13.691866,10.5702326 C13.691866,10.5702326 13.691866,13.7301964 13.691866,13.7301964 C13.691866,13.7301964 12.4278805,13.7301964 12.4278805,13.7301964 C12.4278805,13.7301964 12.4278805,13.7301964 12.4278805,13.7301964 Z" id="形状" fill="#999999" transform="translate(8.0231, 7.7071) rotate(90) translate(-8.0231, -7.7071)"></path>
    </g>
</svg>