<?xml version="1.0" encoding="UTF-8"?>
<svg width="16px" height="16px" viewBox="0 0 16 16" version="1.1" xmlns="http://www.w3.org/2000/svg" xmlns:xlink="http://www.w3.org/1999/xlink">
    <title>icon/基础类/el-icon-more-outline</title>
    <g id="icon/基础类/el-icon-more-outline" stroke="none" stroke-width="1" fill="none" fill-rule="evenodd">
        <path d="M2.66666667,6 C3.77123617,6 4.66666667,6.8954305 4.66666667,8 C4.66666667,9.1045695 3.77123617,10 2.66666667,10 C1.56209717,10 0.666666667,9.1045695 0.666666667,8 C0.666666667,6.8954305 1.56209717,6 2.66666667,6 Z M2.66666667,7.33333333 C2.29847683,7.33333333 2,7.63181017 2,8 C2,8.36818983 2.29847683,8.66666667 2.66666667,8.66666667 C3.0348565,8.66666667 3.33333333,8.36818983 3.33333333,8 C3.33333333,7.63181017 3.0348565,7.33333333 2.66666667,7.33333333 Z" id="椭圆形" fill="#979797" fill-rule="nonzero"></path>
        <path d="M8,6 C9.1045695,6 10,6.8954305 10,8 C10,9.1045695 9.1045695,10 8,10 C6.8954305,10 6,9.1045695 6,8 C6,6.8954305 6.8954305,6 8,6 Z M8,7.33333333 C7.63181017,7.33333333 7.33333333,7.63181017 7.33333333,8 C7.33333333,8.36818983 7.63181017,8.66666667 8,8.66666667 C8.36818983,8.66666667 8.66666667,8.36818983 8.66666667,8 C8.66666667,7.63181017 8.36818983,7.33333333 8,7.33333333 Z" id="椭圆形备份" fill="#979797" fill-rule="nonzero"></path>
        <path d="M13.3333333,6 C14.4379028,6 15.3333333,6.8954305 15.3333333,8 C15.3333333,9.1045695 14.4379028,10 13.3333333,10 C12.2287638,10 11.3333333,9.1045695 11.3333333,8 C11.3333333,6.8954305 12.2287638,6 13.3333333,6 Z M13.3333333,7.33333333 C12.9651435,7.33333333 12.6666667,7.63181017 12.6666667,8 C12.6666667,8.36818983 12.9651435,8.66666667 13.3333333,8.66666667 C13.7015232,8.66666667 14,8.36818983 14,8 C14,7.63181017 13.7015232,7.33333333 13.3333333,7.33333333 Z" id="椭圆形备份-2" fill="#979797" fill-rule="nonzero"></path>
    </g>
</svg>