<?xml version="1.0" encoding="UTF-8"?>
<svg width="16px" height="16px" viewBox="0 0 16 16" version="1.1" xmlns="http://www.w3.org/2000/svg" xmlns:xlink="http://www.w3.org/1999/xlink">
    <title>icon/影音类/icon-general-line-skipprevious</title>
    <g id="icon/影音类/icon-general-line-skipprevious" stroke="none" stroke-width="1" fill="none" fill-rule="evenodd">
        <path d="M3.99999301,8 L3.99999301,14 L2.66665967,14 L2.66665967,2 L3.99999301,2 L3.99999301,8 Z M3.99999301,8.00000003 C3.99999301,8.2229 4.11139301,8.43106667 4.29685967,8.5547 L12.2968597,13.8880333 C12.5014263,14.0244 12.7644597,14.0371333 12.9812263,13.9211333 C13.197993,13.8051 13.3333263,13.5792 13.3333263,13.3333333 L13.3333263,2.66666667 C13.3333263,2.42080333 13.197993,2.19489733 12.9812263,2.07888467 C12.7644597,1.962872 12.5014263,1.97558693 12.2968597,2.11196767 L4.29685967,7.4453 C4.11139301,7.56893333 3.99999301,7.7771 3.99999301,8.00000003 Z M5.86852634,8 L11.999993,12.0876667 L11.999993,3.91234667 L5.86852634,8 Z" id="形状" fill="#999999"></path>
    </g>
</svg>