<?xml version="1.0" encoding="UTF-8"?>
<svg width="16px" height="16px" viewBox="0 0 16 16" version="1.1" xmlns="http://www.w3.org/2000/svg" xmlns:xlink="http://www.w3.org/1999/xlink">
    <title>icon/通用类/el-icon-close-notification</title>
    <g id="icon/通用类/el-icon-close-notification" stroke="none" stroke-width="1" fill="none" fill-rule="evenodd">
        <path d="M13.3333333,15.5586333 C13.3333333,15.5586333 1.33333333,2.22528667 1.33333333,2.22528667 C1.33333333,2.22528667 2.32439333,1.33333333 2.32439333,1.33333333 C2.32439333,1.33333333 14.3244,14.6666667 14.3244,14.6666667 C14.3244,14.6666667 13.3333333,15.5586333 13.3333333,15.5586333 C13.3333333,15.5586333 13.3333333,15.5586333 13.3333333,15.5586333 Z M7.1622,2.82344 C7.1622,2.82344 7.1622,1.77931 7.1622,1.77931 C7.1622,1.77931 8.49553333,1.77931 8.49553333,1.77931 C8.49553333,1.77931 8.49553333,2.82336667 8.49553333,2.82336667 C10.9417667,3.14929333 12.8288667,5.24393333 12.8288667,7.77931 C12.8288667,7.77931 12.8288667,10.27931 12.8288667,10.27931 C12.8288667,10.27931 11.4955333,10.27931 11.4955333,10.27931 C11.4955333,10.27931 11.4955333,7.77931 11.4955333,7.77931 C11.4955333,5.75426667 9.8539,4.11264333 7.82886667,4.11264333 C7.1599,4.11264333 6.53466667,4.29118333 5.996,4.60277 C5.996,4.60277 5.32836667,3.44863 5.32836667,3.44863 C5.88166667,3.12857667 6.50196667,2.91152 7.1622,2.82344 C7.1622,2.82344 7.1622,2.82344 7.1622,2.82344 Z M2.82886333,7.7793 C2.82886333,7.0749 2.97492333,6.40286667 3.23904,5.79323333 C3.23904,5.79323333 4.46249333,6.32326667 4.46249333,6.32326667 C4.26950333,6.76873333 4.16219667,7.2606 4.16219667,7.7793 C4.16219667,7.7793 4.16219667,11.4459667 4.16219667,11.4459667 C4.16219667,11.4459667 8.6622,11.4459667 8.6622,11.4459667 C8.6622,11.4459667 8.6622,12.7793 8.6622,12.7793 C8.6622,12.7793 1.82886333,12.7793 1.82886333,12.7793 C1.82886333,12.7793 1.82886333,11.4459667 1.82886333,11.4459667 C1.82886333,11.4459667 2.82886333,11.4459667 2.82886333,11.4459667 C2.82886333,11.4459667 2.82886333,7.7793 2.82886333,7.7793 C2.82886333,7.7793 2.82886333,7.7793 2.82886333,7.7793 Z M10.1622,13.7793 C10.1622,13.7793 10.1622,15.1126333 10.1622,15.1126333 C10.1622,15.1126333 5.49553333,15.1126333 5.49553333,15.1126333 C5.49553333,15.1126333 5.49553333,13.7793 5.49553333,13.7793 C5.49553333,13.7793 10.1622,13.7793 10.1622,13.7793 C10.1622,13.7793 10.1622,13.7793 10.1622,13.7793 Z" id="形状" fill="#999999"></path>
    </g>
</svg>