<?xml version="1.0" encoding="UTF-8"?>
<svg width="16px" height="16px" viewBox="0 0 16 16" version="1.1" xmlns="http://www.w3.org/2000/svg" xmlns:xlink="http://www.w3.org/1999/xlink">
    <title>icon/通用类/el-icon-female</title>
    <g id="icon/通用类/el-icon-female" stroke="none" stroke-width="1" fill="none" fill-rule="evenodd">
        <path d="M5.33333333,5.66666667 C5.33333333,4.00981333 6.67648,2.66666667 8.33333333,2.66666667 C9.9902,2.66666667 11.3333333,4.00981333 11.3333333,5.66666667 C11.3333333,7.32353333 9.9902,8.66666667 8.33333333,8.66666667 C6.67648,8.66666667 5.33333333,7.32353333 5.33333333,5.66666667 C5.33333333,5.66666667 5.33333333,5.66666667 5.33333333,5.66666667 Z M4,5.66666667 C4,7.8332 5.58994,9.62836667 7.66666667,9.94903333 C7.66666667,9.94903333 7.66666667,11 7.66666667,11 C7.66666667,11 5.33333333,11 5.33333333,11 C5.33333333,11 5.33333333,12.3333333 5.33333333,12.3333333 C5.33333333,12.3333333 7.66666667,12.3333333 7.66666667,12.3333333 C7.66666667,12.3333333 7.66666667,14.3333333 7.66666667,14.3333333 C7.66666667,14.3333333 9,14.3333333 9,14.3333333 C9,14.3333333 9,12.3333333 9,12.3333333 C9,12.3333333 11.3333333,12.3333333 11.3333333,12.3333333 C11.3333333,12.3333333 11.3333333,11 11.3333333,11 C11.3333333,11 9,11 9,11 C9,11 9,9.94903333 9,9.94903333 C11.0767333,9.62836667 12.6666667,7.8332 12.6666667,5.66666667 C12.6666667,3.27343333 10.7265667,1.33333333 8.33333333,1.33333333 C5.9401,1.33333333 4,3.27343333 4,5.66666667 Z" id="形状" fill="#999999"></path>
    </g>
</svg>