<?xml version="1.0" encoding="UTF-8"?>
<svg width="16px" height="16px" viewBox="0 0 16 16" version="1.1" xmlns="http://www.w3.org/2000/svg" xmlns:xlink="http://www.w3.org/1999/xlink">
    <title>icon/通用类/icon-general-line-codesquare</title>
    <g id="icon/通用类/icon-general-line-codesquare" stroke="none" stroke-width="1" fill="none" fill-rule="evenodd">
        <path d="M2,2.33333333 C2,1.78105 2.44771333,1.33333333 3,1.33333333 C3,1.33333333 13,1.33333333 13,1.33333333 C13.5523,1.33333333 14,1.78105 14,2.33333333 C14,2.33333333 14,13.6666667 14,13.6666667 C14,14.2189667 13.5523,14.6666667 13,14.6666667 C13,14.6666667 3,14.6666667 3,14.6666667 C2.44771667,14.6666667 2,14.2189667 2,13.6666667 C2,13.6666667 2,2.33333333 2,2.33333333 C2,2.33333333 2,2.33333333 2,2.33333333 Z M3.33333333,2.66666667 C3.33333333,2.66666667 3.33333333,13.3333333 3.33333333,13.3333333 C3.33333333,13.3333333 12.6666667,13.3333333 12.6666667,13.3333333 C12.6666667,13.3333333 12.6666667,2.66666667 12.6666667,2.66666667 C12.6666667,2.66666667 3.33333333,2.66666667 3.33333333,2.66666667 C3.33333333,2.66666667 3.33333333,2.66666667 3.33333333,2.66666667 Z M6.27613333,8.0237 C6.27613333,8.0237 8.16176667,6.13806667 8.16176667,6.13806667 C8.16176667,6.13806667 7.21896667,5.19526667 7.21896667,5.19526667 C7.21896667,5.19526667 4.39052333,8.0237 4.39052333,8.0237 C4.39052333,8.0237 7.21896667,10.8521 7.21896667,10.8521 C7.21896667,10.8521 8.16176667,9.9093 8.16176667,9.9093 C8.16176667,9.9093 6.27613333,8.0237 6.27613333,8.0237 C6.27613333,8.0237 6.27613333,8.0237 6.27613333,8.0237 Z M8.6665,10.4849333 C8.6665,10.4849333 10.0468667,5.33333333 10.0468667,5.33333333 C10.0468667,5.33333333 11.3347667,5.67843333 11.3347667,5.67843333 C11.3347667,5.67843333 9.9544,10.8300333 9.9544,10.8300333 C9.9544,10.8300333 8.6665,10.4849333 8.6665,10.4849333 C8.6665,10.4849333 8.6665,10.4849333 8.6665,10.4849333 Z" id="形状" fill="#999999"></path>
    </g>
</svg>