<?xml version="1.0" encoding="UTF-8"?>
<svg width="16px" height="16px" viewBox="0 0 16 16" version="1.1" xmlns="http://www.w3.org/2000/svg" xmlns:xlink="http://www.w3.org/1999/xlink">
    <title>icon/通用类/icon-general-line-language</title>
    <g id="icon/通用类/icon-general-line-language" stroke="none" stroke-width="1" fill="none" fill-rule="evenodd">
        <path d="M10.3332926,2.99996534 C10.3332926,2.99996534 6.61315931,2.99996534 6.61315931,2.99996534 C6.61315931,2.99996534 6.32035931,1.53588867 6.32035931,1.53588867 C6.32035931,1.53588867 5.01289264,1.79737701 5.01289264,1.79737701 C5.01289264,1.79737701 5.25342598,2.99996534 5.25342598,2.99996534 C5.25342598,2.99996534 1.66662598,2.99996534 1.66662598,2.99996534 C1.66662598,2.99996534 1.66662598,4.33329867 1.66662598,4.33329867 C1.66662598,4.33329867 3.16510931,4.33329867 3.16510931,4.33329867 C3.25383598,4.61342201 3.38535931,4.99105534 3.56465264,5.41292201 C3.87328264,6.13908867 4.34077264,7.03815534 5.00565931,7.79185534 C4.40447264,8.24705534 3.73483931,8.66045534 3.14723264,8.99165534 C2.74142264,9.22038867 2.38325264,9.40522201 2.12715598,9.53252201 C1.99923664,9.59612201 1.89713131,9.64522201 1.82769098,9.67808867 C1.79297964,9.69452201 1.76645864,9.70688867 1.74898531,9.71498867 C1.74898531,9.71498867 1.72967864,9.72388867 1.72967864,9.72388867 C1.72967864,9.72388867 1.72449398,9.72625534 1.72449398,9.72625534 C1.72449398,9.72625534 1.72460664,9.72618867 2.00003931,10.3332887 C2.27547598,10.940422 2.27650931,10.939922 2.27650931,10.939922 C2.27650931,10.939922 2.27847598,10.9390553 2.27847598,10.9390553 C2.27847598,10.9390553 2.28516264,10.9359887 2.28516264,10.9359887 C2.28516264,10.9359887 2.30926598,10.9248887 2.30926598,10.9248887 C2.32999598,10.9152887 2.35991598,10.901322 2.39815931,10.883222 C2.47462264,10.847022 2.58446931,10.7941887 2.72072931,10.7264553 C2.99299264,10.5910887 3.37209264,10.3954887 3.80192931,10.1531887 C4.46744264,9.77808867 5.27585931,9.27935534 5.99999264,8.70838867 C6.72415931,9.27935534 7.53255931,9.77808867 8.19805931,10.1531887 C8.62789264,10.3954887 9.00699264,10.5910887 9.27925931,10.7264553 C9.31342598,10.743422 9.34589264,10.7594553 9.37662598,10.7745553 C9.37662598,10.7745553 9.11112598,11.4095553 9.11112598,11.4095553 C9.11112598,11.4095553 8.04712598,14.087222 8.04712598,14.087222 C8.04712598,14.087222 9.28622598,14.5796553 9.28622598,14.5796553 C9.28622598,14.5796553 9.91385931,13.0000887 9.91385931,13.0000887 C9.91385931,13.0000887 12.752626,13.0000887 12.752626,13.0000887 C12.752626,13.0000887 13.3804926,14.5796553 13.3804926,14.5796553 C13.3804926,14.5796553 14.619526,14.0871553 14.619526,14.0871553 C14.619526,14.0871553 13.5596593,11.4204553 13.5596593,11.4204553 C13.5596593,11.4204553 11.9903926,7.66675534 11.9903926,7.66675534 C11.9903926,7.66675534 10.6759926,7.66675534 10.6759926,7.66675534 C10.6759926,7.66675534 9.89192598,9.54202201 9.89192598,9.54202201 C9.88562598,9.53888867 9.87925931,9.53572201 9.87285931,9.53252201 C9.61675931,9.40522201 9.25859264,9.22038867 8.85275931,8.99165534 C8.26515931,8.66045534 7.59552598,8.24705534 6.99432598,7.79185534 C7.65922598,7.03815534 8.12672598,6.13908867 8.43535931,5.41292201 C8.61462598,4.99105534 8.74615931,4.61342201 8.83489264,4.33329867 C8.83489264,4.33329867 10.3332926,4.33329867 10.3332926,4.33329867 C10.3332926,4.33329867 10.3332926,2.99996534 10.3332926,2.99996534 C10.3332926,2.99996534 10.3332926,2.99996534 10.3332926,2.99996534 Z M7.20822598,4.89138867 C6.92442598,5.55918867 6.52419264,6.30755534 5.99999264,6.90358867 C5.47582598,6.30755534 5.07559264,5.55918867 4.79175931,4.89138867 C4.70699931,4.69194867 4.63417264,4.50342867 4.57273264,4.33329867 C4.57273264,4.33329867 7.42725931,4.33329867 7.42725931,4.33329867 C7.36582598,4.50342867 7.29299264,4.69194867 7.20822598,4.89138867 C7.20822598,4.89138867 7.20822598,4.89138867 7.20822598,4.89138867 Z M12.2174593,11.6667553 C12.2174593,11.6667553 10.4488593,11.6667553 10.4488593,11.6667553 C10.4488593,11.6667553 11.3331926,9.55152201 11.3331926,9.55152201 C11.3331926,9.55152201 12.2174593,11.6667553 12.2174593,11.6667553 C12.2174593,11.6667553 12.2174593,11.6667553 12.2174593,11.6667553 Z" id="形状" fill="#999999"></path>
    </g>
</svg>