<?xml version="1.0" encoding="UTF-8"?>
<svg width="16px" height="16px" viewBox="0 0 16 16" version="1.1" xmlns="http://www.w3.org/2000/svg" xmlns:xlink="http://www.w3.org/1999/xlink">
    <title>icon/通用类/el-icon-folder-checked</title>
    <g id="icon/通用类/el-icon-folder-checked" stroke="none" stroke-width="1" fill="none" fill-rule="evenodd">
        <path d="M1.33333333,3.66666667 C1.33333333,3.07899333 1.82624333,2.66666667 2.35294,2.66666667 C2.35294,2.66666667 6.86443333,2.66666667 6.86443333,2.66666667 C7.18786667,2.66666667 7.50463333,2.81848867 7.70096667,3.09479 C7.70096667,3.09479 8.34413333,4 8.34413333,4 C8.34413333,4 13.2941333,4 13.2941333,4 C14.0157333,4 14.6666667,4.56156667 14.6666667,5.33333333 C14.6666667,5.33333333 14.6666667,12.3333333 14.6666667,12.3333333 C14.6666667,12.6701667 14.5361,13.0413 14.3582667,13.3252333 C14.2003,13.5774667 13.8500667,14 13.2941333,14 C13.2941333,14 2.70588333,14 2.70588333,14 C1.98426,14 1.33333333,13.4384333 1.33333333,12.6666667 C1.33333333,12.6666667 1.33333333,3.66666667 1.33333333,3.66666667 C1.33333333,3.66666667 1.33333333,3.66666667 1.33333333,3.66666667 Z M2.66666667,5.33333333 C2.66666667,5.33333333 2.66666667,12.6552667 2.66666667,12.6552667 C2.67288,12.6601333 2.68548667,12.6666667 2.70588333,12.6666667 C2.70588333,12.6666667 13.1938333,12.6666667 13.1938333,12.6666667 C13.2037,12.6542333 13.2154,12.6380667 13.2282333,12.6175667 C13.2613,12.5647667 13.2902,12.5019 13.3099,12.4407 C13.3195,12.4108667 13.3257667,12.385 13.3294333,12.3645 C13.3330667,12.3442667 13.3333333,12.3339667 13.3333333,12.3333667 C13.3333333,12.3333667 13.3333333,5.34474667 13.3333333,5.34474667 C13.3271333,5.33988 13.3145,5.33333333 13.2941333,5.33333333 C13.2941333,5.33333333 2.66666667,5.33333333 2.66666667,5.33333333 C2.66666667,5.33333333 2.66666667,5.33333333 2.66666667,5.33333333 Z" id="形状" fill="#999999"></path>
        <path d="M7.3654,9.32006667 C7.3654,9.32006667 9.95813333,6.72733333 9.95813333,6.72733333 C9.95813333,6.72733333 10.9009333,7.67013333 10.9009333,7.67013333 C10.9009333,7.67013333 7.3654,11.2056667 7.3654,11.2056667 C7.3654,11.2056667 5.24409,9.08433333 5.24409,9.08433333 C5.24409,9.08433333 6.1869,8.14153333 6.1869,8.14153333 C6.1869,8.14153333 7.3654,9.32006667 7.3654,9.32006667 C7.3654,9.32006667 7.3654,9.32006667 7.3654,9.32006667 Z" id="路径" fill="#999999"></path>
    </g>
</svg>