<?xml version="1.0" encoding="UTF-8"?>
<svg width="16px" height="16px" viewBox="0 0 16 16" version="1.1" xmlns="http://www.w3.org/2000/svg" xmlns:xlink="http://www.w3.org/1999/xlink">
    <title>icon/基础类/el-icon-arrow-right</title>
    <g id="icon/基础类/el-icon-arrow-right" stroke="none" stroke-width="1" fill="none" fill-rule="evenodd">
        <path d="M1.80473732,3.98544938 C1.80473732,3.98544938 3.13807063,3.98544938 3.13807063,3.98544938 C3.13807063,3.98544938 3.13807063,10.6521159 3.13807063,10.6521159 C3.13807063,10.6521159 9.80473732,10.6521159 9.80473732,10.6521159 C9.80473732,10.6521159 9.80473732,11.9854494 9.80473732,11.9854494 C9.80473732,11.9854494 2.47146397,11.9854494 2.47146397,11.9854494 C2.47142397,11.9854494 2.47140397,11.9854494 2.47140397,11.3187826 C2.47140397,11.3187826 2.47146397,11.9854494 2.47146397,11.9854494 C2.47146397,11.9854494 1.80473732,11.9854494 1.80473732,11.9854494 C1.80473732,11.9854494 1.80473732,3.98544938 1.80473732,3.98544938 C1.80473732,3.98544938 1.80473732,3.98544938 1.80473732,3.98544938 Z" id="路径" fill="#999999" transform="translate(5.8047, 7.9854) rotate(-135) translate(-5.8047, -7.9854)"></path>
    </g>
</svg>