<?xml version="1.0" encoding="UTF-8"?>
<svg width="16px" height="16px" viewBox="0 0 16 16" version="1.1" xmlns="http://www.w3.org/2000/svg" xmlns:xlink="http://www.w3.org/1999/xlink">
    <title>icon/通用类/icon-general-line-history</title>
    <g id="icon/通用类/icon-general-line-history" stroke="none" stroke-width="1" fill="none" fill-rule="evenodd">
        <path d="M1.39617312,7.08086667 C1.39617312,7.08086667 0.59435312,7.08086667 0.59435312,7.08086667 C0.59435312,7.08086667 1.99999979,9.21003333 1.99999979,9.21003333 C1.99999979,9.21003333 3.40564645,7.08086667 3.40564645,7.08086667 C3.40564645,7.08086667 2.74556979,7.08086667 2.74556979,7.08086667 C3.18113645,4.57336 5.36788645,2.66666667 7.99998645,2.66666667 C10.9455198,2.66666667 13.3333198,5.05446667 13.3333198,8 C13.3333198,10.9455333 10.9455198,13.3333333 7.99998645,13.3333333 C6.14555312,13.3333333 4.51175312,12.3874333 3.55515645,10.9486667 C3.55515645,10.9486667 2.44484312,11.6869 2.44484312,11.6869 C3.63807979,13.4815667 5.68048645,14.6666667 7.99998645,14.6666667 C11.6818865,14.6666667 14.6666531,11.6819 14.6666531,8 C14.6666531,4.3181 11.6818865,1.33333333 7.99998645,1.33333333 C4.62995312,1.33333333 1.84391979,3.83392667 1.39617312,7.08086667 C1.39617312,7.08086667 1.39617312,7.08086667 1.39617312,7.08086667 Z M8.66666667,5.66666667 C8.66666667,5.66666667 7.33333333,5.66666667 7.33333333,5.66666667 C7.33333333,5.66666667 7.33333333,9.33333333 7.33333333,9.33333333 C7.33333333,9.33333333 10.6666531,9.33333333 10.6666531,9.33333333 C10.6666531,9.33333333 10.6666531,8 10.6666531,8 C10.6666531,8 8.66666667,8 8.66666667,8 C8.66666667,8 8.66666667,5.66666667 8.66666667,5.66666667 Z" id="形状" fill="#999999"></path>
    </g>
</svg>