<?xml version="1.0" encoding="UTF-8"?>
<svg width="16px" height="16px" viewBox="0 0 16 16" version="1.1" xmlns="http://www.w3.org/2000/svg" xmlns:xlink="http://www.w3.org/1999/xlink">
    <title>icon/面性/el-icon-s-shop</title>
    <g id="icon/面性/el-icon-s-shop" stroke="none" stroke-width="1" fill="none" fill-rule="evenodd">
        <path d="M11.501064,7.33333333 C11.501064,8.27870617 10.7168842,9.04376974 9.75100464,9.04376974 C8.78512506,9.04376974 8.00059363,8.27885001 8.00059363,7.33333333 C8.00059363,8.27870617 7.21670155,9.04376974 6.25051826,9.04376974 C5.28438294,9.04376974 4.50045889,8.27885001 4.50045889,7.33333333 C4.50045889,8.27870617 3.71648689,9.04376974 2.75006386,9.04376974 C1.78418426,9.04376974 1,8.27885001 1,7.33333333 L2.33333333,4 L13.6666667,4 L15,7.33333333 C15.0015344,8.27885001 14.2172747,9.04376974 13.2511234,9.04376974 C12.2851159,9.04376974 11.501064,8.27885001 11.501064,7.33333333 Z M12.6666547,2.66666667 L3.33363948,2.66666667 C2.96543934,2.66666667 2.6669443,2.36820013 2.66690914,2 C2.66687398,1.63184533 2.96529381,1.3333685 3.33344848,1.33333334 C3.3334697,1.33333333 3.33349092,1.33333333 3.33351214,1.33333333 L12.6668455,1.33333333 C13.0349826,1.33333333 13.3334168,1.63176748 13.3334168,1.99990465 C13.3334168,1.99993644 13.3334168,1.99996822 13.3334168,2 C13.3333641,2.36820526 13.03486,2.66666667 12.6666547,2.66666667 Z M4,10 L4,13.3333333 L12,13.3333333 L12,10 L13.3333333,10 L13.3333333,13.3333333 C13.3333333,14.069713 12.7363797,14.6666667 12,14.6666667 L4,14.6666667 C3.26362033,14.6666667 2.66666667,14.069713 2.66666667,13.3333333 L2.66666667,10 L4,10 Z" id="形状" fill="#999999" fill-rule="nonzero"></path>
    </g>
</svg>