<?xml version="1.0" encoding="UTF-8"?>
<svg width="16px" height="16px" viewBox="0 0 16 16" version="1.1" xmlns="http://www.w3.org/2000/svg" xmlns:xlink="http://www.w3.org/1999/xlink">
    <title>icon/通用类/el-icon-document-checked</title>
    <g id="icon/通用类/el-icon-document-checked" stroke="none" stroke-width="1" fill="none" fill-rule="evenodd">
        <path d="M2.66666667,2.66666667 C2.66666667,1.93028667 3.26362,1.33333333 4,1.33333333 C4,1.33333333 11.2761333,1.33333333 11.2761333,1.33333333 C11.2761333,1.33333333 14,4.05719 14,4.05719 C14,4.05719 14,13.3333333 14,13.3333333 C14,14.0697 13.4030333,14.6666667 12.6666667,14.6666667 C12.6666667,14.6666667 4,14.6666667 4,14.6666667 C3.26362,14.6666667 2.66666667,14.0697 2.66666667,13.3333333 C2.66666667,13.3333333 2.66666667,2.66666667 2.66666667,2.66666667 C2.66666667,2.66666667 2.66666667,2.66666667 2.66666667,2.66666667 Z M10.7238667,2.66666667 C10.7238667,2.66666667 4,2.66666667 4,2.66666667 C4,2.66666667 4,13.3333333 4,13.3333333 C4,13.3333333 12.6666667,13.3333333 12.6666667,13.3333333 C12.6666667,13.3333333 12.6666667,4.60947667 12.6666667,4.60947667 C12.6666667,4.60947667 10.7238667,2.66666667 10.7238667,2.66666667 C10.7238667,2.66666667 10.7238667,2.66666667 10.7238667,2.66666667 Z" id="形状" fill="#999999"></path>
        <path d="M10.1091347,5.67365051 C10.1091347,5.67365051 11.0519347,6.61645051 11.0519347,6.61645051 C11.0519347,6.61645051 7.51640134,10.1519838 7.51640134,10.1519838 C7.51640134,10.1519838 5.39509134,8.03065051 5.39509134,8.03065051 C5.39509134,8.03065051 6.33790134,7.08785051 6.33790134,7.08785051 C6.33790134,7.08785051 7.51640134,8.26638384 7.51640134,8.26638384 C7.51640134,8.26638384 10.1091347,5.67365051 10.1091347,5.67365051 Z" id="路径" fill="#999999"></path>
    </g>
</svg>