<?xml version="1.0" encoding="UTF-8"?>
<svg width="16px" height="16px" viewBox="0 0 16 16" version="1.1" xmlns="http://www.w3.org/2000/svg" xmlns:xlink="http://www.w3.org/1999/xlink">
    <title>icon/基础类/icon-basic-line-filter</title>
    <g id="icon/基础类/icon-basic-line-filter" stroke="none" stroke-width="1" fill="none" fill-rule="evenodd">
        <g id="icon/编辑类/filter" fill="#999999">
            <path d="M1.66666667,2.66666667 C1.66666667,2.11438333 2.11438333,1.66666667 2.66666667,1.66666667 C2.66666667,1.66666667 13.3333333,1.66666667 13.3333333,1.66666667 C13.8856,1.66666667 14.3333333,2.11438 14.3333333,2.66666667 C14.3333333,2.66666667 14.3333333,4.81701667 14.3333333,4.81701667 C14.3333333,5.15893333 14.1586667,5.47713333 13.8702,5.66066667 C13.8702,5.66066667 10.6666667,7.6993 10.6666667,7.6993 C10.6666667,7.6993 10.6666667,14 10.6666667,14 C10.6666667,14 9.33333333,14 9.33333333,14 C9.33333333,14 9.33333333,7.5163 9.33333333,7.5163 C9.33333333,7.1744 9.508,6.8562 9.79646667,6.67266667 C9.79646667,6.67266667 13,4.63403667 13,4.63403667 C13,4.63403667 13,3 13,3 C13,3 3,3 3,3 C3,3 3,4.63403667 3,4.63403667 C3,4.63403667 6.20353333,6.67266667 6.20353333,6.67266667 C6.492,6.8562 6.66666667,7.1744 6.66666667,7.5163 C6.66666667,7.5163 6.66666667,12.3333333 6.66666667,12.3333333 C6.66666667,12.3333333 5.33333333,12.3333333 5.33333333,12.3333333 C5.33333333,12.3333333 5.33333333,7.6993 5.33333333,7.6993 C5.33333333,7.6993 2.12979,5.66066667 2.12979,5.66066667 C1.841343,5.47713333 1.66666667,5.15893333 1.66666667,4.81701667 C1.66666667,4.81701667 1.66666667,2.66666667 1.66666667,2.66666667 C1.66666667,2.66666667 1.66666667,2.66666667 1.66666667,2.66666667 Z" id="路径"></path>
        </g>
    </g>
</svg>