<?xml version="1.0" encoding="UTF-8"?>
<svg width="16px" height="16px" viewBox="0 0 16 16" version="1.1" xmlns="http://www.w3.org/2000/svg" xmlns:xlink="http://www.w3.org/1999/xlink">
    <title>icon/面性/icon-basic-file-edit</title>
    <g id="icon/面性/icon-basic-file-edit" stroke="none" stroke-width="1" fill="none" fill-rule="evenodd">
        <path d="M11.299842,1.87171368 C11.5601753,1.61136435 11.9822753,1.61136435 12.242642,1.87171368 C12.242642,1.87171368 14.128242,3.75733168 14.128242,3.75733168 C14.3886086,4.01768168 14.3886086,4.43979168 14.128242,4.70014168 C14.128242,4.70014168 13.656842,5.17155168 13.656842,5.17155168 C13.656842,5.17155168 10.828442,2.34311835 10.828442,2.34311835 C10.828442,2.34311835 11.299842,1.87171368 11.299842,1.87171368 C11.299842,1.87171368 11.299842,1.87171368 11.299842,1.87171368 Z M10.3570086,2.81453502 C10.3570086,2.81453502 13.185442,5.64295168 13.185442,5.64295168 C13.185442,5.64295168 6.35007531,12.4783183 6.35007531,12.4783183 C6.35007531,12.4783183 3.52165865,9.64988502 3.52165865,9.64988502 C3.52165865,9.64988502 10.3570086,2.81453502 10.3570086,2.81453502 C10.3570086,2.81453502 10.3570086,2.81453502 10.3570086,2.81453502 Z M3.05025198,10.1213517 C3.05025198,10.1213517 5.87867531,12.9497517 5.87867531,12.9497517 C5.87867531,12.9497517 2.26849531,14.1531517 2.26849531,14.1531517 C2.00790798,14.2400183 1.75999531,13.9921183 1.84685725,13.7315183 C1.84685725,13.7315183 3.05025198,10.1213517 3.05025198,10.1213517 C3.05025198,10.1213517 3.05025198,10.1213517 3.05025198,10.1213517 Z" id="形状" fill="#999999"></path>
    </g>
</svg>