<?xml version="1.0" encoding="UTF-8"?>
<svg width="16px" height="16px" viewBox="0 0 16 16" version="1.1" xmlns="http://www.w3.org/2000/svg" xmlns:xlink="http://www.w3.org/1999/xlink">
    <title>icon/面性/el-icon-s-custom</title>
    <g id="icon/面性/el-icon-s-custom" stroke="none" stroke-width="1" fill="none" fill-rule="evenodd">
        <path d="M10,8.66666014 C11.84095,8.66666014 14,10.0952183 14,12.666685 L14,14.6666824 C14,15.034882 13.7015,15.3332816 13.3333,15.3332816 L2.666667,15.3332816 C2.298477,15.3332816 2,15.034882 2,14.6666824 L2,12.666685 C2,10.0973783 4.15905,8.66666014 6,8.66666014 L6.2,8.70148257 L8,11.9104336 L9.8,8.70148257 L10,8.66666014 Z M8,1 C9.84095,1 11.33333,2.49237808 11.33333,4.33332571 C11.33333,6.17427335 9.84095,7.66666143 8,7.66666143 C6.15905,7.66666143 4.66667,6.17427335 4.66667,4.33332571 C4.66667,2.49237808 6.15905,1 8,1 Z" id="形状" fill="#999999"></path>
    </g>
</svg>