<?xml version="1.0" encoding="UTF-8"?>
<svg width="16px" height="16px" viewBox="0 0 16 16" version="1.1" xmlns="http://www.w3.org/2000/svg" xmlns:xlink="http://www.w3.org/1999/xlink">
    <title>icon/通用类/icon-general-line-pushpin</title>
    <g id="icon/通用类/icon-general-line-pushpin" stroke="none" stroke-width="1" fill="none" fill-rule="evenodd">
        <path d="M9.54246667,2.39052338 C10.0631667,1.86982538 10.9074,1.86982571 11.4281,2.39052338 C11.4281,2.39052338 14.2565333,5.21895004 14.2565333,5.21895004 C14.7772,5.73966671 14.7772,6.58386671 14.2565333,7.10456671 C14.2565333,7.10456671 12.9030667,8.45803338 12.9030667,8.45803338 C13.2159667,9.58780004 12.904,10.8141334 12.0591667,11.6589334 C12.0591667,11.6589334 10.3525,13.3656334 10.3525,13.3656334 C10.0353,13.6828 9.52103333,13.6828 9.20386667,13.3656334 C9.20386667,13.3656334 6.71403333,10.8758 6.71403333,10.8758 C6.71403333,10.8758 2.94281,14.6470334 2.94281,14.6470334 C2.94281,14.6470334 2,13.7042334 2,13.7042334 C2,13.7042334 5.77123333,9.93300004 5.77123333,9.93300004 C5.77123333,9.93300004 3.31786667,7.47963338 3.31786667,7.47963338 C2.98055333,7.14230004 2.98055333,6.59543338 3.31786667,6.25810004 C3.31786667,6.25810004 4.99349333,4.58248004 4.99349333,4.58248004 C5.837,3.73898671 7.06213333,3.42848004 8.18976667,3.74323338 C8.18976667,3.74323338 9.54246667,2.39052338 9.54246667,2.39052338 C9.54246667,2.39052338 9.54246667,2.39052338 9.54246667,2.39052338 Z M10.4852667,3.33333337 C10.4852667,3.33333337 8.8555,4.96310004 8.8555,4.96310004 C8.6506,5.16802671 8.34153333,5.22754671 8.07516667,5.11338337 C7.34503333,4.80047671 6.498,4.96360671 5.9363,5.52530004 C5.9363,5.52530004 4.59272333,6.86886671 4.59272333,6.86886671 C4.59272333,6.86886671 9.77816667,12.0543334 9.77816667,12.0543334 C9.77816667,12.0543334 11.1163667,10.7161334 11.1163667,10.7161334 C11.6813,10.1512 11.8453667,9.29923337 11.5306667,8.56486671 C11.4183,8.30273337 11.4768667,7.99860004 11.6785667,7.79693337 C11.6785667,7.79693337 13.3137,6.16176671 13.3137,6.16176671 C13.3137,6.16176671 10.4852667,3.33333337 10.4852667,3.33333337 C10.4852667,3.33333337 10.4852667,3.33333337 10.4852667,3.33333337 Z" id="形状" fill="#999999"></path>
    </g>
</svg>