<?xml version="1.0" encoding="UTF-8"?>
<svg width="16px" height="16px" viewBox="0 0 16 16" version="1.1" xmlns="http://www.w3.org/2000/svg" xmlns:xlink="http://www.w3.org/1999/xlink">
    <title>icon/编辑类/el-icon-c-scale-to-original</title>
    <g id="icon/编辑类/el-icon-c-scale-to-original" stroke="none" stroke-width="1" fill="none" fill-rule="evenodd">
        <path d="M4.96481,2.66666667 C4.96481,2.66666667 3.80743,2.66666667 3.80743,2.66666667 C3.80743,2.66666667 2,3.57038333 2,3.57038333 C2,3.57038333 2.59628333,4.76295 2.59628333,4.76295 C2.59628333,4.76295 3.63147667,4.24535667 3.63147667,4.24535667 C3.63147667,4.24535667 3.63147667,14 3.63147667,14 C3.63147667,14 4.96481,14 4.96481,14 C4.96481,14 4.96481,2.66666667 4.96481,2.66666667 C4.96481,2.66666667 4.96481,2.66666667 4.96481,2.66666667 Z M14.4648,2.66666667 C14.4648,2.66666667 13.3074333,2.66666667 13.3074333,2.66666667 C13.3074333,2.66666667 11.5,3.57038333 11.5,3.57038333 C11.5,3.57038333 12.0963,4.76295 12.0963,4.76295 C12.0963,4.76295 13.1314667,4.24535667 13.1314667,4.24535667 C13.1314667,4.24535667 13.1314667,14 13.1314667,14 C13.1314667,14 14.4648,14 14.4648,14 C14.4648,14 14.4648,2.66666667 14.4648,2.66666667 C14.4648,2.66666667 14.4648,2.66666667 14.4648,2.66666667 Z M9.4648,5.33333333 C9.4648,5.33333333 7.79813333,5.33333333 7.79813333,5.33333333 C7.79813333,5.33333333 7.79813333,7 7.79813333,7 C7.79813333,7 9.4648,7 9.4648,7 C9.4648,7 9.4648,5.33333333 9.4648,5.33333333 C9.4648,5.33333333 9.4648,5.33333333 9.4648,5.33333333 Z M9.4648,9.66666667 C9.4648,9.66666667 7.79813333,9.66666667 7.79813333,9.66666667 C7.79813333,9.66666667 7.79813333,11.3333333 7.79813333,11.3333333 C7.79813333,11.3333333 9.4648,11.3333333 9.4648,11.3333333 C9.4648,11.3333333 9.4648,9.66666667 9.4648,9.66666667 C9.4648,9.66666667 9.4648,9.66666667 9.4648,9.66666667 Z" id="形状" fill="#999999"></path>
    </g>
</svg>