<?xml version="1.0" encoding="UTF-8"?>
<svg width="16px" height="16px" viewBox="0 0 16 16" version="1.1" xmlns="http://www.w3.org/2000/svg" xmlns:xlink="http://www.w3.org/1999/xlink">
    <title>icon/通用类/icon-general-line-code</title>
    <g id="icon/通用类/icon-general-line-code" stroke="none" stroke-width="1" fill="none" fill-rule="evenodd">
        <path d="M2.74947433,8.00000085 C2.74947433,8.00000085 6.049291,4.70016418 6.049291,4.70016418 C6.049291,4.70016418 5.106491,3.75735418 5.106491,3.75735418 C5.106491,3.75735418 0.863857667,8.00000085 0.863857667,8.00000085 C0.863857667,8.00000085 5.106491,12.2426342 5.106491,12.2426342 C5.106491,12.2426342 6.049291,11.2998342 6.049291,11.2998342 C6.049291,11.2998342 2.74947433,8.00000085 2.74947433,8.00000085 C2.74947433,8.00000085 2.74947433,8.00000085 2.74947433,8.00000085 Z M10.889791,3.75735418 C10.889791,3.75735418 15.1324577,8.00000085 15.1324577,8.00000085 C15.1324577,8.00000085 10.889791,12.2426342 10.889791,12.2426342 C10.889791,12.2426342 9.946991,11.2998342 9.946991,11.2998342 C9.946991,11.2998342 13.2468243,8.00000085 13.2468243,8.00000085 C13.2468243,8.00000085 9.946991,4.70016418 9.946991,4.70016418 C9.946991,4.70016418 10.889791,3.75735418 10.889791,3.75735418 C10.889791,3.75735418 10.889791,3.75735418 10.889791,3.75735418 Z" id="形状" fill="#999999"></path>
        <rect id="矩形" fill="#999999" transform="translate(8, 8) scale(-1, 1) rotate(75) translate(-8, -8)" x="2" y="7.33333333" width="12" height="1.33333333"></rect>
    </g>
</svg>