<?xml version="1.0" encoding="UTF-8"?>
<svg width="16px" height="16px" viewBox="0 0 16 16" version="1.1" xmlns="http://www.w3.org/2000/svg" xmlns:xlink="http://www.w3.org/1999/xlink">
    <title>icon/面性/el-icon-s-cooperation</title>
    <g id="icon/面性/el-icon-s-cooperation" stroke="none" stroke-width="1" fill="none" fill-rule="evenodd">
        <path d="M14.6666667,8.66666667 L14.6666667,13.8403558 C14.6666667,14.2759869 14.3674667,14.632843 13.9880889,14.664353 L13.9333333,14.6666667 L2.06666667,14.6666667 C1.68006702,14.6666667 1.36333938,14.3295318 1.3353447,13.9020537 L1.33333333,13.8403558 L1.33333333,8.66666667 L14.6666667,8.66666667 Z" id="E09C4162-2E19-4B1A-9169-1438C6FBF7A7" fill="#999999"></path>
        <path d="M2.66666667,4 L13.3333333,4 C14.069713,4 14.6666667,4.59695367 14.6666667,5.33333333 L14.6666667,7.33333333 L1.33333333,7.33333333 L1.33333333,5.33333333 C1.33333333,4.59695367 1.930287,4 2.66666667,4 Z" id="矩形" fill="#999999"></path>
        <path d="M10,1.33333333 C11.1045695,1.33333333 12,2.22876383 12,3.33333333 L12,6 L10.6666667,6 L10.6666667,3.33333333 C10.6666667,2.9651435 10.3681898,2.66666667 10,2.66666667 L6,2.66666667 C5.63181017,2.66666667 5.33333333,2.9651435 5.33333333,3.33333333 L5.33333333,6 L4,6 L4,3.33333333 C4,2.22876383 4.8954305,1.33333333 6,1.33333333 L10,1.33333333 Z" id="路径-25" fill="#979797" fill-rule="nonzero"></path>
    </g>
</svg>