<?xml version="1.0" encoding="UTF-8"?>
<svg width="16px" height="16px" viewBox="0 0 16 16" version="1.1" xmlns="http://www.w3.org/2000/svg" xmlns:xlink="http://www.w3.org/1999/xlink">
    <title>icon/通用类/icon-general-line-keyboard</title>
    <g id="icon/通用类/icon-general-line-keyboard" stroke="none" stroke-width="1" fill="none" fill-rule="evenodd">
        <path d="M12.6666667,2 C13.4030463,2 14,2.59695367 14,3.33333333 L14,12.6666667 C14,13.4030463 13.4030463,14 12.6666667,14 L3.33333333,14 C2.59695367,14 2,13.4030463 2,12.6666667 L2,3.33333333 C2,2.59695367 2.59695367,2 3.33333333,2 L12.6666667,2 Z M10.39,11.333 L3.333,11.333 L3.33333333,12.6666667 L11.723,12.666 L10.39,11.333 Z M12.6666667,3.33333333 L11.333,3.333 L11.333,10.39 L12.666,11.723 L12.6666667,3.33333333 Z M10,3.333 L3.33333333,3.33333333 L3.333,10 L10,10 L10,3.333 Z M8.66666667,4.66666667 L8.66666667,7.33333333 C8.66666667,7.70152317 8.36818983,8 8,8 L6.666,8 L6.66666667,8.33333333 C6.66666667,8.9272699 5.94857205,9.22471443 5.52859548,8.80473785 L4.52859548,7.80473785 C4.26824595,7.54438833 4.26824595,7.12227834 4.52859548,6.86192881 L5.52859548,5.86192881 C5.94857205,5.44195224 6.66666667,5.73939677 6.66666667,6.33333333 L6.666,6.666 L7.33333333,6.66666667 L7.33333333,4.66666667 L8.66666667,4.66666667 Z" id="形状结合" fill="#999999"></path>
    </g>
</svg>