<?xml version="1.0" encoding="UTF-8"?>
<svg width="16px" height="16px" viewBox="0 0 16 16" version="1.1" xmlns="http://www.w3.org/2000/svg" xmlns:xlink="http://www.w3.org/1999/xlink">
    <title>icon/编辑类/icon-edit-line-aligncenter</title>
    <g id="icon/编辑类/icon-edit-line-aligncenter" stroke="none" stroke-width="1" fill="none" fill-rule="evenodd">
        <path d="M1.33333333,2.66666667 C1.33333333,2.66666667 14.6666667,2.66666667 14.6666667,2.66666667 C14.6666667,2.66666667 14.6666667,4 14.6666667,4 C14.6666667,4 1.33333333,4 1.33333333,4 C1.33333333,4 1.33333333,2.66666667 1.33333333,2.66666667 C1.33333333,2.66666667 1.33333333,2.66666667 1.33333333,2.66666667 Z M4.66666667,6 C4.66666667,6 11.3333333,6 11.3333333,6 C11.3333333,6 11.3333333,7.33333333 11.3333333,7.33333333 C11.3333333,7.33333333 4.66666667,7.33333333 4.66666667,7.33333333 C4.66666667,7.33333333 4.66666667,6 4.66666667,6 C4.66666667,6 4.66666667,6 4.66666667,6 Z M2,9.33333333 C2,9.33333333 14,9.33333333 14,9.33333333 C14,9.33333333 14,10.6666667 14,10.6666667 C14,10.6666667 2,10.6666667 2,10.6666667 C2,10.6666667 2,9.33333333 2,9.33333333 C2,9.33333333 2,9.33333333 2,9.33333333 Z M4.66666667,12.6666667 C4.66666667,12.6666667 11.3333333,12.6666667 11.3333333,12.6666667 C11.3333333,12.6666667 11.3333333,14 11.3333333,14 C11.3333333,14 4.66666667,14 4.66666667,14 C4.66666667,14 4.66666667,12.6666667 4.66666667,12.6666667 C4.66666667,12.6666667 4.66666667,12.6666667 4.66666667,12.6666667 Z" id="形状" fill="#999999"></path>
    </g>
</svg>