<?xml version="1.0" encoding="UTF-8"?>
<svg width="16px" height="16px" viewBox="0 0 16 16" version="1.1" xmlns="http://www.w3.org/2000/svg" xmlns:xlink="http://www.w3.org/1999/xlink">
    <title>icon/通用类/icon-general-line-clouddownload</title>
    <g id="icon/通用类/icon-general-line-clouddownload" stroke="none" stroke-width="1" fill="none" fill-rule="evenodd">
        <path d="M5.33333333,7.33266667 C5.33333333,7.3329 5.33333333,7.3331 5.33333333,7.33333333 C5.33333333,7.33333333 5.33456667,7.94853333 5.33456667,7.94853333 C5.33456667,7.94853333 4.73993333,8.01426667 4.73993333,8.01426667 C3.57398333,8.14313333 2.66666667,9.13273333 2.66666667,10.3333333 C2.66666667,11.622 3.71133667,12.6666667 5,12.6666667 C5,12.6666667 9.33333333,12.6666667 9.33333333,12.6666667 C9.33333333,12.6666667 9.33333333,14 9.33333333,14 C9.33333333,14 5,14 5,14 C2.97495667,14 1.33333333,12.3583667 1.33333333,10.3333333 C1.33333333,8.64486667 2.47414667,7.2236 4.02731333,6.79723333 C4.30521667,4.08601667 6.66866667,2 9.5,2 C12.5153333,2 15,4.36595667 15,7.33333333 C15,7.33333333 13.6666667,7.33333333 13.6666667,7.33333333 C13.6666667,5.14605 11.8234333,3.33333333 9.5,3.33333333 C7.1768,3.33333333 5.3337,5.14568333 5.33333333,7.33266667 C5.33333333,7.33266667 5.33333333,7.33266667 5.33333333,7.33266667 Z M11.69,12.1042333 C11.69,12.1042333 11.69,8.66666667 11.69,8.66666667 C11.69,8.66666667 13.0233333,8.66666667 13.0233333,8.66666667 C13.0233333,8.66666667 13.0233333,12.1049333 13.0233333,12.1049333 C13.0233333,12.1049333 14.2426333,10.8856333 14.2426333,10.8856333 C14.2426333,10.8856333 15.1854667,11.8284333 15.1854667,11.8284333 C15.1854667,11.8284333 12.3570333,14.6568667 12.3570333,14.6568667 C12.3570333,14.6568667 9.5286,11.8284333 9.5286,11.8284333 C9.5286,11.8284333 10.4714,10.8856333 10.4714,10.8856333 C10.4714,10.8856333 11.69,12.1042333 11.69,12.1042333 C11.69,12.1042333 11.69,12.1042333 11.69,12.1042333 Z" id="形状" fill="#999999"></path>
    </g>
</svg>