<?xml version="1.0" encoding="UTF-8"?>
<svg width="16px" height="16px" viewBox="0 0 16 16" version="1.1" xmlns="http://www.w3.org/2000/svg" xmlns:xlink="http://www.w3.org/1999/xlink">
    <title>icon/面性/el-icon-s-ticket</title>
    <g id="icon/面性/el-icon-s-ticket" stroke="none" stroke-width="1" fill="none" fill-rule="evenodd">
        <path d="M10,2.66666667 L10,5.33333333 L11.3333333,5.33333333 L11.3333333,2.66666667 L15.3333333,2.66666667 L15.3329229,5.3570217 C14.2023583,5.51894149 13.3333333,6.49131825 13.3333333,7.66666667 C13.3333333,8.84201508 14.2023583,9.81439184 15.3329229,9.97631164 L15.3333333,13.3333333 L11.3333333,13.3333333 L11.3333333,10.6666667 L10,10.6666667 L10,13.3333333 L0.666666667,13.3333333 L0.666282718,9.97642527 C1.79723461,9.81484729 2.66666667,8.84229034 2.66666667,7.66666667 C2.66666667,6.49104299 1.79723461,5.51848605 0.666282718,5.35690807 L0.666666667,2.66666667 L10,2.66666667 Z M11.3333333,6.66666667 L10,6.66666667 L10,9.33333333 L11.3333333,9.33333333 L11.3333333,6.66666667 Z" id="形状结合" fill="#999999"></path>
    </g>
</svg>