<?xml version="1.0" encoding="UTF-8"?>
<svg width="16px" height="16px" viewBox="0 0 16 16" version="1.1" xmlns="http://www.w3.org/2000/svg" xmlns:xlink="http://www.w3.org/1999/xlink">
    <title>icon/基础类/el-icon-add-location</title>
    <g id="icon/基础类/el-icon-add-location" stroke="none" stroke-width="1" fill="none" fill-rule="evenodd">
        <path d="M3.66666667,6.8018 C3.66666667,4.31706333 5.62341333,2.33333333 8,2.33333333 C10.3766,2.33333333 12.3333333,4.31706333 12.3333333,6.8018 C12.3333333,7.33823333 12.0882333,8.0418 11.6367667,8.8499 C11.1944,9.6417 10.5959,10.4608 9.98393333,11.2090333 C9.37403333,11.9548 8.76226667,12.6161667 8.3021,13.0918 C8.19176667,13.2058667 8.09036667,13.3090333 8,13.3998667 C7.90963333,13.3090333 7.80823333,13.2058667 7.6979,13.0918 C7.23773333,12.6161667 6.62596667,11.9548 6.01606667,11.2090333 C5.40409667,10.4608 4.8056,9.6417 4.36324667,8.8499 C3.91175667,8.0418 3.66666667,7.33823333 3.66666667,6.8018 C3.66666667,6.8018 3.66666667,6.8018 3.66666667,6.8018 Z M7.54343333,14.8191 C7.54353333,14.8192333 7.54363333,14.8193 8,14.3333333 C8.45636667,14.8193 8.45646667,14.8192333 8.45656667,14.8191 C8.45656667,14.8191 8,15.2478667 8,15.2478667 C8,15.2478667 7.54343333,14.8191 7.54343333,14.8191 C7.54343333,14.8191 7.54343333,14.8191 7.54343333,14.8191 Z M7.54343333,14.8191 C7.54343333,14.8191 8,14.3333333 8,14.3333333 C8,14.3333333 8.45656667,14.8191 8.45656667,14.8191 C8.45656667,14.8191 8.45786667,14.8179 8.45786667,14.8179 C8.45786667,14.8179 8.46116667,14.8148 8.46116667,14.8148 C8.46116667,14.8148 8.47306667,14.8035333 8.47306667,14.8035333 C8.48333333,14.7938 8.4982,14.7796667 8.51733333,14.7613 C8.55563333,14.7246333 8.61113333,14.6710667 8.68136667,14.6022667 C8.8218,14.4647 9.02136667,14.2659667 9.2604,14.0189 C9.73773333,13.5255 10.3759667,12.8357667 11.0160667,12.0531333 C11.6541,11.273 12.3056,10.3865 12.8007333,9.50023333 C13.2867667,8.6303 13.6666667,7.6834 13.6666667,6.8018 C13.6666667,3.61442667 11.1462667,1 8,1 C4.85374,1 2.33333333,3.61442667 2.33333333,6.8018 C2.33333333,7.6834 2.71324333,8.6303 3.19925333,9.50023333 C3.6944,10.3865 4.34590333,11.273 4.98394667,12.0531333 C5.62402,12.8357667 6.26226667,13.5255 6.7396,14.0189 C6.97863333,14.2659667 7.1782,14.4647 7.31863333,14.6022667 C7.38886667,14.6710667 7.44436667,14.7246333 7.48266667,14.7613 C7.48266667,14.7613 7.50243333,14.7802 7.50243333,14.7802 C7.50243333,14.7802 7.52693333,14.8035333 7.52693333,14.8035333 C7.52693333,14.8035333 7.53883333,14.8148 7.53883333,14.8148 C7.53883333,14.8148 7.54213333,14.8179 7.54213333,14.8179 C7.54213333,14.8179 7.54343333,14.8191 7.54343333,14.8191 C7.54343333,14.8191 7.54343333,14.8191 7.54343333,14.8191 Z" id="形状" fill="#999999"></path>
        <rect id="矩形" fill="#999999" x="2.66666667" y="14" width="10.6666667" height="1.33333333"></rect>
        <path d="M8.66666667,6.33333333 C8.66666667,6.33333333 8.66666667,4.33333333 8.66666667,4.33333333 C8.66666667,4.33333333 7.33333333,4.33333333 7.33333333,4.33333333 C7.33333333,4.33333333 7.33333333,6.33333333 7.33333333,6.33333333 C7.33333333,6.33333333 5.33366667,6.33333333 5.33366667,6.33333333 C5.33366667,6.33333333 5.33336667,7.66666667 5.33336667,7.66666667 C5.33336667,7.66666667 7.33333333,7.66666667 7.33333333,7.66666667 C7.33333333,7.66666667 7.33333333,9.66666667 7.33333333,9.66666667 C7.33333333,9.66666667 8.66666667,9.66666667 8.66666667,9.66666667 C8.66666667,9.66666667 8.66666667,7.66666667 8.66666667,7.66666667 C8.66666667,7.66666667 10.6663333,7.66666667 10.6663333,7.66666667 C10.6663333,7.66666667 10.6666333,6.33333333 10.6666333,6.33333333 C10.6666333,6.33333333 8.66666667,6.33333333 8.66666667,6.33333333 C8.66666667,6.33333333 8.66666667,6.33333333 8.66666667,6.33333333 Z" id="路径" fill="#999999"></path>
    </g>
</svg>