<?xml version="1.0" encoding="UTF-8"?>
<svg width="16px" height="16px" viewBox="0 0 16 16" version="1.1" xmlns="http://www.w3.org/2000/svg" xmlns:xlink="http://www.w3.org/1999/xlink">
    <title>icon/消费类/el-icon-coin</title>
    <g id="icon/消费类/el-icon-coin" stroke="none" stroke-width="1" fill="none" fill-rule="evenodd">
        <path d="M8,1.33333333 C11.6818983,1.33333333 14.6666667,4.31810167 14.6666667,8 C14.6666667,11.6818983 11.6818983,14.6666667 8,14.6666667 C4.31810167,14.6666667 1.33333333,11.6818983 1.33333333,8 C1.33333333,4.31810167 4.31810167,1.33333333 8,1.33333333 Z M8,2.66666667 C5.05448133,2.66666667 2.66666667,5.05448133 2.66666667,8 C2.66666667,10.9455187 5.05448133,13.3333333 8,13.3333333 C10.9455187,13.3333333 13.3333333,10.9455187 13.3333333,8 C13.3333333,5.05448133 10.9455187,2.66666667 8,2.66666667 Z M9.46666667,4.26666667 L10.5333333,5.06666667 L9.33233333,6.66633333 L10.6666667,6.66666667 L10.6666667,8 L8.66666667,8 L8.66633333,9.33333333 L10.6666667,9.33333333 L10.6666667,10.6666667 L8.66633333,10.6663333 L8.66666667,12 L7.33333333,12 L7.33233333,10.6663333 L5.33333333,10.6666667 L5.33333333,9.33333333 L7.33233333,9.33333333 L7.33333333,8 L5.33333333,8 L5.33333333,6.66666667 L6.66633333,6.66633333 L5.46666667,5.06666667 L6.53333333,4.26666667 L8,6.222 L9.46666667,4.26666667 Z" id="形状结合" fill="#999999" fill-rule="nonzero"></path>
    </g>
</svg>