<?xml version="1.0" encoding="UTF-8"?>
<svg width="16px" height="16px" viewBox="0 0 16 16" version="1.1" xmlns="http://www.w3.org/2000/svg" xmlns:xlink="http://www.w3.org/1999/xlink">
    <title>icon/通用类/el-icon-office-building</title>
    <g id="icon/通用类/el-icon-office-building" stroke="none" stroke-width="1" fill="none" fill-rule="evenodd">
        <path d="M2,14.6666667 C1.63181017,14.6666667 1.33333333,14.3681898 1.33333333,14 C1.33333333,13.6318102 1.63181017,13.3333333 2,13.3333333 L2.66633333,13.333 L2.66666667,3.33333333 C2.66666667,2.59695367 3.26362033,2 4,2 L8,2 C8.73637967,2 9.33333333,2.59695367 9.33333333,3.33333333 L9.33333333,5.33333333 L12,5.33333333 C12.7363797,5.33333333 13.3333333,5.930287 13.3333333,6.66666667 L13.3323333,13.333 L14,13.3333333 C14.3681898,13.3333333 14.6666667,13.6318102 14.6666667,14 C14.6666667,14.3681898 14.3681898,14.6666667 14,14.6666667 L2,14.6666667 Z M8,3.33333333 L4,3.33333333 L4,13.3333333 L7.99933333,13.333 L8,3.33333333 Z M12,6.66666667 L9.33333333,6.66666667 L9.33333333,13.3333333 L12,13.3333333 L12,6.66666667 Z M6.66666667,8 C7.0348565,8 7.33333333,8.29847683 7.33333333,8.66666667 C7.33333333,9.0348565 7.0348565,9.33333333 6.66666667,9.33333333 L5.33333333,9.33333333 C4.9651435,9.33333333 4.66666667,9.0348565 4.66666667,8.66666667 C4.66666667,8.29847683 4.9651435,8 5.33333333,8 L6.66666667,8 Z M6.66666667,5.33333333 C7.0348565,5.33333333 7.33333333,5.63181017 7.33333333,6 C7.33333333,6.36818983 7.0348565,6.66666667 6.66666667,6.66666667 L5.33333333,6.66666667 C4.9651435,6.66666667 4.66666667,6.36818983 4.66666667,6 C4.66666667,5.63181017 4.9651435,5.33333333 5.33333333,5.33333333 L6.66666667,5.33333333 Z" id="形状结合" fill="#999999"></path>
    </g>
</svg>