<?xml version="1.0" encoding="UTF-8"?>
<svg width="16px" height="16px" viewBox="0 0 16 16" version="1.1" xmlns="http://www.w3.org/2000/svg" xmlns:xlink="http://www.w3.org/1999/xlink">
    <title>icon/通用类/icon-general-line-todo</title>
    <g id="icon/通用类/icon-general-line-todo" stroke="none" stroke-width="1" fill="none" fill-rule="evenodd">
        <path d="M10,1.33333333 C10.4935333,1.33333333 10.9244,1.601466 11.1549333,2 L12.6666667,2 C13.4030667,2 13.3333333,2.59695333 13.3333333,3.33333333 L13.3333333,11.3333333 C13.3333333,13.1742667 11.8409333,14.6666667 10,14.6666667 L3.87159115,14.6672123 C3.19545637,14.6720812 2.66666667,14.6930824 2.66666667,14 L2.66612127,3.20492438 C2.66125442,2.52878911 2.64027043,2 3.33333333,2 L4.84504,2 C5.07558,1.601466 5.50648,1.33333333 6,1.33333333 Z M4.66666667,3.33333333 L4,3.33333333 L4,13.3333333 L10,13.3333333 C11.1046,13.3333333 12,12.4379333 12,11.3333333 L12,3.33333333 L11.3333333,3.33333333 C11.3333333,4.06971333 10.7364,4.66666667 10,4.66666667 L6,4.66666667 C5.26362,4.66666667 4.66666667,4.06971333 4.66666667,3.33333333 Z M6.82324188,10.0200415 L6.74060847,9.94974747 L6.72123766,9.93037666 C6.70186685,9.91100585 6.66796793,9.87710693 6.61954091,9.82867991 L6.04325932,9.25239832 C5.8108096,9.0199486 5.52024745,8.72938645 5.17157288,8.38071187 L6.11438192,7.43790283 C6.23060678,7.55412769 6.3403747,7.66389561 6.44368568,7.7672066 L7.48029925,8.80382016 L7.36679383,8.69039713 C7.48019979,8.57699117 7.61406913,8.44312183 7.76840184,8.28878912 L8.77328884,7.28390212 C8.88709843,7.17009252 9.00608119,7.05110976 9.13023712,6.92695384 L9.51822438,6.53896658 C9.5854755,6.47171546 9.65401992,6.40317104 9.72385763,6.33333333 L10.6666667,7.27614237 L10.4610334,7.48177562 L10.0730462,7.86976288 C9.94889024,7.99391881 9.82990748,8.11290157 9.71609788,8.22671116 L9.39018858,8.55262046 C8.71767733,9.22513171 8.26373224,9.6790768 8.0283533,9.91445574 L7.8731584,10.0696506 C7.84987916,10.0929299 7.83823954,10.1045695 7.83823954,10.1045695 C7.57789225,10.3649168 7.1557825,10.3649215 6.8954305,10.1045695 L6.82513559,10.0219347 Z M10,2.66666667 L6,2.66666667 L6,3.33333333 L10,3.33333333 L10,2.66666667 Z" id="形状结合" fill="#999999"></path>
    </g>
</svg>