<?xml version="1.0" encoding="UTF-8"?>
<svg width="16px" height="16px" viewBox="0 0 16 16" version="1.1" xmlns="http://www.w3.org/2000/svg" xmlns:xlink="http://www.w3.org/1999/xlink">
    <title>icon/通用类/icon-general-line-import</title>
    <g id="icon/通用类/icon-general-line-import" stroke="none" stroke-width="1" fill="none" fill-rule="evenodd">
        <path d="M2,2 C2,2 10.6666667,2 10.6666667,2 C10.6666667,2 10.6666667,3.33333333 10.6666667,3.33333333 C10.6666667,3.33333333 3.33333333,3.33333333 3.33333333,3.33333333 C3.33333333,3.33333333 3.33333333,13.3333333 3.33333333,13.3333333 C3.33333333,13.3333333 10.6666667,13.3333333 10.6666667,13.3333333 C10.6666667,13.3333333 10.6666667,14.6666667 10.6666667,14.6666667 C10.6666667,14.6666667 2,14.6666667 2,14.6666667 C2,14.6666667 2,2 2,2 C2,2 2,2 2,2 Z M8.2284,9 C8.2284,9 10.1143667,10.8859667 10.1143667,10.8859667 C10.1143667,10.8859667 9.17156667,11.8287667 9.17156667,11.8287667 C9.17156667,11.8287667 5.67646667,8.3337 5.67646667,8.3337 C5.67646667,8.3337 9.17156667,4.83859333 9.17156667,4.83859333 C9.17156667,4.83859333 10.1143667,5.7814 10.1143667,5.7814 C10.1143667,5.7814 8.2291,7.66666667 8.2291,7.66666667 C8.2291,7.66666667 14.6666667,7.66666667 14.6666667,7.66666667 C14.6666667,7.66666667 14.6666667,9 14.6666667,9 C14.6666667,9 8.2284,9 8.2284,9 C8.2284,9 8.2284,9 8.2284,9 Z" id="形状" fill="#999999"></path>
    </g>
</svg>