<?xml version="1.0" encoding="UTF-8"?>
<svg width="16px" height="16px" viewBox="0 0 16 16" version="1.1" xmlns="http://www.w3.org/2000/svg" xmlns:xlink="http://www.w3.org/1999/xlink">
    <title>icon/基础类/el-icon-place</title>
    <g id="icon/基础类/el-icon-place" stroke="none" stroke-width="1" fill="none" fill-rule="evenodd">
        <path d="M8,0.666666667 C10.209139,0.666666667 12,2.45752767 12,4.66666667 C12,6.87580567 10.209139,8.66666667 8,8.66666667 C5.790861,8.66666667 4,6.87580567 4,4.66666667 C4,2.45752767 5.790861,0.666666667 8,0.666666667 Z M8,2 C6.52724067,2 5.33333333,3.19390733 5.33333333,4.66666667 C5.33333333,6.139426 6.52724067,7.33333333 8,7.33333333 C9.47275933,7.33333333 10.6666667,6.139426 10.6666667,4.66666667 C10.6666667,3.19390733 9.47275933,2 8,2 Z" id="椭圆形" fill="#999999" fill-rule="nonzero"></path>
        <rect id="矩形" fill="#999999" x="7.33333333" y="7.33333333" width="1.33333333" height="5.33333333"></rect>
        <path d="M14,12.6666667 C14,14.3177921 11.2918901,15.3333333 8,15.3333333 C4.70810985,15.3333333 2,14.3177921 2,12.6666667 C2,11.3666104 3.67892151,10.4605915 5.99979005,10.1340826 L5.99972186,11.489963 C4.4161804,11.7451851 3.33333333,12.2628321 3.33333333,12.6666667 C3.33333333,13.2246802 5.40085281,14 8,14 C10.5991472,14 12.6666667,13.2246802 12.6666667,12.6666667 C12.6666667,12.2629174 11.5842771,11.7454038 10.0012818,11.4901248 L10.0012084,10.1342231 C12.32156,10.4608513 14,11.3667969 14,12.6666667 Z" id="形状结合" fill="#979797" fill-rule="nonzero"></path>
    </g>
</svg>