<?xml version="1.0" encoding="UTF-8"?>
<svg width="16px" height="16px" viewBox="0 0 16 16" version="1.1" xmlns="http://www.w3.org/2000/svg" xmlns:xlink="http://www.w3.org/1999/xlink">
    <title>icon/面性/el-icon-star-on</title>
    <g id="icon/面性/el-icon-star-on" stroke="none" stroke-width="1" fill="none" fill-rule="evenodd">
        <path d="M8.74673333,2.00782459 C8.44103333,1.38845059 7.55783333,1.38845192 7.25216667,2.00782459 C7.25216667,2.00782459 5.6954,5.16212792 5.6954,5.16212792 C5.6954,5.16212792 2.21441333,5.66796126 2.21441333,5.66796126 C1.5308938,5.76729459 1.25797067,6.60726126 1.75256767,7.08936126 C1.75256767,7.08936126 4.27144333,9.54466126 4.27144333,9.54466126 C4.27144333,9.54466126 3.67681667,13.0115946 3.67681667,13.0115946 C3.56005667,13.6923613 4.27458333,14.2114946 4.88593333,13.8900946 C4.88593333,13.8900946 7.99943333,12.2532279 7.99943333,12.2532279 C7.99943333,12.2532279 11.1129333,13.8900946 11.1129333,13.8900946 C11.7243,14.2114946 12.4388333,13.6923613 12.3220667,13.0115946 C12.3220667,13.0115946 11.7274333,9.54466126 11.7274333,9.54466126 C11.7274333,9.54466126 14.2463,7.08936126 14.2463,7.08936126 C14.7409,6.60726126 14.468,5.76729459 13.7844667,5.66796126 C13.7844667,5.66796126 10.3034667,5.16212792 10.3034667,5.16212792 C10.3034667,5.16212792 8.74673333,2.00782459 8.74673333,2.00782459 C8.74673333,2.00782459 8.74673333,2.00782459 8.74673333,2.00782459 Z" id="路径" fill="#999999"></path>
    </g>
</svg>