<?xml version="1.0" encoding="UTF-8"?>
<svg width="16px" height="16px" viewBox="0 0 16 16" version="1.1" xmlns="http://www.w3.org/2000/svg" xmlns:xlink="http://www.w3.org/1999/xlink">
    <title>icon/通用类/icon-general-line-app</title>
    <g id="icon/通用类/icon-general-line-app" stroke="none" stroke-width="1" fill="none" fill-rule="evenodd">
        <g id="编组" transform="translate(1.3333, 1.3333)" fill="#999999">
            <path d="M6.66666667,0 C10.3485667,0 13.3333333,2.98477 13.3333333,6.66666667 C13.3333333,10.3485667 10.3485667,13.3333333 6.66666667,13.3333333 C2.98477,13.3333333 0,10.3485667 0,6.66666667 C0,2.98477 2.98477,0 6.66666667,0 Z M6.66666667,1.33333333 C3.72113333,1.33333333 1.33333333,3.72113333 1.33333333,6.66666667 C1.33333333,9.6122 3.72113333,12 6.66666667,12 C9.6122,12 12,9.6122 12,6.66666667 C12,3.72113333 9.6122,1.33333333 6.66666667,1.33333333 Z M10.7214207,4.45743259 C11.3657529,5.57344871 10.9833775,7.00049299 9.8673614,7.64482519 L8.71266086,8.31149186 L8.0459942,7.15679132 L9.20069473,6.49012466 C9.67898736,6.21398228 9.84286251,5.60239188 9.56672014,5.12409925 C9.29057776,4.64580663 8.67898736,4.48193147 8.20069473,4.75807385 L7.37143904,5.23684485 L7.30749686,8.75452911 L7.30116669,9.13087574 L5.81957598,9.98627253 C4.70355986,10.6306047 3.27651558,10.2482294 2.63218337,9.13221325 C1.98785117,8.01619713 2.37022653,6.58915285 3.48624265,5.94482064 L4.64094319,5.27815398 L5.30760985,6.43285452 L4.15290932,7.09952118 C3.67461669,7.37566356 3.51074154,7.98725396 3.78688391,8.46554659 L3.83900167,8.54666175 C4.13451686,8.96159609 4.70275155,9.0914707 5.15290932,8.83157199 L5.9808296,8.35357199 L6.03975497,4.84429096 L6.05304345,4.45842018 L7.53402807,3.60337331 C8.65004419,2.9590411 10.0770885,3.34141646 10.7214207,4.45743259 Z" id="形状结合"></path>
        </g>
    </g>
</svg>